<svg id="Слой_1" data-name="Слой 1" xmlns="http://www.w3.org/2000/svg" xmlns:xlink="http://www.w3.org/1999/xlink" viewBox="0 0 78 78"><defs><style>.cls-1{fill:#333348;stroke:#b3b3b3;opacity:0;}.cls-1,.cls-2,.cls-3,.cls-5{stroke-miterlimit:10;}.cls-2,.cls-3{stroke:gray;}.cls-2,.cls-3,.cls-5{stroke-width:0.75px;}.cls-2{fill:url(#Безымянный_градиент_4);}.cls-3{fill:url(#Безымянный_градиент_4-2);}.cls-4{fill:#29abe2;}.cls-5{fill:#feda53;stroke:#fbb03b;}</style><linearGradient id="Безымянный_градиент_4" x1="982.03" y1="553.4" x2="983.23" y2="612.38" gradientUnits="userSpaceOnUse"><stop offset="0" stop-color="#9999ab"/><stop offset="1" stop-color="#0071bc"/></linearGradient><linearGradient id="Безымянный_градиент_4-2" x1="989.27" y1="557.64" x2="989.84" y2="585.83" xlink:href="#Безымянный_градиент_4"/></defs><rect class="cls-1" x="0.5" y="0.5" width="77" height="77"/><path class="cls-2" d="M998.76,547.67H995v-.26a12.91,12.91,0,0,0-12.91-12.92h0a12.91,12.91,0,0,0-12.91,12.92v.26h-3.63a12.91,12.91,0,1,0,0,25.82h33.17a12.91,12.91,0,0,0,0-25.82Z" transform="translate(-944.26 -521.72)"/><path class="cls-3" d="M998.53,554.9h-2.06v-.13c0-3.4-3.2-6.16-7.16-6.16h0c-3.95,0-7.16,2.76-7.16,6.16v.13h-2c-4,0-7.16,2.76-7.16,6.16s3.2,6.16,7.16,6.16h18.39c4,0,7.17-2.76,7.17-6.16S1002.49,554.9,998.53,554.9Z" transform="translate(-944.26 -521.72)"/><path class="cls-4" d="M972.68,576.58a10.81,10.81,0,0,0-5.95,3.67,3,3,0,0,0-.55,3.33,3.46,3.46,0,0,0,4,1.08,2.76,2.76,0,0,0,1.11-1c1.35-2.13.45-4.7,1.72-6.85" transform="translate(-944.26 -521.72)"/><path class="cls-4" d="M999.25,577.15a10.78,10.78,0,0,0-6,3.67,3,3,0,0,0-.55,3.33,3.46,3.46,0,0,0,4,1.08,2.73,2.73,0,0,0,1.1-1c1.35-2.13.45-4.7,1.73-6.85" transform="translate(-944.26 -521.72)"/><path class="cls-4" d="M976.25,586.15a10.78,10.78,0,0,0-6,3.67,3,3,0,0,0-.55,3.33,3.46,3.46,0,0,0,4,1.08,2.73,2.73,0,0,0,1.1-1c1.35-2.13.45-4.7,1.73-6.85" transform="translate(-944.26 -521.72)"/><path class="cls-4" d="M990.25,586.15a10.78,10.78,0,0,0-6,3.67,3,3,0,0,0-.55,3.33,3.46,3.46,0,0,0,4,1.08,2.73,2.73,0,0,0,1.1-1c1.35-2.13.45-4.7,1.73-6.85" transform="translate(-944.26 -521.72)"/><path class="cls-5" d="M995.29,568.33a.91.91,0,0,0-.76,0H988.2l3-13.65c.06-.27-.19-.53-.57-.57a.82.82,0,0,0-.63.18.52.52,0,0,0-.22.16l-14.15,17.92a.38.38,0,0,0,0,.43.43.43,0,0,1,0,0c0,.28.31.51.68.51h6.64l-3,13.31c-.06.27.19.53.57.58a.82.82,0,0,0,.63-.18.66.66,0,0,0,.23-.17L995.54,569C995.73,568.78,995.62,568.47,995.29,568.33Z" transform="translate(-944.26 -521.72)"/></svg>