<svg id="Слой_1" data-name="Слой 1" xmlns="http://www.w3.org/2000/svg" xmlns:xlink="http://www.w3.org/1999/xlink" viewBox="0 0 78 78"><defs><style>.cls-1{fill:#e2e6ed;stroke:#000;opacity:0;}.cls-1,.cls-2,.cls-3{stroke-miterlimit:10;}.cls-2{stroke:#e6e6e6;stroke-width:0.75px;fill:url(#Безымянный_градиент_3);}.cls-3{fill:#fff;stroke:#29abe2;}</style><linearGradient id="Безымянный_градиент_3" x1="983.25" y1="556.47" x2="984.45" y2="615.46" gradientUnits="userSpaceOnUse"><stop offset="0" stop-color="#fff"/><stop offset="1" stop-color="#0071bc"/></linearGradient></defs><rect class="cls-1" x="0.5" y="0.5" width="77" height="77"/><path class="cls-2" d="M1000,550.74h-3.72v-.26a12.91,12.91,0,0,0-12.91-12.91h0a12.92,12.92,0,0,0-12.92,12.91v.26H966.8a12.92,12.92,0,0,0,0,25.83H1000a12.92,12.92,0,0,0,0-25.83Z" transform="translate(-944.26 -521.72)"/><path class="cls-3" d="M985.69,579.53l-2.39-2.21h3.56a1.23,1.23,0,0,0,0-2.46h-3.63l2.46-2.28a1.17,1.17,0,0,0,0-1.74,1.41,1.41,0,0,0-1.88,0L981.47,573v-3a1.33,1.33,0,0,0-2.65,0v3.12l-2.5-2.32a1.39,1.39,0,0,0-1.87,0,1.17,1.17,0,0,0,0,1.74l2.46,2.28h-3.48a1.23,1.23,0,1,0,0,2.46h3.4l-2.38,2.21a1.17,1.17,0,0,0,0,1.74,1.39,1.39,0,0,0,1.87,0l2.5-2.32v3.19a1.33,1.33,0,0,0,2.65,0v-3l2.34,2.18a1.41,1.41,0,0,0,1.88,0A1.17,1.17,0,0,0,985.69,579.53Z" transform="translate(-944.26 -521.72)"/><path class="cls-3" d="M1000,587.93H996.4l2.46-2.28a1.18,1.18,0,0,0,0-1.74,1.41,1.41,0,0,0-1.88,0l-2.34,2.18v-3a1.33,1.33,0,0,0-2.65,0v3.12l-2.5-2.32a1.39,1.39,0,0,0-1.87,0,1.17,1.17,0,0,0,0,1.74l2.46,2.28H986.6a1.23,1.23,0,0,0,0,2.46H990l-2.38,2.21a1.17,1.17,0,0,0,0,1.74,1.39,1.39,0,0,0,1.87,0L992,592v3.19a1.33,1.33,0,1,0,2.65,0v-3.05l2.34,2.18a1.41,1.41,0,0,0,1.88,0,1.18,1.18,0,0,0,0-1.74l-2.39-2.21H1000a1.23,1.23,0,0,0,0-2.46Z" transform="translate(-944.26 -521.72)"/><path class="cls-3" d="M978.84,589.57H975.2l2.46-2.28a1.17,1.17,0,0,0,0-1.74h0a1.39,1.39,0,0,0-1.87,0l-2.34,2.18v-3a1.33,1.33,0,0,0-2.65,0v3.12l-2.5-2.32a1.41,1.41,0,0,0-1.88,0,1.18,1.18,0,0,0,0,1.74l2.47,2.28H965.4a1.23,1.23,0,1,0,0,2.46h3.41l-2.39,2.21a1.18,1.18,0,0,0,0,1.74,1.41,1.41,0,0,0,1.88,0l2.5-2.32v3.19a1.33,1.33,0,0,0,2.65,0V593.8l2.34,2.18a1.39,1.39,0,0,0,1.87,0,1.17,1.17,0,0,0,0-1.74L975.28,592h3.56a1.23,1.23,0,1,0,0-2.46Z" transform="translate(-944.26 -521.72)"/></svg>