<svg id="Слой_1" data-name="Слой 1" xmlns="http://www.w3.org/2000/svg" xmlns:xlink="http://www.w3.org/1999/xlink" viewBox="0 0 59.75 61.1"><defs><style>.cls-1,.cls-2{stroke:gray;stroke-width:0.75px;}.cls-1,.cls-2,.cls-3{stroke-miterlimit:10;}.cls-1{fill:url(#Безымянный_градиент_12);}.cls-2{fill:url(#Безымянный_градиент_12-2);}.cls-3{fill:#fff;stroke:#29abe2;}</style><linearGradient id="Безымянный_градиент_12" x1="279.57" y1="253.68" x2="280.77" y2="312.67" gradientUnits="userSpaceOnUse"><stop offset="0" stop-color="#b3b3b3"/><stop offset="1" stop-color="#0071bc"/></linearGradient><linearGradient id="Безымянный_градиент_12-2" x1="286.81" y1="257.93" x2="287.38" y2="286.12" xlink:href="#Безымянный_градиент_12"/></defs><path class="cls-1" d="M296.3,248h-3.71v-.26a12.91,12.91,0,0,0-12.92-12.91h0a12.91,12.91,0,0,0-12.91,12.91V248h-3.63a12.92,12.92,0,0,0,0,25.83H296.3a12.92,12.92,0,1,0,0-25.83Z" transform="translate(-249.84 -234.41)"/><path class="cls-2" d="M296.08,255.19H294v-.13c0-3.4-3.21-6.16-7.16-6.16h0c-4,0-7.16,2.76-7.16,6.16v.13h-2c-3.95,0-7.16,2.75-7.16,6.16s3.21,6.16,7.16,6.16h18.4c3.95,0,7.16-2.76,7.16-6.16S300,255.19,296.08,255.19Z" transform="translate(-249.84 -234.41)"/><path class="cls-3" d="M282.69,276.37l-2.39-2.22h3.56a1.23,1.23,0,1,0,0-2.45h-3.63l2.46-2.29a1.15,1.15,0,0,0,0-1.73,1.41,1.41,0,0,0-1.88,0l-2.34,2.17v-3a1.33,1.33,0,1,0-2.65,0V270l-2.5-2.31a1.39,1.39,0,0,0-1.87,0,1.15,1.15,0,0,0,0,1.73l2.46,2.29h-3.48a1.23,1.23,0,1,0,0,2.45h3.4l-2.38,2.22a1.15,1.15,0,0,0,0,1.73,1.39,1.39,0,0,0,1.87,0l2.5-2.31V279a1.33,1.33,0,1,0,2.65,0v-3l2.34,2.17a1.41,1.41,0,0,0,1.88,0A1.15,1.15,0,0,0,282.69,276.37Z" transform="translate(-249.84 -234.41)"/><path class="cls-3" d="M297,284.77H293.4l2.46-2.28a1.18,1.18,0,0,0,0-1.74,1.41,1.41,0,0,0-1.88,0l-2.34,2.17v-3a1.33,1.33,0,1,0-2.65,0v3.12l-2.5-2.32a1.39,1.39,0,0,0-1.87,0,1.17,1.17,0,0,0,0,1.74l2.46,2.28H283.6a1.23,1.23,0,0,0,0,2.46H287l-2.38,2.21a1.17,1.17,0,0,0,0,1.74,1.39,1.39,0,0,0,1.87,0l2.5-2.32v3.19a1.33,1.33,0,0,0,2.65,0V289l2.34,2.18a1.41,1.41,0,0,0,1.88,0,1.18,1.18,0,0,0,0-1.74l-2.39-2.21H297a1.23,1.23,0,0,0,0-2.46Z" transform="translate(-249.84 -234.41)"/><path class="cls-3" d="M275.84,286.41H272.2l2.46-2.29a1.15,1.15,0,0,0,0-1.73h0a1.39,1.39,0,0,0-1.87,0l-2.34,2.17v-3a1.33,1.33,0,1,0-2.65,0v3.11l-2.5-2.31a1.41,1.41,0,0,0-1.88,0,1.17,1.17,0,0,0,0,1.73l2.47,2.29H262.4a1.23,1.23,0,1,0,0,2.45h3.41l-2.39,2.22a1.17,1.17,0,0,0,0,1.73,1.41,1.41,0,0,0,1.88,0l2.5-2.31v3.18a1.33,1.33,0,1,0,2.65,0v-3l2.34,2.17a1.39,1.39,0,0,0,1.87,0,1.15,1.15,0,0,0,0-1.73l-2.38-2.22h3.56a1.23,1.23,0,1,0,0-2.45Z" transform="translate(-249.84 -234.41)"/></svg>