<svg id="Слой_1" data-name="Слой 1" xmlns="http://www.w3.org/2000/svg" xmlns:xlink="http://www.w3.org/1999/xlink" viewBox="0 0 78 78"><defs><style>.cls-1{fill:#333348;stroke:#b3b3b3;opacity:0;}.cls-1,.cls-2,.cls-3,.cls-4{stroke-miterlimit:10;}.cls-2,.cls-3{stroke:gray;stroke-width:0.75px;}.cls-2{fill:url(#Безымянный_градиент_4);}.cls-3{fill:url(#Безымянный_градиент_4-2);}.cls-4{fill:#fff;stroke:#29abe2;}</style><linearGradient id="Безымянный_градиент_4" x1="984.72" y1="552.99" x2="985.92" y2="611.98" gradientUnits="userSpaceOnUse"><stop offset="0" stop-color="#9999ab"/><stop offset="1" stop-color="#0071bc"/></linearGradient><linearGradient id="Безымянный_градиент_4-2" x1="991.96" y1="557.24" x2="992.54" y2="585.42" xlink:href="#Безымянный_градиент_4"/></defs><rect class="cls-1" x="0.5" y="0.5" width="77" height="77"/><path class="cls-2" d="M1001.46,547.26h-3.72V547a12.91,12.91,0,0,0-12.91-12.91h0A12.91,12.91,0,0,0,971.91,547v.26h-3.63a12.92,12.92,0,0,0,0,25.83h33.18a12.92,12.92,0,0,0,0-25.83Z" transform="translate(-944.26 -521.72)"/><path class="cls-3" d="M1001.23,554.49h-2.06v-.12c0-3.4-3.21-6.16-7.16-6.16h0c-4,0-7.16,2.76-7.16,6.16v.12h-2c-4,0-7.16,2.76-7.16,6.16s3.21,6.17,7.16,6.17h18.4c4,0,7.16-2.76,7.16-6.17S1005.19,554.49,1001.23,554.49Z" transform="translate(-944.26 -521.72)"/><path class="cls-4" d="M987.84,575.67l-2.38-2.21H989a1.23,1.23,0,0,0,0-2.46h-3.64l2.46-2.28a1.17,1.17,0,0,0,0-1.74,1.39,1.39,0,0,0-1.87,0l-2.35,2.18v-3a1.33,1.33,0,0,0-2.65,0v3.12l-2.5-2.32a1.39,1.39,0,0,0-1.87,0,1.17,1.17,0,0,0,0,1.74l2.46,2.28h-3.48a1.23,1.23,0,1,0,0,2.46H979l-2.38,2.21a1.17,1.17,0,0,0,0,1.74,1.39,1.39,0,0,0,1.87,0l2.5-2.32v3.19a1.33,1.33,0,0,0,2.65,0v-3l2.35,2.18a1.39,1.39,0,0,0,1.87,0A1.17,1.17,0,0,0,987.84,575.67Z" transform="translate(-944.26 -521.72)"/><path class="cls-4" d="M1002.18,584.07h-3.63l2.46-2.28a1.17,1.17,0,0,0,0-1.74,1.39,1.39,0,0,0-1.87,0l-2.35,2.18v-3a1.33,1.33,0,1,0-2.65,0v3.11l-2.5-2.32a1.39,1.39,0,0,0-1.87,0,1.17,1.17,0,0,0,0,1.74l2.46,2.28h-3.48a1.23,1.23,0,1,0,0,2.46h3.4l-2.38,2.21a1.17,1.17,0,0,0,0,1.74,1.39,1.39,0,0,0,1.87,0l2.5-2.32v3.19a1.33,1.33,0,1,0,2.65,0v-3l2.35,2.17a1.39,1.39,0,0,0,1.87,0,1.17,1.17,0,0,0,0-1.74l-2.38-2.21h3.55a1.23,1.23,0,1,0,0-2.46Z" transform="translate(-944.26 -521.72)"/><path class="cls-4" d="M981,585.71h-3.63l2.46-2.28a1.18,1.18,0,0,0,0-1.74h0a1.41,1.41,0,0,0-1.88,0l-2.34,2.18v-3a1.33,1.33,0,0,0-2.65,0V584l-2.5-2.32a1.39,1.39,0,0,0-1.87,0,1.17,1.17,0,0,0,0,1.74l2.46,2.28h-3.49a1.23,1.23,0,0,0,0,2.46H971l-2.38,2.21a1.17,1.17,0,0,0,0,1.74,1.39,1.39,0,0,0,1.87,0l2.5-2.32V593a1.33,1.33,0,1,0,2.65,0v-3l2.34,2.18a1.41,1.41,0,0,0,1.88,0,1.18,1.18,0,0,0,0-1.74l-2.39-2.21H981a1.23,1.23,0,0,0,0-2.46Z" transform="translate(-944.26 -521.72)"/></svg>