<svg xmlns="http://www.w3.org/2000/svg" xmlns:xlink="http://www.w3.org/1999/xlink" viewBox="0 0 136.36 136.37"><defs><style>.cls-1{isolation:isolate;}.cls-2{opacity:0.6;fill:url(#radial-gradient);}.cls-3{fill:#a9a9aa;}.cls-3,.cls-5,.cls-8{opacity:0.52;}.cls-4{fill:url(#radial-gradient-2);}.cls-5,.cls-7,.cls-9{fill:#fff;}.cls-6{opacity:0.5;}.cls-10,.cls-9{opacity:0.52;}.cls-11{mix-blend-mode:multiply;fill:url(#radial-gradient-3);}</style><radialGradient id="radial-gradient" cx="960.28" cy="539.94" r="68.07" gradientUnits="userSpaceOnUse"><stop offset="0.25" stop-color="#fff"/><stop offset="0.64" stop-color="#fff" stop-opacity="0.72"/><stop offset="0.73" stop-color="#fff" stop-opacity="0.5"/><stop offset="0.82" stop-color="#fff" stop-opacity="0.29"/><stop offset="0.9" stop-color="#fff" stop-opacity="0.13"/><stop offset="0.96" stop-color="#fff" stop-opacity="0.03"/><stop offset="1" stop-color="#fff" stop-opacity="0"/></radialGradient><radialGradient id="radial-gradient-2" cx="959.72" cy="538.72" r="56.41" gradientUnits="userSpaceOnUse"><stop offset="0" stop-color="#787979"/><stop offset="0.79" stop-color="#a6a6a7"/><stop offset="0.84" stop-color="#a9a9aa"/><stop offset="0.94" stop-color="#d7d7d7"/><stop offset="1" stop-color="#f3f3f3"/></radialGradient><radialGradient id="radial-gradient-3" cx="959.18" cy="538.97" r="56.5" gradientUnits="userSpaceOnUse"><stop offset="0.95" stop-color="#121211"/><stop offset="0.96" stop-color="#151514"/><stop offset="0.97" stop-color="#20201f"/><stop offset="0.99" stop-color="#313130"/><stop offset="1" stop-color="#494948"/><stop offset="1" stop-color="#4f4f4e"/></radialGradient></defs><g class="cls-1"><g id="Слой_1" data-name="Слой 1"><path class="cls-2" d="M1027.9,540.49a68.18,68.18,0,1,1-68.18-68.18A68.18,68.18,0,0,1,1027.9,540.49Z" transform="translate(-891.54 -472.31)"/><path class="cls-3" d="M1016.13,538.72a56.41,56.41,0,1,1-56.41-56.41A56.42,56.42,0,0,1,1016.13,538.72Z" transform="translate(-891.54 -472.31)"/><path class="cls-4" d="M1016.13,538.72a56.41,56.41,0,1,1-56.41-56.41A56.42,56.42,0,0,1,1016.13,538.72Z" transform="translate(-891.54 -472.31)"/><path class="cls-5" d="M903.31,538.72h0c.32,1.13,1.13,2.1,2.35,1.67s.54-.95,1-1.81c.83-1.57,1.52.36,2.91.09a2.24,2.24,0,0,0-.64-2.16,3.3,3.3,0,0,1,1.38.1c1.66.41,3.11,1,4.93.72,3.32-.48-.74-1.24-1.61-1.78a3.36,3.36,0,0,0,2.22-2.1c.47-1.44,0-1.32,1.53-2,1-.47,1.87-.8,1.4-2.24-.33-1-1.41-1.34-1.66-2.48,1.29-.06,3.11.42,4.12-.4a1.6,1.6,0,0,0-1-2.88c-.11-1,0-2.45,1.35-2.19v-.38c-2.72-.15.4-2.35.15-2.89s-1.24-.13-1.54-.35-.07-.55-.32-1a4.18,4.18,0,0,1-.76-2.74,2.42,2.42,0,0,1,.5-.16c1.42,3.12,3.8,1.22,5.89.67.38-.1.22-.43.71-.41.82,0,1.55.81,2.36,1a1.62,1.62,0,0,0,2.21-1.23c.26-.65.18-1.47.57-1.95.65-.82,1.36-.3,2.22-.56,1.59-.47,1.86-1.57,1.8-3.19-1.74-.06-3.5,0-5.25,0,.78-.09.91-.8.79-1.51-.81-.05-1.71.1-2.5,0-1.3-.21-1.08,0-.93-1.14.09-.59,1.15-1.89.08-2.21-.64-.19-1.07.39-1.11,1-.95-.1-.93.83-1.68,1.14s-1.46-.45-1.9-.45c-1.76,0-3.73,1.86-3.31-1.07,1.32-.36,2.33-.27,3.44-1a7.91,7.91,0,0,1,3.42-1.56c1.59-.16,3,1.37,4.51.84.6-.21,1.05-.33,1.08-1.23,0-1.13-.68-.67-1.87-.74.1-2.94-2.68-.61-2.85-2.33-1.07-.28-1.34.93-2.22,1.2-1.27.4-2.54-.8-3.85-1.45A56.25,56.25,0,0,0,903.31,538.72Z" transform="translate(-891.54 -472.31)"/><path class="cls-5" d="M921,497.67l3,2c-.84.77-2.76,0-3.77-.25.07-.3.06-.83.09-1.05h0a2.53,2.53,0,0,1-.31.59,1.11,1.11,0,0,0-.16-.12l-.65.66c0,.18-.08.36-.13.53a2.26,2.26,0,0,0-.37,0c-.75.79-1.47,1.61-2.17,2.44a4.45,4.45,0,0,1,1.13.27c.25.12.59,0,.82.19s.06.78.26.91c1.34.83,2.37-.23,3.64-.5.84-.18,2,.12,2.84,0,1.13-.12,1.43-.38,2.5.21a4.87,4.87,0,0,0,.26-1.75,7.58,7.58,0,0,0,2.69,0,6.12,6.12,0,0,0,1.35-.13c.67-.38.58-1.32,1.39-1.45.38-1.23,1.26-.84,2.14-1.38s.67-1.44,1.32-1.67c0,2.28-.08,3.22,2.54,3.92,1.84.49,2,.14,2.44-1.33,1.31-.54.43-2.05,2.25-2.25-.08-.33,0-.93-.13-1.24,1.8.19,3.52-1.19,5.45-.76a13.17,13.17,0,0,0,.72-2.94c-1.84-.48-2.52-.73-3.56-2.35a5.23,5.23,0,0,1,1.67-.19c-.73,1.55,2,1.88,3,2.22,1.82.65,1.69.63,1.55,2.24.83.27,3.12.26,3.73.9s-.06,1.31.55,2c1.14,1.33,2.17,0,2,2-.11,1.29-1.23,2.15-1.35,3.23,1.94.25.24,3.11-.09,4.13a9.26,9.26,0,0,0-.27,4.5A6.16,6.16,0,0,0,959,513.7c.37.37.79.49,1,.84.08.11,0,.81.15,1.08s.73.43,1,.71.22.76.52,1.13c1.51,1.84,5.24,3,7.49,3.46-1.3-.57-2.95-2.54-4.17-3.51-1-.82-1.31-1.22-.43-2.8,1.48-2.69,4.93-1.09,6.54-3.11,2.24-2.82-3.66-5-1.59-7.33.66-.75,1.39-.2,2-.26a2.58,2.58,0,0,0,2.61-2.43l-.23-.09c1-1.25,4.05.79,5.57-.62-2.32-.62-2-1.24-1.51-3.17a4.72,4.72,0,0,0-1.85-.54c1.39-.19,1.52-1.1.62-2s-2.66-.82-3.76-1.37c.3-1.16,1.86-.37,1.9-1.63-2.54-1.28-6.64-1.81-9.52-2a5.11,5.11,0,0,1-.34-.95c2-1.66,2.44-4.94.28-6.51a54.35,54.35,0,0,0-5.59-.28A56.2,56.2,0,0,0,921,497.67Z" transform="translate(-891.54 -472.31)"/><g class="cls-6"><path class="cls-7" d="M990.38,521.35c-.39-.21-.79-1.35-1.07-1.88-.47-.94-2-3-2-2.12-.19,1.82,2.22,3.54,3,5.29a10.11,10.11,0,0,1,.35,3.9,17.46,17.46,0,0,0,.45,4c.38,1.93.84,4.73-.3,6.42-.24.36-1,1.26-1.26.67s-.18-2-.35-2.82c-.13-.62-.25-1.16-.59-1.3-.19-.09-.33.39-.49.36s-.27-.25-.47-.45-.38-.66-.65-.41-.27,2.39-.68,1.83c-.7-1-.53-2.67-.91-3.87a3.11,3.11,0,0,0-.88-1.32c-.35-.14-.23.42-.58.5-.53.13-1.35-1.09-1.92-1.42-1-.57-1.31.1-2.1.31-.26.07-.52,0-.64.25s.09.68-.05,1-.44.22-.57.68a6,6,0,0,0-.25,1.36c0,.56,0,.52.32.93a3.58,3.58,0,0,1,.74,1.62c.37,1.5.84,1.56,1.52,2.44.23.3.87,1.11.74,1.53-.34-.53-1-.8-1,.4,0,.31.27.65.3,1a2.37,2.37,0,0,1-.17,1.14c-.47-.22-.59-.86-1-.07a8.26,8.26,0,0,0-.36,1.39,3.46,3.46,0,0,1-.35,1.35c-.33.64-.66,1.29-1,1.92l-.31-.59c-1.15,1.24-.41,3.2-.78,4.62-.21.83-1.22,1.65-1.61,1.6s-.31-.25-.63-.09-.6.71-.92.87c-.68.34-1.1-.28-.79-1.1a5.5,5.5,0,0,1,1.64-2.29c.21-.19.83-.7.86-1.1s-.33-.49-.37-.71c-.12-.58.41-1.32.08-1.9-.63.42-.74.13-.93-.25a1.85,1.85,0,0,1-.74.17,11.66,11.66,0,0,1,.5,1.23c-.77,1-1-.23-1.64.62.06.11,0,.33.13.44-.57.76-.71.25-1.25.24-.29,0-.31.13-.6.31s-.26.21-.7.14c-.75-.11-1.49.57-2.22.61s-2,.06-2.3.92a2.73,2.73,0,0,1,.05.38c0,.15-.26.23-.28.39-.09.55.21.28.54.18a6.08,6.08,0,0,1,.92-.28c.32,0,.56.25.84.33s1.12.22.63.87c-.18.25-.55.18-.68.52a.87.87,0,0,0,.19.81c-.24.47-.5.58-.28,1.09.13.29.42.38.36.79a2,2,0,0,1-1.77.43c-.22.92-3.13.19-3.59.55s.1,1,.08,1.54c0,.12.12.27.08.36s-.6.3-.66.5.18.28.26.51c.17.49-.25,1-.15,1.47s1.79.25.39,1.31a7.73,7.73,0,0,0-1.78,1.83c-.53.77,0,.85-.12,1.52a5.53,5.53,0,0,1-.63,1.12c-.21.41-.29.83-.51,1.24a2.72,2.72,0,0,0,1.69-.12c.12-.1.2-.49.24-.61,1.06-.38.46.22.73.59s.94.09,1.47,0a9,9,0,0,0-.38,1.1,2.55,2.55,0,0,1-.25,1.28,7,7,0,0,1-1.55,1.65,3.36,3.36,0,0,1-1.45.9c-.81.36-.44.46-1,.9s-2,.45-2.87.95c-.28.16-.36.37-.61.49-.58.28-1.58.24-2.12.6s0,.64-.42,1.07c-.71,0-3.18-.36-3.23.53,0,.37,1.08.75,1.71.76a2,2,0,0,0,1.61-.67c1.45,0-.49,1-.12,1.48s2.6.48,3.5.44c1.46-.06,1.77-1,3.15-.91a9.19,9.19,0,0,1,1.94.07,1.11,1.11,0,0,1,.42,1.48c-.21.41-1.16,1.14-1.21,1.51s.87.49,1.46.28.44-.56,1-.93c.86-.63,2.09-.54,3-1,1.25-.72,1.53-2.21,2.52-3.13.62-.59,1.61-.71,2.22-1.45.44-.54.56-1.44.33-1.7a39,39,0,0,0,3.86-1.15c.26-.71-.18-1.25-.35-1.68a1.82,1.82,0,0,0-1-.92c-.22-.12-.6-.19-.43-.58.66-.31,2.27-.89,2.78-1.7a1.76,1.76,0,0,0,.21-.79,6.15,6.15,0,0,0-.12-.91c.18-.55.67-.49,1.09-1.06.6-.83.46-1.4,1.4-1.69a15.46,15.46,0,0,0,.14,2.11c.14.89,1,.46,2-.32,0-.08,0-.15,0-.22.43-.18.06,2,.2,2.42.32,1,1.1.68,2.2,0-.07,1.13.5,2.54,1.29,2.45,1.4-.18,2.75-1.76,3.61-3,.16-.22.16-.57.37-.77s.5,0,.73-.09a9.11,9.11,0,0,0,2-1.4c.63-.51,1.19-.83,1.82-1.36a5.56,5.56,0,0,0,1.33-1.39,2.66,2.66,0,0,0,.1-1.54c-.06-1.55,1-2.54,1.91-3.64a13.85,13.85,0,0,1-.28-1.8c0-.69,0-.12.21-.89.35-1.4.27-2.22.68-3.63.5-1.77.58-3.56-.34-2.86s-.72.25-.65-1.81c0-.6-.07-1.13-.06-1.64a11,11,0,0,0,0-2.75c-.24-1-.77-1.23-1.12-1.72a8.84,8.84,0,0,1-1-2.61c-.25-.74-.42-.46-.62-.6a2,2,0,0,1-.6-.73c.58-2.67,0-5.57-.42-8.17-.33-2-.05-4.79-1.69-6.28C990.54,520.54,990.8,521.58,990.38,521.35Z" transform="translate(-891.54 -472.31)"/></g><g class="cls-6"><path class="cls-7" d="M990.38,521.35c-.39-.21-.79-1.35-1.07-1.88-.47-.94-2-3-2-2.12-.19,1.82,2.22,3.54,3,5.29a10.11,10.11,0,0,1,.35,3.9,17.46,17.46,0,0,0,.45,4c.38,1.93.84,4.73-.3,6.42-.24.36-1,1.26-1.26.67s-.18-2-.35-2.82c-.13-.62-.25-1.16-.59-1.3-.19-.09-.33.39-.49.36s-.27-.25-.47-.45-.38-.66-.65-.41-.27,2.39-.68,1.83c-.7-1-.53-2.67-.91-3.87a3.11,3.11,0,0,0-.88-1.32c-.35-.14-.23.42-.58.5-.53.13-1.35-1.09-1.92-1.42-1-.57-1.31.1-2.1.31-.26.07-.52,0-.64.25s.09.68-.05,1-.44.22-.57.68a6,6,0,0,0-.25,1.36c0,.56,0,.52.32.93a3.58,3.58,0,0,1,.74,1.62c.37,1.5.84,1.56,1.52,2.44.23.3.87,1.11.74,1.53-.34-.53-1-.8-1,.4,0,.31.27.65.3,1a2.37,2.37,0,0,1-.17,1.14c-.47-.22-.59-.86-1-.07a8.26,8.26,0,0,0-.36,1.39,3.46,3.46,0,0,1-.35,1.35c-.33.64-.66,1.29-1,1.92l-.31-.59c-1.15,1.24-.41,3.2-.78,4.62-.21.83-1.22,1.65-1.61,1.6s-.31-.25-.63-.09-.6.71-.92.87c-.68.34-1.1-.28-.79-1.1a5.5,5.5,0,0,1,1.64-2.29c.21-.19.83-.7.86-1.1s-.33-.49-.37-.71c-.12-.58.41-1.32.08-1.9-.63.42-.74.13-.93-.25a1.85,1.85,0,0,1-.74.17,11.66,11.66,0,0,1,.5,1.23c-.77,1-1-.23-1.64.62.06.11,0,.33.13.44-.57.76-.71.25-1.25.24-.29,0-.31.13-.6.31s-.26.21-.7.14c-.75-.11-1.49.57-2.22.61s-2,.06-2.3.92a2.73,2.73,0,0,1,.05.38c0,.15-.26.23-.28.39-.09.55.21.28.54.18a6.08,6.08,0,0,1,.92-.28c.32,0,.56.25.84.33s1.12.22.63.87c-.18.25-.55.18-.68.52a.87.87,0,0,0,.19.81c-.24.47-.5.58-.28,1.09.13.29.42.38.36.79a2,2,0,0,1-1.77.43c-.22.92-3.13.19-3.59.55s.1,1,.08,1.54c0,.12.12.27.08.36s-.6.3-.66.5.18.28.26.51c.17.49-.25,1-.15,1.47s1.79.25.39,1.31a7.73,7.73,0,0,0-1.78,1.83c-.53.77,0,.85-.12,1.52a5.53,5.53,0,0,1-.63,1.12c-.21.41-.29.83-.51,1.24a2.72,2.72,0,0,0,1.69-.12c.12-.1.2-.49.24-.61,1.06-.38.46.22.73.59s.94.09,1.47,0a9,9,0,0,0-.38,1.1,2.55,2.55,0,0,1-.25,1.28,7,7,0,0,1-1.55,1.65,3.36,3.36,0,0,1-1.45.9c-.81.36-.44.46-1,.9s-2,.45-2.87.95c-.28.16-.36.37-.61.49-.58.28-1.58.24-2.12.6s0,.64-.42,1.07c-.71,0-3.18-.36-3.23.53,0,.37,1.08.75,1.71.76a2,2,0,0,0,1.61-.67c1.45,0-.49,1-.12,1.48s2.6.48,3.5.44c1.46-.06,1.77-1,3.15-.91a9.19,9.19,0,0,1,1.94.07,1.11,1.11,0,0,1,.42,1.48c-.21.41-1.16,1.14-1.21,1.51s.87.49,1.46.28.44-.56,1-.93c.86-.63,2.09-.54,3-1,1.25-.72,1.53-2.21,2.52-3.13.62-.59,1.61-.71,2.22-1.45.44-.54.56-1.44.33-1.7a39,39,0,0,0,3.86-1.15c.26-.71-.18-1.25-.35-1.68a1.82,1.82,0,0,0-1-.92c-.22-.12-.6-.19-.43-.58.66-.31,2.27-.89,2.78-1.7a1.76,1.76,0,0,0,.21-.79,6.15,6.15,0,0,0-.12-.91c.18-.55.67-.49,1.09-1.06.6-.83.46-1.4,1.4-1.69a15.46,15.46,0,0,0,.14,2.11c.14.89,1,.46,2-.32,0-.08,0-.15,0-.22.43-.18.06,2,.2,2.42.32,1,1.1.68,2.2,0-.07,1.13.5,2.54,1.29,2.45,1.4-.18,2.75-1.76,3.61-3,.16-.22.16-.57.37-.77s.5,0,.73-.09a9.11,9.11,0,0,0,2-1.4c.63-.51,1.19-.83,1.82-1.36a5.56,5.56,0,0,0,1.33-1.39,2.66,2.66,0,0,0,.1-1.54c-.06-1.55,1-2.54,1.91-3.64a13.85,13.85,0,0,1-.28-1.8c0-.69,0-.12.21-.89.35-1.4.27-2.22.68-3.63.5-1.77.58-3.56-.34-2.86s-.72.25-.65-1.81c0-.6-.07-1.13-.06-1.64a11,11,0,0,0,0-2.75c-.24-1-.77-1.23-1.12-1.72a8.84,8.84,0,0,1-1-2.61c-.25-.74-.42-.46-.62-.6a2,2,0,0,1-.6-.73c.58-2.67,0-5.57-.42-8.17-.33-2-.05-4.79-1.69-6.28C990.54,520.54,990.8,521.58,990.38,521.35Z" transform="translate(-891.54 -472.31)"/></g><g class="cls-6"><path class="cls-7" d="M938.79,539.63c.14.23,0,1,0,1.34,0,.65.09,2.19.41,1.77.68-.9,0-2.58.11-3.74a6.08,6.08,0,0,1,1.06-2.18,11.27,11.27,0,0,0,1-2.26c.42-1.15,1.07-2.78,2.21-3.31.24-.11.9-.36.88,0s-.54,1.11-.71,1.61-.24.69-.11.87.3-.1.38,0,.06.22.1.39,0,.47.22.42.9-1.18.94-.75c.07.74-.57,1.58-.75,2.34a2,2,0,0,0,0,1c.14.19.26-.15.47-.08s.36,1,.56,1.36c.35.62.72.37,1.21.51.16.05.26.19.42.08s.17-.39.33-.5.31,0,.53-.18a3.89,3.89,0,0,0,.56-.64.67.67,0,0,0,.13-.6,2.16,2.16,0,0,1,.13-1.09,3,3,0,0,0,0-1.78c0-.23-.1-.86.1-1,0,.39.25.73.65.11.11-.17.07-.44.16-.62a1.47,1.47,0,0,1,.46-.55c.18.26,0,.64.49.35a6.14,6.14,0,0,0,.64-.62,2.12,2.12,0,0,1,.62-.61c.38-.23.76-.47,1.12-.71,0,.14,0,.28,0,.42,1-.29,1.24-1.57,1.89-2.2a1.47,1.47,0,0,1,1.36-.33c.14.1.08.23.31.25s.54-.18.76-.17c.47,0,.49.5.07.83a3.24,3.24,0,0,1-1.6.69c-.17,0-.67.11-.81.31s0,.37,0,.5c-.12.35-.64.56-.65,1,.47,0,.43.17.41.43a1,1,0,0,1,.45.14,6.46,6.46,0,0,1,.13-.81c.73-.29.44.43,1.06.2,0-.08.08-.19.07-.28.55-.22.46.1.74.28s.21,0,.42,0,.2,0,.42.15,1,.18,1.36.39,1.06.59,1.51.25c0,0,.06-.18.1-.22s.21,0,.28-.12c.21-.26,0-.21-.23-.26a3.52,3.52,0,0,1-.58-.15c-.18-.09-.22-.31-.34-.44s-.52-.48-.06-.67c.18-.07.35.08.53-.05a.57.57,0,0,0,.16-.49c.28-.17.45-.15.49-.49,0-.19-.1-.33.06-.53a1.28,1.28,0,0,1,1.08.33c.41-.41,1.72.91,2.08.86s.28-.59.45-.84c0-.06,0-.18.07-.21s.41,0,.51-.06,0-.21,0-.36c.06-.31.45-.45.55-.72s-.87-.71.21-.82a5,5,0,0,0,1.52-.4c.53-.24.28-.45.55-.77a3.77,3.77,0,0,1,.69-.39c.24-.15.42-.35.67-.49,0-.1-.69-.53-.93-.48s-.26.19-.33.25c-.68-.14-.17-.26-.19-.55s-.47-.35-.77-.48a6.68,6.68,0,0,0,.55-.46c.18-.23.2-.4.54-.6a4.45,4.45,0,0,1,1.35-.38,2.07,2.07,0,0,1,1.05,0c.55.07.39-.1.83-.16s1.2.4,1.82.42c.2,0,.31-.08.48-.07.39,0,.91.38,1.31.36s.22-.33.57-.43c.37.23,1.56,1.21,1.88.75.13-.18-.33-.74-.66-1a1.24,1.24,0,0,0-1.07-.16c-.76-.46.58-.37.54-.74s-1.23-1.09-1.72-1.35c-.79-.44-1.24-.06-2-.53a6,6,0,0,1-1-.65.68.68,0,0,1,.25-.92c.24-.15,1-.24,1.12-.41s-.3-.54-.68-.62-.41.16-.8.19c-.66.06-1.28-.39-1.9-.39-.89,0-1.52.68-2.34.85-.52.11-1.08-.14-1.63.06s-.76.58-.72.79c-.82-.19-1.58-.51-2.42-.62-.36.29-.3.71-.34,1a1.12,1.12,0,0,0,.22.8c.07.13.25.28,0,.44a4.59,4.59,0,0,0-2,0,1,1,0,0,0-.36.35,4.46,4.46,0,0,0-.23.52c-.27.24-.51,0-.91.22-.59.24-.7.59-1.29.44a9.19,9.19,0,0,0,.6-1.16c.22-.51-.39-.57-1.15-.46a.43.43,0,0,0-.09.1c-.29,0,.61-1.08.67-1.35.14-.61-.37-.71-1.17-.71.4-.57.55-1.5.1-1.7a4,4,0,0,0-2.85.41c-.16.07-.27.25-.44.29s-.27-.15-.42-.19a5.38,5.38,0,0,0-1.5.11c-.5.07-.9.06-1.4.13a3.4,3.4,0,0,0-1.14.32c-.36.25-.39.47-.56.78-.45.84-1.33,1-2.17,1.32a8.09,8.09,0,0,1-.42,1c-.24.36,0,.06-.4.41-.63.62-.85,1.08-1.52,1.7-.83.77-1.45,1.7-.73,1.62s.46.1-.24,1.17c-.2.31-.32.62-.49.88a6.86,6.86,0,0,0-.9,1.45,2.21,2.21,0,0,0,0,1.26,5.71,5.71,0,0,1-.33,1.7c-.1.47.08.37.14.51a1.33,1.33,0,0,1,.09.58,13.49,13.49,0,0,0-2.4,4.46c-.45,1.14-1.5,2.55-1.11,3.87C938.45,540,938.65,539.38,938.79,539.63Z" transform="translate(-891.54 -472.31)"/></g><g class="cls-8"><path class="cls-7" d="M968.09,577.79c0-.35.5-.48.73-.61s1.24-.9.65-1.42c-.92-.81-1.58,1.35-2.13,1.61s-1.47-.13-2-.27a2.51,2.51,0,0,0-1.92.2c-1,.38-2.39.75-3.32,0-.29-.23-1-.81-.89-1.23s.89-.44,1.24-.69.49-.33.43-.69-.34-.32-.39-.5,0-.29,0-.51.2-.43,0-.7-1.36,0-1.27-.61,1.39-.74,1.8-1.08a1.41,1.41,0,0,0,.46-.88c0-.36-.33-.26-.5-.63-.26-.56.21-1.36.23-1.93,0-1-.46-1.39-.84-2.24-.12-.28-.12-.55-.35-.7s-.42.05-.66-.1-.28-.48-.63-.64a3,3,0,0,0-1-.27c-.37,0-.33.05-.5.38a1.73,1.73,0,0,1-.78.89c-.82.54-.65,1.08-.88,1.93-.08.29-.27,1.11-.56,1.07.14-.47,0-1.19-.69-1-.19.06-.26.43-.43.55a1,1,0,0,1-.72.13c-.12-.54.19-.86-.45-1a2.69,2.69,0,0,0-1,.07c-.42.09-.44.21-.93.14a14.16,14.16,0,0,0-1.57-.16c.05-.18.1-.38.14-.56-1.28-.68-1.92,1.2-2.77,1.58a1.79,1.79,0,0,1-1.77-.48c-.18-.27-.09-.43-.39-.61s-.71,0-1-.22a.76.76,0,0,1-.05-1.39,2.67,2.67,0,0,1,2.23,0c.22.07.88.36,1.11.18s0-.57.15-.73c.24-.42,1-.27,1.12-.86-.61-.42-.52-.66-.39-1a2.52,2.52,0,0,1-.54-.64c-.1.36-.3.74-.44,1.1-1-.2-.45-1.06-1.38-1.2,0,.12-.16.24-.17.38-.81-.09-.61-.51-1-1-.19-.27-.28-.2-.58-.34s-.3-.1-.57-.54c-.44-.73-1.38-.91-1.94-1.5s-1.52-1.58-2.35-1.17c0,0-.14.28-.21.33s-.35,0-.47.11c-.4.39,0,.39.33.56a6.42,6.42,0,0,1,.9.48c.28.23.3.64.47.92s.73,1,0,1.17c-.28,0-.53-.29-.81-.12s-.28.56-.24.79c-.42.2-.68.11-.73.7,0,.32.18.6,0,.9a2.27,2.27,0,0,1-1.65-.81c-.55.66-2.85-1.73-3.41-1.61s-.28,1.08-.44,1.56c0,.1,0,.31,0,.38s-.64,0-.75.19.1.36.12.63c0,.56-.45.9-.44,1.4,0,.66,1.53,1,.15,1.48a3.62,3.62,0,0,0-1.72,1.22c-.5.62,0,.87-.14,1.53,0,.34-.36.67-.5,1s-.19.8-.33,1.17c.14.14,1.14.52,1.37.33s.13-.44.16-.56c.86-.07.39.37.62.84s.76.4,1.17.54a6.27,6.27,0,0,0-.25,1,3,3,0,0,1-.11,1.21,4.33,4.33,0,0,1-1,1.23c-.4.45-.4.39-.93.59s-.24.38-.56.74-1.32.16-1.79.6c-.15.14-.15.36-.28.47-.31.25-1,.17-1.22.54s.2.68.09,1.13c-.45,0-2.09-.24-1.77.71a1.68,1.68,0,0,0,1.31.69c.43,0,.64-.29.73-.74.9,0,.06,1.06.45,1.56s1.73.59,2.27.63c.88.07.82-.83,1.73-.54a4.37,4.37,0,0,1,1.27.46,2.25,2.25,0,0,1,.62,1.61c0,.38-.43.94-.36,1.31a1,1,0,0,0,1,.58c.37-.11.13-.47.36-.72.38-.43,1.17,0,1.64-.22.79-.37.54-1.7,1.15-2.2.37-.31,1,0,1.35-.45a1.73,1.73,0,0,0,.11-1.44c.92.19,1.73.8,2.63,1a3.45,3.45,0,0,0-.24-1.69,3.92,3.92,0,0,0-.65-1.37c-.15-.23-.42-.5-.28-.76.48.1,1.64.58,2.07.23.16-.12.16-.33.22-.52a6,6,0,0,0,0-.82c.19-.34.54,0,.91-.11.54-.24.55-.78,1.24-.3a9.12,9.12,0,0,0-.23,1.72c0,.79.63,1.06,1.39,1.2a.35.35,0,0,0,0-.13c.33.19-.22,1.54-.17,2,.11,1,.66,1.29,1.45,1.61a3.7,3.7,0,0,0,.62,2.78,3.05,3.05,0,0,0,2.58.64c.13,0,.17-.26.33-.23s.32.4.47.53a5.74,5.74,0,0,0,1.43.75c.46.22.85.5,1.32.74.2.1.81.45,1,.37s.25-.43.35-.75c.34-1,1.17-.3,1.91,0a5.19,5.19,0,0,1,.29-1.08c.19-.27,0,0,.35-.18.58-.24.77-.63,1.42-.73.82-.12,1.47-.55.75-1.27s-.49-.68.29-1.17c.23-.14.38-.36.58-.47.37-.2.83-.16,1.1-.54s.13-1,.17-1.44c.07-.7.37-.83.71-1.32.23-.33,0-.48,0-.7a1.46,1.46,0,0,1,.08-.68c1.21.39,2.71,0,3.92-.22.77-.13,2.61.58,2.81-.57C968.58,578.14,968.09,578.16,968.09,577.79Z" transform="translate(-891.54 -472.31)"/></g><g class="cls-8"><path class="cls-7" d="M949.88,508.82c-.08-.06,0-.19,0-.26s0-.42-.2-.38,0,.57,0,.73-.27.3-.38.39a.67.67,0,0,0-.28.45c-.08.28-.24.64-.55.73-.1,0-.35.08-.41,0s.05-.27.05-.39,0-.16-.07-.21-.13,0-.18,0-.06-.05-.1-.09-.06-.12-.16-.11-.23.3-.34.18.06-.43.06-.58a.35.35,0,0,0-.12-.24c-.08,0-.11,0-.22,0s-.26-.27-.38-.37-.37-.13-.62-.19c-.08,0-.14-.06-.21,0s-.06.1-.13.13-.16,0-.25,0a.72.72,0,0,0-.22.17c-.06.08,0,.08,0,.17a.49.49,0,0,1,.06.32c0,.27.13.32.27.51s.2.25.14.3c-.08-.11-.25-.2-.32,0s.05.12.05.18a.31.31,0,0,1-.09.18c-.14-.07-.16-.19-.3-.07a.69.69,0,0,0-.14.22c-.05.11,0,.13-.13.22s-.2.21-.29.32l-.1-.12c-.36.16-.06.61-.12.86a.52.52,0,0,1-.4.31c-.08,0-.11-.06-.19,0s-.13.14-.22.18-.35,0-.31-.22a.71.71,0,0,1,.38-.48s.22-.13.22-.21-.12-.11-.13-.15.1-.26,0-.39c-.2.06-.23,0-.29-.08a.89.89,0,0,1-.23,0c.06.08.11.19.17.28-.22.19-.31-.08-.49.1,0,0,0,.07,0,.1-.15.16-.21,0-.38,0s-.09,0-.17.07-.07.05-.21,0-.43.15-.65.17-.6.07-.65.32c0,0,0,.07,0,.1s-.06.08-.05.12.09.06.18,0a1.12,1.12,0,0,1,.25-.11c.1,0,.19,0,.28.05s.35,0,.25.19-.15.06-.16.15.08.16.14.19-.09.16,0,.27.16.06.19.16a.65.65,0,0,1-.45.22c0,.23-.85.33-.92.48s.19.23.26.35.08,0,.08.07-.1.14-.08.19.1,0,.16.08.12.25.23.33.47-.16.34.22a1,1,0,0,0,0,.57c.06.21.19.16.31.29s.09.19.14.27.14.17.19.27.3-.17.3-.25-.07-.1-.09-.13c.13-.19.14,0,.28,0s.22-.1.32-.17a1.25,1.25,0,0,0,.16.22c.1.08.18.11.25.23a1.13,1.13,0,0,1,.1.42c0,.16,0,.15,0,.3s0,.11.07.24-.19.31-.17.49.05.09.05.14-.12.24-.08.35.18.07.26.17c-.08.1-.4.42-.14.5.1,0,.31-.08.37-.17s0-.18,0-.28c.15-.19.24.17.41.17s.42-.28.51-.4,0-.31.17-.46a1.22,1.22,0,0,1,.32-.2.65.65,0,0,1,.45.13c.08.07.13.25.22.3a.29.29,0,0,0,.29-.11c0-.1-.08-.11-.1-.2s.2-.26.23-.4-.28-.4-.29-.61.17-.22.13-.37a.47.47,0,0,0-.29-.26c.19-.17.46-.25.64-.41-.07-.12-.28-.18-.4-.23a1.36,1.36,0,0,0-.41-.09c-.07,0-.18,0-.21-.06s.4-.26.39-.42,0-.08-.07-.13a.89.89,0,0,0-.18-.14c0-.1.1-.11.13-.22s-.08-.24.14-.32a2.19,2.19,0,0,0,.34.34c.16.14.33,0,.49-.1,0,0,0,0,0,0s.3.31.4.37a.5.5,0,0,0,.59-.05,1,1,0,0,0,.71.33.86.86,0,0,0,.57-.45s0-.08,0-.11.14,0,.2,0a1.59,1.59,0,0,0,.4-.18c.12-.07.25-.1.38-.17s.23-.1.25-.16-.05-.13-.1-.2c-.17-.25.12-.31.3-.43,0-.07-.16-.16-.18-.24s0,0,0-.1,0-.28.07-.44.13-.41-.15-.37-.23,0-.21-.26c0-.07,0-.14,0-.2s.1-.21.06-.33-.19-.19-.28-.28-.12-.21-.17-.37-.1-.09-.15-.12-.07-.05-.13-.13a2.5,2.5,0,0,0,.6-.89c.1-.19.56-.47.34-.7C950,508.77,950,508.88,949.88,508.82Z" transform="translate(-891.54 -472.31)"/></g><g class="cls-8"><path class="cls-7" d="M951.93,493.4s0-.07,0-.1,0-.15-.07-.13,0,.2,0,.26-.1.11-.14.14a.23.23,0,0,0-.1.17c0,.1-.09.23-.2.26s-.13,0-.15,0,0-.1,0-.14a.08.08,0,0,0,0-.08s0,0-.06,0,0,0,0,0,0,0-.06,0-.08.11-.13.06,0-.15,0-.21a.12.12,0,0,0,0-.08s0,0-.08,0-.1-.1-.14-.14a.48.48,0,0,0-.23-.07s0,0-.08,0,0,0,0,0,0,0-.09,0l-.08.06s0,0,0,.06a.17.17,0,0,1,0,.12c0,.09,0,.11.1.18s.07.09,0,.11-.1-.07-.12,0,0,0,0,.07a.08.08,0,0,1,0,.06s0-.07-.1,0a.28.28,0,0,0-.06.09s0,0,0,.08l-.11.11s0,0,0,0,0,.22,0,.31a.19.19,0,0,1-.14.12s0,0-.08,0,0,.05-.07.07-.13,0-.12-.09a.29.29,0,0,1,.14-.17s.08-.05.08-.08,0,0,0,0,0-.1,0-.14-.08,0-.1,0h-.09a.53.53,0,0,1,.06.1c-.07.07-.11,0-.17,0s0,0,0,0-.07,0-.13,0,0,0-.06,0a.11.11,0,0,1-.08,0c-.09,0-.16,0-.24.06s-.22,0-.23.11v0s0,0,0,.05,0,0,.06,0l.1,0s.07,0,.1,0,.13,0,.09.07,0,0-.06.06,0,0,0,.06,0,.06,0,.1.06,0,.07.06a.21.21,0,0,1-.16.08c0,.09-.31.12-.34.17s.07.09.1.13,0,0,0,0,0,0,0,.07,0,0,.06,0,0,.09.08.12.17-.06.13.08a.3.3,0,0,0,0,.21c0,.08.06.05.11.1s0,.07,0,.1,0,.06.07.1.11-.06.11-.09l0-.05c0-.07.05,0,.1,0s.08,0,.11-.06,0,.06.07.08a.65.65,0,0,1,.09.08.41.41,0,0,1,0,.16c0,.06,0,.05,0,.11s0,0,0,.09-.07.11-.06.17,0,0,0,.05,0,.09,0,.13.06,0,.09.07-.14.15-.05.18a.2.2,0,0,0,.14-.06.09.09,0,0,0,0-.11c.06-.07.09.06.15.06s.15-.1.19-.14,0-.11.06-.17l.11-.07a.25.25,0,0,1,.17.05s0,.09.08.1a.09.09,0,0,0,.11,0s0,0,0-.07.07-.09.08-.14-.1-.15-.1-.23.06-.08,0-.13a.18.18,0,0,0-.11-.1c.07-.06.17-.09.23-.15s-.1-.06-.14-.08a.4.4,0,0,0-.15,0s-.07,0-.08,0,.15-.1.14-.16l0,0s-.07-.05-.07-.06,0,0,0-.07,0-.09,0-.12l.12.12c.06.05.13,0,.18,0h0s.11.11.15.14.14,0,.22,0a.36.36,0,0,0,.26.12.31.31,0,0,0,.2-.17s0,0,0,0h.07a.69.69,0,0,0,.15-.07l.14-.06a.28.28,0,0,0,.09-.06s0,0,0-.07,0-.11.12-.16a.31.31,0,0,1-.07-.09s0,0,0,0,0-.1,0-.16.05-.15,0-.14-.09,0-.08-.09v-.08s0-.07,0-.12-.07-.07-.1-.1,0-.08-.06-.13,0,0-.06-.05l-.05,0a.8.8,0,0,0,.22-.33c0-.07.21-.17.13-.26S952,493.42,951.93,493.4Z" transform="translate(-891.54 -472.31)"/></g><g class="cls-8"><path class="cls-7" d="M982,508.93s0-.07,0-.1,0-.15-.07-.13,0,.2,0,.26-.1.11-.14.14a.23.23,0,0,0-.1.17c0,.1-.09.23-.2.26s-.13,0-.15,0,0-.1,0-.14a.08.08,0,0,0,0-.08h-.06s0,0,0,0,0,0-.06,0-.08.11-.13.06,0-.15,0-.21a.14.14,0,0,0,0-.09s0,0-.08,0-.09-.1-.13-.14a.48.48,0,0,0-.23-.07.11.11,0,0,0-.08,0s0,0-.05,0,0,0-.09,0l-.08.07s0,0,0,.06a.23.23,0,0,1,0,.11c0,.1,0,.12.09.19s.08.09.06.11-.1-.07-.12,0,0,0,0,.06a.16.16,0,0,1,0,.07s0-.07-.1,0a.28.28,0,0,0-.06.09s0,0,0,.08l-.11.11,0,0c-.13.06,0,.22,0,.31a.18.18,0,0,1-.15.12s0,0-.07,0,0,.05-.08.06a.07.07,0,0,1-.11-.08c0-.09.07-.12.14-.17s.08-.05.08-.08,0,0-.05-.05,0-.1,0-.14-.08,0-.1,0h-.09a.53.53,0,0,1,.06.1c-.08.07-.11,0-.17,0a0,0,0,0,0,0,0c0,.06-.07,0-.13,0s0,0-.07,0,0,0-.07,0-.16.05-.24.06-.22,0-.23.11,0,0,0,0,0,0,0,0,0,0,.06,0l.1,0s.07,0,.1,0,.13,0,.09.07-.05,0-.06.05a.09.09,0,0,0,.05.07c0,.05,0,.06,0,.1s.06,0,.07.06a.23.23,0,0,1-.16.08c0,.09-.31.12-.34.17s.07.09.1.13l0,0s0,.05,0,.07,0,0,.06,0,0,.09.08.12.17-.06.13.08a.3.3,0,0,0,0,.21c0,.07.06.05.11.1s0,.07,0,.1a.86.86,0,0,1,.07.1s.11-.06.11-.09,0,0,0-.05,0,0,.1,0,.08,0,.11-.06a.27.27,0,0,0,.07.08.65.65,0,0,1,.09.08.41.41,0,0,1,0,.16c0,.05,0,.05,0,.11s0,0,0,.08-.07.12-.06.18,0,0,0,.05-.05.09,0,.13.06,0,.09.07-.15.15,0,.18a.2.2,0,0,0,.14-.06.09.09,0,0,0,0-.11c.06-.07.09.06.15.06s.15-.1.19-.14,0-.12.06-.17.08-.07.11-.07a.25.25,0,0,1,.17,0s.05.09.08.1a.09.09,0,0,0,.11,0s0,0,0-.07.07-.09.08-.14-.1-.15-.1-.23.06-.08,0-.13-.07-.09-.1-.1.17-.09.23-.15-.1-.06-.14-.08l-.15,0s-.07,0-.08,0,.15-.09.14-.14a.06.06,0,0,0,0-.05s-.07-.05-.07-.06,0,0,0-.07,0-.09.05-.12a1.36,1.36,0,0,0,.12.12c.06.05.12,0,.18,0s0,0,0,0,.11.11.15.14.14,0,.22,0a.35.35,0,0,0,.25.12.3.3,0,0,0,.21-.17s0,0,0,0h.07a.69.69,0,0,0,.15-.07l.14-.06a.28.28,0,0,0,.09-.06s0-.05,0-.07,0-.11.11-.16a.7.7,0,0,1-.06-.09s0,0,0,0,0-.1,0-.16,0-.15-.05-.14-.09,0-.08-.09v-.08s0-.07,0-.12-.07-.07-.1-.1,0-.08-.06-.13,0,0-.06-.05l0,0a.8.8,0,0,0,.22-.33c0-.07.21-.17.13-.26S982,509,982,508.93Z" transform="translate(-891.54 -472.31)"/></g><g class="cls-8"><path class="cls-7" d="M974.93,519.59s.07,0,.09,0,.15,0,.13-.09-.2,0-.26,0-.12-.09-.16-.13a.21.21,0,0,0-.17-.08.35.35,0,0,1-.28-.18s0-.12,0-.15.1,0,.14,0,.06,0,.07,0,0,0,0-.06l0,0s0,0,0-.06-.12-.07-.08-.12.16,0,.21,0a.14.14,0,0,0,.09,0s0,0,0-.08.09-.1.12-.15,0-.14,0-.23a.12.12,0,0,0,0-.08s0,0,0-.05,0,0,0-.08l-.07-.08s0,0-.06,0a.24.24,0,0,1-.12,0c-.09,0-.11.06-.17.12s-.08.08-.11.06.07-.1,0-.11-.05,0-.07,0a.09.09,0,0,1-.07,0c0-.05.06-.06,0-.11l-.09,0s-.05,0-.09,0l-.12-.09s0,0,0,0-.23,0-.32,0a.17.17,0,0,1-.12-.14s0,0,0-.07-.06,0-.08-.07a.08.08,0,0,1,.07-.12.26.26,0,0,1,.19.12s.05.07.08.07,0,0,0,0,.1,0,.14,0a.09.09,0,0,1,0-.11s0,0,0-.08a.31.31,0,0,1-.09.07c-.08-.07,0-.11-.06-.17l0,0c-.06-.05,0-.07,0-.13s0,0,0-.06a.11.11,0,0,1,0-.08c0-.09-.07-.15-.09-.23s0-.21-.14-.22l0,0-.05,0s0,0,0,.07a.18.18,0,0,1,.05.08s0,.07,0,.11,0,.12-.06.1,0-.06-.07-.06,0,0-.06.06-.06,0-.1,0,0,.06,0,.07a.2.2,0,0,1-.09-.15c-.09,0-.16-.3-.21-.32s-.08.08-.12.11,0,0,0,0-.06,0-.08,0,0,0,0,.06-.08.05-.11.1.08.16-.06.13a.37.37,0,0,0-.21,0c-.08,0,0,.07-.09.13l-.1.05-.09.08s.07.11.1.1l0,0c.08,0,0,0,0,.1s.05.07.07.11l-.07.07a.28.28,0,0,1-.07.09.3.3,0,0,1-.15,0,.14.14,0,0,1-.11,0c-.06,0,0,0-.09,0s-.12-.06-.18,0l-.05,0s-.09,0-.13,0,0,.07,0,.1-.17-.12-.19,0,0,.11.08.13.06,0,.1,0-.05.1-.05.16.12.14.16.17.12,0,.18.05.07.07.08.1a.2.2,0,0,1,0,.17s-.09.06-.1.1a.11.11,0,0,0,0,.1s0,0,.07,0,.1.06.15.07.14-.12.21-.13.09.05.14,0a.22.22,0,0,0,.09-.12c.06.06.1.16.17.22s0-.11.07-.15a.86.86,0,0,0,0-.16s0-.06,0-.07.11.13.16.12,0,0,0,0l0-.07s.05,0,.09,0,.08,0,.12,0a.69.69,0,0,0-.11.13c0,.07,0,.13.05.18h0s-.11.12-.12.16a.17.17,0,0,0,0,.21.39.39,0,0,0-.1.27.32.32,0,0,0,.19.19h0s0,.05,0,.07a.39.39,0,0,0,.08.14l.08.13s0,.08.06.08,0,0,.07,0,.12,0,.17.1a.2.2,0,0,1,.08-.08s0,0,0,0,.1,0,.16,0,.15,0,.13-.08,0-.08.08-.08h.08s.08,0,.12,0,.06-.07.09-.11.07-.05.13-.07,0,0,0-.06a.15.15,0,0,1,0-.06.88.88,0,0,0,.34.19c.08,0,.19.19.27.1S974.91,519.62,974.93,519.59Z" transform="translate(-891.54 -472.31)"/></g><path class="cls-5" d="M934.26,533.29c-.91-1-4.79-2.11-3.38-4-.76-.34-1.82.11-2.54-.44-.39-.29-.68-1.64-.8-2.09-.21-.81.54-.83-.41-1.25-.37-.17-1.36.16-1.82.12-.08-.63-.48-1.81-1.25-1-.41.44-.11,1.87,0,2.38l-.56.14c-.6-.87-2.7,0-2.35,1.23,1.08.33,2.23-.07,3.32.16s.9.39,1.41,1.12a10.72,10.72,0,0,0,.69,1.14c0,.61.19.91-.7.8s-.61-.72-1.19-1.25c-.82-.77-3.37-1-4.09.15l.21.11c-1.5.11-1.71,2.09.16,2.39.36.06.45-.36.86-.42a5.14,5.14,0,0,1,2.5.1,5.08,5.08,0,0,1,1.27,1.57c.08.21.31.33.42.7s-.26.78-.14,1.15,1.5,1.48,2.18.67-.7-1.15-.1-2.11c.42-.68,1.4.19,1.27-1,.83.67,1.7.72,2.5,1.33.6.45.6,1.23,1.37,1.45C933.33,534.88,932.1,533.6,934.26,533.29Z" transform="translate(-891.54 -472.31)"/><g class="cls-8"><path class="cls-7" d="M1006.09,542.18a2.48,2.48,0,0,1-.19-.26l-.06.26A.23.23,0,0,0,1006.09,542.18Z" transform="translate(-891.54 -472.31)"/><path class="cls-7" d="M1001,528.55c.38.78-.37,1,.9,1.11,1,.07,1.24-.52,1.06-1.48.74.51,2,1.19,2.4,2.07.3.68.08,1.6.31,2.31.62,2,2.09,1.63,3.1.06a4.36,4.36,0,0,1-.38,3c-.63.84-1.73,1-2.24,1.91a4.22,4.22,0,0,0-.2,4.42c.33-1,1.24-.35,1.91-.69a2.42,2.42,0,0,0,1.23-2.1c0-.56-.92-1.45-.33-2.13s1.82-.06,2.26.49c1.07-.76.26-2,.3-3.07a12,12,0,0,0,2.68,0c1.52-.51,1.13-2.06,1.06-3.47a31.9,31.9,0,0,0-.82-6.18,12.62,12.62,0,0,1-.28-1.74,56.55,56.55,0,0,0-27.75-34.15c-.19.81-.95,1.59-.79,2.6a4.4,4.4,0,0,1,1.23,1.24c.2.41.18,1.22.42,1.57.72,1.07,3.07,1.58,3.36,3.06.13.72-.36.89,0,1.66.45,1,1.39,1.16.4,1.83-.23.15-.79-.1-1.06,0-.51.16-.81.62-1,.71-.63.29-1.63.14-1.7,1.24-.2,0-.47.07-.66,0,.11.59.24,3,.8,3.2-.19,1.48,3.43,1,4.61,1.56.12,1.08-.87,1.39-1.24,2,1.66.11,7.76-.42,5.18,3-.57.75-.75.58-1.71.66a19.77,19.77,0,0,0-2.5.49c-1.54.3-3.24-.27-5-.37-.16-.61-1.94-3.62-2-1.67-.29-.09-.62,0-.93-.12,0,.26-.22.59-.2.87-.39-.07-1.37-.38-1.79-.19s-.05.76-.46,1c-.83.48-2.46.12-2.58,1.51,1.41.2,2.18-1,3.2-.68.06,0-.08.68,0,.7a2.35,2.35,0,0,0,1.19,0c.42.28.64.21.53.94,1.14.18,2.12-.77,3.23-.54s.67.62,1.33,1.24a2,2,0,0,0,0-.24c1.11-.25,1.12.88,1.77,1.31a1.83,1.83,0,0,0,1.54.31c.34-.07.64-.73,1-.68,2.43.35-1,2.79-1.1,3.47,1.5.27,1.58-1.36,2.6-.93.58.25,1.66,2.62,2.25.45a3.38,3.38,0,0,1,1.37,2.15c.05.85.22.52-.68,1.1s-4.09.91-4.67,1.84c-.38.61.25,1.23.11,1.57-.33.84-1.42.78-2.2,1.23-1.29.74-1,1.41-1,2.9,1.21,0,.89-1.09,1.56-1.64s2-.52,2.81-.69c1.28-.25,3.5.06,4.54-.75s.22-1.28,1.53-1C1000.32,527,1000.65,528,1001,528.55Z" transform="translate(-891.54 -472.31)"/></g><g class="cls-8"><path class="cls-7" d="M968.53,584.07c-.22,1.46-.49,3.92-2.55,4-1.17,0-1.12-.76-1.91-1.09-1.49-.63-.36-.49-1.78-.32-1.72.21-3.17,1.13-5,.74a24.86,24.86,0,0,1-4.87-2.05c-1.15-.56-3-1.24-3.19-2.71-.13-.88-.14-1,.52-1.65,1-1,1.32-.45,2.11,0,1.55.92,1.61,3,3.7,3.29.46.06,1.1-.34,1.49-.37,1.75-.15,2.57.2,3.34-1.5a14.32,14.32,0,0,1-.67-2.1c.26-1.37.83-.4,1.37-1.28.92-1.49.18-3,2-4.12-.83,0-1.67,0-2.51,0a12.73,12.73,0,0,0,.17-3.08c-.9.45-.81,2-1.87,2.51a6.77,6.77,0,0,1-2-.07c-.22-1.68.95-5.4-2.29-4.74.09.41-.16,1-.06,1.41-.73,0-1.5,0-2.23,0-.16,1.7-2,2.5-2.88,3.83-1.5,2.22-2.32,2.92-5.66,2.58.28-1.67-.86-1-1.28-1.68s-.71-2.38-1.29-2.64-2.3,1.32-3.67,1c-1.89-.43-.82-.83-1.76-1.88-1.31-1.46-5.87-.42-5.88-2.68,0-3.48,3.78.86,5.26-1.07.63-.82-.94-1.7.62-2.58,1.2-.68,2.28.65,3.36.91a6.75,6.75,0,0,0,3.31-.22c1.06-.43,1.33-1.64,2.26-2,2-.91,3.73,1.07,5.07-1.49.41-.78.87-2.64-.22-3.11-.89-.39-1.62,1.52-2.9,1.14-.69-2.87-4.34,1.53-5.62.68s-.1-2.37-1.3-2.9a1.75,1.75,0,0,0-2.33,1.94c-.82-1.18-2.92-2.12-2.89-3.83,0-1.31,1.29-1.43,1.19-2.68-1.15-.21-4,1.23-5-.11s.39-.7.5-1.53a14.09,14.09,0,0,1,.14-1.68,4.6,4.6,0,0,1,2.92-3c1.12-.49,3.84-.56,4-2-1.53-.44-2.9.74-4.56.51.56-1,1.89-1.56,2.49-2.23a6.17,6.17,0,0,1-2.48-.49c.64-2.06,3-2.92,3.59-5a19.82,19.82,0,0,0,.12-5.4c-1.31,0-.37.72-.81,1.47-.14.25-.15.91-.3,1.23s-.84.25-1,.56c-.46,1.08-.34,2.28-1.27,3.18s-2.24.63-3.36,1.24-1.41,2.37-2.84,2.07a5.47,5.47,0,0,1-.27-1c-.9.32-.64,1.07-1.67,1.24-.34.06-1-1-1.81-.83a7.2,7.2,0,0,0-.25,3.33c.18,1.21,1.09,2.3,1,3.52-3.07.13-6.31.58-6.26-3.08a3.17,3.17,0,0,0-1.62,0c.27,1.24-.41,2.9-1.5,1.56-.62-.76.77-2.52-1.21-2a1.27,1.27,0,0,1-1.42,1.68c-.14,1.1,0,2.34-.1,3.49-2.67.11-3.76.26-5-1.86-.44-.76,0-1.24-.82-1.89-.52-.39-1.55.18-2.22-.33a4.44,4.44,0,0,1-.9-1.2,56.41,56.41,0,0,0,56,49.39,57.17,57.17,0,0,0,10.7-1,3.86,3.86,0,0,0,1.42-1.24c.95-1.43.89-4.21.8-6C970.18,587.05,970.76,583.44,968.53,584.07Z" transform="translate(-891.54 -472.31)"/><path class="cls-7" d="M968.53,584.07c-.22,1.46-.49,3.92-2.55,4-1.17,0-1.12-.76-1.91-1.09-1.49-.63-.36-.49-1.78-.32-1.72.21-3.17,1.13-5,.74a24.86,24.86,0,0,1-4.87-2.05c-1.15-.56-3-1.24-3.19-2.71-.13-.88-.14-1,.52-1.65,1-1,1.32-.45,2.11,0,1.55.92,1.61,3,3.7,3.29.46.06,1.1-.34,1.49-.37,1.75-.15,2.57.2,3.34-1.5a14.32,14.32,0,0,1-.67-2.1c.26-1.37.83-.4,1.37-1.28.92-1.49.18-3,2-4.12-.83,0-1.67,0-2.51,0a12.73,12.73,0,0,0,.17-3.08c-.9.45-.81,2-1.87,2.51a6.77,6.77,0,0,1-2-.07c-.22-1.68.95-5.4-2.29-4.74.09.41-.16,1-.06,1.41-.73,0-1.5,0-2.23,0-.16,1.7-2,2.5-2.88,3.83-1.5,2.22-2.32,2.92-5.66,2.58.28-1.67-.86-1-1.28-1.68s-.71-2.38-1.29-2.64-2.3,1.32-3.67,1c-1.89-.43-.82-.83-1.76-1.88-1.31-1.46-5.87-.42-5.88-2.68,0-3.48,3.78.86,5.26-1.07.63-.82-.94-1.7.62-2.58,1.2-.68,2.28.65,3.36.91a6.75,6.75,0,0,0,3.31-.22c1.06-.43,1.33-1.64,2.26-2,2-.91,3.73,1.07,5.07-1.49.41-.78.87-2.64-.22-3.11-.89-.39-1.62,1.52-2.9,1.14-.69-2.87-4.34,1.53-5.62.68s-.1-2.37-1.3-2.9a1.75,1.75,0,0,0-2.33,1.94c-.82-1.18-2.92-2.12-2.89-3.83,0-1.31,1.29-1.43,1.19-2.68-1.15-.21-4,1.23-5-.11s.39-.7.5-1.53a14.09,14.09,0,0,1,.14-1.68,4.6,4.6,0,0,1,2.92-3c1.12-.49,3.84-.56,4-2-1.53-.44-2.9.74-4.56.51.56-1,1.89-1.56,2.49-2.23a6.17,6.17,0,0,1-2.48-.49c.64-2.06,3-2.92,3.59-5a19.82,19.82,0,0,0,.12-5.4c-1.31,0-.37.72-.81,1.47-.14.25-.15.91-.3,1.23s-.84.25-1,.56c-.46,1.08-.34,2.28-1.27,3.18s-2.24.63-3.36,1.24-1.41,2.37-2.84,2.07a5.47,5.47,0,0,1-.27-1c-.9.32-.64,1.07-1.67,1.24-.34.06-1-1-1.81-.83a7.2,7.2,0,0,0-.25,3.33c.18,1.21,1.09,2.3,1,3.52-3.07.13-6.31.58-6.26-3.08a3.17,3.17,0,0,0-1.62,0c.27,1.24-.41,2.9-1.5,1.56-.62-.76.77-2.52-1.21-2a1.27,1.27,0,0,1-1.42,1.68c-.14,1.1,0,2.34-.1,3.49-2.67.11-3.76.26-5-1.86-.44-.76,0-1.24-.82-1.89-.52-.39-1.55.18-2.22-.33a4.44,4.44,0,0,1-.9-1.2,56.41,56.41,0,0,0,56,49.39,57.17,57.17,0,0,0,10.7-1,3.86,3.86,0,0,0,1.42-1.24c.95-1.43.89-4.21.8-6C970.18,587.05,970.76,583.44,968.53,584.07Z" transform="translate(-891.54 -472.31)"/></g><path class="cls-9" d="M993.8,550.26c-2,.14-3.79.27-3.4-2.32a1.52,1.52,0,0,0-1.64.39L987.51,550c-.24.06-.62.55-1.18.49-.5,1.49,1,1.68,2.19,1.63a1.91,1.91,0,0,1,0,1c-.39-.09-1,.16-1.36.06l-.06,2.2c-1.66.2-3.47,0-5.16.1-.41,2.24,1.31,1.5,2.48,1.84-1.11.76-.91,3.07.67,3.32s1.17-1.72,2.17-2.84c-.65,1.26-1.32,3.93.48,4.13,1.62.17,1.65-2.13,2.93-3.14,1.51-1.19,2.08-1.45,2.75-3.5A9.44,9.44,0,0,0,993.8,550.26Z" transform="translate(-891.54 -472.31)"/><g class="cls-10"><path class="cls-7" d="M975.17,567.39a1.17,1.17,0,0,0,0-.39,1.2,1.2,0,0,0-.52.35A2.64,2.64,0,0,0,975.17,567.39Z" transform="translate(-891.54 -472.31)"/><path class="cls-7" d="M1015.93,543.39c-.34.53-.85.83-1.16,1.49a14.71,14.71,0,0,0-.43,2.76c-.38,1.62-.44,4.88-2.78,4.64-.33,1.31.19,2.9-.33,4.15-.34.82-1.36,1.16-1.7,1.93a6.27,6.27,0,0,0-.09,1.84,2.61,2.61,0,0,1-2.26,2.59c-1.08.24-2.45-.38-1.54-1.49-1.16,1-1.45-.17-1.37-1.23-1,.78-1.78.47-2.07-.46-.42-1.36.59-2.27,1-3.39-.61.73-1.2,1.44-2.24,1.11a15,15,0,0,0-1-4.1c-.63-1.75-.57-1-2.24-1.3,0-1.2.17-3.8-1.65-3.31a19.58,19.58,0,0,0,.23,3.32,15.69,15.69,0,0,0,0,1.68c.1.6.44,1,.56,1.53.31,1.32-.37,1.38-.71,2.51s.2,1.85-.78,3c-1.62,1.82-1.71,1.58-.22,3.44.79,1,1.21,2.79-.8,2.51-1.48-.2-1.17-2.66-2.48-1-.36.46.26.93-.44,1.41-.52.35-1.67-.12-2-.5-1.37,2.3-2.9-1.36-3.75-1.58-1.13-.29-1.54.76-2.4,1-1.69.42-2.13-1-3.19-1.64s-3.54-.48-4.69-.16c-.82.22-1.56.53-1.4,1.53.11.63.89.7,1.07,1.4a7.89,7.89,0,0,1,2.82-.14c.25,1.06-1.11,1.7-1.91,2,0,.58-5,1.53-1.44,2.37.46,1.46-.93.9-1.79,1.12-1.06.27-1.59.84-2.76.83-1.16,1.74,1.16,2.35,2.48,2.49.6.06,1.56-.27,2,.24a1.41,1.41,0,0,1-.48,1.87c1.4.86,6.42-.32,4.34,2.34-1.09,1.39-4.51,1.16-2.33,2.65,1,.71,1.78.64,1.88,1.77a7.92,7.92,0,0,1-.51,2.38c-.36.62-1.57.8-1,1.56.37.5,1.29.15,1.7.55-.62.87-1.88.68-2.55,1.36s-.06,1.78-.38,2.62A56.43,56.43,0,0,0,1015.93,543.39Z" transform="translate(-891.54 -472.31)"/></g><path class="cls-11" d="M1016.22,538.72a56.5,56.5,0,1,1-56.5-56.5A56.5,56.5,0,0,1,1016.22,538.72Z" transform="translate(-891.54 -472.31)"/></g></g></svg>