<svg id="Слой_1" data-name="Слой 1" xmlns="http://www.w3.org/2000/svg" viewBox="0 0 77 77"><defs><style>.cls-1{fill:none;}.cls-2{fill:#feda53;stroke:#fbb03b;}.cls-2,.cls-4{stroke-miterlimit:10;stroke-width:0.75px;}.cls-3{opacity:0.79;}.cls-4{fill:#fff;stroke:#e6e6e6;}</style></defs><rect class="cls-1" width="77" height="77"/><ellipse class="cls-2" cx="26.09" cy="28.8" rx="8.8" ry="8.48"/><rect class="cls-2" x="24.99" y="11.32" width="2.2" height="7.42" rx="0.87"/><rect class="cls-2" x="24.99" y="38.87" width="2.2" height="7.42" rx="0.87"/><rect class="cls-2" x="984.65" y="547.17" width="2.12" height="7.7" rx="0.88" transform="translate(-510.07 1014.52) rotate(-90)"/><rect class="cls-2" x="953.84" y="547.17" width="2.12" height="7.7" rx="0.88" transform="translate(-540.89 983.7) rotate(-90)"/><path class="cls-2" d="M962.57,543.58h0a1.13,1.13,0,0,1-1.55,0l-3.9-3.75a1,1,0,0,1,0-1.5h0a1.14,1.14,0,0,1,1.56,0l3.89,3.75A1,1,0,0,1,962.57,543.58Z" transform="translate(-944.76 -522.22)"/><path class="cls-2" d="M984.58,564.6h0a1.11,1.11,0,0,1-1.55,0l-3.89-3.75a1,1,0,0,1,0-1.49h0a1.11,1.11,0,0,1,1.55,0l3.89,3.74A1,1,0,0,1,984.58,564.6Z" transform="translate(-944.76 -522.22)"/><path class="cls-2" d="M980.24,543.4h0a1.11,1.11,0,0,0,1.55,0l3.9-3.74a1,1,0,0,0,0-1.5h0a1.12,1.12,0,0,0-1.56,0l-3.89,3.74A1,1,0,0,0,980.24,543.4Z" transform="translate(-944.76 -522.22)"/><path class="cls-2" d="M957.12,564.53h0a1.12,1.12,0,0,0,1.56,0l3.89-3.75a1,1,0,0,0,0-1.49h0a1.11,1.11,0,0,0-1.55,0l-3.9,3.74A1,1,0,0,0,957.12,564.53Z" transform="translate(-944.76 -522.22)"/><g class="cls-3"><path class="cls-4" d="M1001.07,549.86h-3.72v-.26a12.92,12.92,0,0,0-12.92-12.92h0a12.92,12.92,0,0,0-12.91,12.92v.26h-3.63a12.91,12.91,0,1,0,0,25.82h33.18a12.91,12.91,0,1,0,0-25.82Z" transform="translate(-944.76 -522.22)"/><path class="cls-4" d="M1000.6,558.29h-2.55v-.12c0-3.31-4-6-8.87-6h0c-4.9,0-8.88,2.68-8.88,6v.12h-2.49c-4.9,0-8.88,2.68-8.88,6s4,6,8.88,6h22.79c4.91,0,8.88-2.68,8.88-6S1005.51,558.29,1000.6,558.29Z" transform="translate(-944.76 -522.22)"/></g></svg>