<svg id="Слой_1" data-name="Слой 1" xmlns="http://www.w3.org/2000/svg" xmlns:xlink="http://www.w3.org/1999/xlink" viewBox="0 0 59.75 39.75"><defs><style>.cls-1,.cls-2{stroke:gray;stroke-miterlimit:10;stroke-width:0.75px;}.cls-1{fill:url(#Безымянный_градиент_12);}.cls-2{fill:url(#Безымянный_градиент_12-2);}</style><linearGradient id="Безымянный_градиент_12" x1="362.09" y1="357.4" x2="363.29" y2="416.39" gradientUnits="userSpaceOnUse"><stop offset="0" stop-color="#b3b3b3"/><stop offset="1" stop-color="#0071bc"/></linearGradient><linearGradient id="Безымянный_градиент_12-2" x1="369.33" y1="361.65" x2="369.91" y2="389.84" xlink:href="#Безымянный_градиент_12"/></defs><path class="cls-1" d="M378.83,351.68h-3.72v-.27A12.91,12.91,0,0,0,362.2,338.5h0a12.91,12.91,0,0,0-12.92,12.91v.27h-3.63a12.91,12.91,0,1,0,0,25.82h33.18a12.91,12.91,0,1,0,0-25.82Z" transform="translate(-332.36 -338.13)"/><path class="cls-2" d="M378.6,358.91h-2.06v-.13c0-3.4-3.21-6.16-7.16-6.16h0c-4,0-7.16,2.76-7.16,6.16v.13h-2c-3.95,0-7.16,2.76-7.16,6.16s3.21,6.16,7.16,6.16h18.4c3.95,0,7.16-2.76,7.16-6.16S382.55,358.91,378.6,358.91Z" transform="translate(-332.36 -338.13)"/></svg>