<svg id="Слой_1" data-name="Слой 1" xmlns="http://www.w3.org/2000/svg" viewBox="0 0 61.98 31.92"><defs><style>.cls-1{opacity:0.81;}.cls-2{fill:#e6e6e6;}</style></defs><g class="cls-1"><path class="cls-2" d="M309.33,297.23c.51-4.92,7.44-3.18,10.37-2.09a21.71,21.71,0,0,1,5.61,3.16,29.68,29.68,0,0,0,5,3.56c3.84,1.85,7.91.11,11.5-1.61a14.16,14.16,0,0,0,4.81-3.66,11.53,11.53,0,0,1,1.84-2,4.36,4.36,0,0,1,3.16-.55c4.71.62,9.23,3.22,12.71,6.35,1.43,1.29,3.56-.82,2.12-2.12a29.6,29.6,0,0,0-12.22-6.74c-2.21-.57-4.65-.93-6.77.16s-3,3.23-4.8,4.57a22.27,22.27,0,0,1-6.08,2.86,7.05,7.05,0,0,1-3.35.57,7.4,7.4,0,0,1-3.07-1.43c-1.87-1.28-3.52-2.85-5.47-4a24,24,0,0,0-6.61-2.75c-2.54-.62-5.35-1-7.81.12a6.76,6.76,0,0,0-3.94,5.61c-.2,1.92,2.8,1.91,3,0Z" transform="translate(-306.32 -290.92)"/></g><g class="cls-1"><path class="cls-2" d="M310.7,307.42c.51-4.92,7.44-3.19,10.37-2.1a21.77,21.77,0,0,1,5.62,3.16,29.6,29.6,0,0,0,5,3.56c3.85,1.85,7.92.11,11.5-1.61a14.2,14.2,0,0,0,4.82-3.66,11.15,11.15,0,0,1,1.84-2,4.35,4.35,0,0,1,3.16-.55c4.7.62,9.22,3.22,12.7,6.36,1.43,1.28,3.56-.83,2.12-2.13a29.5,29.5,0,0,0-12.21-6.74c-2.21-.57-4.66-.93-6.77.16s-3,3.23-4.81,4.57a22.27,22.27,0,0,1-6.08,2.86,7,7,0,0,1-3.35.57,7.4,7.4,0,0,1-3.07-1.43c-1.87-1.28-3.51-2.85-5.46-4a24.22,24.22,0,0,0-6.61-2.75c-2.54-.62-5.35-1-7.81.12a6.77,6.77,0,0,0-3.95,5.62c-.2,1.91,2.8,1.9,3,0Z" transform="translate(-306.32 -290.92)"/></g><g class="cls-1"><path class="cls-2" d="M310.7,317.42c.51-4.92,7.44-3.19,10.37-2.1a21.77,21.77,0,0,1,5.62,3.16,29.6,29.6,0,0,0,5,3.56c3.85,1.85,7.92.11,11.5-1.61a14.2,14.2,0,0,0,4.82-3.66,11.15,11.15,0,0,1,1.84-2,4.35,4.35,0,0,1,3.16-.55c4.7.62,9.22,3.22,12.7,6.36,1.43,1.28,3.56-.83,2.12-2.13a29.5,29.5,0,0,0-12.21-6.74c-2.21-.57-4.66-.93-6.77.16s-3,3.23-4.81,4.57a22.27,22.27,0,0,1-6.08,2.86,7,7,0,0,1-3.35.57,7.4,7.4,0,0,1-3.07-1.43c-1.87-1.28-3.51-2.85-5.46-4a24.22,24.22,0,0,0-6.61-2.75c-2.54-.62-5.35-1-7.81.12a6.77,6.77,0,0,0-3.95,5.62c-.2,1.91,2.8,1.9,3,0Z" transform="translate(-306.32 -290.92)"/></g></svg>