<svg id="Слой_1" data-name="Слой 1" xmlns="http://www.w3.org/2000/svg" viewBox="0 0 61.98 31.92"><defs><style>.cls-1{opacity:0.81;}.cls-2{fill:#e6e6e6;}</style></defs><g class="cls-1"><path class="cls-2" d="M454.67,173.38c.51-4.92,7.44-3.19,10.37-2.1a22.07,22.07,0,0,1,5.62,3.16,29.65,29.65,0,0,0,5,3.57c3.85,1.85,7.92.1,11.5-1.62a14.13,14.13,0,0,0,4.81-3.65,11.58,11.58,0,0,1,1.85-2,4.28,4.28,0,0,1,3.15-.56c4.71.63,9.23,3.23,12.71,6.36,1.43,1.29,3.56-.83,2.12-2.12a29.34,29.34,0,0,0-12.21-6.74c-2.21-.58-4.66-.94-6.77.15s-3,3.24-4.81,4.57a22,22,0,0,1-6.08,2.86,7.16,7.16,0,0,1-3.35.58,7.52,7.52,0,0,1-3.07-1.43c-1.87-1.29-3.51-2.86-5.47-4a23.66,23.66,0,0,0-6.61-2.75c-2.54-.63-5.35-1-7.81.12a6.76,6.76,0,0,0-3.94,5.61c-.2,1.92,2.8,1.9,3,0Z" transform="translate(-451.66 -167.06)"/></g><g class="cls-1"><path class="cls-2" d="M456.05,183.56c.51-4.92,7.44-3.18,10.37-2.1a21.74,21.74,0,0,1,5.61,3.17,30.6,30.6,0,0,0,5,3.56c3.85,1.85,7.92.1,11.51-1.61a14.39,14.39,0,0,0,4.81-3.66,11.53,11.53,0,0,1,1.84-2,4.25,4.25,0,0,1,3.16-.55c4.7.62,9.22,3.22,12.7,6.35,1.43,1.29,3.56-.83,2.12-2.12A29.28,29.28,0,0,0,501,177.88c-2.21-.58-4.65-.94-6.77.16s-3,3.23-4.8,4.57a22.63,22.63,0,0,1-6.09,2.86,7.28,7.28,0,0,1-3.35.57,7.52,7.52,0,0,1-3.07-1.43c-1.87-1.29-3.51-2.85-5.46-4a23.66,23.66,0,0,0-6.61-2.75c-2.54-.62-5.35-1-7.81.12a6.74,6.74,0,0,0-3.94,5.61c-.2,1.92,2.8,1.9,3,0Z" transform="translate(-451.66 -167.06)"/></g><g class="cls-1"><path class="cls-2" d="M456.05,193.56c.51-4.92,7.44-3.18,10.37-2.1a21.74,21.74,0,0,1,5.61,3.17,30.6,30.6,0,0,0,5,3.56c3.85,1.85,7.92.1,11.51-1.61a14.39,14.39,0,0,0,4.81-3.66,11.53,11.53,0,0,1,1.84-2,4.25,4.25,0,0,1,3.16-.55c4.7.62,9.22,3.22,12.7,6.35,1.43,1.29,3.56-.83,2.12-2.12A29.28,29.28,0,0,0,501,187.88c-2.21-.58-4.65-.94-6.77.16s-3,3.23-4.8,4.57a22.63,22.63,0,0,1-6.09,2.86,7.28,7.28,0,0,1-3.35.57,7.52,7.52,0,0,1-3.07-1.43c-1.87-1.29-3.51-2.85-5.46-4a23.66,23.66,0,0,0-6.61-2.75c-2.54-.62-5.35-1-7.81.12a6.74,6.74,0,0,0-3.94,5.61c-.2,1.92,2.8,1.9,3,0Z" transform="translate(-451.66 -167.06)"/></g></svg>