<svg xmlns="http://www.w3.org/2000/svg" xmlns:xlink="http://www.w3.org/1999/xlink" viewBox="0 0 136.36 136.36"><defs><style>.cls-1{isolation:isolate;}.cls-2{opacity:0.6;fill:url(#radial-gradient);}.cls-3{fill:#a9a9aa;}.cls-3,.cls-5,.cls-8{opacity:0.52;}.cls-4{fill:url(#radial-gradient-2);}.cls-5,.cls-7,.cls-9{fill:#fff;}.cls-6{opacity:0.5;}.cls-10,.cls-9{opacity:0.52;}.cls-11{mix-blend-mode:multiply;fill:url(#radial-gradient-3);}.cls-12{fill:url(#radial-gradient-4);}</style><radialGradient id="radial-gradient" cx="912.76" cy="503.33" r="68.07" gradientTransform="translate(-41.59 829.22) rotate(-45)" gradientUnits="userSpaceOnUse"><stop offset="0.25" stop-color="#fff"/><stop offset="0.64" stop-color="#fff" stop-opacity="0.72"/><stop offset="0.73" stop-color="#fff" stop-opacity="0.5"/><stop offset="0.82" stop-color="#fff" stop-opacity="0.29"/><stop offset="0.9" stop-color="#fff" stop-opacity="0.13"/><stop offset="0.96" stop-color="#fff" stop-opacity="0.03"/><stop offset="1" stop-color="#fff" stop-opacity="0"/></radialGradient><radialGradient id="radial-gradient-2" cx="912.21" cy="502.1" r="56.41" gradientTransform="translate(-41.59 829.22) rotate(-45)" gradientUnits="userSpaceOnUse"><stop offset="0" stop-color="#787979"/><stop offset="0.79" stop-color="#a6a6a7"/><stop offset="0.84" stop-color="#a9a9aa"/><stop offset="0.94" stop-color="#d7d7d7"/><stop offset="1" stop-color="#f3f3f3"/></radialGradient><radialGradient id="radial-gradient-3" cx="899.73" cy="488.48" r="64.17" gradientTransform="translate(-41.59 829.22) rotate(-45)" gradientUnits="userSpaceOnUse"><stop offset="0.12" stop-color="#fff"/><stop offset="0.38" stop-color="#edecee"/><stop offset="0.44" stop-color="#cdccce"/><stop offset="0.59" stop-color="#8b8b8b"/><stop offset="0.73" stop-color="#575757"/><stop offset="0.85" stop-color="#313131"/><stop offset="0.94" stop-color="#1a1a1a"/><stop offset="1" stop-color="#121211"/></radialGradient><radialGradient id="radial-gradient-4" cx="940.18" cy="548.73" r="42.73" gradientTransform="translate(27.26 2.9) scale(0.97 0.98)" gradientUnits="userSpaceOnUse"><stop offset="0" stop-color="#fff"/><stop offset="0.09" stop-color="#fff" stop-opacity="0.96"/><stop offset="0.24" stop-color="#fff" stop-opacity="0.85"/><stop offset="0.43" stop-color="#fff" stop-opacity="0.66"/><stop offset="0.67" stop-color="#fff" stop-opacity="0.41"/><stop offset="0.93" stop-color="#fff" stop-opacity="0.09"/><stop offset="1" stop-color="#fff" stop-opacity="0"/></radialGradient></defs><g class="cls-1"><g id="Слой_1" data-name="Слой 1"><path class="cls-2" d="M1007.93,492.28a68.18,68.18,0,1,1-96.42,0A68.17,68.17,0,0,1,1007.93,492.28Z" transform="translate(-891.54 -472.31)"/><path class="cls-3" d="M998.35,499.35a56.41,56.41,0,1,1-79.77,0A56.4,56.4,0,0,1,998.35,499.35Z" transform="translate(-891.54 -472.31)"/><path class="cls-4" d="M998.35,499.35a56.41,56.41,0,1,1-79.77,0A56.4,56.4,0,0,1,998.35,499.35Z" transform="translate(-891.54 -472.31)"/><path class="cls-5" d="M918.58,579.12h0c1,.58,2.28.69,2.84-.47s-.29-1.06-.58-2c-.52-1.7,1.34-.82,2.12-2a2.21,2.21,0,0,0-2-1.08,3.45,3.45,0,0,1,1-.91c1.45-.88,2.89-1.51,4-3,2-2.67-1.4-.34-2.4-.11a3.33,3.33,0,0,0,.09-3.05c-.69-1.35-.9-1-.32-2.48.41-1.07.76-1.89-.59-2.58-.93-.47-1.94,0-2.93-.57.87-1,2.51-1.91,2.63-3.21a1.59,1.59,0,0,0-2.77-1.28c-.8-.64-1.75-1.72-.6-2.51l-.27-.26c-2,1.81-1.38-1.95-1.93-2.15s-1,.78-1.34.83c-.56.07-.44-.34-.92-.46a4.25,4.25,0,0,1-2.47-1.4,2.6,2.6,0,0,1,.24-.47c3.21,1.2,3.54-1.82,4.64-3.69.19-.33-.15-.46.21-.79.6-.56,1.67-.52,2.35-1a1.63,1.63,0,0,0,.7-2.44c-.29-.64-.92-1.17-1-1.78-.12-1,.75-1.17,1.17-2,.79-1.46.21-2.43-1-3.54-1.27,1.19-2.49,2.47-3.72,3.71.49-.61.08-1.21-.51-1.63a22.85,22.85,0,0,1-1.79,1.76c-1.06.77-.79.73-1.45-.16-.37-.48-.53-2.14-1.51-1.61a.92.92,0,0,0-.11,1.47c-.74.59-.07,1.24-.38,2s-1.35.71-1.66,1c-1.24,1.25-1.32,4-3.09,1.58.68-1.19,1.45-1.84,1.74-3.12a7.85,7.85,0,0,1,1.32-3.52c1-1.24,3.07-1.14,3.78-2.6.27-.57.51-1-.11-1.62-.77-.83-1,0-1.84.79-2-2.15-2.33,1.46-3.67.37-.95.55-.29,1.6-.71,2.41-.63,1.19-2.37,1.23-3.76,1.7A56.27,56.27,0,0,0,918.58,579.12Z" transform="translate(-891.54 -472.31)"/><path class="cls-5" d="M902.08,537.57l3.51-.72c-.05,1.14-2,2-2.85,2.49-.16-.26-.54-.63-.67-.81h0a2.56,2.56,0,0,1,.18.64l-.19,0c0,.3,0,.61,0,.92l.28.47a3.08,3.08,0,0,0-.27.25c0,1.09.1,2.18.19,3.27a4.34,4.34,0,0,1,1-.61c.26-.1.45-.4.72-.45s.59.51.82.46c1.54-.36,1.52-1.84,2.22-2.93.47-.72,1.47-1.3,2-2,.72-.88.75-1.28,1.91-1.61a4.88,4.88,0,0,0-1-1.43,7.49,7.49,0,0,0,1.89-1.92c.2-.28.78-.77.85-1,.21-.74-.52-1.34,0-2-.6-1.14.3-1.49.54-2.49.2-.84-.54-1.5-.24-2.12,1.6,1.62,2.21,2.33,4.56,1,1.65-1,1.48-1.28.78-2.66.55-1.31-1.14-1.76,0-3.19-.28-.17-.68-.62-1-.77,1.41-1.14,1.64-3.34,3.31-4.4a12.53,12.53,0,0,0-1.57-2.59c-1.63,1-2.29,1.27-4.17.86a4.74,4.74,0,0,1,1-1.31c.58,1.6,2.78-.12,3.7-.56,1.74-.82,1.63-.75,2.68.49.77-.39,2.39-2,3.27-2s.88,1,1.81,1c1.75.13,1.55-1.53,2.85,0,.84,1,.65,2.38,1.33,3.23,1.56-1.19,2.37,2,2.86,3a9.2,9.2,0,0,0,3,3.38,6.1,6.1,0,0,0,2.85.6c.53,0,.91-.21,1.32-.13.14,0,.57.57.87.66s.82-.22,1.19-.19.7.39,1.16.43c2.37.23,5.83-1.59,7.75-2.85-1.32.52-3.88.3-5.43.47-1.3.15-1.79.06-2.29-1.68-.85-2.95,2.73-4.25,2.43-6.82-.41-3.58-6.09-.92-6.3-4.06-.07-1,.84-1.13,1.26-1.64a2.57,2.57,0,0,0,.13-3.56l-.23.1c-.19-1.58,3.42-2.3,3.5-4.37-2.08,1.2-2.32.57-3.31-1.18a4.68,4.68,0,0,0-1.69.93c.85-1.12.29-1.86-1-1.85s-2.47,1.3-3.63,1.69c-.61-1,1.05-1.57.18-2.49-2.69.89-6,3.41-8.15,5.3a5,5,0,0,1-.91-.43c.24-2.59-1.77-5.22-4.41-4.81-1.43,1.18-2.82,2.43-4.15,3.76A56.22,56.22,0,0,0,902.08,537.57Z" transform="translate(-891.54 -472.31)"/><g class="cls-6"><path class="cls-7" d="M967.87,505.28c-.42.12-1.52-.39-2.09-.58-1-.32-3.49-.7-2.95,0,1.15,1.42,4.08.93,5.85,1.62a10,10,0,0,1,3,2.52,16.9,16.9,0,0,0,3.15,2.5c1.63,1.1,3.94,2.76,4.33,4.76.08.42.22,1.56-.42,1.37s-1.53-1.28-2.25-1.75c-.52-.35-1-.64-1.33-.51s0,.51-.09.61-.37,0-.65,0c-.44,0-.74-.2-.75.17s1.49,1.88.81,1.77c-1.18-.18-2.26-1.51-3.37-2.08a3.22,3.22,0,0,0-1.57-.32c-.34.15.14.46,0,.77s-1.73.18-2.36.35c-1.1.3-.86,1-1.27,1.71-.13.23-.4.33-.28.62s.55.42.66.72-.16.47.07.89a6,6,0,0,0,.79,1.14c.39.4.4.34.89.43a3.45,3.45,0,0,1,1.66.62c1.33.8,1.7.51,2.8.65.38,0,1.4.17,1.61.56-.62-.13-1.25.11-.43,1,.22.23.66.28.91.5a2.31,2.31,0,0,1,.69.92c-.49.18-1-.19-.74.65a7.83,7.83,0,0,0,.73,1.24,3.38,3.38,0,0,1,.7,1.2c.23.69.45,1.38.68,2l-.64-.19c.07,1.68,2,2.55,2.72,3.81a2.39,2.39,0,0,1,0,2.28c-.22.18-.4,0-.51.38s.08.92,0,1.26c-.24.72-1,.58-1.33-.22a5.37,5.37,0,0,1-.46-2.78c0-.28.09-1.08-.17-1.39s-.58-.11-.77-.24c-.5-.32-.64-1.22-1.28-1.4-.15.75-.44.62-.84.48a1.7,1.7,0,0,1-.4.65,8.42,8.42,0,0,1,1.22.52c.17,1.25-.85.52-.72,1.59.13,0,.27.2.41.22.13.94-.33.68-.72,1.06-.21.2-.13.31-.2.63s0,.34-.4.61c-.61.45-.65,1.44-1.13,2s-1.34,1.42-1,2.27c0,0,.26.17.3.24s0,.35.08.48c.33.45.36,0,.52-.26a6.9,6.9,0,0,1,.45-.85c.2-.25.57-.21.82-.35s1-.64,1.07.16c0,.31-.26.52-.12.85a.87.87,0,0,0,.71.44c.16.51.06.76.58,1,.29.11.55,0,.81.3a2.08,2.08,0,0,1-.95,1.56c.49.8-2.08,2.35-2.15,2.93s.81.67,1.15,1c.08.08.27.11.3.2.1.24-.21.64-.11.82s.33.07.55.18c.46.22.53.89.93,1.14s1.45-1.09,1.2.65a7.53,7.53,0,0,0,0,2.55c.17.92.59.62,1,1.16a5.13,5.13,0,0,1,.36,1.24c.14.44.38.8.51,1.24.18,0,1.09-.88,1.12-1.28,0-.16-.21-.48-.27-.6.48-1,.48-.18.94-.1s.72-.6,1.05-1a10.08,10.08,0,0,0,.51,1c.29.37.55.47.73,1.08a7.08,7.08,0,0,1,.07,2.27,3.33,3.33,0,0,1-.39,1.66c-.32.83,0,.64-.07,1.36s-1.1,1.72-1.36,2.69c-.09.31,0,.52-.09.78-.21.61-.94,1.29-1.07,1.92s.44.47.45,1.06c-.5.5-2.49,2-1.9,2.66.24.27,1.29-.24,1.75-.67a2,2,0,0,0,.65-1.62c1-1,.37,1.06,1,1.14s2.18-1.51,2.79-2.17c1-1.07.57-1.92,1.58-2.88a9.93,9.93,0,0,1,1.42-1.32,1.12,1.12,0,0,1,1.35.75c.14.45,0,1.64.2,1.93s1-.26,1.23-.83-.08-.71,0-1.34c.17-1,1.1-1.85,1.36-2.83.37-1.39-.48-2.64-.44-4,0-.85.64-1.64.54-2.59-.07-.69-.62-1.41-1-1.43.62-1.21,1.42-2.29,1.92-3.55-.32-.68-1-.75-1.44-.94a1.83,1.83,0,0,0-1.34,0c-.24.06-.55.29-.71-.11.24-.68,1-2.23.76-3.17a1.65,1.65,0,0,0-.41-.7,5.15,5.15,0,0,0-.72-.56c-.27-.52.12-.83,0-1.52-.16-1-.66-1.32-.2-2.19a15.19,15.19,0,0,0,1.59,1.39c.73.54,1-.4,1.18-1.63,0-.07-.09-.12-.13-.18.18-.43,1.45,1.37,1.86,1.57.9.45,1.25-.3,1.56-1.55.75.85,2.15,1.45,2.64.81.87-1.11.71-3.18.46-4.63,0-.28-.29-.52-.28-.81s.34-.37.45-.58a8.91,8.91,0,0,0,.42-2.4c.08-.8.26-1.43.33-2.25a5.47,5.47,0,0,0,0-1.92c-.25-.65-.6-.79-1-1.17-1.14-1-1.1-2.5-1.23-3.91a13.77,13.77,0,0,1-1.47-1.08c-.47-.5-.08-.09-.49-.78-.73-1.24-1.37-1.76-2.08-3-.89-1.61-2.1-2.94-2.26-1.78s-.33.68-1.74-.83c-.41-.43-.85-.75-1.2-1.12a11.22,11.22,0,0,0-1.92-2,3.62,3.62,0,0,0-2-.42,8.86,8.86,0,0,1-2.52-1.16c-.71-.35-.63,0-.87,0a1.89,1.89,0,0,1-.94-.09c-1.47-2.3-3.92-4-6.07-5.48-1.63-1.15-3.43-3.35-5.64-3.24C967.4,504.59,968.32,505.14,967.87,505.28Z" transform="translate(-891.54 -472.31)"/></g><g class="cls-6"><path class="cls-7" d="M967.87,505.28c-.42.12-1.52-.39-2.09-.58-1-.32-3.49-.7-2.95,0,1.15,1.42,4.08.93,5.85,1.62a10,10,0,0,1,3,2.52,16.9,16.9,0,0,0,3.15,2.5c1.63,1.1,3.94,2.76,4.33,4.76.08.42.22,1.56-.42,1.37s-1.53-1.28-2.25-1.75c-.52-.35-1-.64-1.33-.51s0,.51-.09.61-.37,0-.65,0c-.44,0-.74-.2-.75.17s1.49,1.88.81,1.77c-1.18-.18-2.26-1.51-3.37-2.08a3.22,3.22,0,0,0-1.57-.32c-.34.15.14.46,0,.77s-1.73.18-2.36.35c-1.1.3-.86,1-1.27,1.71-.13.23-.4.33-.28.62s.55.42.66.72-.16.47.07.89a6,6,0,0,0,.79,1.14c.39.4.4.34.89.43a3.45,3.45,0,0,1,1.66.62c1.33.8,1.7.51,2.8.65.38,0,1.4.17,1.61.56-.62-.13-1.25.11-.43,1,.22.23.66.28.91.5a2.31,2.31,0,0,1,.69.92c-.49.18-1-.19-.74.65a7.83,7.83,0,0,0,.73,1.24,3.38,3.38,0,0,1,.7,1.2c.23.69.45,1.38.68,2l-.64-.19c.07,1.68,2,2.55,2.72,3.81a2.39,2.39,0,0,1,0,2.28c-.22.18-.4,0-.51.38s.08.92,0,1.26c-.24.72-1,.58-1.33-.22a5.37,5.37,0,0,1-.46-2.78c0-.28.09-1.08-.17-1.39s-.58-.11-.77-.24c-.5-.32-.64-1.22-1.28-1.4-.15.75-.44.62-.84.48a1.7,1.7,0,0,1-.4.65,8.42,8.42,0,0,1,1.22.52c.17,1.25-.85.52-.72,1.59.13,0,.27.2.41.22.13.94-.33.68-.72,1.06-.21.2-.13.31-.2.63s0,.34-.4.61c-.61.45-.65,1.44-1.13,2s-1.34,1.42-1,2.27c0,0,.26.17.3.24s0,.35.08.48c.33.45.36,0,.52-.26a6.9,6.9,0,0,1,.45-.85c.2-.25.57-.21.82-.35s1-.64,1.07.16c0,.31-.26.52-.12.85a.87.87,0,0,0,.71.44c.16.51.06.76.58,1,.29.11.55,0,.81.3a2.08,2.08,0,0,1-.95,1.56c.49.8-2.08,2.35-2.15,2.93s.81.67,1.15,1c.08.08.27.11.3.2.1.24-.21.64-.11.82s.33.07.55.18c.46.22.53.89.93,1.14s1.45-1.09,1.2.65a7.53,7.53,0,0,0,0,2.55c.17.92.59.62,1,1.16a5.13,5.13,0,0,1,.36,1.24c.14.44.38.8.51,1.24.18,0,1.09-.88,1.12-1.28,0-.16-.21-.48-.27-.6.48-1,.48-.18.94-.1s.72-.6,1.05-1a10.08,10.08,0,0,0,.51,1c.29.37.55.47.73,1.08a7.08,7.08,0,0,1,.07,2.27,3.33,3.33,0,0,1-.39,1.66c-.32.83,0,.64-.07,1.36s-1.1,1.72-1.36,2.69c-.09.31,0,.52-.09.78-.21.61-.94,1.29-1.07,1.92s.44.47.45,1.06c-.5.5-2.49,2-1.9,2.66.24.27,1.29-.24,1.75-.67a2,2,0,0,0,.65-1.62c1-1,.37,1.06,1,1.14s2.18-1.51,2.79-2.17c1-1.07.57-1.92,1.58-2.88a9.93,9.93,0,0,1,1.42-1.32,1.12,1.12,0,0,1,1.35.75c.14.45,0,1.64.2,1.93s1-.26,1.23-.83-.08-.71,0-1.34c.17-1,1.1-1.85,1.36-2.83.37-1.39-.48-2.64-.44-4,0-.85.64-1.64.54-2.59-.07-.69-.62-1.41-1-1.43.62-1.21,1.42-2.29,1.92-3.55-.32-.68-1-.75-1.44-.94a1.83,1.83,0,0,0-1.34,0c-.24.06-.55.29-.71-.11.24-.68,1-2.23.76-3.17a1.65,1.65,0,0,0-.41-.7,5.15,5.15,0,0,0-.72-.56c-.27-.52.12-.83,0-1.52-.16-1-.66-1.32-.2-2.19a15.19,15.19,0,0,0,1.59,1.39c.73.54,1-.4,1.18-1.63,0-.07-.09-.12-.13-.18.18-.43,1.45,1.37,1.86,1.57.9.45,1.25-.3,1.56-1.55.75.85,2.15,1.45,2.64.81.87-1.11.71-3.18.46-4.63,0-.28-.29-.52-.28-.81s.34-.37.45-.58a8.91,8.91,0,0,0,.42-2.4c.08-.8.26-1.43.33-2.25a5.47,5.47,0,0,0,0-1.92c-.25-.65-.6-.79-1-1.17-1.14-1-1.1-2.5-1.23-3.91a13.77,13.77,0,0,1-1.47-1.08c-.47-.5-.08-.09-.49-.78-.73-1.24-1.37-1.76-2.08-3-.89-1.61-2.1-2.94-2.26-1.78s-.33.68-1.74-.83c-.41-.43-.85-.75-1.2-1.12a11.22,11.22,0,0,0-1.92-2,3.62,3.62,0,0,0-2-.42,8.86,8.86,0,0,1-2.52-1.16c-.71-.35-.63,0-.87,0a1.89,1.89,0,0,1-.94-.09c-1.47-2.3-3.92-4-6.07-5.48-1.63-1.15-3.43-3.35-5.64-3.24C967.4,504.59,968.32,505.14,967.87,505.28Z" transform="translate(-891.54 -472.31)"/></g><g class="cls-6"><path class="cls-7" d="M944.31,554.68c.27.07.68.69.93,1,.42.49,1.61,1.49,1.54,1-.16-1.12-1.86-1.8-2.57-2.73a6.08,6.08,0,0,1-.79-2.29,10.71,10.71,0,0,0-.87-2.33c-.51-1.11-1.2-2.72-.77-3.9.09-.25.38-.9.66-.6a9.19,9.19,0,0,1,.63,1.65c.17.35.32.66.54.69s.14-.28.24-.29.2.11.35.2.33.34.45.15-.19-1.47.14-1.2c.57.47.72,1.52,1.12,2.19a1.85,1.85,0,0,0,.73.66c.23,0,.07-.28.27-.39s1,.46,1.36.57c.68.19.77-.25,1.22-.5.15-.08.32,0,.35-.24s-.16-.4-.12-.59.23-.2.25-.49a4.25,4.25,0,0,0-.06-.86c-.08-.33-.1-.3-.33-.51a2.1,2.1,0,0,1-.68-.86c-.45-.85-.74-.81-1.28-1.24-.18-.15-.68-.54-.67-.81.28.27.7.34.54-.38,0-.19-.26-.36-.32-.55a1.35,1.35,0,0,1-.07-.71c.31.06.48.42.59-.11a4.31,4.31,0,0,0,0-.89,2.08,2.08,0,0,1,0-.86c.1-.43.2-.87.29-1.3.09.11.19.21.28.31.5-.91-.23-2-.22-2.89a1.49,1.49,0,0,1,.73-1.2c.18,0,.22.11.39,0s.26-.51.43-.65c.35-.31.7,0,.63.54a3.3,3.3,0,0,1-.65,1.62c-.09.14-.39.54-.35.79s.27.24.33.37c.16.33-.05.85.23,1.15.32-.35.43-.19.6,0a1.11,1.11,0,0,1,.42-.21,5.73,5.73,0,0,1-.48-.67c.31-.71.61,0,.89-.61-.06-.06-.08-.19-.15-.24.23-.55.39-.26.72-.33s.17-.13.31-.28.13-.17.4-.19c.47,0,.81-.56,1.24-.69s1.17-.33,1.25-.89a1.77,1.77,0,0,1-.08-.22c0-.11.12-.18.11-.28,0-.34-.17-.14-.36,0a3.25,3.25,0,0,1-.51.3c-.18.07-.37-.06-.55-.07s-.7,0-.51-.43c.08-.17.3-.19.34-.41a.56.56,0,0,0-.24-.46c.07-.32.21-.42,0-.7s-.3-.16-.33-.41a1.28,1.28,0,0,1,1-.53c0-.58,1.85-.57,2.07-.86s-.21-.62-.27-.91c0-.07-.11-.14-.1-.2s.31-.27.32-.4-.15-.15-.23-.27,0-.64-.13-.91-1.11.12-.43-.73a4.78,4.78,0,0,0,.8-1.36c.2-.54-.12-.51-.15-.93a2.9,2.9,0,0,1,.21-.76c.06-.28,0-.55.12-.83a1.72,1.72,0,0,0-1,.33c-.06.08,0,.32-.05.4-.58.39-.31-.06-.53-.25s-.58.09-.88.2c0-.21.08-.51.06-.71a1.6,1.6,0,0,1,0-.8,4.49,4.49,0,0,1,.69-1.23,2,2,0,0,1,.73-.75c.44-.34.2-.34.48-.69s1.13-.57,1.58-1c.14-.13.16-.27.29-.38.31-.26.91-.38,1.19-.68s-.09-.39.09-.7c.43-.11,2-.26,1.86-.8,0-.22-.76-.29-1.14-.2a1.21,1.21,0,0,0-.87.64c-.87.21.15-.68-.14-.91a5.07,5.07,0,0,0-2.17.26c-.87.25-.92.83-1.76,1a5.88,5.88,0,0,1-1.17.25.69.69,0,0,1-.48-.83c.07-.28.54-.86.51-1.08s-.6-.17-.92.05-.18.4-.43.7c-.43.5-1.18.63-1.62,1.06-.65.62-.59,1.55-1,2.26-.29.44-.87.66-1.12,1.19s-.12.95.06,1.07a22.91,22.91,0,0,0-2.15,1.27c-.05.46.29.72.46,1a1.1,1.1,0,0,0,.72.41c.14,0,.38,0,.34.29-.35.28-1.23.86-1.42,1.43a1.05,1.05,0,0,0,0,.5,3.17,3.17,0,0,0,.2.53c0,.36-.33.4-.49.8-.24.59-.07.91-.59,1.22a11.31,11.31,0,0,0-.4-1.24c-.22-.52-.68-.12-1.15.49,0,.05,0,.09,0,.13-.23.18-.33-1.19-.48-1.42-.33-.53-.76-.25-1.32.32-.13-.69-.68-1.45-1.14-1.28-.82.32-1.39,1.46-1.73,2.31-.06.16,0,.37-.1.52s-.3.08-.43.16a5.75,5.75,0,0,0-1,1.14c-.3.4-.59.67-.89,1.08a3.48,3.48,0,0,0-.59,1,1.73,1.73,0,0,0,.17,1,3.32,3.32,0,0,1-.61,2.46,9,9,0,0,1,.44,1c.09.42,0,.08,0,.57,0,.89.16,1.37.13,2.28,0,1.14.17,2.22.62,1.66s.4-.25.66,1c.08.36.21.66.28,1a6.93,6.93,0,0,0,.39,1.66c.29.58.64.62.92.86a5.69,5.69,0,0,1,1,1.42c.26.41.32.22.46.27s.21.1.47.35a13.71,13.71,0,0,0,1.46,4.85c.5,1.12.75,2.86,2,3.51C944.34,555.19,944,554.61,944.31,554.68Z" transform="translate(-891.54 -472.31)"/></g><g class="cls-8"><path class="cls-7" d="M992,561c-.25-.24,0-.7.08-1,.12-.43.25-1.51-.54-1.46-1.22.07-.16,2.07-.36,2.64s-1.14,1-1.6,1.22a2.47,2.47,0,0,0-1.22,1.5c-.44,1-1.16,2.21-2.34,2.35-.36,0-1.3.16-1.49-.23s.32-.94.39-1.37.11-.58-.19-.79-.47,0-.62-.07-.2-.23-.33-.4-.16-.45-.53-.47-1,1-1.32.47.45-1.51.5-2a1.41,1.41,0,0,0-.29-1c-.28-.22-.42.05-.8-.09-.58-.21-.82-1.11-1.2-1.53-.68-.73-1.31-.65-2.18-1-.29-.11-.48-.29-.74-.24s-.27.34-.54.39-.55-.14-.9,0a3.18,3.18,0,0,0-.9.51c-.26.27-.19.27-.08.62a1.85,1.85,0,0,1,.08,1.19c-.2,1,.3,1.22.74,2,.15.26.6,1,.35,1.14-.22-.43-.82-.85-1.15-.18-.09.18.12.49.08.69a.94.94,0,0,1-.42.61c-.46-.3-.46-.75-1-.4a2.69,2.69,0,0,0-.63.74c-.23.36-.17.46-.56.75a12,12,0,0,0-1.22,1l-.3-.5c-1.38.43-.51,2.21-.84,3.08a1.79,1.79,0,0,1-1.6.91c-.31-.06-.36-.24-.7-.16s-.54.47-.87.56c-.68.2-1.25-.33-1-1a2.66,2.66,0,0,1,1.6-1.55c.21-.11.87-.37.91-.66s-.37-.44-.41-.62c-.13-.46.5-.88.19-1.4-.73.14-.84-.1-1-.44a3,3,0,0,1-.84-.07,9.51,9.51,0,0,1,.47,1.08c-.89.6-1.06-.43-1.82.13.07.11,0,.28.14.39-.63.51-.78.07-1.39,0-.32-.05-.34.06-.65.17s-.28.15-.78,0c-.83-.21-1.62.33-2.44.31s-2.19,0-2.49.83c0,0,.11.3.09.39s-.25.24-.25.4c0,.56.28.27.63.16a5.52,5.52,0,0,1,1-.29c.35,0,.65.24,1,.32s1.26.22.84.81c-.16.23-.57.17-.66.49s.2.6.39.73c-.15.44-.4.56,0,1,.22.25.55.31.62.67a2.35,2.35,0,0,1-1.74.59c.08.85-3.24.79-3.55,1.27s.56,1,.79,1.41c.05.1.24.2.25.3s-.45.46-.4.66.33.19.53.36c.43.37.32,1,.68,1.31s1.8-.38,1.16.94a3.59,3.59,0,0,0-.36,2.07c.08.8.58.65,1,1.18a4.3,4.3,0,0,1,.34,1c.16.38.43.7.59,1.07.2,0,1.17-.44,1.2-.74,0-.12-.21-.41-.28-.51.56-.65.54,0,1,.16s.83-.25,1.22-.45a7.53,7.53,0,0,0,.5.87c.3.32.58.46.78.93a4.34,4.34,0,0,1,.17,1.57,1.47,1.47,0,0,1-.24,1.07c-.24.52.09.44.13.92s-.83,1.05-.84,1.69c0,.21.15.36.13.54,0,.39-.57.82-.48,1.24s.62.34.86.74c-.31.31-1.64,1.31-.74,1.74a1.63,1.63,0,0,0,1.41-.43c.3-.31.24-.66,0-1,.65-.63.79.71,1.43.79s1.63-.81,2-1.17c.67-.57,0-1.16.85-1.6a4.26,4.26,0,0,1,1.22-.58,2.35,2.35,0,0,1,1.58.7c.24.3.36,1,.67,1.18a1,1,0,0,0,1.09-.26c.19-.35-.24-.43-.26-.77,0-.58.83-.83,1-1.32.3-.82-.82-1.58-.74-2.37,0-.48.7-.72.64-1.27a1.72,1.72,0,0,0-.94-1.1c.78-.51,1.79-.65,2.55-1.16-.22-.46-.94-.77-1.36-1a4.14,4.14,0,0,0-1.43-.51c-.27,0-.65-.06-.74-.34.41-.26,1.57-.75,1.63-1.3,0-.2-.12-.34-.21-.52a5.8,5.8,0,0,0-.57-.6c-.1-.37.41-.34.56-.72.21-.55-.16-.93.67-1.09a9.47,9.47,0,0,0,1,1.38c.53.59,1.2.31,1.84-.13a.52.52,0,0,0-.06-.13c.36-.09.93,1.25,1.27,1.52a1.87,1.87,0,0,0,2.18.12,3.71,3.71,0,0,0,2.4,1.53,3.09,3.09,0,0,0,2.27-1.38c.07-.11-.06-.31.07-.4s.51.06.71,0a6,6,0,0,0,1.54-.48c.48-.18,1-.25,1.46-.41.21-.08.89-.26,1-.48s-.12-.48-.27-.77c-.51-1,.61-1,1.31-1.39a4.52,4.52,0,0,1-.56-1c-.06-.33,0-.06.12-.38.24-.58.1-1,.49-1.53s.65-1.43-.37-1.42-.83-.14-.62-1c.06-.26,0-.52.08-.74.11-.4.47-.7.39-1.15s-.62-.81-.89-1.15c-.44-.54-.33-.85-.43-1.43-.08-.4-.33-.36-.49-.5a1.47,1.47,0,0,1-.43-.54c1.13-.58,1.9-1.94,2.62-2.93.45-.63,2.25-1.43,1.59-2.39C992.6,560.85,992.27,561.21,992,561Z" transform="translate(-891.54 -472.31)"/></g><g class="cls-8"><path class="cls-7" d="M930.37,525.06c-.1,0-.15-.12-.2-.18s-.28-.31-.41-.13.43.38.52.52,0,.41,0,.55a.71.71,0,0,0,.12.52,1,1,0,0,1,.13.89c-.06.09-.19.32-.3.29s-.16-.22-.24-.31-.1-.12-.2-.09-.08.1-.12.12-.08,0-.14,0-.12,0-.19,0,0,.37-.12.37-.25-.35-.36-.45a.38.38,0,0,0-.25-.09c-.1,0-.06.1-.16.16s-.37,0-.53,0-.36.18-.57.31-.15.06-.18.12,0,.12,0,.19-.12.09-.15.19a.89.89,0,0,0,0,.28c0,.1,0,.09.12.12a.48.48,0,0,1,.27.18c.17.2.31.14.55.17s.31,0,.31.12-.32,0-.23.22.13.05.16.09a.28.28,0,0,1,.07.19c-.15,0-.24,0-.26.16a.8.8,0,0,0,0,.26c0,.11.08.12.07.25a3,3,0,0,0,0,.43l-.16,0c-.14.37.4.48.53.7a.49.49,0,0,1-.07.5c-.06,0-.11,0-.15.12s0,.2,0,.28a.21.21,0,0,1-.38.07.77.77,0,0,1-.07-.61c0-.06.07-.25,0-.3s-.16,0-.2,0-.11-.25-.28-.27c-.09.18-.16.16-.26.14a.61.61,0,0,1-.15.17,1.77,1.77,0,0,1,.31.08c0,.29-.27.16-.27.42,0,0,.06,0,.1,0,0,.22-.11.18-.24.3s0,.08-.07.17,0,.08-.12.17-.2.41-.34.58-.37.47-.23.68l.1,0s0,.1,0,.13.11,0,.14-.11a2,2,0,0,1,.1-.26c.05-.09.16-.1.23-.16s.26-.24.32,0-.06.15,0,.22a.24.24,0,0,0,.23,0c.07.11,0,.18.21.17s.16-.07.25,0a.63.63,0,0,1-.16.48c.2.12-.36.83-.31,1s.3,0,.43.06.09,0,.11,0,0,.17.08.19.09,0,.16-.05.26.09.4.07.22-.46.4-.1a1,1,0,0,0,.39.43c.19.11.24,0,.42,0a1.11,1.11,0,0,1,.29.1c.1,0,.22,0,.33,0s.09-.33,0-.39a.44.44,0,0,0-.16,0c-.05-.23.08-.12.2-.2s.09-.22.11-.34a2.19,2.19,0,0,0,.27,0,.91.91,0,0,1,.33,0,1.1,1.1,0,0,1,.37.23c.14.09.12.09.19.23s.12,0,.23.12.09.35.22.47.11,0,.14.06.08.26.19.31.18-.08.31-.07,0,.58.25.45a.43.43,0,0,0,.14-.37c0-.12-.1-.17-.23-.18,0-.24.29,0,.41-.18s.1-.48.09-.63-.25-.2-.21-.45a1.53,1.53,0,0,1,.08-.37.62.62,0,0,1,.41-.22c.11,0,.28.08.37.05a.29.29,0,0,0,.13-.28c-.05-.1-.14,0-.21-.08s0-.31-.12-.43-.48-.09-.64-.24,0-.27-.17-.35a.51.51,0,0,0-.4,0c0-.26.16-.5.17-.75a.88.88,0,0,0-.44.12,1.18,1.18,0,0,0-.35.23c-.06,0-.12.13-.2.1s.1-.46,0-.57-.1,0-.15,0a1,1,0,0,0-.22,0c-.1,0,0-.15-.07-.24s-.23-.13-.12-.33h.47c.22,0,.27-.21.28-.42h0c0-.1.43,0,.54,0s.33-.22.39-.45a1,1,0,0,0,.73-.27.83.83,0,0,0,.08-.72s-.08,0-.07-.08.09-.1.12-.15a1.46,1.46,0,0,0,.16-.41c0-.13.1-.25.15-.39s.09-.23.06-.29-.12-.06-.22-.07c-.29-.05-.12-.31-.08-.52a1,1,0,0,1-.3,0c-.08,0,0,0-.06-.08s-.2-.19-.25-.36-.21-.38-.37-.16-.17.16-.33,0c0,0-.11-.09-.15-.14s-.07-.22-.19-.28-.28,0-.39,0-.24-.07-.39-.15-.13,0-.19,0h-.19a2.33,2.33,0,0,0-.2-1.06c-.06-.2.07-.72-.25-.74C930.44,524.91,930.47,525,930.37,525.06Z" transform="translate(-891.54 -472.31)"/></g><g class="cls-8"><path class="cls-7" d="M920.91,512.7s-.06,0-.07-.06-.1-.11-.15,0,.15.14.19.19,0,.15,0,.2a.27.27,0,0,0,0,.19c.05.09.11.23.05.33s-.07.11-.11.1-.06-.08-.09-.11,0,0-.07,0,0,0,0,0h-.06s0,0-.07,0,0,.13,0,.13-.09-.13-.13-.17-.07,0-.09,0,0,0-.06.06-.13,0-.19,0-.13.06-.21.11,0,0-.07,0,0,0,0,.06,0,0,0,.08a.3.3,0,0,0,0,.1s0,0,.05,0a.17.17,0,0,1,.1.07c.06.07.11.05.2.06s.11,0,.11,0-.12,0-.08.08,0,0,.06,0a.14.14,0,0,1,0,.07s-.09,0-.1.05a.38.38,0,0,0,0,.1.24.24,0,0,1,0,.09.92.92,0,0,0,0,.16H920c0,.14.14.17.19.25a.18.18,0,0,1,0,.18s0,0-.06,0,0,.07,0,.1a.07.07,0,0,1-.13,0,.25.25,0,0,1,0-.22s0-.1,0-.12h-.07s0-.09-.1-.1-.06.06-.1,0a.15.15,0,0,1-.05.06l.11,0c0,.11-.1.06-.1.15l0,0c0,.08,0,.06-.09.1s0,0,0,.07,0,0-.05.06-.07.15-.12.21-.14.17-.09.25l0,0,0,0s0,0,.05,0l0-.09s.06,0,.09-.06.09-.09.11,0,0,0,0,.08a.08.08,0,0,0,.08,0s0,.07.08.07.06,0,.09,0a.21.21,0,0,1-.06.17c.08.05-.13.31-.11.36s.11,0,.16,0h0s0,.06,0,.07,0,0,.06,0,.09,0,.14,0,.08-.17.15,0a.31.31,0,0,0,.14.16c.07,0,.09,0,.15,0s.07,0,.11,0l.12,0a.25.25,0,0,0,0-.15h-.06c0-.09,0,0,.08-.08s0-.08,0-.12.07,0,.1,0h.12a.35.35,0,0,1,.13.08c.05,0,.05,0,.07.08s0,0,.08,0,0,.13.09.17l0,0s0,.1.07.12.06,0,.11,0,0,.21.09.17a.15.15,0,0,0,0-.14.1.1,0,0,0-.08-.07c0-.08.1,0,.15-.06a.58.58,0,0,0,0-.23c0-.09-.09-.07-.08-.17a.61.61,0,0,1,0-.13.25.25,0,0,1,.15-.08s.1,0,.14,0,.06-.08,0-.11,0,0-.07,0,0-.12-.05-.16-.17,0-.23-.09,0-.1-.06-.12a.2.2,0,0,0-.15,0c0-.09.06-.18.07-.27a.37.37,0,0,0-.17,0,.46.46,0,0,0-.13.08s0,0-.07,0,0-.17,0-.21l-.06,0h-.08s0,0,0-.09-.08,0,0-.11h.18c.08,0,.09-.08.1-.16h0s.16,0,.2,0,.12-.08.14-.17a.37.37,0,0,0,.27-.09.36.36,0,0,0,0-.27l0,0s0,0,.05-.06a.38.38,0,0,0,0-.15l.06-.14a.22.22,0,0,0,0-.11s0,0-.08,0,0-.11,0-.19-.08,0-.11,0,0,0,0,0-.07-.07-.09-.13-.08-.14-.14-.06-.06.06-.12,0,0,0,0-.05,0-.08-.07-.1-.1,0-.14,0-.09,0-.14-.05,0,0-.07,0h-.07a1,1,0,0,0-.07-.39c0-.07,0-.26-.1-.27S921,512.7,920.91,512.7Z" transform="translate(-891.54 -472.31)"/></g><g class="cls-8"><path class="cls-7" d="M953.14,502.44s-.06-.05-.07-.07-.11-.11-.15,0,.15.13.19.18,0,.15,0,.21a.24.24,0,0,0,0,.18c.05.1.11.23.05.33s-.07.11-.11.1-.06-.08-.09-.11,0,0-.07,0,0,0,0,0h0s0,0-.06,0,0,.13,0,.13-.09-.13-.13-.16a.18.18,0,0,0-.09,0s0,0-.06.06-.14,0-.19,0-.13.07-.21.12l-.07,0s0,0,0,.07,0,0-.05.07a.3.3,0,0,0,0,.1s0,0,.05,0a.23.23,0,0,1,.1.07c.06.07.11.05.2.06s.11,0,.11,0-.12,0-.08.08,0,0,.06,0a.14.14,0,0,1,0,.07c-.05,0-.09,0-.1.06s0,.07,0,.09,0,0,0,.09a.86.86,0,0,0,0,.16h-.06c0,.14.14.18.19.26a.19.19,0,0,1,0,.18s0,0-.06,0,0,.07,0,.11a.07.07,0,0,1-.13,0,.25.25,0,0,1,0-.22s0-.09,0-.11-.05,0-.07,0,0-.09-.1-.1-.06.06-.1,0a.18.18,0,0,1,0,.07l.11,0c0,.11-.1.06-.1.16h0c0,.08,0,.07-.09.11s0,0,0,.06,0,0-.05.06-.07.15-.12.21-.14.17-.09.25l0,0s0,0,0,0,0,0,0,0l0-.09s.06,0,.09-.06.09-.09.11,0,0,.06,0,.08a.12.12,0,0,0,.08,0s0,.06.08.06.06,0,.09,0a.2.2,0,0,1-.06.17c.08.05-.13.31-.11.36s.11,0,.16,0h0s0,.07,0,.08,0,0,.06,0,.09,0,.14,0,.08-.16.15,0a.33.33,0,0,0,.14.15c.07,0,.09,0,.15,0s.07,0,.11,0l.12,0s0-.12,0-.14H953c0-.08,0,0,.08-.07s0-.08,0-.13l.1,0a.24.24,0,0,1,.12,0s.08.05.13.08a.15.15,0,0,1,.07.09s0,0,.08,0,0,.13.09.17l0,0s0,.1.07.12.06,0,.11,0,0,.21.09.17a.15.15,0,0,0,.05-.14.08.08,0,0,0-.08-.06c0-.09.1,0,.15-.07a.58.58,0,0,0,0-.23c0-.09-.09-.07-.08-.16a.58.58,0,0,1,0-.14.25.25,0,0,1,.15-.08s.1,0,.14,0a.13.13,0,0,0,0-.1s0,0-.08,0,0-.12,0-.16-.17,0-.23-.08,0-.1-.06-.13a.16.16,0,0,0-.15,0c0-.1.06-.19.06-.28s-.11,0-.16.05a.91.91,0,0,0-.13.08s0,0-.07,0,0-.17,0-.21h-.06s-.08,0-.08,0,0-.06,0-.09-.08,0-.05-.12a1.08,1.08,0,0,0,.18,0c.08,0,.09-.08.1-.15h0s.16,0,.2,0,.12-.08.14-.16a.39.39,0,0,0,.27-.1.34.34,0,0,0,0-.26l0,0s0,0,.05-.06a.38.38,0,0,0,0-.15l.06-.14a.2.2,0,0,0,0-.11s0,0-.08,0,0-.11,0-.19h-.11s0,0,0,0-.07-.06-.09-.13-.08-.13-.14,0-.06,0-.12,0,0,0,0-.05,0-.08-.07-.1a.33.33,0,0,0-.14,0,.22.22,0,0,1-.14-.05s-.05,0-.07,0h-.07a1,1,0,0,0-.07-.39c0-.07,0-.26-.1-.27S953.18,502.43,953.14,502.44Z" transform="translate(-891.54 -472.31)"/></g><g class="cls-8"><path class="cls-7" d="M955.69,515s0-.06.06-.08.1-.11,0-.15-.12.17-.17.21a.33.33,0,0,1-.2,0,.26.26,0,0,0-.18.07.35.35,0,0,1-.32.08s-.12-.06-.12-.1.08-.06.11-.1,0,0,0-.07,0,0,0,0a.09.09,0,0,1,0,0s0,0,0-.07-.13,0-.14,0,.12-.11.15-.15,0-.07,0-.09,0,0-.07,0,0-.14,0-.2-.08-.12-.13-.19,0-.06,0-.06h-.07s0,0-.07,0h-.11s0,0,0,0a.14.14,0,0,1-.05.1c-.07.07,0,.12,0,.21s0,.11,0,.12,0-.12-.09-.08,0,0,0,.06a.09.09,0,0,1-.07,0c0-.05,0-.08-.06-.08l-.1,0s0,0-.08,0l-.16,0v-.06c-.14,0-.16.16-.23.22a.18.18,0,0,1-.19,0s0,0-.05,0-.07,0-.1,0a.07.07,0,0,1,0-.13.3.3,0,0,1,.22,0s.09,0,.11,0,0,0,0-.07.09,0,.09-.11-.07-.05-.06-.09a.18.18,0,0,1-.07-.05.5.5,0,0,1,0,.12c-.1,0-.06-.09-.16-.09s0,0,0,0-.07,0-.11-.07,0,0-.07,0,0,0-.06,0-.16-.06-.23-.1-.18-.12-.25-.06l0,0s0,0,0,0,0,0,0,0l.1,0s0,.06.06.08.1.08,0,.11-.06,0-.08,0a.08.08,0,0,0,0,.08s-.06,0-.05.08,0,.06,0,.09a.19.19,0,0,1-.18,0c0,.08-.32-.1-.37-.08s0,.12,0,.17v0s-.06,0-.07,0,0,0,0,.06,0,.09,0,.14.17.07,0,.14a.34.34,0,0,0-.13.16c0,.07,0,.09,0,.15a.35.35,0,0,1,0,.11.48.48,0,0,0,0,.12s.12,0,.14,0v-.06c.08,0,.05,0,.08.07s.08,0,.13,0,0,.07,0,.1a.23.23,0,0,1,0,.12.46.46,0,0,1-.07.14.19.19,0,0,1-.07.08c-.05,0,0,0,0,.08s-.13,0-.16.1,0,0,0,0-.09,0-.11.09,0,.06,0,.1-.21,0-.15.11.1.05.14,0,.05,0,.05-.09,0,.1.08.14.18,0,.24,0,.06-.1.15-.09h.14a.24.24,0,0,1,.09.15s0,.1,0,.13.08,0,.11,0,0,0,0-.08.12,0,.16-.06,0-.18.06-.24.1,0,.12-.08a.18.18,0,0,0,0-.14c.09,0,.18,0,.28,0a.33.33,0,0,0-.07-.16.34.34,0,0,0-.09-.12s-.05,0-.05-.07.18,0,.21,0a.13.13,0,0,0,0-.06l0-.08s.06,0,.09,0,0-.09.11-.06a.88.88,0,0,0,0,.17c0,.08.08.09.16.09h0s0,.15,0,.19a.19.19,0,0,0,.18.12.36.36,0,0,0,.12.26.29.29,0,0,0,.27,0s0,0,0,0,0,0,.05,0a.32.32,0,0,0,.16,0l.14,0s.09,0,.11,0,0,0,0-.08.11-.06.18-.05,0-.09,0-.11,0,0,0,0,.06-.08.12-.1.13-.09,0-.14-.06-.06,0-.12,0,0,0-.06.08,0,.09-.08,0-.1,0-.14,0-.09,0-.15,0,0,0-.07a.11.11,0,0,1,0-.06.85.85,0,0,0,.38-.12c.07,0,.26,0,.26-.12S955.7,515,955.69,515Z" transform="translate(-891.54 -472.31)"/></g><path class="cls-5" d="M936.63,553.4c-1.33,0-4.88,1.9-5.24-.45-.78.29-1.21,1.37-2.1,1.49-.49.06-1.65-.69-2-.92-.72-.42-.2-1-1.18-.59-.38.14-.84,1.07-1.2,1.37-.5-.39-1.61-.94-1.57.2,0,.61,1.24,1.4,1.69,1.68l-.3.49c-1-.19-1.9,1.92-.78,2.53,1-.53,1.53-1.62,2.46-2.23s.91-.36,1.78-.21a9.67,9.67,0,0,0,1.29.32c.47.4.79.51.08,1.06s-.94-.08-1.73,0c-1.12,0-3.09,1.69-2.79,3l.24-.08c-1,1.15.26,2.7,1.8,1.58.3-.21.06-.57.3-.9.36-.49,1.26-1.55,1.85-1.7a5.17,5.17,0,0,1,2,.21c.21.09.46,0,.8.2s.37.74.71.91,2.11,0,2-1.06c-.07-.87-1.3-.32-1.55-1.42-.19-.79,1.12-.87.2-1.59,1.06-.11,1.72-.69,2.71-.83.74-.11,1.3.44,2,.06C937.09,555.18,935.31,555.15,936.63,553.4Z" transform="translate(-891.54 -472.31)"/><g class="cls-8"><path class="cls-7" d="M993.7,508.9l-.31,0a2,2,0,0,0,.14.22A.21.21,0,0,0,993.7,508.9Z" transform="translate(-891.54 -472.31)"/><path class="cls-7" d="M980.43,502.9c.82.27.47,1,1.42.15.8-.7.51-1.25-.29-1.8.88-.17,2.25-.58,3.15-.24.69.27,1.19,1.07,1.86,1.42,1.83,1,2.63-.33,2.23-2.15.76.66,1.68,1.34,1.83,2.37s-.54,1.91-.24,2.93a4.27,4.27,0,0,0,3,3.27c-.51-1,.62-1.13.86-1.84a2.46,2.46,0,0,0-.62-2.36c-.4-.38-1.68-.37-1.74-1.26s1.25-1.34,2-1.27c.21-1.29-1.27-1.62-2-2.37.51-.56,1.56-1.21,1.9-1.9.72-1.44-.66-2.25-1.7-3.21a32.74,32.74,0,0,0-5-3.78,13,13,0,0,1-1.43-1,56.57,56.57,0,0,0-43.77-4.52c.44.71.46,1.8,1.28,2.4a4.3,4.3,0,0,1,1.75,0c.43.14,1,.73,1.4.81,1.27.24,3.3-1,4.54-.21.61.41.38.88,1.17,1.18,1,.4,1.8-.16,1.57,1,0,.28-.62.5-.75.74a4.18,4.18,0,0,0-.22,1.22c-.25.65-1,1.25-.33,2.08-.15.12-.28.37-.44.49.5.33,2.29,1.94,2.83,1.7.91,1.17,3.15-1.7,4.36-2.16.85.68.37,1.6.56,2.31,1.25-1.1,5.19-5.79,5.77-1.56.12.93-.12.95-.75,1.68a20.54,20.54,0,0,0-1.42,2.11c-.87,1.31-2.47,2.11-3.78,3.28-.55-.32-3.94-1.19-2.59.22-.27.14-.41.47-.75.57.19.18.26.57.48.76-.32.22-1.24.7-1.4,1.13s.5.57.37,1c-.24.92-1.65,1.81-.75,2.89,1.14-.87.83-2.25,1.78-2.75.06,0,.43.54.46.53a2.4,2.4,0,0,0,.86-.82c.49-.11.59-.3,1,.28.94-.67,1-2,1.9-2.66s.92,0,1.82-.07a2.43,2.43,0,0,0-.14-.2c.61-1,1.41-.17,2.18-.32a1.83,1.83,0,0,0,1.31-.87c.19-.28-.07-1,.22-1.18,2-1.47,1.29,2.65,1.68,3.23,1.24-.87.15-2.08,1.17-2.49.59-.24,3,.68,1.91-1.28a3.36,3.36,0,0,1,2.49.56c.63.56.53.21.3,1.25s-2.25,3.54-2,4.61c.16.7,1,.69,1.19,1,.36.83-.45,1.55-.69,2.42-.38,1.44.25,1.75,1.34,2.77.87-.84-.14-1.4-.06-2.26s1-1.77,1.5-2.47c.73-1.09,2.52-2.44,2.68-3.75.14-1.11-.75-1.06.38-1.77A2.6,2.6,0,0,1,980.43,502.9Z" transform="translate(-891.54 -472.31)"/></g><g class="cls-8"><path class="cls-7" d="M996.76,565.08c.88,1.19,2.43,3.11,1,4.6-.81.84-1.33.25-2.12.58-1.5.61-.6-.1-1.49,1-1.06,1.36-1.44,3-3,4.06a24.36,24.36,0,0,1-4.89,2c-1.21.42-3,1.23-4.17.34-.72-.53-.78-.58-.8-1.53,0-1.41.61-1.25,1.51-1.48,1.74-.44,3.29,1,4.94-.29.36-.28.53-1,.79-1.32,1.13-1.34,2-1.67,1.3-3.42-.41-.29-1.75-.69-2-1-.78-1.16.31-.87.07-1.89-.41-1.7-2-2.28-1.5-4.32-.62.55-1.2,1.17-1.81,1.74a12.57,12.57,0,0,0-2.07-2.3c-.31,1,.85,2,.46,3.09-.15.43-1.15,1.1-1.5,1.41-1.34-1-3.14-4.49-5-1.73.36.22.6.82,1,1-.51.52-1,1.08-1.53,1.61,1.08,1.31.37,3.16.67,4.74.51,2.63.42,3.71-2.17,5.83-1-1.38-1.34-.11-2.1-.28s-2.19-1.18-2.78-1-.69,2.56-1.88,3.31c-1.64,1-1.17,0-2.57-.08-2-.11-4.46,3.85-6.06,2.26-2.47-2.46,3.28-2.07,3-4.48-.13-1-1.86-.54-1.39-2.26.37-1.33,2.08-1.15,3-1.73a6.59,6.59,0,0,0,2.19-2.5c.45-1-.22-2.1.15-3,.81-2.09,3.39-1.88,2.53-4.64-.26-.83-1.25-2.48-2.35-2-.91.36-.07,2.22-1.25,2.86-2.52-1.55-2,4.15-3.49,4.45s-1.74-1.6-3-1.13a1.75,1.75,0,0,0-.28,3c-1.41-.25-3.56.57-4.75-.67-.9-.94-.1-1.92-1.06-2.73-1,.67-2,3.73-3.61,3.47s-.22-.77-.73-1.44a12.76,12.76,0,0,1-1.09-1.29,4.61,4.61,0,0,1-.05-4.17c.46-1.14,2.33-3.11,1.42-4.24-1.39.77-1.52,2.57-2.86,3.58-.31-1.1.23-2.44.18-3.34a6.07,6.07,0,0,1-2.1,1.41c-1-1.91.07-4.2-1-6.05a19.32,19.32,0,0,0-3.73-3.9c-.94.9.25.77.47,1.61.07.27.53.75.65,1.08s-.41.78-.29,1.08c.44,1.09,1.38,1.85,1.36,3.15,0,1.49-1.15,2-1.5,3.26s.67,2.66-.55,3.46a5.51,5.51,0,0,1-.88-.5c-.41.86.31,1.21-.3,2.06-.2.28-1.39,0-1.87.69a7.18,7.18,0,0,0,2.18,2.54c1,.72,2.4.85,3.2,1.77-2.08,2.26-4,4.87-6.61,2.25a3.14,3.14,0,0,0-1.11,1.18c1.06.68,1.76,2.33,0,2.16-1-.1-1.24-2.33-2.28-.58a1.27,1.27,0,0,1,.18,2.19c.68.88,1.62,1.7,2.39,2.54-1.8,2-2.47,2.84-4.84,2.22-.86-.22-.84-.91-1.92-.75-.64.09-1,1.22-1.81,1.33a4.42,4.42,0,0,1-1.48-.21,56.41,56.41,0,0,0,74.5-4.66,55.48,55.48,0,0,0,6.84-8.28,3.76,3.76,0,0,0,.14-1.88c-.34-1.69-2.35-3.6-3.7-4.83C1000,566,997.89,563.05,996.76,565.08Z" transform="translate(-891.54 -472.31)"/><path class="cls-7" d="M996.76,565.08c.88,1.19,2.43,3.11,1,4.6-.81.84-1.33.25-2.12.58-1.5.61-.6-.1-1.49,1-1.06,1.36-1.44,3-3,4.06a24.36,24.36,0,0,1-4.89,2c-1.21.42-3,1.23-4.17.34-.72-.53-.78-.58-.8-1.53,0-1.41.61-1.25,1.51-1.48,1.74-.44,3.29,1,4.94-.29.36-.28.53-1,.79-1.32,1.13-1.34,2-1.67,1.3-3.42-.41-.29-1.75-.69-2-1-.78-1.16.31-.87.07-1.89-.41-1.7-2-2.28-1.5-4.32-.62.55-1.2,1.17-1.81,1.74a12.57,12.57,0,0,0-2.07-2.3c-.31,1,.85,2,.46,3.09-.15.43-1.15,1.1-1.5,1.41-1.34-1-3.14-4.49-5-1.73.36.22.6.82,1,1-.51.52-1,1.08-1.53,1.61,1.08,1.31.37,3.16.67,4.74.51,2.63.42,3.71-2.17,5.83-1-1.38-1.34-.11-2.1-.28s-2.19-1.18-2.78-1-.69,2.56-1.88,3.31c-1.64,1-1.17,0-2.57-.08-2-.11-4.46,3.85-6.06,2.26-2.47-2.46,3.28-2.07,3-4.48-.13-1-1.86-.54-1.39-2.26.37-1.33,2.08-1.15,3-1.73a6.59,6.59,0,0,0,2.19-2.5c.45-1-.22-2.1.15-3,.81-2.09,3.39-1.88,2.53-4.64-.26-.83-1.25-2.48-2.35-2-.91.36-.07,2.22-1.25,2.86-2.52-1.55-2,4.15-3.49,4.45s-1.74-1.6-3-1.13a1.75,1.75,0,0,0-.28,3c-1.41-.25-3.56.57-4.75-.67-.9-.94-.1-1.92-1.06-2.73-1,.67-2,3.73-3.61,3.47s-.22-.77-.73-1.44a12.76,12.76,0,0,1-1.09-1.29,4.61,4.61,0,0,1-.05-4.17c.46-1.14,2.33-3.11,1.42-4.24-1.39.77-1.52,2.57-2.86,3.58-.31-1.1.23-2.44.18-3.34a6.07,6.07,0,0,1-2.1,1.41c-1-1.91.07-4.2-1-6.05a19.32,19.32,0,0,0-3.73-3.9c-.94.9.25.77.47,1.61.07.27.53.75.65,1.08s-.41.78-.29,1.08c.44,1.09,1.38,1.85,1.36,3.15,0,1.49-1.15,2-1.5,3.26s.67,2.66-.55,3.46a5.51,5.51,0,0,1-.88-.5c-.41.86.31,1.21-.3,2.06-.2.28-1.39,0-1.87.69a7.18,7.18,0,0,0,2.18,2.54c1,.72,2.4.85,3.2,1.77-2.08,2.26-4,4.87-6.61,2.25a3.14,3.14,0,0,0-1.11,1.18c1.06.68,1.76,2.33,0,2.16-1-.1-1.24-2.33-2.28-.58a1.27,1.27,0,0,1,.18,2.19c.68.88,1.62,1.7,2.39,2.54-1.8,2-2.47,2.84-4.84,2.22-.86-.22-.84-.91-1.92-.75-.64.09-1,1.22-1.81,1.33a4.42,4.42,0,0,1-1.48-.21,56.41,56.41,0,0,0,74.5-4.66,55.48,55.48,0,0,0,6.84-8.28,3.76,3.76,0,0,0,.14-1.88c-.34-1.69-2.35-3.6-3.7-4.83C1000,566,997.89,563.05,996.76,565.08Z" transform="translate(-891.54 -472.31)"/></g><path class="cls-9" d="M990.72,523.3c-1.29,1.5-2.49,2.87-4,.77a1.53,1.53,0,0,0-.89,1.43l.3,2.07c-.12.21,0,.82-.49,1.18.7,1.4,1.93.44,2.71-.4a2.06,2.06,0,0,1,.66.72c-.34.21-.58.8-.92,1l1.51,1.59c-1,1.31-2.44,2.47-3.57,3.73,1.29,1.87,2,.13,3-.47-.24,1.34,1.53,2.82,2.82,1.88s-.38-2-.47-3.54c.43,1.35,1.84,3.71,3.26,2.58s-.35-2.67-.15-4.29c.23-1.91.45-2.5-.53-4.42A9.4,9.4,0,0,0,990.72,523.3Z" transform="translate(-891.54 -472.31)"/><g class="cls-10"><path class="cls-7" d="M989.66,548.58a1.26,1.26,0,0,0-.3-.24,1.23,1.23,0,0,0-.12.62A2.19,2.19,0,0,0,989.66,548.58Z" transform="translate(-891.54 -472.31)"/><path class="cls-7" d="M1001.52,502.79a10.82,10.82,0,0,0,.23,1.88c.28.79,1.21,1.54,1.65,2.25.87,1.42,3.13,3.77,1.31,5.25.69,1.17,2.19,1.92,2.71,3.17.33.82-.15,1.78.16,2.56.21.56.86.92,1.24,1.37a2.62,2.62,0,0,1,.22,3.43c-.59.93-2,1.47-2.14,0-.12,1.51-1.14.91-1.84.1-.12,1.23-.92,1.58-1.78,1.13-1.27-.66-1.2-2-1.69-3.1.08.94.17,1.87-.8,2.37a14.49,14.49,0,0,0-3.58-2.23c-1.68-.8-1.11-.32-2.5.67-.83-.87-2.56-2.81-3.5-1.18a18.85,18.85,0,0,0,2.51,2.19,14.6,14.6,0,0,0,1.18,1.18c.5.36,1,.4,1.48.69,1.15.72.72,1.24,1.28,2.27s1.44,1.18,1.53,2.65c.15,2.43-.08,2.33,2.28,2.59,1.27.14,2.83,1.11,1.21,2.34-1.19.91-2.71-1-2.46,1,.07.59.84.49.68,1.31-.12.62-1.26,1.1-1.76,1,.66,2.6-3,1.1-3.76,1.55-1,.58-.55,1.62-1,2.38-.9,1.49-2.19.81-3.42,1.09s-2.84,2.16-3.43,3.2c-.42.74-.73,1.48.09,2.07.53.38,1.13-.12,1.75.24a7.87,7.87,0,0,1,1.89-2.09c.93.57.42,2,0,2.74.39.42-2.49,4.65.66,2.69,1.35.71,0,1.29-.48,2.06-.55.93-.53,1.71-1.36,2.53.41,2.05,2.48.85,3.51,0,.47-.38.91-1.29,1.58-1.24a1.43,1.43,0,0,1,1,1.67c1.59-.39,4.31-4.77,4.72-1.42.21,1.75-2.38,4,.22,3.52,1.23-.23,1.71-.81,2.59-.07a7.74,7.74,0,0,1,1.31,2c.19.69-.54,1.67.41,1.81.62.08,1-.81,1.59-.82.17,1.05-.85,1.81-.84,2.76s1.21,1.31,1.59,2.12A56.46,56.46,0,0,0,1001.52,502.79Z" transform="translate(-891.54 -472.31)"/></g><path class="cls-11" d="M998.42,499.28a56.5,56.5,0,1,1-79.91,0A56.52,56.52,0,0,1,998.42,499.28Z" transform="translate(-891.54 -472.31)"/><path class="cls-12" d="M980.71,540.71a41.54,41.54,0,1,1-41.54-41.92A41.74,41.74,0,0,1,980.71,540.71Z" transform="translate(-891.54 -472.31)"/></g></g></svg>