<svg id="Слой_1" data-name="Слой 1" xmlns="http://www.w3.org/2000/svg" xmlns:xlink="http://www.w3.org/1999/xlink" viewBox="0 0 78 78"><defs><style>.cls-1{fill:#e2e6ed;stroke:#000;opacity:0;}.cls-1,.cls-3,.cls-4{stroke-miterlimit:10;}.cls-2{fill:#29abe2;}.cls-3,.cls-4{stroke:#e6e6e6;stroke-width:0.75px;}.cls-3{fill:url(#Безымянный_градиент_3);}.cls-4{fill:url(#Безымянный_градиент_3-2);}</style><linearGradient id="Безымянный_градиент_3" x1="985.03" y1="555.88" x2="986.23" y2="614.87" gradientUnits="userSpaceOnUse"><stop offset="0" stop-color="#fff"/><stop offset="1" stop-color="#0071bc"/></linearGradient><linearGradient id="Безымянный_градиент_3-2" x1="992.27" y1="560.13" x2="992.84" y2="588.32" xlink:href="#Безымянный_градиент_3"/></defs><rect class="cls-1" x="0.5" y="0.5" width="77" height="77"/><path class="cls-2" d="M1000.48,579.29a10.73,10.73,0,0,0-5.94,3.67,3,3,0,0,0-.55,3.33,3.47,3.47,0,0,0,4,1.08,2.68,2.68,0,0,0,1.1-1c1.35-2.12.45-4.69,1.73-6.84" transform="translate(-944.26 -521.72)"/><path class="cls-3" d="M1001.76,550.15H998v-.26A12.91,12.91,0,0,0,985.13,537h0a12.91,12.91,0,0,0-12.91,12.91v.26h-3.63a12.92,12.92,0,1,0,0,25.83h33.17a12.92,12.92,0,0,0,0-25.83Z" transform="translate(-944.26 -521.72)"/><path class="cls-4" d="M1001.53,557.38h-2.06v-.12c0-3.4-3.2-6.16-7.16-6.16h0c-3.95,0-7.16,2.76-7.16,6.16v.12h-2c-4,0-7.16,2.76-7.16,6.17s3.2,6.16,7.16,6.16h18.39c4,0,7.17-2.76,7.17-6.16S1005.49,557.38,1001.53,557.38Z" transform="translate(-944.26 -521.72)"/><path class="cls-2" d="M973.92,578.72a10.76,10.76,0,0,0-5.95,3.67,3,3,0,0,0-.55,3.33,3.47,3.47,0,0,0,4,1.08,2.78,2.78,0,0,0,1.11-1c1.35-2.12.45-4.69,1.72-6.84" transform="translate(-944.26 -521.72)"/><path class="cls-2" d="M987.48,579.29a10.73,10.73,0,0,0-5.94,3.67,3,3,0,0,0-.55,3.33,3.47,3.47,0,0,0,4,1.08,2.68,2.68,0,0,0,1.1-1c1.35-2.12.45-4.69,1.73-6.84" transform="translate(-944.26 -521.72)"/><path class="cls-2" d="M977.48,588.29a10.73,10.73,0,0,0-5.94,3.67,3,3,0,0,0-.55,3.33,3.47,3.47,0,0,0,4,1.08,2.68,2.68,0,0,0,1.1-1c1.35-2.12.45-4.69,1.73-6.84" transform="translate(-944.26 -521.72)"/><path class="cls-2" d="M991.48,588.29a10.73,10.73,0,0,0-5.94,3.67,3,3,0,0,0-.55,3.33,3.47,3.47,0,0,0,4,1.08,2.68,2.68,0,0,0,1.1-1c1.35-2.12.45-4.69,1.73-6.84" transform="translate(-944.26 -521.72)"/></svg>