<svg id="Слой_1" data-name="Слой 1" xmlns="http://www.w3.org/2000/svg" xmlns:xlink="http://www.w3.org/1999/xlink" viewBox="0 0 88 78"><defs><style>.cls-1{fill:#333348;stroke:#b3b3b3;opacity:0;}.cls-1,.cls-3{stroke-miterlimit:10;}.cls-2{fill:url(#Безымянный_градиент_16);}.cls-3{fill:#ff0;stroke:#fcee21;stroke-width:0.25px;}.cls-4{fill:url(#Безымянный_градиент_14);}.cls-5{fill:url(#Безымянный_градиент_16-2);}</style><radialGradient id="Безымянный_градиент_16" cx="1127.09" cy="537.22" r="30.68" gradientTransform="translate(-17.38 -57.51) scale(1.05 1.15)" gradientUnits="userSpaceOnUse"><stop offset="0" stop-color="#ff0" stop-opacity="0.56"/><stop offset="0.13" stop-color="#f7f703" stop-opacity="0.54"/><stop offset="0.29" stop-color="#e1e10b" stop-opacity="0.48"/><stop offset="0.46" stop-color="#bcbc17" stop-opacity="0.38"/><stop offset="0.65" stop-color="#898929" stop-opacity="0.24"/><stop offset="0.85" stop-color="#494940" stop-opacity="0.06"/><stop offset="0.91" stop-color="#333348" stop-opacity="0"/></radialGradient><radialGradient id="Безымянный_градиент_14" cx="946" cy="491.28" r="30.77" gradientTransform="matrix(1.51, -0.01, 0.01, 0.84, -1387.3, -350.6)" gradientUnits="userSpaceOnUse"><stop offset="0" stop-color="#0071bc"/><stop offset="0.11" stop-color="#016fb9" stop-opacity="0.97"/><stop offset="0.24" stop-color="#066aaf" stop-opacity="0.89"/><stop offset="0.39" stop-color="#0d629f" stop-opacity="0.75"/><stop offset="0.55" stop-color="#165689" stop-opacity="0.56"/><stop offset="0.72" stop-color="#23476d" stop-opacity="0.32"/><stop offset="0.89" stop-color="#32344b" stop-opacity="0.02"/><stop offset="0.91" stop-color="#333348" stop-opacity="0"/></radialGradient><radialGradient id="Безымянный_градиент_16-2" cx="1765.23" cy="177.12" r="30.68" gradientTransform="matrix(0.59, 0, 0, -1.02, 126.74, 740.98)" xlink:href="#Безымянный_градиент_16"/></defs><rect class="cls-1" x="0.5" y="0.5" width="87" height="77"/><path class="cls-2" d="M1196.77,561.49a23.28,23.28,0,0,0,1-6.47c0-15.2-14.77-27.53-33-27.53s-33,12.33-33,27.53a23.28,23.28,0,0,0,1,6.47Z" transform="translate(-1120.72 -514.49)"/><path class="cls-3" d="M1175.82,561a13.07,13.07,0,0,0,.37-3,12.8,12.8,0,1,0-25.6,0,13.07,13.07,0,0,0,.37,3Z" transform="translate(-1120.72 -514.49)"/><rect class="cls-4" x="1" y="47" width="86" height="29"/><path class="cls-5" d="M1182.19,561a32.15,32.15,0,0,1,.53,5.71c0,13.42-8.28,24.29-18.5,24.29s-18.5-10.87-18.5-24.29a31.24,31.24,0,0,1,.54-5.71Z" transform="translate(-1120.72 -514.49)"/></svg>