<svg id="Слой_1" data-name="Слой 1" xmlns="http://www.w3.org/2000/svg" xmlns:xlink="http://www.w3.org/1999/xlink" viewBox="0 0 88 78"><defs><style>.cls-1{fill:#e2e6ed;stroke:#000;opacity:0;}.cls-1,.cls-3{stroke-miterlimit:10;}.cls-2{fill:url(#Безымянный_градиент_27);}.cls-3{fill:#f15a24;stroke:#ed1c24;stroke-width:0.25px;}.cls-4{fill:url(#Безымянный_градиент_22);}</style><radialGradient id="Безымянный_градиент_27" cx="765.99" cy="489.6" r="30.68" gradientTransform="translate(-99.35 -198.14) scale(1.38 1.53)" gradientUnits="userSpaceOnUse"><stop offset="0" stop-color="#f15a24" stop-opacity="0.56"/><stop offset="0.15" stop-color="#f15e2a" stop-opacity="0.54"/><stop offset="0.31" stop-color="#ef6b3d" stop-opacity="0.49"/><stop offset="0.47" stop-color="#ed815b" stop-opacity="0.41"/><stop offset="0.63" stop-color="#ea9f87" stop-opacity="0.29"/><stop offset="0.79" stop-color="#e6c5be" stop-opacity="0.13"/><stop offset="0.91" stop-color="#e2e6ed" stop-opacity="0"/></radialGradient><radialGradient id="Безымянный_градиент_22" cx="777.81" cy="485" r="30.77" gradientTransform="matrix(1.53, -0.01, 0.01, 0.83, -1146.69, -343.02)" gradientUnits="userSpaceOnUse"><stop offset="0" stop-color="#0047a1"/><stop offset="0.12" stop-color="#084ca4" stop-opacity="0.97"/><stop offset="0.27" stop-color="#1d5cab" stop-opacity="0.87"/><stop offset="0.43" stop-color="#4175b7" stop-opacity="0.71"/><stop offset="0.61" stop-color="#7498c8" stop-opacity="0.49"/><stop offset="0.79" stop-color="#b3c5dd" stop-opacity="0.21"/><stop offset="0.91" stop-color="#e2e6ed" stop-opacity="0"/></radialGradient></defs><rect class="cls-1" x="0.5" y="0.5" width="87" height="77"/><path class="cls-2" d="M1002.46,548.49a30.56,30.56,0,0,0,1.26-8.56c0-20.13-19.47-36.44-43.5-36.44s-43.5,16.31-43.5,36.44a30.93,30.93,0,0,0,1.26,8.56Z" transform="translate(-915.72 -501.49)"/><path class="cls-3" d="M971.89,548.49a13.07,13.07,0,0,0,.37-3,12.8,12.8,0,1,0-25.6,0,12.55,12.55,0,0,0,.37,3Z" transform="translate(-915.72 -501.49)"/><rect class="cls-4" x="1" y="47.33" width="87" height="28.67"/></svg>