<svg id="Слой_1" data-name="Слой 1" xmlns="http://www.w3.org/2000/svg" viewBox="0 0 39.8 28.39"><defs><style>.cls-1{fill:#569fea;stroke:#006094;stroke-miterlimit:10;}</style></defs><path class="cls-1" d="M193.59,231.15h-.92v-1.4a9.49,9.49,0,0,0-9.49-9.49h0a9.49,9.49,0,0,0-9.42,8.41h-1.24a9.49,9.49,0,0,0,0,19h21.07a8.25,8.25,0,0,0,0-16.5Zm1.34,14.68H177.22a3.47,3.47,0,0,1,0-6.88h3.5c0-3.26,2.33-5.91,5.2-5.91h.31c2.87,0,5.2,2.65,5.2,5.91h3.5a3.47,3.47,0,0,1,0,6.88Z" transform="translate(-162.53 -219.76)"/></svg>