<svg xmlns="http://www.w3.org/2000/svg" version="1.1" xmlns:xlink="http://www.w3.org/1999/xlink" width="41.7" height="30.4"><svg id="SvgjsSvg1006" data-name="Слой 1" xmlns="http://www.w3.org/2000/svg" viewBox="0 0 41.7 30.4"><defs><style>.cls-1{fill:#fff;stroke:#000;stroke-miterlimit:10;}</style></defs><path class="cls-1" d="M269.16,116.3h-.61a11.17,11.17,0,0,0-22.21,0H246a8.75,8.75,0,0,0-8.75,8.75v2a8.75,8.75,0,0,0,8.75,8.75h23.19a8.75,8.75,0,0,0,8.75-8.75v-2A8.75,8.75,0,0,0,269.16,116.3Zm-3.77,12.31A2.35,2.35,0,0,1,263,131h-11a2.35,2.35,0,0,1-2.35-2.34h0a2.35,2.35,0,0,1,2.35-2.35h11a2.35,2.35,0,0,1,2.35,2.35Z" transform="translate(-236.72 -105.87)"></path></svg><style>@media (prefers-color-scheme: light) { :root { filter: none; } }
@media (prefers-color-scheme: dark) { :root { filter: none; } }
</style></svg>