<svg id="Слой_1" data-name="Слой 1" xmlns="http://www.w3.org/2000/svg" xmlns:xlink="http://www.w3.org/1999/xlink" viewBox="0 0 65.25 55.67"><defs><style>.cls-1{fill:#feda53;stroke:#fbb03b;}.cls-1,.cls-2,.cls-3{stroke-miterlimit:10;stroke-width:0.75px;}.cls-2,.cls-3{stroke:#e6e6e6;}.cls-2{fill:url(#Безымянный_градиент_3);}.cls-3{fill:url(#Безымянный_градиент_3-2);}.cls-4{fill:#29abe2;}</style><linearGradient id="Безымянный_градиент_3" x1="359.75" y1="213.02" x2="360.95" y2="272.01" gradientUnits="userSpaceOnUse"><stop offset="0" stop-color="#fff"/><stop offset="1" stop-color="#0071bc"/></linearGradient><linearGradient id="Безымянный_градиент_3-2" x1="366.99" y1="217.27" x2="367.56" y2="245.46" xlink:href="#Безымянный_градиент_3"/></defs><ellipse class="cls-1" cx="20.19" cy="17.86" rx="8.8" ry="8.48"/><rect class="cls-1" x="19.09" y="0.38" width="2.2" height="7.42" rx="0.87"/><rect class="cls-1" x="19.09" y="27.93" width="2.2" height="7.42" rx="0.87"/><rect class="cls-1" x="358.5" y="203.11" width="2.12" height="7.7" rx="0.88" transform="translate(-171.92 377.43) rotate(-90)"/><rect class="cls-1" x="327.68" y="203.11" width="2.12" height="7.7" rx="0.88" transform="translate(-202.73 346.61) rotate(-90)"/><path class="cls-1" d="M336.42,199.51h0a1.12,1.12,0,0,1-1.56,0L331,195.77a1,1,0,0,1,0-1.5h0a1.12,1.12,0,0,1,1.56,0l3.89,3.75A1,1,0,0,1,336.42,199.51Z" transform="translate(-324.52 -189.1)"/><path class="cls-1" d="M358.43,220.54h0a1.13,1.13,0,0,1-1.55,0L353,216.79a1,1,0,0,1,0-1.5h0a1.13,1.13,0,0,1,1.55,0l3.89,3.75A1,1,0,0,1,358.43,220.54Z" transform="translate(-324.52 -189.1)"/><path class="cls-1" d="M354.09,199.34h0a1.11,1.11,0,0,0,1.55,0l3.89-3.75a1,1,0,0,0,0-1.5h0a1.13,1.13,0,0,0-1.55,0l-3.89,3.75A1,1,0,0,0,354.09,199.34Z" transform="translate(-324.52 -189.1)"/><path class="cls-1" d="M331,220.47h0a1.12,1.12,0,0,0,1.56,0l3.89-3.75a1,1,0,0,0,0-1.5h0a1.14,1.14,0,0,0-1.56,0L331,219A1,1,0,0,0,331,220.47Z" transform="translate(-324.52 -189.1)"/><path class="cls-2" d="M376.48,207.29h-3.72V207a12.91,12.91,0,0,0-12.91-12.91h0A12.91,12.91,0,0,0,346.94,207v.26H343.3a12.92,12.92,0,0,0,0,25.83h33.18a12.92,12.92,0,0,0,0-25.83Z" transform="translate(-324.52 -189.1)"/><path class="cls-3" d="M376.25,214.52h-2.06v-.12c0-3.4-3.2-6.16-7.16-6.16h0c-3.95,0-7.16,2.76-7.16,6.16v.12h-2c-4,0-7.16,2.76-7.16,6.16s3.2,6.17,7.16,6.17h18.39c4,0,7.16-2.76,7.16-6.17S380.21,214.52,376.25,214.52Z" transform="translate(-324.52 -189.1)"/><path class="cls-4" d="M349.49,235.86a10.83,10.83,0,0,0-5.95,3.67,3,3,0,0,0-.55,3.34,3.45,3.45,0,0,0,4,1.07,2.66,2.66,0,0,0,1.1-1c1.35-2.13.45-4.7,1.73-6.85" transform="translate(-324.52 -189.1)"/><path class="cls-4" d="M363.05,236.43a10.81,10.81,0,0,0-5.95,3.67,3,3,0,0,0-.55,3.34,3.47,3.47,0,0,0,4,1.07,2.76,2.76,0,0,0,1.11-1c1.35-2.13.45-4.7,1.72-6.85" transform="translate(-324.52 -189.1)"/><path class="cls-4" d="M376.05,236.43a10.81,10.81,0,0,0-5.95,3.67,3,3,0,0,0-.55,3.34,3.47,3.47,0,0,0,4,1.07,2.76,2.76,0,0,0,1.11-1c1.35-2.13.45-4.7,1.72-6.85" transform="translate(-324.52 -189.1)"/></svg>