<svg id="Слой_1" data-name="Слой 1" xmlns="http://www.w3.org/2000/svg" xmlns:xlink="http://www.w3.org/1999/xlink" viewBox="0 0 78 78"><defs><style>.cls-1{fill:#e2e6ed;stroke:#000;opacity:0;}.cls-1,.cls-2,.cls-3,.cls-4{stroke-miterlimit:10;}.cls-2{fill:#feda53;stroke:#fbb03b;}.cls-2,.cls-3,.cls-4{stroke-width:0.75px;}.cls-3,.cls-4{stroke:#e6e6e6;}.cls-3{fill:url(#Безымянный_градиент_3);}.cls-4{fill:url(#Безымянный_градиент_3-2);}.cls-5{fill:#29abe2;}</style><linearGradient id="Безымянный_градиент_3" x1="984.59" y1="556.27" x2="985.79" y2="615.25" gradientUnits="userSpaceOnUse"><stop offset="0" stop-color="#fff"/><stop offset="1" stop-color="#0071bc"/></linearGradient><linearGradient id="Безымянный_градиент_3-2" x1="991.83" y1="560.51" x2="992.41" y2="588.7" xlink:href="#Безымянный_градиент_3"/></defs><rect class="cls-1" x="0.5" y="0.5" width="77" height="77"/><ellipse class="cls-2" cx="25.29" cy="28.49" rx="8.8" ry="8.48"/><rect class="cls-2" x="24.19" y="11" width="2.2" height="7.42" rx="0.87"/><rect class="cls-2" x="24.19" y="38.56" width="2.2" height="7.42" rx="0.87"/><rect class="cls-2" x="983.35" y="546.35" width="2.12" height="7.7" rx="0.88" transform="translate(-510.06 1012.9) rotate(-90)"/><rect class="cls-2" x="952.53" y="546.35" width="2.12" height="7.7" rx="0.88" transform="translate(-540.88 982.08) rotate(-90)"/><path class="cls-2" d="M961.27,542.76h0a1.14,1.14,0,0,1-1.56,0L955.82,539a1,1,0,0,1,0-1.5h0a1.14,1.14,0,0,1,1.56,0l3.89,3.75A1,1,0,0,1,961.27,542.76Z" transform="translate(-944.26 -521.72)"/><path class="cls-2" d="M983.28,563.79h0a1.14,1.14,0,0,1-1.56,0L977.83,560a1,1,0,0,1,0-1.5h0a1.14,1.14,0,0,1,1.56,0l3.89,3.75A1,1,0,0,1,983.28,563.79Z" transform="translate(-944.26 -521.72)"/><path class="cls-2" d="M978.93,542.59h0a1.14,1.14,0,0,0,1.56,0l3.89-3.75a1,1,0,0,0,0-1.5h0a1.14,1.14,0,0,0-1.56,0l-3.89,3.75A1,1,0,0,0,978.93,542.59Z" transform="translate(-944.26 -521.72)"/><path class="cls-2" d="M955.82,563.72h0a1.14,1.14,0,0,0,1.56,0l3.89-3.75a1,1,0,0,0,0-1.5h0a1.14,1.14,0,0,0-1.56,0l-3.89,3.75A1,1,0,0,0,955.82,563.72Z" transform="translate(-944.26 -521.72)"/><path class="cls-3" d="M1001.33,550.54h-3.72v-.26a12.91,12.91,0,0,0-12.91-12.92h0a12.91,12.91,0,0,0-12.92,12.92v.26h-3.63a12.91,12.91,0,1,0,0,25.82h33.18a12.91,12.91,0,0,0,0-25.82Z" transform="translate(-944.26 -521.72)"/><path class="cls-4" d="M1001.1,557.77H999v-.13c0-3.4-3.21-6.16-7.16-6.16h0c-4,0-7.16,2.76-7.16,6.16v.13h-2c-4,0-7.16,2.76-7.16,6.16s3.21,6.16,7.16,6.16h18.4c3.95,0,7.16-2.76,7.16-6.16S1005.05,557.77,1001.1,557.77Z" transform="translate(-944.26 -521.72)"/><path class="cls-5" d="M974.33,579.11a10.75,10.75,0,0,0-5.94,3.67,3,3,0,0,0-.55,3.33,3.46,3.46,0,0,0,4,1.08,2.75,2.75,0,0,0,1.1-1c1.35-2.12.45-4.69,1.72-6.84" transform="translate(-944.26 -521.72)"/><path class="cls-5" d="M987.9,579.68a10.81,10.81,0,0,0-5.95,3.67,3,3,0,0,0-.55,3.33,3.46,3.46,0,0,0,4,1.08,2.68,2.68,0,0,0,1.1-1c1.36-2.12.45-4.69,1.73-6.84" transform="translate(-944.26 -521.72)"/><path class="cls-5" d="M1000.9,579.68a10.81,10.81,0,0,0-5.95,3.67,3,3,0,0,0-.55,3.33,3.46,3.46,0,0,0,4,1.08,2.68,2.68,0,0,0,1.1-1c1.36-2.12.45-4.69,1.73-6.84" transform="translate(-944.26 -521.72)"/></svg>