<svg id="Слой_1" data-name="Слой 1" xmlns="http://www.w3.org/2000/svg" xmlns:xlink="http://www.w3.org/1999/xlink" viewBox="0 0 77 77"><defs><style>.cls-1{fill:none;}.cls-2{fill:#29abe2;}.cls-3,.cls-4{stroke:#e6e6e6;}.cls-3,.cls-4,.cls-5{stroke-miterlimit:10;stroke-width:0.75px;}.cls-3{fill:url(#Безымянный_градиент_3);}.cls-4{fill:url(#Безымянный_градиент_3-2);}.cls-5{fill:#feda53;stroke:#fbb03b;}</style><linearGradient id="Безымянный_градиент_3" x1="984.16" y1="555.7" x2="985.36" y2="614.69" gradientUnits="userSpaceOnUse"><stop offset="0" stop-color="#fff"/><stop offset="1" stop-color="#0071bc"/></linearGradient><linearGradient id="Безымянный_градиент_3-2" x1="991.4" y1="559.95" x2="991.97" y2="588.14" xlink:href="#Безымянный_градиент_3"/></defs><rect class="cls-1" width="77" height="77"/><path class="cls-2" d="M999.62,579.11a10.72,10.72,0,0,0-6,3.67,3,3,0,0,0-.55,3.33,3.47,3.47,0,0,0,4,1.08,2.68,2.68,0,0,0,1.1-1c1.35-2.12.45-4.69,1.73-6.84" transform="translate(-944.76 -522.22)"/><path class="cls-3" d="M1000.89,550h-3.72v-.26a12.91,12.91,0,0,0-12.91-12.91h0a12.91,12.91,0,0,0-12.91,12.91V550h-3.63a12.92,12.92,0,1,0,0,25.83h33.17a12.92,12.92,0,0,0,0-25.83Z" transform="translate(-944.76 -522.22)"/><path class="cls-4" d="M1000.67,557.2H998.6v-.12c0-3.4-3.2-6.16-7.16-6.16h0c-4,0-7.16,2.76-7.16,6.16v.12h-2c-4,0-7.16,2.76-7.16,6.17s3.2,6.16,7.16,6.16h18.4c4,0,7.16-2.76,7.16-6.16S1004.62,557.2,1000.67,557.2Z" transform="translate(-944.76 -522.22)"/><path class="cls-2" d="M973.05,578.54a10.76,10.76,0,0,0-5.95,3.67,3,3,0,0,0-.55,3.33,3.47,3.47,0,0,0,4,1.08,2.78,2.78,0,0,0,1.11-1c1.35-2.12.45-4.69,1.72-6.84" transform="translate(-944.76 -522.22)"/><path class="cls-2" d="M976.62,588.11a10.72,10.72,0,0,0-6,3.67,3,3,0,0,0-.55,3.33,3.47,3.47,0,0,0,4,1.08,2.68,2.68,0,0,0,1.1-1c1.35-2.12.45-4.69,1.73-6.84" transform="translate(-944.76 -522.22)"/><path class="cls-2" d="M990.62,588.11a10.72,10.72,0,0,0-6,3.67,3,3,0,0,0-.55,3.33,3.47,3.47,0,0,0,4,1.08,2.68,2.68,0,0,0,1.1-1c1.35-2.12.45-4.69,1.73-6.84" transform="translate(-944.76 -522.22)"/><path class="cls-5" d="M993.92,568.91a.91.91,0,0,0-.76,0h-6.33l3-13.65c.06-.27-.19-.53-.57-.58a.82.82,0,0,0-.63.18.81.81,0,0,0-.23.17L974.3,573a.38.38,0,0,0,0,.43s0,0,0,.05c0,.28.3.5.68.5h6.64l-3,13.32c-.06.27.19.53.57.57a.78.78,0,0,0,.63-.18.52.52,0,0,0,.22-.16l14.15-17.92C994.36,569.36,994.25,569.05,993.92,568.91Z" transform="translate(-944.76 -522.22)"/></svg>