<svg id="Слой_1" data-name="Слой 1" xmlns="http://www.w3.org/2000/svg" xmlns:xlink="http://www.w3.org/1999/xlink" viewBox="0 0 59.75 60.02"><defs><style>.cls-1{fill:#29abe2;}.cls-2,.cls-3{stroke:#e6e6e6;}.cls-2,.cls-3,.cls-4{stroke-miterlimit:10;stroke-width:0.75px;}.cls-2{fill:url(#Безымянный_градиент_3);}.cls-3{fill:url(#Безымянный_градиент_3-2);}.cls-4{fill:#feda53;stroke:#fbb03b;}</style><linearGradient id="Безымянный_градиент_3" x1="324.72" y1="195.41" x2="325.92" y2="254.4" gradientUnits="userSpaceOnUse"><stop offset="0" stop-color="#fff"/><stop offset="1" stop-color="#0071bc"/></linearGradient><linearGradient id="Безымянный_градиент_3-2" x1="331.96" y1="199.66" x2="332.54" y2="227.85" xlink:href="#Безымянный_градиент_3"/></defs><path class="cls-1" d="M340.18,218.82a10.76,10.76,0,0,0-5.95,3.67,3,3,0,0,0-.55,3.33,3.46,3.46,0,0,0,4,1.08,2.68,2.68,0,0,0,1.1-1c1.36-2.12.45-4.69,1.73-6.84" transform="translate(-294.99 -176.13)"/><path class="cls-2" d="M341.46,189.68h-3.72v-.26a12.91,12.91,0,0,0-12.91-12.91h0a12.91,12.91,0,0,0-12.92,12.91v.26h-3.63a12.92,12.92,0,0,0,0,25.83h33.18a12.92,12.92,0,0,0,0-25.83Z" transform="translate(-294.99 -176.13)"/><path class="cls-3" d="M341.23,196.91h-2.06v-.12c0-3.4-3.21-6.16-7.16-6.16h0c-4,0-7.16,2.76-7.16,6.16v.12h-2c-3.95,0-7.16,2.76-7.16,6.17s3.21,6.16,7.16,6.16h18.4c3.95,0,7.16-2.76,7.16-6.16S345.18,196.91,341.23,196.91Z" transform="translate(-294.99 -176.13)"/><path class="cls-1" d="M313.62,218.25a10.72,10.72,0,0,0-5.95,3.67,3,3,0,0,0-.55,3.33,3.46,3.46,0,0,0,4,1.08,2.68,2.68,0,0,0,1.1-1c1.35-2.12.45-4.69,1.73-6.84" transform="translate(-294.99 -176.13)"/><path class="cls-1" d="M317.18,227.82a10.76,10.76,0,0,0-5.95,3.67,3,3,0,0,0-.55,3.33,3.46,3.46,0,0,0,4,1.08,2.68,2.68,0,0,0,1.1-1c1.36-2.12.45-4.69,1.73-6.84" transform="translate(-294.99 -176.13)"/><path class="cls-1" d="M331.18,227.82a10.76,10.76,0,0,0-5.95,3.67,3,3,0,0,0-.55,3.33,3.46,3.46,0,0,0,4,1.08,2.68,2.68,0,0,0,1.1-1c1.36-2.12.45-4.69,1.73-6.84" transform="translate(-294.99 -176.13)"/><path class="cls-4" d="M334.48,208.62a.91.91,0,0,0-.76,0h-6.33l3-13.65c.06-.27-.19-.53-.56-.58a.86.86,0,0,0-.63.18.81.81,0,0,0-.23.17L314.86,212.7a.38.38,0,0,0,0,.43s0,0,0,.05c0,.28.31.5.69.5h6.63l-3,13.32c-.06.27.2.53.57.58a.86.86,0,0,0,.63-.18.81.81,0,0,0,.23-.17l14.14-17.92C334.92,209.07,334.81,208.76,334.48,208.62Z" transform="translate(-294.99 -176.13)"/></svg>