<svg id="Слой_1" data-name="Слой 1" xmlns="http://www.w3.org/2000/svg" xmlns:xlink="http://www.w3.org/1999/xlink" viewBox="0 0 59.75 60.37"><defs><style>.cls-1,.cls-2{stroke:gray;}.cls-1,.cls-2,.cls-4{stroke-miterlimit:10;stroke-width:0.75px;}.cls-1{fill:url(#Безымянный_градиент_12);}.cls-2{fill:url(#Безымянный_градиент_12-2);}.cls-3{fill:#29abe2;}.cls-4{fill:#feda53;stroke:#fbb03b;}</style><linearGradient id="Безымянный_градиент_12" x1="355.98" y1="279.59" x2="357.18" y2="338.58" gradientUnits="userSpaceOnUse"><stop offset="0" stop-color="#b3b3b3"/><stop offset="1" stop-color="#0071bc"/></linearGradient><linearGradient id="Безымянный_градиент_12-2" x1="363.22" y1="283.84" x2="363.8" y2="312.03" xlink:href="#Безымянный_градиент_12"/></defs><path class="cls-1" d="M372.72,273.86H369v-.26a12.91,12.91,0,0,0-12.91-12.91h0a12.91,12.91,0,0,0-12.92,12.91v.26h-3.63a12.92,12.92,0,0,0,0,25.83h33.18a12.92,12.92,0,0,0,0-25.83Z" transform="translate(-326.25 -260.31)"/><path class="cls-2" d="M372.49,281.09h-2.06V281c0-3.4-3.21-6.16-7.16-6.16h0c-4,0-7.16,2.76-7.16,6.16v.12h-2c-3.95,0-7.16,2.76-7.16,6.17s3.21,6.16,7.16,6.16h18.4c3.95,0,7.16-2.76,7.16-6.16S376.44,281.09,372.49,281.09Z" transform="translate(-326.25 -260.31)"/><path class="cls-3" d="M346.64,302.78a10.72,10.72,0,0,0-5.95,3.67,3,3,0,0,0-.55,3.33,3.47,3.47,0,0,0,4,1.08,2.68,2.68,0,0,0,1.1-1c1.36-2.12.45-4.69,1.73-6.84" transform="translate(-326.25 -260.31)"/><path class="cls-3" d="M373.2,303.35a10.76,10.76,0,0,0-5.95,3.67,3,3,0,0,0-.55,3.33,3.47,3.47,0,0,0,4,1.08,2.78,2.78,0,0,0,1.11-1c1.35-2.12.45-4.69,1.72-6.84" transform="translate(-326.25 -260.31)"/><path class="cls-3" d="M350.2,312.35a10.76,10.76,0,0,0-5.95,3.67,3,3,0,0,0-.55,3.33,3.47,3.47,0,0,0,4,1.08,2.78,2.78,0,0,0,1.11-1c1.35-2.12.45-4.69,1.72-6.84" transform="translate(-326.25 -260.31)"/><path class="cls-3" d="M364.2,312.35a10.76,10.76,0,0,0-5.95,3.67,3,3,0,0,0-.55,3.33,3.47,3.47,0,0,0,4,1.08,2.78,2.78,0,0,0,1.11-1c1.35-2.12.45-4.69,1.72-6.84" transform="translate(-326.25 -260.31)"/><path class="cls-4" d="M369.24,294.53a.88.88,0,0,0-.76,0h-6.33l3.05-13.65c.06-.27-.2-.53-.57-.58a.82.82,0,0,0-.63.18.66.66,0,0,0-.23.17l-14.14,17.92a.38.38,0,0,0,0,.43.08.08,0,0,0,0,0c0,.28.31.5.69.5h6.63l-3,13.32c-.06.27.19.53.56.57a.78.78,0,0,0,.63-.18.63.63,0,0,0,.23-.16l14.15-17.92C369.69,295,369.57,294.67,369.24,294.53Z" transform="translate(-326.25 -260.31)"/></svg>