<svg id="Слой_1" data-name="Слой 1" xmlns="http://www.w3.org/2000/svg" xmlns:xlink="http://www.w3.org/1999/xlink" viewBox="0 0 59.75 61.48"><defs><style>.cls-1{stroke:#e6e6e6;stroke-width:0.75px;fill:url(#Безымянный_градиент_3);}.cls-1,.cls-2{stroke-miterlimit:10;}.cls-2{fill:#fff;stroke:#29abe2;}</style><linearGradient id="Безымянный_градиент_3" x1="496.9" y1="148.92" x2="498.1" y2="207.91" gradientUnits="userSpaceOnUse"><stop offset="0" stop-color="#fff"/><stop offset="1" stop-color="#0071bc"/></linearGradient></defs><path class="cls-1" d="M513.63,143.19h-3.72v-.26A12.91,12.91,0,0,0,497,130h0a12.91,12.91,0,0,0-12.91,12.91v.26h-3.63a12.92,12.92,0,1,0,0,25.83h33.17a12.92,12.92,0,0,0,0-25.83Z" transform="translate(-467.17 -129.65)"/><path class="cls-2" d="M499.34,172,497,169.77h3.56a1.23,1.23,0,0,0,0-2.45h-3.64l2.46-2.29a1.15,1.15,0,0,0,0-1.73,1.39,1.39,0,0,0-1.87,0l-2.35,2.17v-3a1.33,1.33,0,1,0-2.65,0v3.11L490,163.3a1.39,1.39,0,0,0-1.87,0,1.15,1.15,0,0,0,0,1.73l2.46,2.29h-3.48a1.23,1.23,0,1,0,0,2.45h3.4L488.1,172a1.15,1.15,0,0,0,0,1.73,1.39,1.39,0,0,0,1.87,0l2.5-2.31v3.18a1.33,1.33,0,1,0,2.65,0v-3l2.35,2.17a1.39,1.39,0,0,0,1.87,0A1.15,1.15,0,0,0,499.34,172Z" transform="translate(-467.17 -129.65)"/><path class="cls-2" d="M513.68,180.39h-3.63l2.46-2.28a1.17,1.17,0,0,0,0-1.74,1.39,1.39,0,0,0-1.87,0l-2.35,2.17v-3a1.33,1.33,0,1,0-2.65,0v3.12l-2.5-2.32a1.39,1.39,0,0,0-1.87,0,1.17,1.17,0,0,0,0,1.74l2.46,2.28h-3.48a1.23,1.23,0,0,0,0,2.46h3.4l-2.38,2.21a1.17,1.17,0,0,0,0,1.74,1.39,1.39,0,0,0,1.87,0l2.5-2.32v3.19a1.33,1.33,0,0,0,2.65,0v-3l2.35,2.18a1.39,1.39,0,0,0,1.87,0,1.17,1.17,0,0,0,0-1.74l-2.38-2.21h3.55a1.23,1.23,0,1,0,0-2.46Z" transform="translate(-467.17 -129.65)"/><path class="cls-2" d="M492.49,182h-3.63l2.46-2.29a1.17,1.17,0,0,0,0-1.73h0a1.41,1.41,0,0,0-1.88,0l-2.34,2.17v-3a1.33,1.33,0,1,0-2.65,0v3.11L482,178a1.39,1.39,0,0,0-1.87,0,1.15,1.15,0,0,0,0,1.73l2.46,2.29h-3.49a1.23,1.23,0,0,0,0,2.45h3.41l-2.38,2.22a1.15,1.15,0,0,0,0,1.73,1.39,1.39,0,0,0,1.87,0l2.5-2.31v3.18a1.33,1.33,0,1,0,2.65,0v-3l2.34,2.17a1.41,1.41,0,0,0,1.88,0,1.17,1.17,0,0,0,0-1.73l-2.39-2.22h3.56a1.23,1.23,0,1,0,0-2.45Z" transform="translate(-467.17 -129.65)"/></svg>