<svg xmlns="http://www.w3.org/2000/svg" xmlns:xlink="http://www.w3.org/1999/xlink" viewBox="0 0 136.37 136.36"><defs><style>.cls-1{isolation:isolate;}.cls-2{opacity:0.6;fill:url(#radial-gradient);}.cls-3{fill:#a9a9aa;}.cls-3,.cls-5,.cls-8{opacity:0.52;}.cls-4{fill:url(#radial-gradient-2);}.cls-5,.cls-7,.cls-9{fill:#fff;}.cls-6{opacity:0.5;}.cls-10,.cls-9{opacity:0.52;}.cls-11{mix-blend-mode:multiply;fill:url(#radial-gradient-3);}</style><radialGradient id="radial-gradient" cx="1052.42" cy="381.63" r="68.07" gradientTransform="matrix(0.71, -0.71, -0.71, -0.71, 164.18, 1486.51)" gradientUnits="userSpaceOnUse"><stop offset="0.25" stop-color="#fff"/><stop offset="0.64" stop-color="#fff" stop-opacity="0.72"/><stop offset="0.73" stop-color="#fff" stop-opacity="0.5"/><stop offset="0.82" stop-color="#fff" stop-opacity="0.29"/><stop offset="0.9" stop-color="#fff" stop-opacity="0.13"/><stop offset="0.96" stop-color="#fff" stop-opacity="0.03"/><stop offset="1" stop-color="#fff" stop-opacity="0"/></radialGradient><radialGradient id="radial-gradient-2" cx="1051.87" cy="380.4" r="56.41" gradientTransform="matrix(0.71, -0.71, -0.71, -0.71, 164.18, 1486.51)" gradientUnits="userSpaceOnUse"><stop offset="0" stop-color="#787979"/><stop offset="0.79" stop-color="#a6a6a7"/><stop offset="0.84" stop-color="#a9a9aa"/><stop offset="0.94" stop-color="#d7d7d7"/><stop offset="1" stop-color="#f3f3f3"/></radialGradient><radialGradient id="radial-gradient-3" cx="1035.74" cy="396.27" r="78.05" gradientTransform="matrix(0.71, -0.71, -0.71, -0.71, 164.18, 1486.51)" gradientUnits="userSpaceOnUse"><stop offset="0.51" stop-color="#121211"/><stop offset="0.56" stop-color="#171716"/><stop offset="0.62" stop-color="#272726"/><stop offset="0.69" stop-color="#404040"/><stop offset="0.77" stop-color="#646463"/><stop offset="0.85" stop-color="#929291"/><stop offset="0.93" stop-color="#c9c9c9"/><stop offset="1" stop-color="#fff"/></radialGradient></defs><g class="cls-1"><g id="Слой_1" data-name="Слой 1"><path class="cls-2" d="M685.93,424.28a68.18,68.18,0,1,0,0,96.43A68.17,68.17,0,0,0,685.93,424.28Z" transform="translate(-569.54 -404.31)"/><path class="cls-3" d="M678.87,433.86a56.41,56.41,0,1,0,0,79.78A56.43,56.43,0,0,0,678.87,433.86Z" transform="translate(-569.54 -404.31)"/><path class="cls-4" d="M678.87,433.86a56.41,56.41,0,1,0,0,79.78A56.43,56.43,0,0,0,678.87,433.86Z" transform="translate(-569.54 -404.31)"/><path class="cls-5" d="M599.09,513.64h0c-.57-1-.69-2.29.48-2.85s1,.3,2,.58c1.71.52.83-1.34,2-2.12a2.22,2.22,0,0,1,1.07,2,3.57,3.57,0,0,0,.91-1.05c.88-1.46,1.51-2.89,3-4,2.68-2,.35,1.41.11,2.4a3.38,3.38,0,0,1,3.06-.09c1.35.69,1,.91,2.48.32,1.06-.41,1.89-.76,2.57.59.47.94-.05,2,.58,2.93,1-.87,1.9-2.5,3.2-2.63a1.59,1.59,0,0,1,1.29,2.77c.63.81,1.72,1.75,2.5.6l.27.27c-1.81,2,1.94,1.38,2.15,1.94s-.79,1-.83,1.33c-.08.57.33.44.46.92a1.46,1.46,0,0,0,1.87,2.24c-1.2-3.21,1.82-3.55,3.69-4.64.33-.2.45.15.79-.21.55-.6.51-1.68,1-2.36a1.62,1.62,0,0,1,2.43-.69c.64.28,1.17.91,1.78,1,1,.11,1.18-.75,2-1.18,1.46-.79,2.42-.2,3.53,1-1.19,1.28-2.46,2.5-3.71,3.72.61-.48,1.21-.07,1.63.51-.54.61-1.28,1.14-1.75,1.79-.77,1.06-.73.79.15,1.46.48.36,2.15.53,1.62,1.51a.92.92,0,0,1-1.47.1c-.6.74-1.24.07-2,.38s-.72,1.35-1,1.66c-1.24,1.25-3.94,1.32-1.57,3.1,1.19-.68,1.83-1.45,3.11-1.75a7.87,7.87,0,0,0,3.53-1.31c1.23-1,1.14-3.08,2.59-3.78.57-.28,1-.52,1.63.1.83.78,0,1-.79,1.85,2.15,2-1.46,2.32-.37,3.66-.56,1-1.61.29-2.42.72-1.18.62-1.23,2.37-1.7,3.75A56.26,56.26,0,0,1,599.09,513.64Z" transform="translate(-569.54 -404.31)"/><path class="cls-5" d="M640.65,530.13l.71-3.5c-1.13,0-2,2-2.49,2.84.27.17.63.54.82.68h0A2.87,2.87,0,0,0,639,530a.88.88,0,0,1,0,.2h-.92l-.48-.29a1.27,1.27,0,0,1-.25.27c-1.09,0-2.18-.09-3.26-.19a4.73,4.73,0,0,0,.61-1c.09-.25.39-.44.45-.72s-.52-.58-.46-.81c.36-1.54,1.83-1.53,2.92-2.23.73-.46,1.3-1.47,2-2,.89-.72,1.28-.75,1.62-1.92a4.73,4.73,0,0,1,1.43,1,7.15,7.15,0,0,1,1.91-1.89c.28-.21.78-.79,1-.86.75-.2,1.35.52,2,0,1.14.6,1.49-.3,2.49-.54.83-.2,1.5.54,2.11.25-1.61-1.6-2.33-2.22-1-4.57,1-1.65,1.29-1.48,2.67-.78,1.31-.55,1.75,1.14,3.18,0,.17.29.62.68.78,1,1.14-1.41,3.33-1.64,4.4-3.31a13.39,13.39,0,0,1,2.58,1.57c-1,1.64-1.27,2.3-.85,4.18a5.13,5.13,0,0,0,1.31-1.05c-1.61-.58.12-2.78.55-3.69.83-1.75.75-1.63-.49-2.68.4-.78,2-2.39,2-3.27s-1-.89-1-1.82c-.14-1.75,1.53-1.54,0-2.85-1-.83-2.38-.65-3.23-1.33,1.2-1.55-2-2.37-3-2.86a9.28,9.28,0,0,1-3.38-3,6.16,6.16,0,0,1-.6-2.84,8.74,8.74,0,0,0,.14-1.33c0-.14-.57-.57-.66-.87s.22-.82.18-1.18-.38-.7-.43-1.17c-.23-2.37,1.6-5.82,2.86-7.74-.52,1.31-.3,3.88-.48,5.42-.14,1.3-.06,1.79,1.68,2.29,3,.85,4.26-2.72,6.83-2.43,3.58.42.92,6.1,4.06,6.31,1,.06,1.12-.84,1.63-1.27a2.58,2.58,0,0,1,3.56-.12c0,.07-.07.14-.1.22,1.58.2,2.31-3.42,4.38-3.5-1.21,2.09-.58,2.33,1.17,3.32a4.69,4.69,0,0,1-.92,1.68c1.12-.84,1.85-.29,1.84,1s-1.3,2.46-1.69,3.63c1,.61,1.58-1.06,2.49-.19-.89,2.7-3.41,6-5.29,8.16a4.71,4.71,0,0,0,.43.91c2.58-.24,5.22,1.77,4.8,4.41q-1.75,2.14-3.75,4.15A56.23,56.23,0,0,1,640.65,530.13Z" transform="translate(-569.54 -404.31)"/><g class="cls-6"><path class="cls-7" d="M672.94,464.35c-.13.42.39,1.51.58,2.09.32,1,.7,3.48,0,2.94-1.43-1.15-.93-4.07-1.63-5.84a9.83,9.83,0,0,0-2.51-3,17.72,17.72,0,0,1-2.51-3.15c-1.09-1.64-2.75-3.95-4.75-4.33-.42-.09-1.56-.22-1.37.41s1.28,1.54,1.75,2.25c.34.53.64,1,.5,1.33s-.51,0-.6.09,0,.37,0,.66.19.73-.18.74-1.88-1.49-1.77-.8c.18,1.17,1.51,2.25,2.09,3.37a3.07,3.07,0,0,1,.31,1.56c-.14.35-.46-.13-.76.05-.47.28-.19,1.73-.36,2.36-.3,1.11-1,.86-1.7,1.27-.24.14-.34.4-.63.28s-.42-.55-.72-.66-.47.16-.89-.07a6.31,6.31,0,0,1-1.14-.79c-.39-.39-.33-.39-.42-.88a3.59,3.59,0,0,0-.62-1.67c-.81-1.32-.51-1.7-.66-2.8-.05-.37-.17-1.4-.56-1.6.14.61-.11,1.24-1,.42-.23-.21-.28-.65-.49-.91A2.24,2.24,0,0,0,652,457c-.18.48.19,1-.64.73a7.73,7.73,0,0,1-1.24-.72,3.57,3.57,0,0,0-1.2-.71l-2.05-.68c.07.22.14.43.2.64-1.68-.06-2.55-2-3.82-2.72a2.43,2.43,0,0,0-2.27,0c-.18.23,0,.4-.38.52s-.92-.08-1.27,0c-.71.24-.57,1,.23,1.34a5.34,5.34,0,0,0,2.78.45c.27,0,1.08-.08,1.38.17s.12.58.24.77c.33.5,1.23.64,1.4,1.29-.74.15-.62.43-.48.83a1.72,1.72,0,0,0-.65.41,10.37,10.37,0,0,0-.51-1.23c-1.26-.17-.52.85-1.59.72,0-.12-.2-.27-.22-.4-.95-.14-.68.32-1.06.72-.2.21-.31.12-.64.2s-.33,0-.6.39c-.45.61-1.45.65-2,1.14s-1.42,1.34-2.27,1c0,0-.16-.25-.24-.3s-.34,0-.47-.08c-.45-.33,0-.35.25-.51a7.61,7.61,0,0,0,.85-.45c.25-.21.22-.58.36-.83s.64-.95-.16-1.06c-.31-.05-.52.25-.86.11a.84.84,0,0,1-.43-.7c-.51-.17-.77-.06-1-.58-.12-.29,0-.56-.3-.81a2.06,2.06,0,0,0-1.57.95c-.8-.5-2.34,2.08-2.92,2.14s-.68-.81-1-1.15c-.07-.07-.1-.26-.19-.3-.25-.09-.64.21-.82.11s-.07-.33-.18-.55c-.23-.46-.89-.53-1.15-.92s1.1-1.45-.65-1.21a7.53,7.53,0,0,1-2.55,0c-.91-.16-.61-.58-1.16-1a5.38,5.38,0,0,0-1.23-.35c-.44-.14-.8-.38-1.25-.52.05-.18.88-1.09,1.29-1.11.16,0,.48.21.6.27,1-.48.17-.48.1-.94s.6-.73,1-1.06a10,10,0,0,1-1-.51c-.36-.28-.46-.54-1.08-.73a7.36,7.36,0,0,0-2.27-.07,3.32,3.32,0,0,0-1.65.39c-.84.32-.64,0-1.36.08s-1.73,1.09-2.7,1.36c-.31.08-.51,0-.78.08-.6.21-1.29.95-1.92,1.08s-.46-.45-1-.46c-.51.5-2,2.5-2.67,1.9-.27-.24.24-1.28.68-1.74a2,2,0,0,1,1.61-.66c1-1-1.06-.36-1.13-1s1.5-2.18,2.16-2.79c1.08-1,1.93-.58,2.88-1.59a9.93,9.93,0,0,0,1.32-1.42,1.1,1.1,0,0,0-.75-1.34c-.44-.14-1.63,0-1.92-.21s.26-1,.83-1.23.71.08,1.33,0c1.06-.16,1.85-1.1,2.83-1.35,1.4-.37,2.65.48,4,.44.86,0,1.64-.65,2.59-.55.7.07,1.42.63,1.44,1a34.74,34.74,0,0,1,3.55-1.92c.68.32.75,1,.93,1.44a1.83,1.83,0,0,1,0,1.34c-.07.23-.29.55.1.71.69-.25,2.23-1,3.18-.77a1.68,1.68,0,0,1,.69.42,4.07,4.07,0,0,1,.56.72c.52.27.83-.13,1.53,0,1,.17,1.32.67,2.18.21a16.35,16.35,0,0,1-1.39-1.6c-.54-.72.4-1,1.64-1.18.07,0,.11.09.17.13.44-.18-1.37-1.45-1.57-1.85-.45-.91.3-1.26,1.56-1.57-.85-.75-1.45-2.14-.82-2.64,1.12-.87,3.19-.7,4.64-.46.27.05.52.29.8.29s.37-.35.59-.46a8.9,8.9,0,0,1,2.39-.42c.81-.08,1.43-.25,2.25-.32a5.45,5.45,0,0,1,1.92,0c.65.26.79.6,1.17,1,1,1.14,2.5,1.09,3.92,1.22a13.73,13.73,0,0,0,1.07,1.48c.51.46.09.07.78.48,1.24.74,1.77,1.37,3,2.08,1.61.9,2.93,2.11,1.78,2.26s-.68.33.82,1.75c.43.41.75.84,1.12,1.19a10.92,10.92,0,0,1,2,1.93,3.59,3.59,0,0,1,.42,2,9.06,9.06,0,0,0,1.16,2.53c.35.7,0,.62,0,.86a2,2,0,0,0,.09.94c2.3,1.48,4,3.93,5.49,6.08,1.15,1.62,3.34,3.42,3.24,5.64C673.62,464.81,673.07,463.89,672.94,464.35Z" transform="translate(-569.54 -404.31)"/></g><g class="cls-6"><path class="cls-7" d="M672.94,464.35c-.13.42.39,1.51.58,2.09.32,1,.7,3.48,0,2.94-1.43-1.15-.93-4.07-1.63-5.84a9.83,9.83,0,0,0-2.51-3,17.72,17.72,0,0,1-2.51-3.15c-1.09-1.64-2.75-3.95-4.75-4.33-.42-.09-1.56-.22-1.37.41s1.28,1.54,1.75,2.25c.34.53.64,1,.5,1.33s-.51,0-.6.09,0,.37,0,.66.19.73-.18.74-1.88-1.49-1.77-.8c.18,1.17,1.51,2.25,2.09,3.37a3.07,3.07,0,0,1,.31,1.56c-.14.35-.46-.13-.76.05-.47.28-.19,1.73-.36,2.36-.3,1.11-1,.86-1.7,1.27-.24.14-.34.4-.63.28s-.42-.55-.72-.66-.47.16-.89-.07a6.31,6.31,0,0,1-1.14-.79c-.39-.39-.33-.39-.42-.88a3.59,3.59,0,0,0-.62-1.67c-.81-1.32-.51-1.7-.66-2.8-.05-.37-.17-1.4-.56-1.6.14.61-.11,1.24-1,.42-.23-.21-.28-.65-.49-.91A2.24,2.24,0,0,0,652,457c-.18.48.19,1-.64.73a7.73,7.73,0,0,1-1.24-.72,3.57,3.57,0,0,0-1.2-.71l-2.05-.68c.07.22.14.43.2.64-1.68-.06-2.55-2-3.82-2.72a2.43,2.43,0,0,0-2.27,0c-.18.23,0,.4-.38.52s-.92-.08-1.27,0c-.71.24-.57,1,.23,1.34a5.34,5.34,0,0,0,2.78.45c.27,0,1.08-.08,1.38.17s.12.58.24.77c.33.5,1.23.64,1.4,1.29-.74.15-.62.43-.48.83a1.72,1.72,0,0,0-.65.41,10.37,10.37,0,0,0-.51-1.23c-1.26-.17-.52.85-1.59.72,0-.12-.2-.27-.22-.4-.95-.14-.68.32-1.06.72-.2.21-.31.12-.64.2s-.33,0-.6.39c-.45.61-1.45.65-2,1.14s-1.42,1.34-2.27,1c0,0-.16-.25-.24-.3s-.34,0-.47-.08c-.45-.33,0-.35.25-.51a7.61,7.61,0,0,0,.85-.45c.25-.21.22-.58.36-.83s.64-.95-.16-1.06c-.31-.05-.52.25-.86.11a.84.84,0,0,1-.43-.7c-.51-.17-.77-.06-1-.58-.12-.29,0-.56-.3-.81a2.06,2.06,0,0,0-1.57.95c-.8-.5-2.34,2.08-2.92,2.14s-.68-.81-1-1.15c-.07-.07-.1-.26-.19-.3-.25-.09-.64.21-.82.11s-.07-.33-.18-.55c-.23-.46-.89-.53-1.15-.92s1.1-1.45-.65-1.21a7.53,7.53,0,0,1-2.55,0c-.91-.16-.61-.58-1.16-1a5.38,5.38,0,0,0-1.23-.35c-.44-.14-.8-.38-1.25-.52.05-.18.88-1.09,1.29-1.11.16,0,.48.21.6.27,1-.48.17-.48.1-.94s.6-.73,1-1.06a10,10,0,0,1-1-.51c-.36-.28-.46-.54-1.08-.73a7.36,7.36,0,0,0-2.27-.07,3.32,3.32,0,0,0-1.65.39c-.84.32-.64,0-1.36.08s-1.73,1.09-2.7,1.36c-.31.08-.51,0-.78.08-.6.21-1.29.95-1.92,1.08s-.46-.45-1-.46c-.51.5-2,2.5-2.67,1.9-.27-.24.24-1.28.68-1.74a2,2,0,0,1,1.61-.66c1-1-1.06-.36-1.13-1s1.5-2.18,2.16-2.79c1.08-1,1.93-.58,2.88-1.59a9.93,9.93,0,0,0,1.32-1.42,1.1,1.1,0,0,0-.75-1.34c-.44-.14-1.63,0-1.92-.21s.26-1,.83-1.23.71.08,1.33,0c1.06-.16,1.85-1.1,2.83-1.35,1.4-.37,2.65.48,4,.44.86,0,1.64-.65,2.59-.55.7.07,1.42.63,1.44,1a34.74,34.74,0,0,1,3.55-1.92c.68.32.75,1,.93,1.44a1.83,1.83,0,0,1,0,1.34c-.07.23-.29.55.1.71.69-.25,2.23-1,3.18-.77a1.68,1.68,0,0,1,.69.42,4.07,4.07,0,0,1,.56.72c.52.27.83-.13,1.53,0,1,.17,1.32.67,2.18.21a16.35,16.35,0,0,1-1.39-1.6c-.54-.72.4-1,1.64-1.18.07,0,.11.09.17.13.44-.18-1.37-1.45-1.57-1.85-.45-.91.3-1.26,1.56-1.57-.85-.75-1.45-2.14-.82-2.64,1.12-.87,3.19-.7,4.64-.46.27.05.52.29.8.29s.37-.35.59-.46a8.9,8.9,0,0,1,2.39-.42c.81-.08,1.43-.25,2.25-.32a5.45,5.45,0,0,1,1.92,0c.65.26.79.6,1.17,1,1,1.14,2.5,1.09,3.92,1.22a13.73,13.73,0,0,0,1.07,1.48c.51.46.09.07.78.48,1.24.74,1.77,1.37,3,2.08,1.61.9,2.93,2.11,1.78,2.26s-.68.33.82,1.75c.43.41.75.84,1.12,1.19a10.92,10.92,0,0,1,2,1.93,3.59,3.59,0,0,1,.42,2,9.06,9.06,0,0,0,1.16,2.53c.35.7,0,.62,0,.86a2,2,0,0,0,.09.94c2.3,1.48,4,3.93,5.49,6.08,1.15,1.62,3.34,3.42,3.24,5.64C673.62,464.81,673.07,463.89,672.94,464.35Z" transform="translate(-569.54 -404.31)"/></g><g class="cls-6"><path class="cls-7" d="M623.54,487.9c-.07-.26-.7-.68-1-.92-.49-.42-1.48-1.62-1-1.55,1.12.16,1.79,1.87,2.73,2.58a6.2,6.2,0,0,0,2.29.79,10.37,10.37,0,0,1,2.33.86c1.1.52,2.72,1.21,3.9.78.25-.1.9-.39.59-.66a9.35,9.35,0,0,0-1.64-.64c-.36-.16-.66-.32-.7-.54s.29-.14.3-.24-.11-.2-.21-.35-.34-.32-.15-.45,1.48.19,1.2-.14c-.47-.56-1.52-.71-2.18-1.12a1.9,1.9,0,0,1-.67-.73c0-.22.29-.07.39-.27s-.45-1-.57-1.36c-.19-.68.25-.77.5-1.21.08-.15,0-.32.24-.35s.4.15.6.12.19-.24.49-.25a4.16,4.16,0,0,1,.85.05c.34.08.31.1.51.34a2.34,2.34,0,0,0,.86.68c.85.44.82.74,1.25,1.27.14.18.53.69.8.67-.26-.28-.34-.69.39-.54.19,0,.35.26.55.33a1.6,1.6,0,0,0,.71.07c-.06-.32-.43-.49.1-.6a4.36,4.36,0,0,1,.89,0,2.26,2.26,0,0,0,.86,0l1.3-.3-.31-.27c.92-.51,2,.23,2.89.22a1.48,1.48,0,0,0,1.2-.74c0-.17-.11-.22,0-.39s.51-.25.66-.42c.3-.36,0-.7-.55-.64a3.36,3.36,0,0,0-1.61.65c-.15.09-.55.39-.79.35s-.25-.27-.37-.33c-.33-.16-.86.06-1.15-.23.34-.32.18-.43,0-.6a.93.93,0,0,0,.21-.42,7.25,7.25,0,0,0,.67.49c.72-.31,0-.62.61-.89.06,0,.19.08.25.14.54-.23.25-.39.33-.72,0-.17.12-.17.27-.31s.17-.12.19-.4c0-.47.56-.81.7-1.24s.32-1.16.89-1.24c0,0,.16.08.22.08s.18-.12.27-.11c.35,0,.14.17,0,.35a3,3,0,0,0-.31.51c-.07.19.07.37.07.55s0,.71.43.51c.18-.07.19-.3.42-.33a.53.53,0,0,1,.45.24c.32-.08.42-.22.7,0s.16.3.42.33a1.26,1.26,0,0,0,.52-1c.58,0,.58-1.85.87-2.07s.61.21.91.28c.07,0,.14.11.2.1s.27-.32.4-.33.14.16.27.24.64,0,.9.12-.11,1.12.73.43a4.75,4.75,0,0,1,1.36-.79c.54-.21.52.11.93.15a3,3,0,0,0,.77-.21c.27-.07.54-.05.82-.12a1.75,1.75,0,0,1-.32,1,1.13,1.13,0,0,1-.41.06c-.38.57.06.3.25.52s-.09.58-.2.89a6.25,6.25,0,0,1,.72-.07,1.58,1.58,0,0,0,.8.05,4.72,4.72,0,0,0,1.22-.69,2.07,2.07,0,0,0,.76-.74c.33-.43.34-.2.69-.47s.56-1.13,1-1.58c.14-.15.28-.16.39-.3.25-.3.38-.91.67-1.18s.39.09.71-.1c.1-.42.25-1.95.8-1.85.22,0,.28.75.2,1.14a1.23,1.23,0,0,1-.65.86c-.2.87.68-.15.91.15s-.1,1.63-.25,2.17c-.25.86-.84.91-1,1.75a6,6,0,0,0-.24,1.18.68.68,0,0,0,.82.47c.28-.07.86-.53,1.09-.5s.17.59,0,.91-.4.19-.7.44c-.5.42-.63,1.17-1.07,1.62-.62.64-1.55.59-2.25,1-.45.28-.66.86-1.2,1.11a1.09,1.09,0,0,1-1.07-.05c-.44.71-.75,1.48-1.26,2.15-.47.05-.73-.3-1-.47a1.14,1.14,0,0,1-.41-.72c0-.14,0-.38-.28-.34-.29.35-.87,1.23-1.44,1.42a1.06,1.06,0,0,1-.5,0,3,3,0,0,1-.53-.21c-.36,0-.39.33-.8.5-.58.23-.91.07-1.22.59a8.33,8.33,0,0,1,1.25.4c.51.21.12.68-.49,1.14a.33.33,0,0,1-.14,0c-.17.24,1.19.33,1.43.48.53.34.24.76-.32,1.33.69.12,1.45.67,1.27,1.14-.31.81-1.46,1.39-2.31,1.72-.16.06-.36,0-.51.11s-.09.3-.17.42a5.37,5.37,0,0,1-1.13,1c-.4.3-.68.59-1.09.89a3.36,3.36,0,0,1-1,.59,1.59,1.59,0,0,1-.94-.16,3.38,3.38,0,0,0-2.47.6,7.06,7.06,0,0,0-1-.43c-.41-.09-.07,0-.57,0-.89,0-1.36-.16-2.27-.13-1.14,0-2.23-.18-1.67-.63s.26-.39-1-.66c-.36-.08-.67-.2-1-.27A7,7,0,0,1,634,494c-.59-.3-.62-.65-.87-.93a5.51,5.51,0,0,0-1.42-1c-.41-.26-.21-.32-.27-.46a1.31,1.31,0,0,0-.34-.47,13.5,13.5,0,0,1-4.85-1.46c-1.13-.49-2.87-.74-3.52-2C623,487.87,623.61,488.18,623.54,487.9Z" transform="translate(-569.54 -404.31)"/></g><g class="cls-8"><path class="cls-7" d="M617.26,440.2c.25.25.7,0,1-.08.43-.11,1.51-.24,1.46.54-.07,1.22-2.06.17-2.63.37s-1,1.13-1.22,1.59a2.52,2.52,0,0,1-1.5,1.23c-1,.44-2.22,1.16-2.36,2.33,0,.37-.16,1.3.23,1.5s.95-.32,1.37-.4.58-.11.79.19,0,.47.08.63.22.2.4.33.44.15.46.52-1,1-.46,1.33,1.5-.46,2-.51a1.4,1.4,0,0,1,.94.3c.23.28,0,.42.1.8.21.58,1.11.81,1.52,1.2.74.67.65,1.3,1,2.18.11.28.3.47.24.74s-.33.26-.39.54.14.54,0,.9a3.55,3.55,0,0,1-.51.89c-.27.26-.28.2-.63.09a1.7,1.7,0,0,0-1.18-.08c-1,.19-1.22-.3-2-.74-.26-.15-1-.6-1.15-.36.43.23.85.82.18,1.16-.17.09-.48-.13-.69-.09a.92.92,0,0,0-.6.42c.3.46.74.47.4,1a2.72,2.72,0,0,1-.74.64c-.37.23-.46.16-.75.56a15.12,15.12,0,0,1-1,1.22l.49.3c-.42,1.38-2.21.51-3.08.84a1.79,1.79,0,0,0-.91,1.59c.07.32.24.37.16.7s-.47.55-.56.87c-.19.68.34,1.25.95,1a2.62,2.62,0,0,0,1.55-1.59c.11-.21.37-.88.66-.91s.44.36.62.41c.47.12.88-.5,1.4-.19-.14.73.1.83.45,1a2.55,2.55,0,0,0,.07.83c-.32-.18-.74-.31-1.09-.47-.6.89.43,1.07-.13,1.82-.1-.06-.28-.05-.38-.14-.51.64-.07.79,0,1.39.06.33-.06.35-.16.65s-.15.29,0,.78c.21.84-.33,1.63-.32,2.44s0,2.19-.82,2.49a3.91,3.91,0,0,0-.39-.09c-.16,0-.25.26-.41.26-.56,0-.27-.29-.16-.63a6.11,6.11,0,0,0,.3-1c0-.36-.25-.66-.32-1s-.22-1.25-.81-.83c-.23.16-.18.57-.49.65s-.6-.2-.73-.39c-.45.16-.56.4-1,0-.25-.21-.3-.54-.67-.61a2.28,2.28,0,0,0-.58,1.74c-.86-.09-.8,3.23-1.28,3.55s-1-.57-1.41-.79c-.1-.05-.2-.25-.29-.25-.25,0-.47.44-.66.39s-.19-.33-.37-.53c-.37-.42-1-.31-1.3-.68s.38-1.79-.94-1.15a3.69,3.69,0,0,1-2.08.36c-.79-.09-.65-.59-1.18-1a4.47,4.47,0,0,0-1-.35c-.37-.15-.7-.42-1.07-.59,0-.2.45-1.17.74-1.2.12,0,.41.22.52.28.65-.56,0-.53-.16-1s.25-.82.45-1.21a6.83,6.83,0,0,1-.87-.51,3.41,3.41,0,0,0-.93-.78,4.39,4.39,0,0,0-1.58-.17,1.49,1.49,0,0,0-1.07.24c-.52.24-.44-.09-.92-.13s-1,.83-1.69.85c-.2,0-.35-.15-.53-.14-.4,0-.82.58-1.25.49s-.34-.63-.73-.87c-.32.32-1.31,1.65-1.75.75a1.63,1.63,0,0,1,.44-1.41c.31-.3.65-.25,1,0,.62-.65-.71-.8-.79-1.43s.81-1.63,1.16-2.05c.57-.67,1.17,0,1.61-.84a4.36,4.36,0,0,0,.57-1.22,2.29,2.29,0,0,0-.7-1.58c-.29-.25-1-.36-1.18-.67a1,1,0,0,1,.27-1.1c.35-.18.43.24.77.26.58,0,.83-.83,1.32-1,.82-.3,1.58.82,2.37.75.48-.05.71-.7,1.26-.64a1.69,1.69,0,0,1,1.1.94c.51-.79.65-1.79,1.17-2.55.46.21.76.93,1,1.35a4,4,0,0,1,.51,1.44c.06.26.06.65.34.73.27-.41.75-1.57,1.3-1.63.21,0,.35.12.53.22a6.83,6.83,0,0,1,.59.56c.38.11.34-.41.72-.56.55-.21.94.16,1.09-.67a9.41,9.41,0,0,1-1.38-1c-.58-.54-.31-1.2.13-1.84a.84.84,0,0,1,.14.06c.09-.37-1.26-.94-1.53-1.28a1.85,1.85,0,0,1-.11-2.17,3.72,3.72,0,0,1-1.53-2.4,3,3,0,0,1,1.38-2.28c.11-.07.3.07.39-.07s-.06-.5,0-.71a6.08,6.08,0,0,1,.47-1.54c.18-.47.26-1,.42-1.45.07-.22.25-.9.47-1s.48.11.78.27c1,.5,1-.61,1.39-1.31a4.65,4.65,0,0,0,1,.55c.33.06.06,0,.38-.12.58-.24,1-.09,1.52-.48s1.43-.65,1.42.37.15.82,1,.62c.26-.06.53,0,.75-.08.39-.12.7-.48,1.15-.39s.8.61,1.14.89c.55.44.85.32,1.44.43.39.07.36.32.5.49a1.39,1.39,0,0,0,.54.43c.57-1.14,1.94-1.9,2.93-2.62.63-.46,1.43-2.25,2.38-1.59C617.36,439.61,617,439.94,617.26,440.2Z" transform="translate(-569.54 -404.31)"/></g><g class="cls-8"><path class="cls-7" d="M653.16,501.85c0,.09.12.15.18.19s.3.29.12.41-.38-.42-.52-.51-.4,0-.55,0a.7.7,0,0,1-.51-.12.92.92,0,0,0-.9-.13c-.09.05-.31.18-.29.3s.23.15.32.23.12.11.09.2-.11.08-.13.13,0,.08,0,.14,0,.12,0,.18-.37,0-.37.12.35.26.45.36a.42.42,0,0,1,.1.26c0,.09-.1.06-.16.15s0,.38,0,.53-.17.36-.31.58c0,.07,0,.14-.12.18s-.11,0-.18,0-.09.12-.2.15a.84.84,0,0,1-.27,0c-.11,0-.09,0-.13-.12a.45.45,0,0,0-.18-.27c-.2-.18-.14-.32-.17-.56,0-.08,0-.31-.11-.31s0,.32-.22.23-.06-.12-.1-.16a.22.22,0,0,0-.19-.06c0,.14,0,.24-.16.26a.88.88,0,0,1-.26-.06c-.11,0-.11-.07-.24-.07h-.44a.77.77,0,0,1,0,.15c-.37.14-.48-.39-.69-.53a.51.51,0,0,0-.5.07c-.06.07,0,.12-.13.15s-.19,0-.28,0-.22.28-.06.37a.67.67,0,0,0,.6.07c.06,0,.25-.06.31,0s0,.15,0,.2.26.11.28.27c-.18.09-.17.16-.15.26a1.29,1.29,0,0,0-.17.16c0-.1,0-.21-.07-.32-.3,0-.17.28-.42.28,0,0,0-.07,0-.11-.22,0-.18.12-.29.24s-.09,0-.17.07-.09,0-.17.13-.41.19-.59.33-.47.38-.68.24c0,0,0-.09,0-.1s-.1,0-.12-.05,0-.1.11-.14a1.39,1.39,0,0,0,.26-.1c.08,0,.1-.16.16-.23s.23-.26,0-.31-.15.05-.22,0a.22.22,0,0,1,0-.22c-.1-.07-.18-.06-.17-.22s.07-.15,0-.25a.62.62,0,0,0-.47.17c-.13-.2-.84.36-1,.31s0-.3-.07-.44,0-.08,0-.11-.17,0-.2-.07,0-.1.06-.17-.09-.26-.07-.4.45-.21.09-.39a1.05,1.05,0,0,1-.42-.39c-.11-.19,0-.24,0-.43s-.08-.19-.1-.28,0-.22-.05-.33.33-.1.38,0,0,.13,0,.16c.23.05.12-.09.2-.21s.22-.08.33-.1,0-.19,0-.27a.78.78,0,0,0,0-.34,1,1,0,0,0-.22-.37.39.39,0,0,0-.23-.19c-.14-.07,0-.11-.13-.22s-.35-.09-.46-.23,0-.1-.06-.14-.26-.08-.31-.19.08-.18.06-.3-.57,0-.45-.26c.05-.1.28-.15.38-.14s.16.1.17.23c.25,0,.06-.29.18-.41s.49-.09.64-.08.19.25.45.2a.86.86,0,0,0,.36-.08.63.63,0,0,0,.23-.41c0-.11-.09-.27-.05-.37a.27.27,0,0,1,.28-.12c.1,0,0,.13.07.21s.32,0,.44.12.08.48.23.64.27,0,.35.17a.45.45,0,0,1,0,.39c.25,0,.5-.16.75-.17,0,.14-.08.32-.13.45a1.08,1.08,0,0,1-.22.35c0,.05-.14.12-.11.19s.47-.09.57,0,0,.09,0,.14a1.3,1.3,0,0,1,0,.23c0,.1.15,0,.24.06s.12.23.33.13a1.93,1.93,0,0,1,0-.48c0-.21.21-.26.42-.27a0,0,0,0,0,0,0c.09,0,0-.42,0-.54s.22-.33.45-.38a1,1,0,0,1,.27-.74.83.83,0,0,1,.72-.08s0,.08.09.08.1-.1.14-.13a1.9,1.9,0,0,1,.42-.15c.13,0,.25-.1.38-.15s.24-.1.3-.07.05.13.07.22c0,.3.3.12.51.08a1.55,1.55,0,0,0,0,.31c0,.08,0,0,.09.06s.19.2.36.25.38.2.15.37-.15.17,0,.33.09.11.14.14.22.08.28.19,0,.28,0,.4.07.24.14.38,0,.13,0,.19a.38.38,0,0,0,0,.19,2.56,2.56,0,0,1,1.06.2c.21.06.73-.06.74.26C653.3,501.77,653.17,501.75,653.16,501.85Z" transform="translate(-569.54 -404.31)"/></g><g class="cls-8"><path class="cls-7" d="M665.51,511.31s0,.05.07.07.11.1,0,.14-.14-.15-.19-.18-.14,0-.2,0a.27.27,0,0,1-.19,0,.33.33,0,0,0-.32,0s-.12.06-.11.11.09.05.12.08a.08.08,0,0,1,0,.08s0,0,0,0v.05s0,0,0,.07-.13,0-.13,0,.12.1.16.13a.12.12,0,0,1,0,.1s0,0,0,.05,0,.14,0,.19-.06.14-.11.22,0,.05,0,.06h-.07s0,0-.07.06h-.1s0,0,0,0a.21.21,0,0,0-.06-.1c-.08-.07-.05-.12-.06-.21s0-.11,0-.11,0,.12-.08.09l0-.06a.11.11,0,0,0-.07,0c0,.06,0,.09-.06.1l-.09,0s0,0-.1,0h-.15v.06c-.14,0-.18-.15-.26-.2a.17.17,0,0,0-.18,0s0,0,0,.05h-.11c-.06,0-.08.1,0,.14a.24.24,0,0,0,.22,0s.09,0,.11,0,0,.06,0,.08.09,0,.1.09-.06.06-.06.1a.17.17,0,0,0-.06.06.53.53,0,0,0,0-.12c-.1,0-.05.1-.15.1s0,0,0,0-.07,0-.11.09l-.06,0s0,0-.06,0-.15.07-.22.12-.17.14-.24.09,0,0,0,0h0c0-.05,0,0,0-.05l.1,0s0-.06.06-.09.09-.09,0-.11,0,0-.08,0a.08.08,0,0,1,0-.08s-.06,0-.06-.08,0-.06,0-.09a.23.23,0,0,0-.18.06c0-.07-.3.13-.36.11s0-.11,0-.15,0,0,0,0-.06,0-.07,0,0,0,0-.06,0-.1,0-.15.16-.08,0-.14a.36.36,0,0,1-.15-.15c0-.06,0-.08,0-.15a.38.38,0,0,0,0-.1s0-.08,0-.12.12,0,.14,0,0,0,0,.06,0,0,.07-.07.08,0,.12,0,0-.07,0-.1,0-.07,0-.12a.42.42,0,0,0-.09-.14c0-.05,0,0-.08-.07s0,0,0-.08-.13,0-.17-.08,0,0,0,0-.09,0-.11-.07,0-.07,0-.11-.21,0-.16-.09.1-.06.14-.06a.08.08,0,0,1,.06.09c.09,0,0-.11.06-.15a.38.38,0,0,1,.24,0c.09,0,.07.09.16.07a.28.28,0,0,0,.13,0,.26.26,0,0,0,.09-.15s0-.1,0-.13a.1.1,0,0,1,.1-.05s0,.05,0,.08.11,0,.16,0,0,.18.08.24.1,0,.13.06a.17.17,0,0,1,0,.14,2.61,2.61,0,0,1,.27-.06.29.29,0,0,1,0,.16.57.57,0,0,1-.08.13s-.05,0,0,.07.17,0,.21,0a.07.07,0,0,1,0,.05s0,.08,0,.08.06,0,.09,0,0,.08.12,0a.49.49,0,0,1,0-.17c0-.08.08-.1.15-.1h0s0-.16,0-.2a.2.2,0,0,1,.17-.14.35.35,0,0,1,.1-.27.3.3,0,0,1,.26,0s0,0,0,0,0,0,0,0a.94.94,0,0,1,.15-.06l.15-.05s.08,0,.1,0,0,0,0,.08.11.05.19,0a.37.37,0,0,0,0,.11l0,0c.06,0,.07.07.13.09s.14.07.06.13-.06.06,0,.12l.06.05s.07,0,.1.07a.26.26,0,0,1,0,.15c0,.07,0,.09.06.14s0,0,0,.07a.06.06,0,0,0,0,.06.84.84,0,0,1,.38.08c.08,0,.27,0,.27.09S665.52,511.27,665.51,511.31Z" transform="translate(-569.54 -404.31)"/></g><g class="cls-8"><path class="cls-7" d="M675.78,479.08s.05.05.06.07.11.1,0,.14-.14-.15-.19-.18a.34.34,0,0,0-.2,0,.23.23,0,0,1-.19-.05.33.33,0,0,0-.32,0s-.12.06-.11.11.08.05.11.08,0,0,0,.08,0,0,0,0,0,0,0,.05,0,.05,0,.07-.14,0-.14,0,.13.09.17.13,0,.07,0,.1,0,0-.06,0,0,.14,0,.2-.06.13-.11.21,0,.05-.05.06h-.06s0,.05-.07.06-.08,0-.1,0,0,0-.05,0a.21.21,0,0,0-.06-.1c-.08-.07-.05-.12-.07-.21s0-.11,0-.11,0,.12-.08.09,0-.05,0-.06a.07.07,0,0,0-.07,0c0,.05,0,.08-.06.09l-.1,0s0,0-.09,0h-.15V480c-.13.05-.17-.15-.25-.2a.17.17,0,0,0-.18,0s0,0-.05,0-.07,0-.1,0-.08.1,0,.14a.24.24,0,0,0,.22,0s.09,0,.11,0,0,.06,0,.08.1,0,.1.1-.06.05-.05.09l-.06.06,0-.12c-.11,0-.06.1-.15.1s0,0,0,0-.07.05-.11.09l-.06,0s0,0-.07,0-.15.07-.21.12-.17.14-.25.09v0h-.05c0-.05,0,0,0-.05l.1,0s0-.06.06-.08.08-.1,0-.12,0,0-.08,0,0-.06,0-.08-.07,0-.06-.08,0,0,0-.09a.22.22,0,0,0-.17.06c0-.07-.3.13-.36.11s0-.11,0-.16,0,0,0,0-.06,0-.07,0,0,0,0-.06,0-.1,0-.15.17-.08,0-.14a.54.54,0,0,1-.16-.14c0-.07,0-.09,0-.16s0-.07,0-.1,0-.08,0-.12.12,0,.14,0,0,.05,0,.06,0,0,.07-.07.08,0,.12,0,0-.07,0-.1,0-.07,0-.12,0-.09-.08-.14,0,0-.08-.07,0,0,0-.08-.13,0-.17-.08,0,0,0-.05-.09,0-.11-.07,0-.07,0-.11-.21,0-.16-.1a.22.22,0,0,1,.14,0s.05,0,.06.09,0-.11.06-.15a.36.36,0,0,1,.23,0c.09,0,.08.09.17.07a.28.28,0,0,0,.13,0,.2.2,0,0,0,.08-.15s0-.1,0-.13a.13.13,0,0,1,.11,0s0,0,0,.08.12,0,.16,0,0,.18.09.24.1,0,.13.06a.17.17,0,0,1,0,.14c.09,0,.18-.06.27-.06s0,.12,0,.16a.3.3,0,0,1-.09.13s0,0,0,.07.17,0,.2,0,0,0,0,.05,0,.08,0,.08.05,0,.09,0,0,.09.12.05a.49.49,0,0,1,0-.17c0-.08.07-.1.15-.1h0s0-.15,0-.2a.19.19,0,0,1,.17-.14.35.35,0,0,1,.09-.26.29.29,0,0,1,.27,0s0,0,0,0,0,0,0,0a.94.94,0,0,1,.15-.06l.14-.05s.09,0,.11,0,0,.05,0,.08.11.05.18,0,0,.09,0,.11,0,0,0,0,.07.08.13.1.14.07.06.13-.06.06,0,.12l0,.06s.08,0,.1.06,0,.1,0,.15,0,.09.06.14,0,.05,0,.07,0,0,0,.07a.74.74,0,0,1,.38.07c.08,0,.27,0,.27.09S675.78,479,675.78,479.08Z" transform="translate(-569.54 -404.31)"/></g><g class="cls-8"><path class="cls-7" d="M663.26,476.52s0,0,.07-.06.12-.1.15,0-.16.12-.2.17,0,.15,0,.2a.25.25,0,0,1-.06.18.37.37,0,0,0-.08.33s0,.11.1.11.06-.08.09-.11.05,0,.08,0,0,0,0,0h.05s0,0,.07,0,0,.13,0,.13.1-.12.14-.15a.16.16,0,0,1,.1,0s0,0,0,.06.14,0,.19,0,.13.08.2.14,0,0,.06.05,0,0,0,.06,0,0,.05.08a.34.34,0,0,1,0,.1s0,0,0,0a.24.24,0,0,0-.11.06c-.07.06-.12,0-.21,0s-.11,0-.11,0,.11,0,.07.09l-.06,0a.07.07,0,0,0,0,.06s.09,0,.09.07a.32.32,0,0,1,0,.09s0,0,0,.09l0,.16s0,0,.06,0-.16.15-.21.23a.17.17,0,0,0,0,.18s0,0,0,.05,0,.07,0,.1a.08.08,0,0,0,.14,0,.28.28,0,0,0,0-.22s0-.09,0-.11.06,0,.07,0,.05-.09.11-.09.06.06.09.06,0,0,0,.06l-.11,0c0,.11.09.07.08.16h0c0,.08,0,.07.08.12s0,0,0,.06,0,0,0,.07,0,.15.1.22.12.19.06.26h0l0,0c-.05,0,0,0-.05,0s0-.08,0-.1,0-.05-.07-.07-.09-.09-.12,0,0,.05,0,.08h-.09s0,.06-.08,0-.06,0-.09,0a.28.28,0,0,0,0,.18c-.07,0,.1.31.08.37s-.11,0-.16,0h0s0,.06,0,.06,0,0-.06,0-.1,0-.15,0-.06-.17-.14-.05a.36.36,0,0,1-.16.14c-.07,0-.08,0-.15,0s-.07,0-.11,0h-.12s0-.12,0-.14H663c0-.08,0,0-.07-.07s0-.09,0-.13h-.1l-.12,0c-.06,0-.09,0-.15.07s0,0-.07.08-.05,0-.09,0,0,.12-.1.16h0s0,.1-.08.11-.06,0-.11,0,0,.21-.11.16,0-.11,0-.14a.1.1,0,0,1,.09-.06c0-.09-.1,0-.14-.08s0-.18,0-.23.09-.06.09-.16,0-.1,0-.13a.24.24,0,0,0-.14-.1.66.66,0,0,1-.14,0s-.05-.08,0-.11,0,0,.08,0,0-.11.06-.15.17,0,.24-.06,0-.1.07-.12a.14.14,0,0,1,.14,0c0-.1,0-.19,0-.28s.11,0,.16.06a1.06,1.06,0,0,1,.12.1s0,.05.06,0,0-.17,0-.21h0s.08,0,.08,0,0-.05,0-.08.08,0,.05-.12h-.17c-.08,0-.09-.09-.08-.17h0s-.16,0-.2,0-.11-.09-.12-.18a.37.37,0,0,1-.26-.12.34.34,0,0,1,0-.26s0,0,0,0,0,0,0-.06a.75.75,0,0,1,0-.16c0-.05,0-.09,0-.14s0-.09,0-.11.05,0,.08,0,.06-.1.05-.18.08,0,.11,0,0,0,0,0,.08-.06.11-.12.09-.14.14-.05,0,.06.12,0l.06,0s0-.07.08-.09.1,0,.14,0,.09,0,.14,0,0,0,.07,0H663a1,1,0,0,1,.11-.38c0-.07,0-.26.12-.25S663.22,476.51,663.26,476.52Z" transform="translate(-569.54 -404.31)"/></g><path class="cls-5" d="M624.81,495.59c0,1.33-1.9,4.88.45,5.23-.29.78-1.36,1.21-1.48,2.1-.07.49.68,1.65.91,2.05.42.73,1,.2.6,1.18-.15.38-1.08.84-1.38,1.2.39.5,1,1.62-.2,1.57-.6,0-1.39-1.24-1.67-1.69l-.49.3c.18,1-1.92,1.9-2.54.79.53-1,1.63-1.53,2.24-2.46s.36-.92.2-1.78c0,0-.39-1.39-.32-1.3-.39-.46-.5-.78-1.06-.08s.08.95,0,1.73c0,1.12-1.68,3.09-3,2.79a1.55,1.55,0,0,1,.07-.23c-1.14,1-2.69-.26-1.58-1.81.22-.29.58-.06.91-.3.48-.36,1.54-1.25,1.7-1.84a5.21,5.21,0,0,0-.22-2c-.09-.21,0-.46-.19-.79s-.75-.37-.92-.72,0-2.1,1.07-2c.86.08.32,1.31,1.41,1.56.79.18.87-1.12,1.59-.21.12-1.06.69-1.71.84-2.71.1-.74-.45-1.3-.06-2C623,495.12,623.07,496.9,624.81,495.59Z" transform="translate(-569.54 -404.31)"/><g class="cls-8"><path class="cls-7" d="M669.32,438.51a2.87,2.87,0,0,0,0,.31l-.23-.13A.27.27,0,0,1,669.32,438.51Z" transform="translate(-569.54 -404.31)"/><path class="cls-7" d="M675.32,451.79c-.28-.82-1-.47-.15-1.43.7-.79,1.25-.51,1.8.29.16-.87.58-2.25.23-3.15-.26-.69-1.07-1.19-1.42-1.85-.95-1.84.33-2.64,2.16-2.24a4.43,4.43,0,0,0-2.37-1.83c-1-.15-1.91.54-2.94.24a4.22,4.22,0,0,1-3.26-3c1,.51,1.13-.62,1.84-.86a2.42,2.42,0,0,1,2.35.63c.38.4.37,1.67,1.27,1.74s1.33-1.26,1.26-1.95c1.29-.22,1.63,1.26,2.37,2,.57-.5,1.22-1.56,1.9-1.9,1.44-.71,2.26.66,3.21,1.71a31.84,31.84,0,0,1,3.79,5,11.94,11.94,0,0,0,1,1.42,56.52,56.52,0,0,1,4.52,43.77c-.7-.43-1.79-.45-2.39-1.27a4.48,4.48,0,0,0,0-1.75c-.15-.44-.73-1-.81-1.41-.25-1.27,1-3.29.2-4.54-.41-.6-.87-.37-1.17-1.16-.4-1.05.16-1.81-1-1.58-.27.05-.5.63-.74.76-.47.25-1,.13-1.22.21-.64.25-1.24,1.06-2.07.33-.13.16-.38.28-.49.45-.34-.5-1.94-2.29-1.7-2.84-1.18-.91,1.69-3.14,2.15-4.35-.67-.86-1.59-.38-2.31-.56,1.1-1.26,5.79-5.2,1.56-5.77-.93-.13-.94.11-1.68.74a17.34,17.34,0,0,1-2.11,1.42c-1.3.87-2.1,2.48-3.27,3.79.32.54,1.19,3.93-.23,2.59-.13.27-.46.41-.57.74-.18-.18-.57-.26-.75-.47-.23.32-.7,1.23-1.13,1.39s-.58-.49-1-.37c-.92.25-1.82,1.66-2.89.76.86-1.14,2.24-.84,2.74-1.79,0-.05-.54-.42-.53-.46.09-.28.85-1,.83-.85.1-.5.3-.6-.28-1,.67-.94,2-1,2.65-1.9s0-.92.07-1.82l.2.14c1-.61.17-1.41.32-2.17a1.87,1.87,0,0,1,.87-1.32c.29-.18,1,.07,1.19-.21,1.46-2-2.66-1.3-3.24-1.68.87-1.25,2.08-.16,2.49-1.18.24-.58-.68-3,1.29-1.91a3.46,3.46,0,0,0-.56-2.49c-.57-.63-.22-.52-1.26-.3s-3.53,2.26-4.6,2c-.7-.16-.7-1.05-1-1.19-.83-.36-1.55.45-2.42.68-1.43.39-1.74-.24-2.77-1.33.84-.87,1.4.14,2.26.06s1.77-1,2.48-1.5c1.08-.74,2.44-2.52,3.74-2.69,1.12-.14,1.07.75,1.78-.38A2.61,2.61,0,0,0,675.32,451.79Z" transform="translate(-569.54 -404.31)"/></g><g class="cls-8"><path class="cls-7" d="M613.13,435.45c-1.19-.88-3.11-2.43-4.6-1-.84.81-.25,1.32-.57,2.12-.61,1.49.09.6-1,1.48-1.36,1.07-3,1.45-4.07,3a24.18,24.18,0,0,0-2,4.9c-.43,1.2-1.24,3-.35,4.17.53.72.58.78,1.54.79,1.41,0,1.25-.61,1.47-1.5.45-1.75-1-3.3.29-4.95.29-.36,1-.53,1.32-.79,1.34-1.13,1.67-2,3.43-1.3.28.42.69,1.75,1,2,1.15.79.87-.3,1.88-.06,1.7.4,2.28,2,4.33,1.49-.55.63-1.18,1.2-1.74,1.82a12.79,12.79,0,0,1,2.29,2.06c-1,.31-2-.85-3.09-.46-.43.15-1.09,1.16-1.41,1.5,1,1.34,4.5,3.14,1.74,5-.23-.36-.83-.6-1-1-.52.51-1.08,1-1.62,1.54-1.31-1.09-3.16-.38-4.74-.68-2.63-.5-3.7-.41-5.82,2.18,1.37,1,.1,1.33.28,2.09s1.18,2.19,1,2.79-2.57.69-3.32,1.87c-1,1.65,0,1.17.09,2.58.1,2-3.86,4.45-2.27,6,2.46,2.47,2.07-3.28,4.49-3,1,.14.53,1.87,2.25,1.39,1.33-.37,1.15-2.07,1.73-3a6.92,6.92,0,0,1,2.5-2.19c1.05-.44,2.1.23,3.05-.14,2.09-.82,1.88-3.4,4.64-2.54.84.26,2.48,1.25,2,2.36-.36.9-2.22.07-2.86,1.24,1.54,2.52-4.16,2-4.45,3.5s1.6,1.74,1.13,3a1.75,1.75,0,0,1-3,.28c.25,1.42-.57,3.56.66,4.75.94.91,1.92.1,2.73,1.06-.66,1-3.73,2-3.46,3.61s.77.23,1.43.74a13.65,13.65,0,0,0,1.29,1.08,4.55,4.55,0,0,0,4.17.05c1.14-.45,3.11-2.32,4.24-1.41-.76,1.39-2.57,1.52-3.58,2.85,1.1.32,2.44-.22,3.34-.18a6.36,6.36,0,0,0-1.41,2.11c1.91,1,4.2-.08,6,1A19.7,19.7,0,0,1,627,493.4c-.91.94-.78-.25-1.62-.48-.27-.07-.74-.53-1.08-.65s-.77.42-1.08.29c-1.09-.44-1.85-1.37-3.15-1.35-1.48,0-2,1.14-3.25,1.5s-2.67-.68-3.47.54a6.52,6.52,0,0,0,.5.89c-.85.4-1.21-.31-2.05.29-.28.21,0,1.4-.7,1.88a7.36,7.36,0,0,1-2.53-2.18c-.73-1-.86-2.4-1.78-3.2-2.26,2.08-4.87,4.05-2.24,6.6a3.17,3.17,0,0,1-1.18,1.12c-.68-1.07-2.34-1.76-2.16,0,.1,1,2.33,1.25.57,2.29a1.27,1.27,0,0,0-2.19-.19c-.87-.68-1.69-1.61-2.54-2.39-2,1.8-2.84,2.47-2.22,4.84.23.86.91.85.76,1.93-.1.63-1.23,1-1.34,1.8a4.41,4.41,0,0,0,.22,1.48,56.4,56.4,0,0,1,4.65-74.5,57.27,57.27,0,0,1,8.28-6.84,3.88,3.88,0,0,1,1.88-.14c1.69.35,3.61,2.36,4.83,3.7C612.2,432.17,615.16,434.32,613.13,435.45Z" transform="translate(-569.54 -404.31)"/><path class="cls-7" d="M613.13,435.45c-1.19-.88-3.11-2.43-4.6-1-.84.81-.25,1.32-.57,2.12-.61,1.49.09.6-1,1.48-1.36,1.07-3,1.45-4.07,3a24.18,24.18,0,0,0-2,4.9c-.43,1.2-1.24,3-.35,4.17.53.72.58.78,1.54.79,1.41,0,1.25-.61,1.47-1.5.45-1.75-1-3.3.29-4.95.29-.36,1-.53,1.32-.79,1.34-1.13,1.67-2,3.43-1.3.28.42.69,1.75,1,2,1.15.79.87-.3,1.88-.06,1.7.4,2.28,2,4.33,1.49-.55.63-1.18,1.2-1.74,1.82a12.79,12.79,0,0,1,2.29,2.06c-1,.31-2-.85-3.09-.46-.43.15-1.09,1.16-1.41,1.5,1,1.34,4.5,3.14,1.74,5-.23-.36-.83-.6-1-1-.52.51-1.08,1-1.62,1.54-1.31-1.09-3.16-.38-4.74-.68-2.63-.5-3.7-.41-5.82,2.18,1.37,1,.1,1.33.28,2.09s1.18,2.19,1,2.79-2.57.69-3.32,1.87c-1,1.65,0,1.17.09,2.58.1,2-3.86,4.45-2.27,6,2.46,2.47,2.07-3.28,4.49-3,1,.14.53,1.87,2.25,1.39,1.33-.37,1.15-2.07,1.73-3a6.92,6.92,0,0,1,2.5-2.19c1.05-.44,2.1.23,3.05-.14,2.09-.82,1.88-3.4,4.64-2.54.84.26,2.48,1.25,2,2.36-.36.9-2.22.07-2.86,1.24,1.54,2.52-4.16,2-4.45,3.5s1.6,1.74,1.13,3a1.75,1.75,0,0,1-3,.28c.25,1.42-.57,3.56.66,4.75.94.91,1.92.1,2.73,1.06-.66,1-3.73,2-3.46,3.61s.77.23,1.43.74a13.65,13.65,0,0,0,1.29,1.08,4.55,4.55,0,0,0,4.17.05c1.14-.45,3.11-2.32,4.24-1.41-.76,1.39-2.57,1.52-3.58,2.85,1.1.32,2.44-.22,3.34-.18a6.36,6.36,0,0,0-1.41,2.11c1.91,1,4.2-.08,6,1A19.7,19.7,0,0,1,627,493.4c-.91.94-.78-.25-1.62-.48-.27-.07-.74-.53-1.08-.65s-.77.42-1.08.29c-1.09-.44-1.85-1.37-3.15-1.35-1.48,0-2,1.14-3.25,1.5s-2.67-.68-3.47.54a6.52,6.52,0,0,0,.5.89c-.85.4-1.21-.31-2.05.29-.28.21,0,1.4-.7,1.88a7.36,7.36,0,0,1-2.53-2.18c-.73-1-.86-2.4-1.78-3.2-2.26,2.08-4.87,4.05-2.24,6.6a3.17,3.17,0,0,1-1.18,1.12c-.68-1.07-2.34-1.76-2.16,0,.1,1,2.33,1.25.57,2.29a1.27,1.27,0,0,0-2.19-.19c-.87-.68-1.69-1.61-2.54-2.39-2,1.8-2.84,2.47-2.22,4.84.23.86.91.85.76,1.93-.1.63-1.23,1-1.34,1.8a4.41,4.41,0,0,0,.22,1.48,56.4,56.4,0,0,1,4.65-74.5,57.27,57.27,0,0,1,8.28-6.84,3.88,3.88,0,0,1,1.88-.14c1.69.35,3.61,2.36,4.83,3.7C612.2,432.17,615.16,434.32,613.13,435.45Z" transform="translate(-569.54 -404.31)"/></g><path class="cls-9" d="M654.91,441.49c-1.5,1.29-2.86,2.49-.76,4a1.53,1.53,0,0,1-1.43.89l-2.07-.3c-.22.13-.83.05-1.19.49-1.4-.7-.43-1.93.4-2.7a1.92,1.92,0,0,0-.72-.67c-.21.35-.8.59-1,.92l-1.59-1.51c-1.31,1-2.46,2.44-3.72,3.58-1.87-1.29-.13-2,.46-3.06-1.33.25-2.81-1.52-1.88-2.81s2.05.38,3.54.46c-1.35-.43-3.71-1.84-2.57-3.25s2.67.34,4.29.15c1.9-.24,2.5-.45,4.42.52A9.38,9.38,0,0,1,654.91,441.49Z" transform="translate(-569.54 -404.31)"/><g class="cls-10"><path class="cls-7" d="M629.63,442.55a1.36,1.36,0,0,1,.25.31,1.38,1.38,0,0,1-.62.11A3.7,3.7,0,0,1,629.63,442.55Z" transform="translate(-569.54 -404.31)"/><path class="cls-7" d="M675.42,430.69a11.7,11.7,0,0,1-1.87-.22,15.54,15.54,0,0,1-2.26-1.65c-1.42-.88-3.76-3.13-5.25-1.31-1.16-.7-1.91-2.19-3.16-2.71-.82-.34-1.79.14-2.57-.16-.55-.22-.92-.86-1.37-1.24a2.6,2.6,0,0,0-3.42-.23c-.94.59-1.47,2,0,2.15-1.52.12-.91,1.14-.11,1.83-1.22.13-1.58.93-1.13,1.79.66,1.26,2,1.19,3.1,1.69-.94-.08-1.86-.17-2.36.8A14.89,14.89,0,0,1,657.2,435c.8,1.68.32,1.12-.66,2.51.86.83,2.8,2.56,1.18,3.5a18.16,18.16,0,0,1-2.19-2.52,16.56,16.56,0,0,1-1.19-1.18,14.7,14.7,0,0,1-.68-1.48c-.72-1.15-1.25-.72-2.28-1.27s-1.17-1.45-2.64-1.54c-2.44-.14-2.33.09-2.6-2.28-.14-1.26-1.11-2.83-2.33-1.21-.91,1.19,1.05,2.71-1,2.46-.59-.06-.48-.84-1.31-.68-.62.12-1.1,1.26-1.05,1.76-2.6-.66-1.09,3-1.54,3.77-.59,1-1.63.55-2.39,1-1.48.9-.81,2.19-1.08,3.41s-2.17,2.84-3.21,3.44c-.74.42-1.48.72-2.07-.1-.37-.52.13-1.12-.23-1.74A7.71,7.71,0,0,0,632,441c-.56-.93-2-.42-2.73,0-.43-.39-4.65,2.5-2.69-.65-.71-1.36-1.3,0-2.06.47-.94.56-1.72.53-2.54,1.36-2.05-.4-.84-2.48,0-3.5.39-.48,1.3-.92,1.25-1.59a1.44,1.44,0,0,0-1.67-1c.38-1.6,4.77-4.31,1.41-4.72-1.75-.21-4,2.37-3.52-.23.23-1.23.81-1.71.08-2.58a7.77,7.77,0,0,0-2-1.32c-.69-.19-1.67.54-1.81-.4-.09-.62.8-1,.81-1.6-1-.17-1.8.86-2.76.84s-1.3-1.21-2.12-1.58A56.46,56.46,0,0,1,675.42,430.69Z" transform="translate(-569.54 -404.31)"/></g><path class="cls-11" d="M678.93,433.8a56.5,56.5,0,1,0,0,79.9A56.5,56.5,0,0,0,678.93,433.8Z" transform="translate(-569.54 -404.31)"/></g></g></svg>