<svg id="Слой_1" data-name="Слой 1" xmlns="http://www.w3.org/2000/svg" xmlns:xlink="http://www.w3.org/1999/xlink" viewBox="0 0 78 78"><defs><style>.cls-1{fill:#333348;stroke:#b3b3b3;opacity:0;}.cls-1,.cls-5{stroke-miterlimit:10;}.cls-2{fill:#eaf9f9;}.cls-3{fill:url(#Безымянный_градиент_5);}.cls-4{opacity:0.79;}.cls-5{fill:#9999ab;stroke:gray;stroke-width:0.75px;}</style><radialGradient id="Безымянный_градиент_5" cx="1158.4" cy="533.55" r="19.26" gradientTransform="translate(-872.58 -547.23) scale(0.77 1.07)" gradientUnits="userSpaceOnUse"><stop offset="0" stop-color="#eaf9f9" stop-opacity="0.29"/><stop offset="0.5" stop-color="#eaf9f9" stop-opacity="0.15"/><stop offset="1" stop-color="#eaf9f9" stop-opacity="0"/></radialGradient></defs><rect class="cls-1" x="0.5" y="0.5" width="77" height="77"/><path class="cls-2" d="M961.89,533.5a11.73,11.73,0,0,0-1.33.07,12.85,12.85,0,0,1-2.19,25.12,12.84,12.84,0,1,0,3.52-25.19Z" transform="translate(-944.26 -521.72)"/><ellipse class="cls-3" cx="24" cy="24.5" rx="15" ry="20.5"/><g class="cls-4"><path class="cls-5" d="M1000.41,547.8H996.7v-.26a12.92,12.92,0,0,0-12.92-12.91h0a12.91,12.91,0,0,0-12.91,12.91v.26h-3.63a12.92,12.92,0,0,0,0,25.83h33.17a12.92,12.92,0,1,0,0-25.83Z" transform="translate(-944.26 -521.72)"/><path class="cls-5" d="M1000,556.23H997.4v-.12c0-3.3-4-6-8.88-6h0c-4.9,0-8.87,2.68-8.87,6v.12h-2.49c-4.9,0-8.88,2.68-8.88,6s4,6,8.88,6H1000c4.9,0,8.88-2.68,8.88-6S1004.85,556.23,1000,556.23Z" transform="translate(-944.26 -521.72)"/></g></svg>