<svg xmlns="http://www.w3.org/2000/svg" xmlns:xlink="http://www.w3.org/1999/xlink" viewBox="0 0 136.36 136.36"><defs><style>.cls-1{isolation:isolate;}.cls-2{opacity:0.6;fill:url(#radial-gradient);}.cls-3{fill:#a9a9aa;}.cls-3,.cls-5,.cls-8{opacity:0.52;}.cls-4{fill:url(#radial-gradient-2);}.cls-5,.cls-7,.cls-9{fill:#fff;}.cls-6{opacity:0.5;}.cls-10,.cls-9{opacity:0.52;}.cls-11{mix-blend-mode:multiply;fill:url(#linear-gradient);}</style><radialGradient id="radial-gradient" cx="904.97" cy="33.13" r="68.07" gradientTransform="matrix(1, -0.07, -0.07, -1, 59.9, 637.59)" gradientUnits="userSpaceOnUse"><stop offset="0.25" stop-color="#fff"/><stop offset="0.64" stop-color="#fff" stop-opacity="0.72"/><stop offset="0.73" stop-color="#fff" stop-opacity="0.5"/><stop offset="0.82" stop-color="#fff" stop-opacity="0.29"/><stop offset="0.9" stop-color="#fff" stop-opacity="0.13"/><stop offset="0.96" stop-color="#fff" stop-opacity="0.03"/><stop offset="1" stop-color="#fff" stop-opacity="0"/></radialGradient><radialGradient id="radial-gradient-2" cx="904.42" cy="31.9" r="56.41" gradientTransform="matrix(0, -1, -1, 0, 993.4, 1444.91)" gradientUnits="userSpaceOnUse"><stop offset="0" stop-color="#787979"/><stop offset="0.79" stop-color="#a6a6a7"/><stop offset="0.84" stop-color="#a9a9aa"/><stop offset="0.94" stop-color="#d7d7d7"/><stop offset="1" stop-color="#f3f3f3"/></radialGradient><linearGradient id="linear-gradient" x1="757.74" y1="273.67" x2="870.74" y2="273.67" gradientTransform="matrix(-1, 0, 0, 1, 1775.74, 266.82)" gradientUnits="userSpaceOnUse"><stop offset="0" stop-color="#fff"/><stop offset="0.26" stop-color="#edecee"/><stop offset="0.31" stop-color="#bab9bb"/><stop offset="0.36" stop-color="#878787"/><stop offset="0.4" stop-color="#5d5d5d"/><stop offset="0.45" stop-color="#3c3c3c"/><stop offset="0.49" stop-color="#252524"/><stop offset="0.53" stop-color="#171716"/><stop offset="0.57" stop-color="#121211"/></linearGradient></defs><g class="cls-1"><g id="Слой_1" data-name="Слой 1"><circle class="cls-2" cx="959.72" cy="540.49" r="68.18" transform="translate(-538.36 987.59) rotate(-85.97)"/><path class="cls-3" d="M961.5,484.09a56.41,56.41,0,1,0,56.41,56.4A56.41,56.41,0,0,0,961.5,484.09Z" transform="translate(-891.54 -472.31)"/><path class="cls-4" d="M961.5,484.09a56.41,56.41,0,1,0,56.41,56.4A56.41,56.41,0,0,0,961.5,484.09Z" transform="translate(-891.54 -472.31)"/><path class="cls-5" d="M961.5,596.9h0c-1.13-.31-2.1-1.13-1.68-2.34s1-.55,1.82-1c1.57-.84-.37-1.53-.09-2.91a2.24,2.24,0,0,1,2.16.64,3.74,3.74,0,0,0-.1-1.39c-.41-1.65-1-3.11-.72-4.93.47-3.31,1.24.75,1.77,1.62a3.37,3.37,0,0,1,2.1-2.23c1.44-.46,1.32,0,2-1.52.46-1.05.8-1.88,2.24-1.41,1,.33,1.34,1.42,2.47,1.67.07-1.29-.42-3.12.41-4.13a1.59,1.59,0,0,1,2.87,1c1,.12,2.45,0,2.2-1.34h.38c.15,2.71,2.35-.4,2.88-.15s.13,1.24.36,1.53c.34.45.55.07,1,.32a4.1,4.1,0,0,0,2.74.76,3.66,3.66,0,0,0,.16-.5c-3.12-1.42-1.22-3.79-.68-5.89.1-.37.44-.21.42-.7,0-.82-.82-1.55-1-2.36a1.64,1.64,0,0,1,1.23-2.22c.66-.25,1.48-.18,2-.56.81-.66.3-1.36.55-2.22.48-1.59,1.58-1.86,3.2-1.81.06,1.74,0,3.51,0,5.25.08-.77.8-.9,1.51-.78a23.17,23.17,0,0,0,0,2.5c.21,1.3,0,1.08,1.14.92.6-.08,1.89-1.14,2.21-.07.2.63-.38,1.06-1,1.1.1,1-.83.94-1.14,1.68s.44,1.46.44,1.91c0,1.76-1.86,3.72,1.07,3.3.36-1.32.27-2.32,1-3.43a7.84,7.84,0,0,0,1.56-3.43c.16-1.58-1.36-3-.83-4.5.21-.61.32-1.05,1.22-1.08,1.14,0,.67.68.75,1.86,2.93-.1.61,2.68,2.33,2.86.28,1.06-.93,1.34-1.21,2.21-.39,1.28.81,2.55,1.46,3.86A56.28,56.28,0,0,1,961.5,596.9Z" transform="translate(-891.54 -472.31)"/><path class="cls-5" d="M1002.54,579.18l-2-3c-.77.84,0,2.76.24,3.77.31-.07.83-.06,1.06-.1h0a2.7,2.7,0,0,0-.58.32.5.5,0,0,1,.11.16c-.21.22-.43.43-.65.64l-.54.14a1.43,1.43,0,0,1,0,.36c-.79.75-1.6,1.48-2.44,2.18a4.45,4.45,0,0,0-.27-1.13c-.11-.25,0-.6-.19-.83s-.78-.05-.9-.25c-.83-1.34.22-2.37.5-3.64.18-.84-.12-2,0-2.84.12-1.14.37-1.44-.21-2.5a5.07,5.07,0,0,1,1.75-.27,7.36,7.36,0,0,1,0-2.69,6.09,6.09,0,0,1,.13-1.34c.38-.67,1.31-.58,1.44-1.39,1.23-.38.85-1.26,1.38-2.14s1.44-.68,1.67-1.32c-2.27,0-3.21.08-3.91-2.55-.5-1.83-.14-1.95,1.33-2.43.54-1.32,2-.44,2.25-2.25.32.08.92,0,1.23.13-.19-1.81,1.2-3.52.77-5.46a13,13,0,0,1,2.94-.71c.47,1.83.72,2.52,2.35,3.56a5,5,0,0,0,.18-1.67c-1.55.72-1.88-2.05-2.22-3-.65-1.81-.62-1.68-2.24-1.55-.27-.82-.26-3.12-.9-3.72s-1.31.06-2-.55c-1.33-1.15,0-2.18-2-2-1.29.11-2.14,1.23-3.22,1.35-.26-2-3.11-.24-4.13.08a9.18,9.18,0,0,1-4.51.27,6,6,0,0,1-2.43-1.58c-.37-.38-.5-.79-.84-1-.12-.09-.81,0-1.08-.15s-.43-.74-.72-1-.76-.22-1.12-.52c-1.84-1.51-3-5.25-3.46-7.5.56,1.3,2.53,3,3.5,4.17.82,1,1.23,1.31,2.81.44,2.69-1.49,1.08-4.94,3.11-6.55,2.82-2.24,5,3.66,7.32,1.59.75-.65.21-1.39.27-2.05a2.56,2.56,0,0,1,2.43-2.6,2,2,0,0,0,.08.22c1.26-1-.78-4,.63-5.57.62,2.33,1.23,2.06,3.17,1.52a4.84,4.84,0,0,1,.54,1.84c.19-1.39,1.1-1.51,2-.62s.83,2.67,1.37,3.77c1.17-.31.37-1.87,1.63-1.9,1.28,2.54,1.81,6.63,2,9.51a4.39,4.39,0,0,0,.94.34c1.66-2,4.94-2.44,6.52-.28.18,1.84.28,3.71.28,5.59A56.18,56.18,0,0,1,1002.54,579.18Z" transform="translate(-891.54 -472.31)"/><g class="cls-6"><path class="cls-7" d="M978.86,509.83c.21.39,1.35.8,1.89,1.07.93.48,3,2,2.11,2.06-1.82.19-3.54-2.23-5.28-3a9.9,9.9,0,0,0-3.9-.34,17.35,17.35,0,0,1-4-.46c-1.93-.38-4.74-.84-6.42.3-.36.24-1.26.95-.68,1.26s2,.19,2.83.36c.62.12,1.16.25,1.3.58s-.39.33-.37.49.25.27.46.47.66.38.4.65-2.38.28-1.82.69c1,.7,2.66.52,3.86.91a3.06,3.06,0,0,1,1.33.88c.14.34-.42.23-.51.57-.13.53,1.1,1.36,1.42,1.92.57,1-.09,1.31-.31,2.11-.07.26.05.52-.24.64s-.68-.09-1,0-.22.44-.68.58a6.43,6.43,0,0,1-1.36.25c-.55,0-.52,0-.93-.33a3.54,3.54,0,0,0-1.61-.73c-1.51-.37-1.57-.85-2.45-1.52-.3-.23-1.11-.87-1.52-.74.52.34.8,1-.4,1-.31,0-.66-.26-1-.29a2.24,2.24,0,0,0-1.14.17c.22.47.86.59.06,1a7,7,0,0,1-1.39.37,3.55,3.55,0,0,0-1.35.35l-1.92,1c.2.1.4.2.59.31-1.24,1.14-3.2.41-4.62.77-.83.22-1.64,1.23-1.6,1.62s.26.3.09.63-.7.59-.86.92c-.34.68.28,1.09,1.09.78a5.21,5.21,0,0,0,2.29-1.64c.19-.2.71-.82,1.11-.86s.48.33.71.38c.58.12,1.32-.42,1.89-.09-.41.64-.12.75.26.93a1.6,1.6,0,0,0-.17.75,8.67,8.67,0,0,0-1.24-.5c-1,.76.24,1-.61,1.63-.12-.06-.33-.05-.44-.13-.77.57-.25.71-.24,1.26,0,.29-.13.31-.31.59s-.22.26-.15.71c.12.75-.56,1.48-.61,2.21s-.06,1.95-.91,2.3a3.18,3.18,0,0,0-.38,0c-.16,0-.23.26-.39.28-.55.08-.28-.22-.19-.54a6.51,6.51,0,0,0,.29-.92c0-.33-.26-.56-.34-.84s-.21-1.12-.86-.64c-.25.19-.19.55-.52.69a.84.84,0,0,1-.81-.2c-.48.25-.58.5-1.1.28-.28-.12-.37-.41-.78-.35a2.08,2.08,0,0,0-.44,1.77c-.91.21-.18,3.13-.55,3.59s-1.05-.1-1.54-.09c-.11,0-.26-.11-.35-.07-.24.11-.31.6-.5.66s-.29-.18-.52-.26c-.48-.17-1,.25-1.46.15s-.26-1.8-1.31-.39A7.55,7.55,0,0,1,937,539.5c-.76.53-.85,0-1.51.13-.35,0-.78.45-1.12.62s-.84.3-1.25.52a2.83,2.83,0,0,1,.12-1.7c.11-.12.49-.19.62-.24.38-1.05-.22-.45-.6-.72s-.09-.94,0-1.47a10.93,10.93,0,0,1-1.09.38,2.51,2.51,0,0,0-1.28.24,7.28,7.28,0,0,0-1.65,1.56,3.41,3.41,0,0,0-.91,1.44c-.36.82-.45.45-.9,1s-.45,2-.94,2.87c-.16.27-.37.35-.5.61-.27.57-.24,1.57-.59,2.12s-.65,0-1.07.42c0,.71.36,3.17-.54,3.23-.36,0-.74-1.08-.76-1.71a2,2,0,0,1,.68-1.61c0-1.45-1,.49-1.48.12s-.48-2.6-.44-3.5c0-1.46.95-1.77.91-3.16a10,10,0,0,0-.07-1.94,1.12,1.12,0,0,0-1.48-.42c-.42.22-1.15,1.17-1.51,1.22s-.5-.87-.28-1.46.56-.45.93-1c.63-.86.53-2.08,1-3,.73-1.24,2.21-1.53,3.14-2.51.59-.63.7-1.62,1.45-2.22a1.74,1.74,0,0,1,1.69-.34,38,38,0,0,1,1.16-3.86c.7-.26,1.24.18,1.68.36a1.77,1.77,0,0,1,.91,1c.13.21.19.59.59.43.31-.66.88-2.27,1.7-2.79a1.7,1.7,0,0,1,.78-.2,5.09,5.09,0,0,1,.91.11c.56-.17.5-.67,1.06-1.08.84-.6,1.41-.47,1.7-1.4a15.4,15.4,0,0,1-2.11-.15c-.9-.13-.46-1,.32-2l.21,0c.18-.44-2-.06-2.42-.2-1-.32-.67-1.1,0-2.21-1.13.07-2.54-.49-2.44-1.29.17-1.4,1.75-2.75,2.95-3.6.23-.16.58-.16.77-.37s0-.5.1-.74a8.67,8.67,0,0,1,1.39-2c.51-.63.84-1.2,1.36-1.82a5.23,5.23,0,0,1,1.39-1.33,2.79,2.79,0,0,1,1.55-.11c1.54.07,2.54-1,3.63-1.9a14,14,0,0,0,1.81.28c.68,0,.12,0,.89-.21,1.4-.36,2.21-.28,3.62-.68,1.78-.51,3.57-.59,2.86.34s-.24.71,1.82.65c.59,0,1.13.06,1.64.05a11,11,0,0,1,2.75,0c1,.24,1.22.77,1.71,1.12a8.84,8.84,0,0,0,2.61,1c.75.25.46.43.61.62a1.87,1.87,0,0,0,.72.61c2.67-.59,5.57,0,8.18.41,2,.34,4.78.06,6.28,1.7C979.68,509.68,978.64,509.42,978.86,509.83Z" transform="translate(-891.54 -472.31)"/></g><g class="cls-6"><path class="cls-7" d="M978.86,509.83c.21.39,1.35.8,1.89,1.07.93.48,3,2,2.11,2.06-1.82.19-3.54-2.23-5.28-3a9.9,9.9,0,0,0-3.9-.34,17.35,17.35,0,0,1-4-.46c-1.93-.38-4.74-.84-6.42.3-.36.24-1.26.95-.68,1.26s2,.19,2.83.36c.62.12,1.16.25,1.3.58s-.39.33-.37.49.25.27.46.47.66.38.4.65-2.38.28-1.82.69c1,.7,2.66.52,3.86.91a3.06,3.06,0,0,1,1.33.88c.14.34-.42.23-.51.57-.13.53,1.1,1.36,1.42,1.92.57,1-.09,1.31-.31,2.11-.07.26.05.52-.24.64s-.68-.09-1,0-.22.44-.68.58a6.43,6.43,0,0,1-1.36.25c-.55,0-.52,0-.93-.33a3.54,3.54,0,0,0-1.61-.73c-1.51-.37-1.57-.85-2.45-1.52-.3-.23-1.11-.87-1.52-.74.52.34.8,1-.4,1-.31,0-.66-.26-1-.29a2.24,2.24,0,0,0-1.14.17c.22.47.86.59.06,1a7,7,0,0,1-1.39.37,3.55,3.55,0,0,0-1.35.35l-1.92,1c.2.1.4.2.59.31-1.24,1.14-3.2.41-4.62.77-.83.22-1.64,1.23-1.6,1.62s.26.3.09.63-.7.59-.86.92c-.34.68.28,1.09,1.09.78a5.21,5.21,0,0,0,2.29-1.64c.19-.2.71-.82,1.11-.86s.48.33.71.38c.58.12,1.32-.42,1.89-.09-.41.64-.12.75.26.93a1.6,1.6,0,0,0-.17.75,8.67,8.67,0,0,0-1.24-.5c-1,.76.24,1-.61,1.63-.12-.06-.33-.05-.44-.13-.77.57-.25.71-.24,1.26,0,.29-.13.31-.31.59s-.22.26-.15.71c.12.75-.56,1.48-.61,2.21s-.06,1.95-.91,2.3a3.18,3.18,0,0,0-.38,0c-.16,0-.23.26-.39.28-.55.08-.28-.22-.19-.54a6.51,6.51,0,0,0,.29-.92c0-.33-.26-.56-.34-.84s-.21-1.12-.86-.64c-.25.19-.19.55-.52.69a.84.84,0,0,1-.81-.2c-.48.25-.58.5-1.1.28-.28-.12-.37-.41-.78-.35a2.08,2.08,0,0,0-.44,1.77c-.91.21-.18,3.13-.55,3.59s-1.05-.1-1.54-.09c-.11,0-.26-.11-.35-.07-.24.11-.31.6-.5.66s-.29-.18-.52-.26c-.48-.17-1,.25-1.46.15s-.26-1.8-1.31-.39A7.55,7.55,0,0,1,937,539.5c-.76.53-.85,0-1.51.13-.35,0-.78.45-1.12.62s-.84.3-1.25.52a2.83,2.83,0,0,1,.12-1.7c.11-.12.49-.19.62-.24.38-1.05-.22-.45-.6-.72s-.09-.94,0-1.47a10.93,10.93,0,0,1-1.09.38,2.51,2.51,0,0,0-1.28.24,7.28,7.28,0,0,0-1.65,1.56,3.41,3.41,0,0,0-.91,1.44c-.36.82-.45.45-.9,1s-.45,2-.94,2.87c-.16.27-.37.35-.5.61-.27.57-.24,1.57-.59,2.12s-.65,0-1.07.42c0,.71.36,3.17-.54,3.23-.36,0-.74-1.08-.76-1.71a2,2,0,0,1,.68-1.61c0-1.45-1,.49-1.48.12s-.48-2.6-.44-3.5c0-1.46.95-1.77.91-3.16a10,10,0,0,0-.07-1.94,1.12,1.12,0,0,0-1.48-.42c-.42.22-1.15,1.17-1.51,1.22s-.5-.87-.28-1.46.56-.45.93-1c.63-.86.53-2.08,1-3,.73-1.24,2.21-1.53,3.14-2.51.59-.63.7-1.62,1.45-2.22a1.74,1.74,0,0,1,1.69-.34,38,38,0,0,1,1.16-3.86c.7-.26,1.24.18,1.68.36a1.77,1.77,0,0,1,.91,1c.13.21.19.59.59.43.31-.66.88-2.27,1.7-2.79a1.7,1.7,0,0,1,.78-.2,5.09,5.09,0,0,1,.91.11c.56-.17.5-.67,1.06-1.08.84-.6,1.41-.47,1.7-1.4a15.4,15.4,0,0,1-2.11-.15c-.9-.13-.46-1,.32-2l.21,0c.18-.44-2-.06-2.42-.2-1-.32-.67-1.1,0-2.21-1.13.07-2.54-.49-2.44-1.29.17-1.4,1.75-2.75,2.95-3.6.23-.16.58-.16.77-.37s0-.5.1-.74a8.67,8.67,0,0,1,1.39-2c.51-.63.84-1.2,1.36-1.82a5.23,5.23,0,0,1,1.39-1.33,2.79,2.79,0,0,1,1.55-.11c1.54.07,2.54-1,3.63-1.9a14,14,0,0,0,1.81.28c.68,0,.12,0,.89-.21,1.4-.36,2.21-.28,3.62-.68,1.78-.51,3.57-.59,2.86.34s-.24.71,1.82.65c.59,0,1.13.06,1.64.05a11,11,0,0,1,2.75,0c1,.24,1.22.77,1.71,1.12a8.84,8.84,0,0,0,2.61,1c.75.25.46.43.61.62a1.87,1.87,0,0,0,.72.61c2.67-.59,5.57,0,8.18.41,2,.34,4.78.06,6.28,1.7C979.68,509.68,978.64,509.42,978.86,509.83Z" transform="translate(-891.54 -472.31)"/></g><g class="cls-6"><path class="cls-7" d="M960.59,561.42c-.24-.14-1,0-1.35,0-.64,0-2.19-.09-1.77-.41.9-.69,2.58,0,3.75-.11a6.52,6.52,0,0,0,2.18-1.06,10.29,10.29,0,0,1,2.26-1c1.14-.42,2.77-1.07,3.3-2.21.11-.25.37-.91,0-.89a8.53,8.53,0,0,0-1.61.72c-.37.13-.7.24-.88.11s.1-.31,0-.38-.22-.07-.39-.11-.47,0-.42-.21,1.17-.91.74-1c-.73-.06-1.58.58-2.33.76a1.88,1.88,0,0,1-1,0c-.18-.13.15-.25.08-.46s-1-.37-1.36-.56c-.62-.35-.37-.73-.51-1.22,0-.16-.19-.26-.07-.42s.39-.16.5-.33,0-.31.17-.52a4,4,0,0,1,.65-.57c.29-.18.28-.14.59-.12a2.15,2.15,0,0,0,1.09-.13,3,3,0,0,1,1.78,0c.23,0,.87.11,1-.09-.39,0-.73-.25-.11-.66.16-.1.43-.07.62-.15a1.57,1.57,0,0,0,.55-.46c-.27-.18-.65,0-.35-.5a4.57,4.57,0,0,1,.62-.63,2.21,2.21,0,0,0,.6-.62c.24-.38.47-.76.71-1.13l-.41,0c.29-1,1.56-1.24,2.2-1.89a1.51,1.51,0,0,0,.33-1.37c-.11-.14-.24-.08-.25-.3s.18-.54.16-.77c0-.46-.5-.49-.83-.06a3.29,3.29,0,0,0-.69,1.6c0,.17-.11.66-.3.81s-.37,0-.5,0c-.35.12-.57.64-1,.65,0-.47-.17-.44-.43-.41a1,1,0,0,0-.15-.45,8,8,0,0,0,.81-.13c.29-.73-.43-.44-.19-1.06a2.76,2.76,0,0,1,.27-.08c.22-.54-.09-.45-.27-.74s0-.2,0-.41,0-.21-.15-.42-.17-1-.38-1.37-.59-1-.25-1.51a1.25,1.25,0,0,0,.21-.1c.08-.07,0-.21.12-.27.26-.22.22,0,.27.23a5.45,5.45,0,0,0,.14.58c.09.18.32.21.45.33s.47.53.66.06c.07-.18-.08-.35.06-.53a.52.52,0,0,1,.49-.15c.17-.28.14-.45.49-.5.19,0,.33.1.53-.06a1.27,1.27,0,0,0-.34-1.08c.42-.41-.9-1.71-.85-2.07s.58-.29.84-.45c.06,0,.17,0,.21-.07s0-.42.05-.51.21,0,.36,0c.31-.07.45-.45.73-.55s.71.87.82-.21a4.5,4.5,0,0,1,.4-1.53c.24-.52.44-.28.76-.55a2.7,2.7,0,0,0,.39-.69c.15-.24.35-.42.5-.67a1.79,1.79,0,0,1,.48.94c0,.1-.2.26-.25.32.13.68.26.18.54.2s.35.47.49.76c.15-.15.3-.42.46-.55s.4-.19.6-.53a4.24,4.24,0,0,0,.37-1.36,2,2,0,0,0,0-1.05c-.07-.55.1-.38.15-.82s-.4-1.2-.41-1.83c0-.19.08-.3.06-.47,0-.4-.37-.92-.36-1.32s.34-.21.43-.56c-.22-.38-1.2-1.57-.74-1.88.18-.13.73.33.94.66a1.23,1.23,0,0,1,.16,1.07c.47.76.37-.59.75-.54s1.08,1.22,1.35,1.71c.43.79.06,1.24.52,2a6.09,6.09,0,0,0,.66,1,.7.7,0,0,0,.92-.25c.15-.25.23-1,.41-1.13s.54.3.61.68-.15.42-.18.81c-.06.65.38,1.27.39,1.9,0,.89-.68,1.51-.86,2.33-.11.52.15,1.08-.05,1.64-.15.41-.59.76-.8.72a22.47,22.47,0,0,1,.63,2.41c-.29.36-.72.3-1,.35a1.15,1.15,0,0,1-.8-.22c-.13-.07-.29-.26-.45,0a4.31,4.31,0,0,1,0,2c-.1.19-.22.24-.35.36a2.66,2.66,0,0,1-.51.22c-.24.28-.05.52-.22.92-.25.58-.59.69-.45,1.28a9.92,9.92,0,0,1,1.16-.6c.52-.21.57.4.47,1.16,0,0-.07,0-.1.09,0,.28,1.07-.61,1.34-.67.61-.14.71.36.71,1.16.58-.39,1.51-.55,1.71-.09a4.1,4.1,0,0,1-.41,2.85c-.07.16-.25.26-.29.44s.15.27.18.42a5.25,5.25,0,0,1-.1,1.49c-.07.5-.06.9-.14,1.4a3.2,3.2,0,0,1-.31,1.15c-.25.35-.48.38-.79.55-.83.46-1,1.34-1.31,2.17a6.94,6.94,0,0,0-1,.43c-.36.23-.07,0-.41.39-.63.64-1.08.86-1.7,1.52-.78.84-1.7,1.45-1.62.74s-.1-.46-1.17.23c-.31.2-.62.33-.89.5a7.05,7.05,0,0,1-1.44.9,2.24,2.24,0,0,1-1.27-.05,5.37,5.37,0,0,0-1.69.32c-.47.11-.38-.07-.51-.13a1.25,1.25,0,0,0-.58-.09,13.57,13.57,0,0,1-4.46,2.39c-1.15.45-2.56,1.5-3.87,1.11C960.2,561.77,960.84,561.57,960.59,561.42Z" transform="translate(-891.54 -472.31)"/></g><g class="cls-8"><path class="cls-7" d="M922.43,532.13c.34,0,.48-.51.6-.73.23-.39.9-1.24,1.42-.65.81.91-1.34,1.57-1.61,2.12s.13,1.48.27,2a2.49,2.49,0,0,1-.19,1.93c-.39,1-.75,2.38,0,3.31.23.29.81,1,1.22.9s.44-.9.69-1.25.33-.49.69-.43.33.35.5.4.3,0,.52-.05.42-.21.69,0,0,1.36.61,1.27.75-1.39,1.09-1.81a1.39,1.39,0,0,1,.88-.45c.35,0,.26.32.63.49.56.26,1.36-.2,1.93-.23,1,0,1.38.47,2.24.85.28.12.54.12.69.35s0,.42.11.65.48.29.63.64a3.27,3.27,0,0,1,.28,1c0,.37-.06.34-.38.5a1.79,1.79,0,0,0-.9.78c-.54.82-1.07.66-1.93.89-.29.08-1.11.26-1.06.56.46-.15,1.18,0,1,.69-.07.18-.43.25-.55.43a.91.91,0,0,0-.14.72c.55.11.86-.2,1,.45a3,3,0,0,1-.07,1c-.1.42-.21.44-.14.92a12.24,12.24,0,0,1,.15,1.57l.57-.14c.67,1.28-1.21,1.93-1.59,2.78a1.8,1.8,0,0,0,.49,1.77c.26.18.43.09.61.38s0,.72.21,1a.76.76,0,0,0,1.4,0,2.69,2.69,0,0,0,0-2.22c-.08-.23-.36-.88-.18-1.11s.57-.06.73-.15c.41-.24.26-1,.85-1.12.42.61.66.51,1,.39a3,3,0,0,0,.64.54,10.84,10.84,0,0,0-1.1.43c.21,1.06,1.06.45,1.2,1.38-.12,0-.23.16-.37.18.09.81.5.6,1,.95.27.19.21.29.35.58s.09.31.53.57c.74.45.92,1.38,1.5,1.95s1.58,1.52,1.18,2.35c0,0-.29.14-.34.2s0,.36-.1.47c-.39.41-.4,0-.57-.33a4.85,4.85,0,0,0-.48-.9c-.23-.27-.64-.29-.92-.46s-1-.73-1.16,0c-.05.27.28.52.12.81a.86.86,0,0,1-.79.24c-.21.42-.12.68-.7.72-.33,0-.6-.17-.91,0a2.33,2.33,0,0,0,.82,1.65c-.67.54,1.72,2.85,1.6,3.41s-1.07.28-1.55.43c-.11,0-.31,0-.38,0s0,.64-.19.74-.37-.09-.63-.11c-.57,0-.9.45-1.41.44s-1-1.54-1.48-.15a3.65,3.65,0,0,1-1.21,1.72c-.62.5-.88,0-1.54.14-.34,0-.67.36-1,.49s-.8.2-1.18.34c-.13-.14-.51-1.14-.32-1.37s.44-.13.56-.17c.06-.85-.37-.38-.84-.61s-.4-.76-.54-1.18a7,7,0,0,1-1,.26,3.16,3.16,0,0,0-1.21.1,4.59,4.59,0,0,0-1.24,1c-.45.39-.39.4-.58.93s-.38.24-.75.56-.15,1.32-.6,1.79c-.14.14-.35.14-.47.28-.25.31-.17,1-.54,1.22s-.68-.2-1.13-.09c0,.45.24,2.09-.7,1.76-.39-.13-.71-.92-.7-1.3s.29-.64.75-.73c0-.9-1.07-.06-1.57-.45s-.58-1.73-.62-2.28c-.07-.87.82-.82.54-1.73a4.59,4.59,0,0,0-.46-1.27,2.35,2.35,0,0,0-1.61-.62c-.38,0-.95.43-1.31.36a1,1,0,0,1-.59-1c.12-.38.48-.13.73-.36.43-.39,0-1.18.22-1.65.37-.79,1.69-.54,2.2-1.15.31-.37,0-1,.44-1.35a1.73,1.73,0,0,1,1.44-.11c-.19-.91-.8-1.72-1-2.62.47-.18,1.2.12,1.68.23a4,4,0,0,1,1.37.66c.23.14.51.41.76.28-.1-.48-.58-1.65-.23-2.08.13-.16.33-.16.52-.22a6,6,0,0,1,.82,0c.34-.19,0-.53.12-.9.24-.54.77-.55.29-1.25a9,9,0,0,1-1.71.24c-.79,0-1.07-.63-1.21-1.4l.14-.05c-.19-.32-1.55.23-2,.18-1-.11-1.29-.66-1.62-1.46a3.7,3.7,0,0,1-2.78-.61,3.07,3.07,0,0,1-.63-2.59c0-.13.26-.17.23-.32s-.4-.32-.54-.48a6,6,0,0,1-.75-1.42c-.21-.47-.5-.86-.73-1.32-.11-.21-.45-.82-.37-1s.42-.26.74-.36c1.05-.33.3-1.16.06-1.9a5.09,5.09,0,0,0,1.07-.29c.27-.2,0,0,.18-.36.24-.57.64-.77.74-1.42.12-.82.55-1.47,1.26-.74s.69.48,1.18-.3c.14-.22.36-.38.47-.58.2-.36.16-.83.53-1.09s1-.13,1.44-.18c.7-.07.83-.37,1.32-.71.33-.23.49,0,.7,0a1.5,1.5,0,0,0,.69-.08c-.39-1.21,0-2.72.22-3.93.12-.76-.58-2.6.56-2.81C922.08,531.64,922.05,532.13,922.43,532.13Z" transform="translate(-891.54 -472.31)"/></g><g class="cls-8"><path class="cls-7" d="M991.4,550.34c.05.07.19,0,.26,0s.41,0,.37.2-.56,0-.73,0-.3.27-.39.39a.7.7,0,0,1-.45.28c-.28.08-.64.23-.72.54,0,.1-.09.35,0,.42s.27,0,.38-.06.17,0,.21.08,0,.13,0,.17,0,.06.1.11.11.06.1.16-.29.23-.17.34.43-.07.57-.06a.38.38,0,0,1,.25.11c0,.08,0,.11,0,.22s.27.26.36.38.13.38.19.63c0,.08.07.14,0,.21s-.1.06-.12.13,0,.15,0,.24a1.06,1.06,0,0,1-.17.23c-.09.06-.09,0-.18,0A.48.48,0,0,0,991,555c-.27,0-.33-.12-.52-.27s-.24-.19-.3-.14c.11.08.21.26,0,.33,0,0-.13-.06-.18,0a.24.24,0,0,0-.18.09c.06.13.18.15.07.29a.66.66,0,0,1-.22.15c-.11.05-.14,0-.23.12a2.91,2.91,0,0,1-.31.3l.12.1c-.17.35-.62.06-.87.11a.49.49,0,0,0-.3.4c0,.09.05.11,0,.2s-.15.13-.19.22a.21.21,0,0,0,.23.31.75.75,0,0,0,.47-.38s.14-.23.21-.22.11.11.16.13.25-.1.38,0c-.06.19,0,.23.09.29a.87.87,0,0,0,0,.23,1.61,1.61,0,0,0-.28-.17c-.19.22.08.3-.1.49,0,0-.07,0-.1,0-.16.15-.05.21,0,.37s0,.1-.07.17-.05.08,0,.22-.15.42-.18.64-.07.6-.31.65a.66.66,0,0,0-.11,0s-.07.06-.11.06-.07-.09,0-.18a1.23,1.23,0,0,0,.12-.26c0-.09,0-.18,0-.27s0-.35-.19-.26-.07.15-.16.16-.15-.07-.18-.13-.17.09-.27,0-.07-.16-.16-.19a.64.64,0,0,0-.23.45c-.22-.05-.33.85-.47.92s-.24-.19-.35-.27,0-.07-.07-.08-.15.11-.2.09,0-.1-.08-.16-.24-.12-.33-.23.17-.47-.21-.35a1,1,0,0,1-.58,0c-.21,0-.15-.18-.28-.31s-.19-.08-.27-.13a2.69,2.69,0,0,1-.27-.2s.16-.3.24-.3.1.08.13.1c.2-.13,0-.15,0-.29s.09-.21.16-.31-.16-.1-.22-.17a.84.84,0,0,0-.22-.25,1.23,1.23,0,0,0-.42-.1.39.39,0,0,0-.3,0c-.15,0-.12,0-.25-.07s-.31.19-.48.17-.1-.05-.14-.06-.25.13-.36.09-.07-.18-.17-.26-.41.4-.5.14a.48.48,0,0,1,.17-.37.21.21,0,0,1,.28,0c.2-.15-.16-.24-.16-.42s.28-.41.39-.51.32,0,.47-.17a1.49,1.49,0,0,0,.2-.31.61.61,0,0,0-.14-.45c-.07-.08-.25-.14-.29-.23a.26.26,0,0,1,.11-.28c.1,0,.11.08.2.09s.25-.19.39-.22.4.27.62.28.22-.16.37-.12a.47.47,0,0,1,.26.29c.17-.19.24-.46.41-.65a1.4,1.4,0,0,1,.31.81c0,.08,0,.18.07.22s.26-.4.41-.4.09,0,.13.08.14.17.15.17.1-.1.21-.12.25.07.32-.15a3.51,3.51,0,0,1-.34-.33c-.13-.17,0-.34.11-.49l0,0c0-.1-.31-.3-.37-.4a.53.53,0,0,1,0-.6,1,1,0,0,1-.33-.7.86.86,0,0,1,.46-.57s.08,0,.11,0,0-.13,0-.19a1.62,1.62,0,0,1,.19-.4c.06-.12.1-.25.16-.38s.1-.23.17-.25.12.05.2.1c.24.17.3-.13.42-.3.07,0,.17.16.24.18s0,0,.11,0,.27,0,.43-.08.41-.12.37.16,0,.22.26.2a1.55,1.55,0,0,0,.21,0c.11,0,.2-.11.32-.07s.2.2.28.29.22.11.38.16.08.1.11.16a.52.52,0,0,0,.13.13,2.46,2.46,0,0,1,.89-.6c.19-.11.47-.56.71-.35C991.44,550.18,991.33,550.25,991.4,550.34Z" transform="translate(-891.54 -472.31)"/></g><g class="cls-8"><path class="cls-7" d="M1006.82,548.29s.07,0,.09,0,.15,0,.14.07-.21,0-.27,0-.11.1-.14.14a.29.29,0,0,1-.16.1c-.11,0-.24.08-.27.2s0,.13,0,.15.09,0,.14,0,.06,0,.07,0,0,0,0,.06l0,0s0,0,0,.06-.11.08-.07.12.16,0,.21,0a.13.13,0,0,1,.09,0s0,0,0,.08.1.09.13.14,0,.14.07.23,0,0,0,.07,0,0-.05.05,0,.06,0,.09a.24.24,0,0,1-.06.08s0,0-.06,0a.23.23,0,0,0-.12,0c-.1,0-.12,0-.19-.1s-.09-.07-.11,0,.08.09,0,.12l-.07,0a.09.09,0,0,0-.07,0s.07.06,0,.11l-.08,0s0,0-.08,0l-.12.11,0,0c-.06.13-.23,0-.32,0a.17.17,0,0,0-.11.14s0,0,0,.07-.06,0-.07.08a.07.07,0,0,0,.08.11.23.23,0,0,0,.17-.13s.05-.09.08-.09,0,.05.06.05.09,0,.14,0,0,.09,0,.11a.11.11,0,0,0,0,.08l-.11-.06c-.07.08,0,.11,0,.18l0,0c-.06.06,0,.08,0,.14s0,0,0,.06,0,0,0,.08-.06.15-.06.23,0,.22-.12.24h0l0,0c-.06,0,0,0,0-.07a.25.25,0,0,0,0-.09s0-.07,0-.1,0-.13-.07-.1,0,.06-.06.06-.06,0-.07-.05-.06,0-.1,0,0-.06-.05-.07a.24.24,0,0,0-.09.17c-.08,0-.12.31-.17.33s-.09-.07-.13-.1l0,0s-.06,0-.07,0,0,0,0-.06-.09,0-.12-.08.06-.18-.08-.13a.38.38,0,0,1-.21,0c-.08,0-.06-.07-.1-.12l-.1,0a.39.39,0,0,1-.1-.08s.06-.11.09-.11l0,0c.08,0,0,0,0-.1s0-.08.06-.12l-.08-.06s0-.06-.08-.09a.42.42,0,0,0-.15,0,.2.2,0,0,0-.11,0c-.06,0,0,0-.09,0s-.11.07-.18.06l0,0s-.09,0-.13,0,0-.07-.06-.1-.15.15-.18,0,0-.11.06-.13a.07.07,0,0,1,.1,0c.07-.06-.06-.09-.06-.16s.1-.15.14-.18.12,0,.17-.07a.28.28,0,0,0,.08-.11.24.24,0,0,0,0-.16s-.09,0-.11-.09,0-.09,0-.1,0,0,.07,0,.1-.08.15-.09.14.11.22.11.08-.06.14,0a.17.17,0,0,1,.09.11c.06-.07.09-.17.15-.24a.36.36,0,0,1,.08.15.37.37,0,0,1,0,.15s0,.06,0,.08.1-.15.15-.15,0,0,0,0l.05.06s0,0,.08,0,.09,0,.12-.05l-.13-.13c0-.06,0-.12,0-.18h0s-.11-.11-.13-.15a.17.17,0,0,1,0-.21.27.27,0,0,1,0-.47h0s0,0,0-.07a.59.59,0,0,1,.06-.14c0-.05,0-.1.07-.14s0-.09.06-.1,0,0,.07,0,.11,0,.15-.11.06.06.09.07,0,0,0,0a.45.45,0,0,0,.16,0c.07,0,.15,0,.13.06s0,.08.1.07h.07s.08,0,.12,0,.07.07.1.11.08,0,.14.06,0,0,0,0l0,0a1,1,0,0,1,.32-.22c.07,0,.18-.2.26-.12S1006.79,548.26,1006.82,548.29Z" transform="translate(-891.54 -472.31)"/></g><g class="cls-8"><path class="cls-7" d="M991.29,518.24s.07,0,.09,0,.15,0,.14.07-.21,0-.27,0-.11.1-.14.14a.29.29,0,0,1-.16.1c-.11,0-.24.08-.27.2s0,.12,0,.15.09,0,.14,0,.06,0,.07,0,0,0,0,.06l0,0s0,0,0,.06-.11.08-.07.12.16,0,.21,0a.13.13,0,0,1,.09,0s0,0,0,.08.1.1.14.14,0,.14.06.23,0,.05,0,.07,0,0,0,0,0,.06,0,.09a.24.24,0,0,1-.06.08s0,0-.06,0a.23.23,0,0,0-.12,0c-.1,0-.12-.05-.19-.1s-.09-.07-.11-.05.08.09,0,.12l-.07,0a.09.09,0,0,0-.07,0c0,.05.07.06,0,.11s-.06,0-.08.05,0,0-.08,0l-.12.11,0,0c-.06.13-.23,0-.32,0a.2.2,0,0,0-.11.15s0,0,0,.07-.06.05-.07.08a.07.07,0,0,0,.08.11.27.27,0,0,0,.18-.13s0-.08.07-.08,0,0,.06,0,.09,0,.14,0,0,.09,0,.11a.22.22,0,0,0,0,.08l-.11-.06c-.07.08,0,.11,0,.18l0,0c-.06.06,0,.08,0,.14s0,0,0,.06,0,0,0,.08-.06.15-.06.23,0,.22-.12.24h0l0,0c-.05,0,0,0,0-.07l0-.09s0-.07,0-.1,0-.13-.07-.1,0,.06-.06.06-.06,0-.07,0-.06,0-.1,0,0-.06,0-.07a.24.24,0,0,0-.09.17c-.08,0-.12.31-.17.33s-.09-.07-.13-.09,0,0,0,0-.05,0-.07,0,0,0,0-.06-.09,0-.12-.09.06-.17-.08-.12a.49.49,0,0,1-.21,0c-.08,0-.06-.07-.1-.12l-.1,0a.87.87,0,0,1-.1-.08s.06-.11.09-.11l0,0c.07,0,0,0,0-.11s0-.07.06-.11l-.08-.06a.22.22,0,0,0-.08-.09.42.42,0,0,0-.15,0,.2.2,0,0,0-.11,0s0,0-.09,0-.11.06-.18.06l0,0s-.09,0-.13,0,0-.07-.06-.1-.15.15-.18.06,0-.12.06-.14a.07.07,0,0,1,.1,0c.07-.06-.06-.09-.06-.16s.11-.15.14-.18.12,0,.18-.07a.3.3,0,0,0,.07-.11.22.22,0,0,0-.05-.16s-.09-.05-.11-.09,0-.09,0-.1,0,0,.08,0,.09-.08.14-.09.14.1.22.11.08-.06.14-.05a.14.14,0,0,1,.09.11c.06-.07.09-.17.15-.24s.06.1.09.15a.66.66,0,0,1,0,.15s0,.06,0,.07.09-.14.15-.14,0,0,0,0l.05.06s0,0,.08,0,.09,0,.12,0l-.13-.13c0-.06,0-.12,0-.18h0s-.11-.11-.13-.15a.17.17,0,0,1,0-.21.36.36,0,0,1-.12-.26.31.31,0,0,1,.16-.21s0,0,0,0,0-.05,0-.07a.37.37,0,0,1,.07-.14.59.59,0,0,1,.06-.14s0-.09.06-.09,0,0,.07,0,.11,0,.15-.11.06.06.09.07,0,0,0,0,.1,0,.16,0,.15,0,.13.06,0,.08.1.07h.07s.08,0,.12,0,.07.07.1.11.08,0,.14.06,0,0,0,.05l0,0a1,1,0,0,1,.32-.22c.07,0,.18-.2.26-.12S991.27,518.21,991.29,518.24Z" transform="translate(-891.54 -472.31)"/></g><g class="cls-8"><path class="cls-7" d="M980.62,525.29s0-.07,0-.1,0-.15.08-.13,0,.21,0,.27.09.12.13.15a.33.33,0,0,1,.08.18c0,.1.06.24.17.28s.12,0,.15,0,0-.1,0-.14,0-.06,0-.07h.07s0,0,0,0,0,0,.06,0,.07.11.11.07,0-.15,0-.21,0-.07.05-.08,0,0,.08,0,.11-.09.16-.12.14,0,.23-.05.05,0,.08,0,0,0,0,.06.06,0,.09,0a.23.23,0,0,1,.07.07s0,0,0,.06a.14.14,0,0,0,0,.11c0,.1-.06.11-.11.18s-.09.08-.07.1.1-.06.12,0,0,0,0,.06a.06.06,0,0,0,0,.07s.07-.06.11,0a.26.26,0,0,1,0,.09s0,0,0,.08a.64.64,0,0,1,.1.13s0,0,0,0,0,.22,0,.31a.19.19,0,0,0,.13.13s0,0,.08,0,0,.06.07.07a.07.07,0,0,0,.12-.07.26.26,0,0,0-.12-.18s-.08-.06-.07-.09,0,0,.05-.05,0-.1,0-.14.09,0,.11,0H983a.61.61,0,0,1-.07.1c.08.08.12,0,.18,0s0,0,0,0,.08,0,.14,0l.06,0s0,0,.08,0,.14.06.22.08.22,0,.23.14l0,0s0,0,0,0,0,0-.06,0l-.09-.05s-.07,0-.1,0-.13,0-.1.06,0,0,0,.06a.06.06,0,0,1,0,.06s0,.07,0,.1-.06,0-.08.05a.27.27,0,0,0,.16.1c0,.08.29.15.31.21s-.08.08-.11.11l0,0s0,.05,0,.07,0,0-.06,0-.06.09-.1.11-.17-.07-.13.07a.38.38,0,0,1,0,.21c0,.07-.07.05-.12.09s0,.07-.06.09-.06.06-.08.09-.1-.06-.1-.1l0,0c0-.07,0,0-.1,0s-.08,0-.11-.07,0,.06-.07.07a.39.39,0,0,0-.1.08.53.53,0,0,0,0,.15c0,.05,0,.05,0,.11s0,0,0,.08.05.12,0,.19l0,0s0,.1,0,.14-.07,0-.1,0,.13.16,0,.18-.1,0-.13-.07,0-.07,0-.1-.09,0-.16,0-.14-.11-.17-.16,0-.11,0-.17-.07-.08-.11-.09a.27.27,0,0,0-.17,0s-.06.08-.09.09-.09,0-.1,0,0,0,0-.07-.06-.1-.06-.15.11-.13.12-.21,0-.08,0-.14a.15.15,0,0,1,.11-.08,1.84,1.84,0,0,0-.22-.17.33.33,0,0,1,.16-.07.36.36,0,0,1,.15,0s.07,0,.08,0-.14-.11-.13-.17,0,0,0,0l.07-.05s0,0,0-.08,0-.09,0-.12l-.13.11c-.06,0-.12,0-.17-.06h0s-.11.1-.15.12a.2.2,0,0,1-.22,0,.37.37,0,0,1-.27.09c-.08,0-.16-.11-.19-.18s0,0,0,0,0,0-.07,0a.67.67,0,0,1-.14-.09l-.13-.07a.31.31,0,0,1-.09-.07s0,0,0-.07,0-.11-.1-.16l.08-.08s0,0,0,0,0-.1,0-.16,0-.16.07-.13.08,0,.08-.09,0-.05,0-.07,0-.08,0-.12.08-.07.11-.09a.23.23,0,0,0,.08-.13s0,0,.06,0l.05,0a.83.83,0,0,1-.18-.35c0-.07-.19-.19-.1-.27S980.59,525.31,980.62,525.29Z" transform="translate(-891.54 -472.31)"/></g><path class="cls-5" d="M966.92,566c1,.91,2.11,4.78,4,3.37.35.76-.11,1.83.44,2.54a5.4,5.4,0,0,0,2.1.8c.81.22.82-.54,1.25.41.17.38-.17,1.36-.12,1.83.63.08,1.8.47,1,1.25-.45.41-1.87.11-2.38,0l-.14.56c.86.59,0,2.7-1.24,2.35-.33-1.09.07-2.23-.16-3.32s-.39-.91-1.11-1.41a11.41,11.41,0,0,1-1.14-.69c-.61,0-.91-.2-.81.69s.73.62,1.26,1.19c.76.83,1,3.38-.15,4.1l-.12-.22c-.1,1.51-2.08,1.72-2.39-.16-.05-.36.37-.45.43-.85a5.25,5.25,0,0,0-.1-2.5,5,5,0,0,0-1.57-1.27c-.21-.09-.34-.32-.7-.43s-.79.27-1.15.15-1.49-1.5-.67-2.18c.66-.56,1.14.7,2.1.1.68-.43-.18-1.41,1-1.27-.67-.83-.73-1.7-1.33-2.5-.45-.61-1.23-.61-1.45-1.38C965.34,566.88,966.62,568.12,966.92,566Z" transform="translate(-891.54 -472.31)"/><g class="cls-8"><path class="cls-7" d="M958,494.13l.25.18a1.67,1.67,0,0,1-.26.06A.23.23,0,0,1,958,494.13Z" transform="translate(-891.54 -472.31)"/><path class="cls-7" d="M971.67,499.27c-.78-.39-1,.36-1.12-.9-.07-1.06.53-1.24,1.48-1.07-.5-.74-1.18-2-2.06-2.39-.68-.31-1.6-.09-2.31-.31-2-.62-1.64-2.1-.07-3.11a4.37,4.37,0,0,0-3,.39c-.83.62-1,1.73-1.9,2.24a4.24,4.24,0,0,1-4.43.19c1.05-.32.36-1.24.69-1.91a2.45,2.45,0,0,1,2.11-1.22c.55,0,1.45.92,2.13.33s0-1.83-.49-2.27c.76-1.07,2-.26,3.06-.29a12.63,12.63,0,0,1,0-2.68c.52-1.53,2.07-1.13,3.48-1.07a32,32,0,0,1,6.18.83,14.32,14.32,0,0,0,1.74.27,56.5,56.5,0,0,1,34.14,27.75c-.8.2-1.59,1-2.59.8a4.19,4.19,0,0,0-1.25-1.23c-.41-.21-1.21-.18-1.56-.42-1.07-.73-1.59-3.08-3.07-3.36-.72-.14-.88.35-1.65,0-1-.46-1.16-1.39-1.83-.41-.15.23.09.8,0,1.06-.15.51-.62.82-.71,1-.28.64-.13,1.63-1.23,1.71,0,.19-.07.46,0,.66-.59-.12-3-.25-3.2-.8-1.47.18-1-3.43-1.56-4.61-1.07-.13-1.39.86-2,1.24-.11-1.66.42-7.77-3-5.18-.75.56-.59.74-.66,1.71a19.77,19.77,0,0,1-.49,2.5c-.31,1.54.26,3.23.36,5,.61.16,3.63,1.94,1.67,2,.1.29,0,.62.12.93-.25,0-.58.22-.86.2.06.38.38,1.37.18,1.78s-.75.06-1,.47c-.47.82-.11,2.45-1.5,2.58-.2-1.42,1-2.18.67-3.21,0-.05-.68.09-.7,0a2.48,2.48,0,0,1,0-1.19c-.27-.42-.21-.63-.93-.53-.19-1.14.77-2.12.54-3.22s-.63-.68-1.24-1.34l.24,0c.24-1.1-.88-1.12-1.31-1.76a1.89,1.89,0,0,1-.32-1.55c.07-.33.74-.63.69-1-.36-2.43-2.8,1-3.48,1.1-.27-1.49,1.36-1.58.94-2.59-.25-.58-2.63-1.66-.45-2.26a3.39,3.39,0,0,0-2.16-1.36c-.84-.05-.52-.22-1.09.67s-.91,4.09-1.85,4.68c-.6.37-1.22-.25-1.57-.11-.84.33-.78,1.41-1.22,2.19-.75,1.29-1.41,1.06-2.91,1,0-1.21,1.09-.89,1.64-1.56s.53-2,.69-2.81c.25-1.29,0-3.51.75-4.54s1.29-.23,1-1.53C973.17,499.9,972.26,499.56,971.67,499.27Z" transform="translate(-891.54 -472.31)"/></g><g class="cls-8"><path class="cls-7" d="M916.14,531.69c-1.46.22-3.92.48-4,2.55,0,1.17.77,1.11,1.1,1.9.63,1.5.49.36.31,1.79-.21,1.71-1.12,3.17-.74,5a24.22,24.22,0,0,0,2.06,4.86c.55,1.15,1.23,3,2.71,3.2.88.13,1,.14,1.64-.52,1-1,.46-1.32,0-2.11-.91-1.55-3-1.62-3.29-3.71-.05-.45.34-1.09.38-1.49.15-1.75-.21-2.56,1.5-3.34.49.09,1.72.75,2.09.68,1.38-.26.4-.83,1.29-1.38,1.49-.91,3-.17,4.11-2,.06.83,0,1.68.06,2.51a13.19,13.19,0,0,1,3.08-.16c-.45.9-2,.8-2.51,1.86a6.53,6.53,0,0,0,.06,2.06c1.69.21,5.4-1,4.75,2.29-.41-.1-1,.16-1.41.06,0,.73,0,1.5-.06,2.23-1.69.16-2.5,2-3.83,2.87-2.22,1.51-2.91,2.33-2.58,5.66,1.67-.27,1,.87,1.68,1.28s2.38.72,2.65,1.29-1.33,2.31-1,3.67c.43,1.9.83.82,1.88,1.76,1.47,1.32.43,5.88,2.68,5.88,3.49,0-.85-3.78,1.08-5.26.82-.63,1.7.94,2.58-.61.67-1.2-.66-2.28-.92-3.36a6.8,6.8,0,0,1,.22-3.32c.43-1.05,1.65-1.32,2.06-2.25.9-2.06-1.07-3.74,1.48-5.08.78-.41,2.65-.87,3.12.22.38.9-1.52,1.62-1.14,2.91,2.87.68-1.53,4.34-.68,5.61s2.36.1,2.9,1.3a1.75,1.75,0,0,1-1.94,2.33c1.18.83,2.11,2.92,3.83,2.89,1.3,0,1.43-1.28,2.68-1.18.2,1.15-1.23,4,.1,5s.71-.38,1.53-.49a12.19,12.19,0,0,0,1.68-.15,4.58,4.58,0,0,0,3-2.91c.48-1.13.55-3.84,2-4,.44,1.53-.75,2.89-.51,4.55,1-.55,1.56-1.88,2.22-2.49a6.36,6.36,0,0,0,.5,2.49c2.06-.64,2.92-3,5-3.59a19.51,19.51,0,0,1,5.41-.12c0,1.3-.73.37-1.48.81-.24.14-.9.15-1.22.3s-.26.84-.56,1c-1.09.46-2.28.33-3.19,1.27s-.62,2.24-1.24,3.36-2.36,1.41-2.06,2.83a5.39,5.39,0,0,0,1,.28c-.31.89-1.07.63-1.24,1.66,0,.34,1,1,.84,1.82a7.37,7.37,0,0,1-3.34.25c-1.21-.18-2.3-1.09-3.51-1-.13,3.07-.59,6.31,3.08,6.26a3.07,3.07,0,0,1-.05,1.62c-1.23-.27-2.89.41-1.56,1.5.76.62,2.53-.77,2,1.21a1.26,1.26,0,0,0-1.67,1.41c-1.1.14-2.35.06-3.49.11-.11,2.66-.26,3.76,1.85,5,.77.44,1.24,0,1.9.82.38.52-.18,1.55.33,2.22a4.53,4.53,0,0,0,1.2.9,56.43,56.43,0,0,1-48.37-66.67,3.78,3.78,0,0,1,1.23-1.43c1.44-1,4.21-.88,6-.8C913.16,530,916.78,529.46,916.14,531.69Z" transform="translate(-891.54 -472.31)"/><path class="cls-7" d="M916.14,531.69c-1.46.22-3.92.48-4,2.55,0,1.17.77,1.11,1.1,1.9.63,1.5.49.36.31,1.79-.21,1.71-1.12,3.17-.74,5a24.22,24.22,0,0,0,2.06,4.86c.55,1.15,1.23,3,2.71,3.2.88.13,1,.14,1.64-.52,1-1,.46-1.32,0-2.11-.91-1.55-3-1.62-3.29-3.71-.05-.45.34-1.09.38-1.49.15-1.75-.21-2.56,1.5-3.34.49.09,1.72.75,2.09.68,1.38-.26.4-.83,1.29-1.38,1.49-.91,3-.17,4.11-2,.06.83,0,1.68.06,2.51a13.19,13.19,0,0,1,3.08-.16c-.45.9-2,.8-2.51,1.86a6.53,6.53,0,0,0,.06,2.06c1.69.21,5.4-1,4.75,2.29-.41-.1-1,.16-1.41.06,0,.73,0,1.5-.06,2.23-1.69.16-2.5,2-3.83,2.87-2.22,1.51-2.91,2.33-2.58,5.66,1.67-.27,1,.87,1.68,1.28s2.38.72,2.65,1.29-1.33,2.31-1,3.67c.43,1.9.83.82,1.88,1.76,1.47,1.32.43,5.88,2.68,5.88,3.49,0-.85-3.78,1.08-5.26.82-.63,1.7.94,2.58-.61.67-1.2-.66-2.28-.92-3.36a6.8,6.8,0,0,1,.22-3.32c.43-1.05,1.65-1.32,2.06-2.25.9-2.06-1.07-3.74,1.48-5.08.78-.41,2.65-.87,3.12.22.38.9-1.52,1.62-1.14,2.91,2.87.68-1.53,4.34-.68,5.61s2.36.1,2.9,1.3a1.75,1.75,0,0,1-1.94,2.33c1.18.83,2.11,2.92,3.83,2.89,1.3,0,1.43-1.28,2.68-1.18.2,1.15-1.23,4,.1,5s.71-.38,1.53-.49a12.19,12.19,0,0,0,1.68-.15,4.58,4.58,0,0,0,3-2.91c.48-1.13.55-3.84,2-4,.44,1.53-.75,2.89-.51,4.55,1-.55,1.56-1.88,2.22-2.49a6.36,6.36,0,0,0,.5,2.49c2.06-.64,2.92-3,5-3.59a19.51,19.51,0,0,1,5.41-.12c0,1.3-.73.37-1.48.81-.24.14-.9.15-1.22.3s-.26.84-.56,1c-1.09.46-2.28.33-3.19,1.27s-.62,2.24-1.24,3.36-2.36,1.41-2.06,2.83a5.39,5.39,0,0,0,1,.28c-.31.89-1.07.63-1.24,1.66,0,.34,1,1,.84,1.82a7.37,7.37,0,0,1-3.34.25c-1.21-.18-2.3-1.09-3.51-1-.13,3.07-.59,6.31,3.08,6.26a3.07,3.07,0,0,1-.05,1.62c-1.23-.27-2.89.41-1.56,1.5.76.62,2.53-.77,2,1.21a1.26,1.26,0,0,0-1.67,1.41c-1.1.14-2.35.06-3.49.11-.11,2.66-.26,3.76,1.85,5,.77.44,1.24,0,1.9.82.38.52-.18,1.55.33,2.22a4.53,4.53,0,0,0,1.2.9,56.43,56.43,0,0,1-48.37-66.67,3.78,3.78,0,0,1,1.23-1.43c1.44-1,4.21-.88,6-.8C913.16,530,916.78,529.46,916.14,531.69Z" transform="translate(-891.54 -472.31)"/></g><path class="cls-9" d="M950,506.42c-.15,2-.27,3.78,2.31,3.39a1.55,1.55,0,0,1-.38,1.65l-1.67,1.25c-.07.24-.56.61-.5,1.18-1.48.5-1.67-1-1.62-2.19a1.9,1.9,0,0,0-1,0c.09.39-.16,1-.07,1.36l-2.19.06c-.2,1.65,0,3.46-.11,5.16-2.23.41-1.5-1.32-1.83-2.49-.77,1.11-3.07.91-3.32-.66s1.72-1.18,2.83-2.17c-1.26.64-3.92,1.32-4.12-.48-.18-1.63,2.13-1.65,3.14-2.94,1.18-1.5,1.45-2.08,3.5-2.75A9.44,9.44,0,0,1,950,506.42Z" transform="translate(-891.54 -472.31)"/><g class="cls-10"><path class="cls-7" d="M932.83,525a1.51,1.51,0,0,1,.39,0,1.32,1.32,0,0,1-.36.53A2.73,2.73,0,0,1,932.83,525Z" transform="translate(-891.54 -472.31)"/><path class="cls-7" d="M956.82,484.28c-.52.34-.82.86-1.48,1.16a14.84,14.84,0,0,1-2.76.43c-1.63.39-4.88.45-4.64,2.79-1.32.33-2.9-.2-4.16.32-.81.34-1.16,1.37-1.92,1.7a6,6,0,0,1-1.85.09,2.62,2.62,0,0,0-2.58,2.27c-.24,1.07.38,2.45,1.49,1.54-1,1.16.16,1.45,1.22,1.37-.77,1-.46,1.77.47,2.06,1.36.43,2.27-.58,3.38-1-.72.61-1.44,1.19-1.1,2.23a14.76,14.76,0,0,1,4.1,1c1.75.62,1,.56,1.3,2.24,1.19,0,3.79-.17,3.31,1.64a18.65,18.65,0,0,1-3.33-.23,13.29,13.29,0,0,1-1.67,0,16.11,16.11,0,0,1-1.54-.56c-1.32-.3-1.38.37-2.5.71s-1.85-.19-3,.79c-1.82,1.61-1.59,1.7-3.45.22-1-.8-2.78-1.22-2.51.79.21,1.49,2.67,1.18,1,2.48-.47.37-.94-.25-1.41.45-.35.52.11,1.67.5,2-2.3,1.37,1.35,2.9,1.57,3.76.3,1.13-.76,1.53-1,2.4-.41,1.69,1,2.12,1.65,3.18s.47,3.54.16,4.7c-.23.82-.53,1.55-1.53,1.39-.64-.1-.71-.88-1.4-1.07a7.6,7.6,0,0,0,.13-2.81c-1.05-.26-1.69,1.1-2,1.91-.58,0-1.52,5.05-2.37,1.44-1.46-.46-.9.92-1.12,1.79-.26,1.05-.83,1.58-.82,2.75-1.74,1.16-2.35-1.15-2.49-2.47-.07-.61.27-1.56-.24-2a1.44,1.44,0,0,0-1.88.49c-.86-1.41.32-6.43-2.34-4.34-1.38,1.08-1.15,4.51-2.64,2.33-.71-1-.64-1.79-1.78-1.88a7.57,7.57,0,0,0-2.37.51c-.62.35-.8,1.56-1.57,1-.5-.38-.15-1.29-.55-1.7-.86.62-.67,1.88-1.35,2.54s-1.79.07-2.63.38A56.47,56.47,0,0,1,956.82,484.28Z" transform="translate(-891.54 -472.31)"/></g><path class="cls-11" d="M905,540.49A56.51,56.51,0,1,0,961.5,484,56.51,56.51,0,0,0,905,540.49Z" transform="translate(-891.54 -472.31)"/></g></g></svg>