<svg id="Слой_1" data-name="Слой 1" xmlns="http://www.w3.org/2000/svg" xmlns:xlink="http://www.w3.org/1999/xlink" viewBox="0 0 59.75 39.75"><defs><style>.cls-1,.cls-2{stroke:#e6e6e6;stroke-miterlimit:10;stroke-width:0.75px;}.cls-1{fill:url(#Безымянный_градиент_3);}.cls-2{fill:url(#Безымянный_градиент_3-2);}</style><linearGradient id="Безымянный_градиент_3" x1="345.73" y1="283.71" x2="346.93" y2="342.7" gradientUnits="userSpaceOnUse"><stop offset="0" stop-color="#fff"/><stop offset="1" stop-color="#0071bc"/></linearGradient><linearGradient id="Безымянный_градиент_3-2" x1="352.97" y1="287.96" x2="353.55" y2="316.15" xlink:href="#Безымянный_градиент_3"/></defs><path class="cls-1" d="M362.47,278h-3.72v-.27a12.91,12.91,0,0,0-12.91-12.91h0a12.92,12.92,0,0,0-12.92,12.91V278h-3.63a12.91,12.91,0,1,0,0,25.82h33.18a12.91,12.91,0,0,0,0-25.82Z" transform="translate(-316.01 -264.44)"/><path class="cls-2" d="M362.24,285.22h-2.06v-.13c0-3.4-3.21-6.16-7.16-6.16h0c-4,0-7.16,2.76-7.16,6.16v.13h-2c-4,0-7.17,2.76-7.17,6.16s3.21,6.16,7.17,6.16h18.39c4,0,7.16-2.76,7.16-6.16S366.2,285.22,362.24,285.22Z" transform="translate(-316.01 -264.44)"/></svg>