<svg id="Слой_1" data-name="Слой 1" xmlns="http://www.w3.org/2000/svg" xmlns:xlink="http://www.w3.org/1999/xlink" viewBox="0 0 78 78"><defs><style>.cls-1{fill:#333348;stroke:#b3b3b3;opacity:0;}.cls-1,.cls-2,.cls-3{stroke-miterlimit:10;}.cls-2,.cls-3{stroke:gray;stroke-width:0.75px;}.cls-2{fill:url(#Безымянный_градиент_2);}.cls-3{fill:url(#Безымянный_градиент_2-2);}</style><linearGradient id="Безымянный_градиент_2" x1="983.55" y1="553.77" x2="984.75" y2="612.76" gradientUnits="userSpaceOnUse"><stop offset="0" stop-color="#9999ab"/><stop offset="1" stop-color="#0071bc"/></linearGradient><linearGradient id="Безымянный_градиент_2-2" x1="990.79" y1="558.02" x2="991.36" y2="586.21" xlink:href="#Безымянный_градиент_2"/></defs><rect class="cls-1" x="0.5" y="0.5" width="77" height="77"/><path class="cls-2" d="M1000.28,548h-3.71v-.26a12.92,12.92,0,0,0-12.92-12.91h0a12.91,12.91,0,0,0-12.91,12.91V548h-3.63a12.92,12.92,0,0,0,0,25.83h33.17a12.92,12.92,0,1,0,0-25.83Z" transform="translate(-944.26 -521.72)"/><path class="cls-3" d="M1000.06,555.27H998v-.12c0-3.4-3.21-6.16-7.17-6.16h0c-4,0-7.16,2.76-7.16,6.16v.12h-2c-3.95,0-7.16,2.76-7.16,6.17s3.21,6.16,7.16,6.16h18.4c4,0,7.16-2.76,7.16-6.16S1004,555.27,1000.06,555.27Z" transform="translate(-944.26 -521.72)"/></svg>