<svg xmlns="http://www.w3.org/2000/svg" xmlns:xlink="http://www.w3.org/1999/xlink" viewBox="0 0 136.36 136.36"><defs><style>.cls-1{isolation:isolate;}.cls-2{opacity:0.6;fill:url(#radial-gradient);}.cls-3{fill:#a9a9aa;}.cls-3,.cls-5,.cls-8{opacity:0.52;}.cls-4{fill:url(#radial-gradient-2);}.cls-5,.cls-7,.cls-9{fill:#fff;}.cls-6{opacity:0.5;}.cls-10,.cls-9{opacity:0.52;}.cls-11{mix-blend-mode:multiply;fill:url(#linear-gradient);}</style><radialGradient id="radial-gradient" cx="904.97" cy="443.66" r="68.07" gradientTransform="translate(515.51 1444.91) rotate(-90)" gradientUnits="userSpaceOnUse"><stop offset="0.25" stop-color="#fff"/><stop offset="0.64" stop-color="#fff" stop-opacity="0.72"/><stop offset="0.73" stop-color="#fff" stop-opacity="0.5"/><stop offset="0.82" stop-color="#fff" stop-opacity="0.29"/><stop offset="0.9" stop-color="#fff" stop-opacity="0.13"/><stop offset="0.96" stop-color="#fff" stop-opacity="0.03"/><stop offset="1" stop-color="#fff" stop-opacity="0"/></radialGradient><radialGradient id="radial-gradient-2" cx="904.42" cy="442.43" r="56.41" gradientTransform="translate(515.51 1444.91) rotate(-90)" gradientUnits="userSpaceOnUse"><stop offset="0" stop-color="#787979"/><stop offset="0.79" stop-color="#a6a6a7"/><stop offset="0.84" stop-color="#a9a9aa"/><stop offset="0.94" stop-color="#d7d7d7"/><stop offset="1" stop-color="#f3f3f3"/></radialGradient><linearGradient id="linear-gradient" x1="1168.26" y1="273.67" x2="1281.27" y2="273.67" gradientTransform="translate(-266.82 266.82)" gradientUnits="userSpaceOnUse"><stop offset="0" stop-color="#fff"/><stop offset="0.26" stop-color="#edecee"/><stop offset="0.31" stop-color="#bab9bb"/><stop offset="0.35" stop-color="#878787"/><stop offset="0.4" stop-color="#5d5d5d"/><stop offset="0.45" stop-color="#3c3c3c"/><stop offset="0.49" stop-color="#252524"/><stop offset="0.53" stop-color="#171716"/><stop offset="0.56" stop-color="#121211"/></linearGradient></defs><g class="cls-1"><g id="Слой_1" data-name="Слой 1"><path class="cls-2" d="M959.72,472.31a68.19,68.19,0,1,1-68.18,68.18A68.18,68.18,0,0,1,959.72,472.31Z" transform="translate(-891.54 -472.31)"/><path class="cls-3" d="M957.94,484.09a56.41,56.41,0,1,1-56.4,56.4A56.4,56.4,0,0,1,957.94,484.09Z" transform="translate(-891.54 -472.31)"/><path class="cls-4" d="M957.94,484.09a56.41,56.41,0,1,1-56.4,56.4A56.4,56.4,0,0,1,957.94,484.09Z" transform="translate(-891.54 -472.31)"/><path class="cls-5" d="M957.94,596.9h0c1.12-.31,2.1-1.13,1.67-2.34s-1-.55-1.81-1c-1.58-.84.36-1.53.08-2.91a2.22,2.22,0,0,0-2.15.64,3.36,3.36,0,0,1,.1-1.39c.41-1.65,1-3.11.71-4.93-.47-3.31-1.23.75-1.77,1.62a3.37,3.37,0,0,0-2.1-2.23c-1.44-.46-1.32,0-2-1.52-.46-1.05-.79-1.88-2.23-1.41-1,.33-1.34,1.42-2.48,1.67-.06-1.29.42-3.12-.41-4.13a1.59,1.59,0,0,0-2.87,1c-1,.12-2.45,0-2.2-1.34h-.37c-.15,2.71-2.35-.4-2.89-.15s-.13,1.24-.36,1.53c-.34.45-.54.07-1,.32a4.13,4.13,0,0,1-2.74.76,2.09,2.09,0,0,1-.16-.5c3.11-1.42,1.22-3.79.67-5.89-.1-.37-.43-.21-.41-.7,0-.82.81-1.55,1-2.36a1.64,1.64,0,0,0-1.23-2.22c-.66-.25-1.48-.18-1.95-.56-.82-.66-.3-1.36-.56-2.22-.48-1.59-1.57-1.86-3.19-1.81-.06,1.74,0,3.51,0,5.25-.09-.77-.8-.9-1.52-.78a23.17,23.17,0,0,1,0,2.5c-.21,1.3,0,1.08-1.14.92-.59-.08-1.89-1.14-2.21-.07-.19.63.38,1.06,1,1.1-.11,1,.82.94,1.14,1.68s-.45,1.46-.45,1.91c0,1.76,1.86,3.72-1.07,3.3-.36-1.32-.27-2.32-1-3.43a8,8,0,0,1-1.56-3.43c-.16-1.58,1.37-3,.83-4.5-.2-.61-.32-1.05-1.22-1.08-1.13,0-.67.68-.75,1.86-2.93-.1-.6,2.68-2.32,2.86-.29,1.06.93,1.34,1.2,2.21.4,1.28-.81,2.55-1.46,3.86A56.28,56.28,0,0,0,957.94,596.9Z" transform="translate(-891.54 -472.31)"/><path class="cls-5" d="M916.9,579.18l2-3c.77.84,0,2.76-.25,3.77-.3-.07-.83-.06-1.06-.1h0a2.55,2.55,0,0,1,.59.32.74.74,0,0,0-.12.16c.21.22.44.43.65.64l.54.14a1.43,1.43,0,0,0,0,.36c.79.75,1.61,1.48,2.44,2.18a4.45,4.45,0,0,1,.27-1.13c.11-.25,0-.6.19-.83s.78-.05.9-.25c.84-1.34-.22-2.37-.49-3.64-.19-.84.12-2,0-2.84-.11-1.14-.37-1.44.21-2.5a5,5,0,0,0-1.75-.27,7.36,7.36,0,0,0,0-2.69,6.77,6.77,0,0,0-.13-1.34c-.38-.67-1.32-.58-1.45-1.39-1.23-.38-.84-1.26-1.38-2.14s-1.44-.68-1.67-1.32c2.28,0,3.22.08,3.92-2.55.49-1.83.13-1.95-1.34-2.43-.53-1.32-2-.44-2.25-2.25-.32.08-.92,0-1.23.13.19-1.81-1.2-3.52-.76-5.46a13.17,13.17,0,0,0-2.94-.71c-.48,1.83-.73,2.52-2.35,3.56a4.78,4.78,0,0,1-.19-1.67c1.55.72,1.88-2.05,2.22-3,.65-1.81.62-1.68,2.24-1.55.27-.82.26-3.12.9-3.72s1.31.06,2-.55c1.33-1.15,0-2.18,2-2,1.29.11,2.15,1.23,3.22,1.35.26-2,3.11-.24,4.14.08a9.14,9.14,0,0,0,4.5.27,6.11,6.11,0,0,0,2.44-1.58c.37-.38.49-.79.84-1,.11-.09.8,0,1.08-.15s.42-.74.71-1,.76-.22,1.12-.52c1.84-1.51,3-5.25,3.46-7.5-.56,1.3-2.53,3-3.5,4.17-.82,1-1.22,1.31-2.8.44-2.7-1.49-1.09-4.94-3.11-6.55-2.83-2.24-5,3.66-7.33,1.59-.75-.65-.2-1.39-.27-2.05a2.56,2.56,0,0,0-2.42-2.6l-.09.22c-1.26-1,.79-4-.62-5.57-.62,2.33-1.24,2.06-3.17,1.52a4.67,4.67,0,0,0-.54,1.84c-.2-1.39-1.11-1.51-2-.62s-.82,2.67-1.37,3.77c-1.16-.31-.37-1.87-1.63-1.9-1.28,2.54-1.81,6.63-2,9.51a4.69,4.69,0,0,1-.95.34c-1.66-2-4.94-2.44-6.52-.28-.18,1.84-.27,3.71-.27,5.59A56.18,56.18,0,0,0,916.9,579.18Z" transform="translate(-891.54 -472.31)"/><g class="cls-6"><path class="cls-7" d="M940.58,509.83c-.21.39-1.35.8-1.89,1.07-.93.48-3,2-2.11,2.06,1.82.19,3.54-2.23,5.28-3a9.93,9.93,0,0,1,3.9-.34,17.35,17.35,0,0,0,4-.46c1.93-.38,4.74-.84,6.43.3.35.24,1.25.95.67,1.26s-2,.19-2.83.36c-.62.12-1.15.25-1.3.58s.4.33.37.49-.25.27-.46.47-.65.38-.4.65,2.38.28,1.82.69c-1,.7-2.66.52-3.86.91a3.12,3.12,0,0,0-1.33.88c-.14.34.42.23.51.57.13.53-1.1,1.36-1.42,1.92-.57,1,.09,1.31.31,2.11.07.26,0,.52.25.64s.68-.09,1,0,.22.44.68.58a6.43,6.43,0,0,0,1.36.25c.56,0,.52,0,.93-.33a3.53,3.53,0,0,1,1.62-.73c1.5-.37,1.56-.85,2.44-1.52.3-.23,1.11-.87,1.53-.74-.53.34-.8,1,.39,1,.32,0,.66-.26,1-.29a2.25,2.25,0,0,1,1.14.17c-.22.47-.86.59-.07,1a7.39,7.39,0,0,0,1.39.37,3.51,3.51,0,0,1,1.35.35l1.92,1c-.19.1-.4.2-.59.31,1.24,1.14,3.2.41,4.62.77.83.22,1.65,1.23,1.6,1.62s-.26.3-.09.63.7.59.87.92c.34.68-.29,1.09-1.1.78a5.27,5.27,0,0,1-2.29-1.64c-.19-.2-.7-.82-1.1-.86s-.49.33-.72.38c-.58.12-1.31-.42-1.89-.09.42.64.13.75-.25.93a1.89,1.89,0,0,1,.17.75,8.09,8.09,0,0,1,1.23-.5c1,.76-.23,1,.62,1.63.11-.06.33-.05.44-.13.76.57.25.71.24,1.26,0,.29.13.31.3.59s.22.26.15.71c-.11.75.57,1.48.61,2.21s.06,1.95.91,2.3a3.18,3.18,0,0,1,.38,0c.16,0,.24.26.39.28.55.08.29-.22.19-.54a5.38,5.38,0,0,1-.28-.92c0-.33.25-.56.33-.84s.22-1.12.87-.64c.25.19.18.55.52.69a.83.83,0,0,0,.8-.2c.48.25.59.5,1.1.28.28-.12.37-.41.78-.35a2,2,0,0,1,.44,1.77c.91.21.18,3.13.55,3.59s1-.1,1.54-.09c.11,0,.26-.11.35-.07.25.11.31.6.51.66s.28-.18.51-.26c.49-.17,1,.25,1.47.15s.25-1.8,1.31-.39a7.5,7.5,0,0,0,1.83,1.77c.77.53.85,0,1.52.13.34,0,.77.45,1.12.62s.83.3,1.24.52a2.83,2.83,0,0,0-.12-1.7c-.1-.12-.49-.19-.61-.24-.38-1.05.21-.45.59-.72s.09-.94,0-1.47a10.27,10.27,0,0,0,1.1.38,2.5,2.5,0,0,1,1.27.24,7.32,7.32,0,0,1,1.66,1.56,3.39,3.39,0,0,1,.9,1.44c.36.82.45.45.9,1s.45,2,.95,2.87c.15.27.37.35.49.61.28.57.24,1.57.6,2.12s.64,0,1.07.42c0,.71-.36,3.17.53,3.23.37,0,.75-1.08.76-1.71a2,2,0,0,0-.68-1.61c0-1.45,1,.49,1.49.12s.47-2.6.44-3.5c-.06-1.46-1-1.77-.91-3.16a8.62,8.62,0,0,1,.07-1.94,1.1,1.1,0,0,1,1.47-.42c.42.22,1.15,1.17,1.51,1.22s.5-.87.28-1.46-.55-.45-.93-1c-.62-.86-.53-2.08-1-3-.72-1.24-2.21-1.53-3.14-2.51-.58-.63-.7-1.62-1.44-2.22-.55-.44-1.45-.56-1.7-.34a38,38,0,0,0-1.16-3.86c-.7-.26-1.24.18-1.67.36a1.75,1.75,0,0,0-.92,1c-.13.21-.19.59-.58.43-.31-.66-.89-2.27-1.71-2.79a1.7,1.7,0,0,0-.78-.2,5.21,5.21,0,0,0-.91.11c-.56-.17-.49-.67-1.06-1.08-.83-.6-1.41-.47-1.69-1.4a15.25,15.25,0,0,0,2.1-.15c.9-.13.46-1-.32-2l-.21,0c-.18-.44,2-.06,2.42-.2,1-.32.68-1.1,0-2.21,1.13.07,2.54-.49,2.44-1.29-.17-1.4-1.75-2.75-3-3.6-.23-.16-.57-.16-.77-.37s0-.5-.09-.74a9.07,9.07,0,0,0-1.4-2c-.51-.63-.83-1.2-1.36-1.82a5.23,5.23,0,0,0-1.39-1.33,2.79,2.79,0,0,0-1.55-.11c-1.54.07-2.54-1-3.63-1.9a14.12,14.12,0,0,1-1.8.28c-.69,0-.12,0-.9-.21-1.39-.36-2.21-.28-3.62-.68-1.77-.51-3.56-.59-2.86.34s.25.71-1.81.65c-.6,0-1.13.06-1.64.05a11.1,11.1,0,0,0-2.76,0c-1,.24-1.22.77-1.71,1.12a8.84,8.84,0,0,1-2.61,1c-.74.25-.46.43-.6.62a2,2,0,0,1-.73.61c-2.67-.59-5.57,0-8.18.41-2,.34-4.78.06-6.27,1.7C939.77,509.68,940.81,509.42,940.58,509.83Z" transform="translate(-891.54 -472.31)"/></g><g class="cls-6"><path class="cls-7" d="M940.58,509.83c-.21.39-1.35.8-1.89,1.07-.93.48-3,2-2.11,2.06,1.82.19,3.54-2.23,5.28-3a9.93,9.93,0,0,1,3.9-.34,17.35,17.35,0,0,0,4-.46c1.93-.38,4.74-.84,6.43.3.35.24,1.25.95.67,1.26s-2,.19-2.83.36c-.62.12-1.15.25-1.3.58s.4.33.37.49-.25.27-.46.47-.65.38-.4.65,2.38.28,1.82.69c-1,.7-2.66.52-3.86.91a3.12,3.12,0,0,0-1.33.88c-.14.34.42.23.51.57.13.53-1.1,1.36-1.42,1.92-.57,1,.09,1.31.31,2.11.07.26,0,.52.25.64s.68-.09,1,0,.22.44.68.58a6.43,6.43,0,0,0,1.36.25c.56,0,.52,0,.93-.33a3.53,3.53,0,0,1,1.62-.73c1.5-.37,1.56-.85,2.44-1.52.3-.23,1.11-.87,1.53-.74-.53.34-.8,1,.39,1,.32,0,.66-.26,1-.29a2.25,2.25,0,0,1,1.14.17c-.22.47-.86.59-.07,1a7.39,7.39,0,0,0,1.39.37,3.51,3.51,0,0,1,1.35.35l1.92,1c-.19.1-.4.2-.59.31,1.24,1.14,3.2.41,4.62.77.83.22,1.65,1.23,1.6,1.62s-.26.3-.09.63.7.59.87.92c.34.68-.29,1.09-1.1.78a5.27,5.27,0,0,1-2.29-1.64c-.19-.2-.7-.82-1.1-.86s-.49.33-.72.38c-.58.12-1.31-.42-1.89-.09.42.64.13.75-.25.93a1.89,1.89,0,0,1,.17.75,8.09,8.09,0,0,1,1.23-.5c1,.76-.23,1,.62,1.63.11-.06.33-.05.44-.13.76.57.25.71.24,1.26,0,.29.13.31.3.59s.22.26.15.71c-.11.75.57,1.48.61,2.21s.06,1.95.91,2.3a3.18,3.18,0,0,1,.38,0c.16,0,.24.26.39.28.55.08.29-.22.19-.54a5.38,5.38,0,0,1-.28-.92c0-.33.25-.56.33-.84s.22-1.12.87-.64c.25.19.18.55.52.69a.83.83,0,0,0,.8-.2c.48.25.59.5,1.1.28.28-.12.37-.41.78-.35a2,2,0,0,1,.44,1.77c.91.21.18,3.13.55,3.59s1-.1,1.54-.09c.11,0,.26-.11.35-.07.25.11.31.6.51.66s.28-.18.51-.26c.49-.17,1,.25,1.47.15s.25-1.8,1.31-.39a7.5,7.5,0,0,0,1.83,1.77c.77.53.85,0,1.52.13.34,0,.77.45,1.12.62s.83.3,1.24.52a2.83,2.83,0,0,0-.12-1.7c-.1-.12-.49-.19-.61-.24-.38-1.05.21-.45.59-.72s.09-.94,0-1.47a10.27,10.27,0,0,0,1.1.38,2.5,2.5,0,0,1,1.27.24,7.32,7.32,0,0,1,1.66,1.56,3.39,3.39,0,0,1,.9,1.44c.36.82.45.45.9,1s.45,2,.95,2.87c.15.27.37.35.49.61.28.57.24,1.57.6,2.12s.64,0,1.07.42c0,.71-.36,3.17.53,3.23.37,0,.75-1.08.76-1.71a2,2,0,0,0-.68-1.61c0-1.45,1,.49,1.49.12s.47-2.6.44-3.5c-.06-1.46-1-1.77-.91-3.16a8.62,8.62,0,0,1,.07-1.94,1.1,1.1,0,0,1,1.47-.42c.42.22,1.15,1.17,1.51,1.22s.5-.87.28-1.46-.55-.45-.93-1c-.62-.86-.53-2.08-1-3-.72-1.24-2.21-1.53-3.14-2.51-.58-.63-.7-1.62-1.44-2.22-.55-.44-1.45-.56-1.7-.34a38,38,0,0,0-1.16-3.86c-.7-.26-1.24.18-1.67.36a1.75,1.75,0,0,0-.92,1c-.13.21-.19.59-.58.43-.31-.66-.89-2.27-1.71-2.79a1.7,1.7,0,0,0-.78-.2,5.21,5.21,0,0,0-.91.11c-.56-.17-.49-.67-1.06-1.08-.83-.6-1.41-.47-1.69-1.4a15.25,15.25,0,0,0,2.1-.15c.9-.13.46-1-.32-2l-.21,0c-.18-.44,2-.06,2.42-.2,1-.32.68-1.1,0-2.21,1.13.07,2.54-.49,2.44-1.29-.17-1.4-1.75-2.75-3-3.6-.23-.16-.57-.16-.77-.37s0-.5-.09-.74a9.07,9.07,0,0,0-1.4-2c-.51-.63-.83-1.2-1.36-1.82a5.23,5.23,0,0,0-1.39-1.33,2.79,2.79,0,0,0-1.55-.11c-1.54.07-2.54-1-3.63-1.9a14.12,14.12,0,0,1-1.8.28c-.69,0-.12,0-.9-.21-1.39-.36-2.21-.28-3.62-.68-1.77-.51-3.56-.59-2.86.34s.25.71-1.81.65c-.6,0-1.13.06-1.64.05a11.1,11.1,0,0,0-2.76,0c-1,.24-1.22.77-1.71,1.12a8.84,8.84,0,0,1-2.61,1c-.74.25-.46.43-.6.62a2,2,0,0,1-.73.61c-2.67-.59-5.57,0-8.18.41-2,.34-4.78.06-6.27,1.7C939.77,509.68,940.81,509.42,940.58,509.83Z" transform="translate(-891.54 -472.31)"/></g><g class="cls-6"><path class="cls-7" d="M958.86,561.42c.23-.14,1,0,1.34,0,.64,0,2.19-.09,1.77-.41-.9-.69-2.58,0-3.75-.11a6.37,6.37,0,0,1-2.17-1.06,10.59,10.59,0,0,0-2.27-1c-1.14-.42-2.77-1.07-3.3-2.21-.11-.25-.36-.91,0-.89a9.13,9.13,0,0,1,1.61.72c.37.13.69.24.87.11s-.1-.31,0-.38.21-.07.39-.11.47,0,.42-.21-1.18-.91-.75-1c.73-.06,1.58.58,2.33.76a1.88,1.88,0,0,0,1,0c.19-.13-.15-.25-.08-.46s1-.37,1.36-.56c.62-.35.37-.73.51-1.22.05-.16.19-.26.07-.42s-.39-.16-.5-.33,0-.31-.17-.52a3.94,3.94,0,0,0-.64-.57c-.3-.18-.29-.14-.6-.12a2.16,2.16,0,0,1-1.09-.13,3,3,0,0,0-1.78,0c-.23,0-.87.11-1-.09.38,0,.73-.25.1-.66-.16-.1-.43-.07-.62-.15a1.45,1.45,0,0,1-.54-.46c.26-.18.64,0,.34-.5a4.57,4.57,0,0,0-.62-.63,2.21,2.21,0,0,1-.6-.62c-.23-.38-.47-.76-.71-1.13l.41,0c-.29-1-1.56-1.24-2.19-1.89a1.46,1.46,0,0,1-.33-1.37c.1-.14.23-.08.25-.3s-.19-.54-.17-.77c0-.46.5-.49.83-.06a3.29,3.29,0,0,1,.69,1.6c0,.17.11.66.31.81s.36,0,.5,0c.34.12.56.64,1,.65,0-.47.17-.44.43-.41a1.19,1.19,0,0,1,.15-.45c-.24,0-.55-.09-.81-.13-.29-.73.43-.44.2-1.06-.08,0-.2-.08-.28-.08-.22-.54.1-.45.28-.74s0-.2,0-.41,0-.21.15-.42.17-1,.38-1.37.59-1,.26-1.51a1,1,0,0,1-.22-.1c-.07-.07,0-.21-.12-.27-.26-.22-.21,0-.27.23a3.77,3.77,0,0,1-.14.58c-.09.18-.31.21-.45.33s-.47.53-.66.06c-.07-.18.08-.35-.05-.53a.54.54,0,0,0-.49-.15c-.18-.28-.15-.45-.49-.5s-.33.1-.53-.06a1.3,1.3,0,0,1,.33-1.08c-.41-.41.91-1.71.86-2.07s-.59-.29-.85-.45c-.05,0-.17,0-.21-.07s0-.42,0-.51-.21,0-.36,0c-.31-.07-.45-.45-.72-.55s-.71.87-.82-.21a4.75,4.75,0,0,0-.41-1.53c-.23-.52-.44-.28-.76-.55a3,3,0,0,1-.39-.69c-.15-.24-.35-.42-.5-.67-.1.06-.52.69-.47.94s.19.26.25.32c-.14.68-.27.18-.55.2s-.35.47-.49.76c-.15-.15-.3-.42-.46-.55s-.39-.19-.59-.53a4.51,4.51,0,0,1-.38-1.36,2,2,0,0,1,0-1.05c.07-.55-.1-.38-.15-.82s.4-1.2.41-1.83c0-.19-.08-.3-.06-.47,0-.4.38-.92.36-1.32s-.34-.21-.43-.56c.23-.38,1.2-1.57.75-1.88-.19-.13-.74.33-.95.66a1.23,1.23,0,0,0-.16,1.07c-.47.76-.37-.59-.74-.54s-1.09,1.22-1.36,1.71c-.43.79-.05,1.24-.52,2a6.09,6.09,0,0,1-.66,1,.68.68,0,0,1-.91-.25c-.16-.25-.24-1-.42-1.13s-.54.3-.61.68.15.42.19.81c.05.65-.39,1.27-.4,1.9,0,.89.69,1.51.86,2.33.11.52-.14,1.08.06,1.64.15.41.58.76.79.72a22.42,22.42,0,0,0-.62,2.41c.29.36.71.3,1,.35a1.13,1.13,0,0,0,.79-.22c.14-.07.29-.26.45,0a4.31,4.31,0,0,0,0,2c.1.19.22.24.35.36a2.7,2.7,0,0,0,.52.22c.24.28,0,.52.21.92.25.58.6.69.45,1.28a9.19,9.19,0,0,0-1.16-.6c-.52-.21-.57.4-.47,1.16l.11.09c-.05.28-1.08-.61-1.35-.67-.61-.14-.71.36-.71,1.16-.58-.39-1.5-.55-1.71-.09a4,4,0,0,0,.42,2.85c.07.16.25.26.29.44s-.16.27-.19.42a5.65,5.65,0,0,0,.1,1.49c.07.5.06.9.14,1.4a3.67,3.67,0,0,0,.31,1.15c.25.35.48.38.79.55.84.46,1,1.34,1.31,2.17a7,7,0,0,1,1,.43c.35.23.06,0,.4.39.63.64,1.09.86,1.71,1.52.77.84,1.69,1.45,1.62.74s.09-.46,1.17.23c.31.2.61.33.88.5a6.86,6.86,0,0,0,1.45.9,2.21,2.21,0,0,0,1.26-.05,5.32,5.32,0,0,1,1.69.32c.48.11.38-.07.52-.13a1.17,1.17,0,0,1,.57-.09,13.51,13.51,0,0,0,4.47,2.39c1.14.45,2.55,1.5,3.86,1.11C959.24,561.77,958.61,561.57,958.86,561.42Z" transform="translate(-891.54 -472.31)"/></g><g class="cls-8"><path class="cls-7" d="M997,532.13c-.35,0-.49-.51-.61-.73-.23-.39-.9-1.24-1.42-.65-.81.91,1.34,1.57,1.61,2.12s-.13,1.48-.27,2a2.54,2.54,0,0,0,.2,1.93c.38,1,.74,2.38,0,3.31-.22.29-.81,1-1.22.9s-.44-.9-.69-1.25-.33-.49-.69-.43-.33.35-.5.4-.3,0-.51-.05-.43-.21-.7,0,0,1.36-.61,1.27-.74-1.39-1.09-1.81a1.39,1.39,0,0,0-.87-.45c-.36,0-.27.32-.64.49-.56.26-1.36-.2-1.92-.23-1,0-1.39.47-2.24.85-.28.12-.55.12-.7.35s.05.42-.1.65-.49.29-.64.64a3,3,0,0,0-.27,1c0,.37.05.34.37.5a1.79,1.79,0,0,1,.9.78c.54.82,1.07.66,1.93.89.29.08,1.11.26,1.06.56-.46-.15-1.18,0-.94.69.06.18.43.25.55.43a1,1,0,0,1,.13.72c-.54.11-.86-.2-1,.45a2.7,2.7,0,0,0,.07,1c.09.42.21.44.13.92a12.24,12.24,0,0,0-.15,1.57l-.56-.14c-.68,1.28,1.2,1.93,1.58,2.78a1.8,1.8,0,0,1-.48,1.77c-.27.18-.43.09-.61.38s-.06.72-.22,1a.77.77,0,0,1-1.4,0,2.65,2.65,0,0,1,0-2.22c.07-.23.35-.88.17-1.11s-.56-.06-.72-.15c-.42-.24-.27-1-.86-1.12-.42.61-.66.51-1,.39a2.74,2.74,0,0,1-.64.54,10,10,0,0,1,1.1.43c-.2,1.06-1.06.45-1.2,1.38.12,0,.24.16.37.18-.08.81-.5.6-1,.95-.27.19-.2.29-.35.58s-.09.31-.53.57c-.73.45-.91,1.38-1.5,1.95s-1.58,1.52-1.18,2.35c0,0,.29.14.34.2s0,.36.11.47c.39.41.39,0,.56-.33a5.52,5.52,0,0,1,.48-.9c.23-.27.64-.29.92-.46s1-.73,1.16,0c0,.27-.28.52-.12.81a.87.87,0,0,0,.8.24c.2.42.11.68.69.72.33,0,.6-.17.91,0a2.33,2.33,0,0,1-.82,1.65c.67.54-1.72,2.85-1.6,3.41s1.07.28,1.55.43c.11,0,.32,0,.39,0s0,.64.18.74.37-.09.64-.11c.56,0,.9.45,1.4.44s1-1.54,1.48-.15a3.67,3.67,0,0,0,1.22,1.72c.62.5.87,0,1.53.14.34,0,.67.36,1,.49s.79.2,1.17.34c.14-.14.51-1.14.33-1.37s-.45-.13-.56-.17c-.07-.85.36-.38.84-.61s.4-.76.53-1.18a7,7,0,0,0,1,.26,3.21,3.21,0,0,1,1.22.1,4.54,4.54,0,0,1,1.23,1c.45.39.39.4.58.93s.38.24.75.56.15,1.32.6,1.79c.14.14.36.14.47.28.25.31.17,1,.54,1.22s.68-.2,1.13-.09c0,.45-.24,2.09.71,1.76.38-.13.7-.92.69-1.3s-.29-.64-.74-.73c0-.9,1.06-.06,1.56-.45s.58-1.73.63-2.28c.07-.87-.83-.82-.54-1.73a4.91,4.91,0,0,1,.45-1.27,2.36,2.36,0,0,1,1.62-.62c.38,0,.94.43,1.31.36a1,1,0,0,0,.58-1c-.11-.38-.47-.13-.73-.36-.43-.39,0-1.18-.22-1.65-.37-.79-1.69-.54-2.2-1.15-.31-.37,0-1-.44-1.35a1.73,1.73,0,0,0-1.44-.11c.19-.91.8-1.72,1-2.62a3.43,3.43,0,0,0-1.69.23,4,4,0,0,0-1.37.66c-.23.14-.5.41-.76.28.1-.48.58-1.65.23-2.08-.13-.16-.33-.16-.52-.22a6,6,0,0,0-.82,0c-.34-.19,0-.53-.12-.9-.23-.54-.77-.55-.29-1.25a9,9,0,0,0,1.71.24c.8,0,1.07-.63,1.21-1.4l-.14-.05c.2-.32,1.55.23,2,.18,1-.11,1.29-.66,1.61-1.46a3.7,3.7,0,0,0,2.78-.61,3.07,3.07,0,0,0,.63-2.59c0-.13-.26-.17-.22-.32s.39-.32.53-.48a5.67,5.67,0,0,0,.75-1.42c.21-.47.5-.86.74-1.32.1-.21.45-.82.36-1s-.42-.26-.74-.36c-1-.33-.3-1.16,0-1.9a5,5,0,0,1-1.08-.29c-.27-.2,0,0-.18-.36-.24-.57-.64-.77-.73-1.42-.13-.82-.56-1.47-1.27-.74s-.68.48-1.17-.3c-.15-.22-.36-.38-.47-.58-.2-.36-.16-.83-.54-1.09s-1-.13-1.44-.18c-.7-.07-.83-.37-1.32-.71-.33-.23-.48,0-.7,0a1.46,1.46,0,0,1-.68-.08c.39-1.21,0-2.72-.23-3.93-.12-.76.58-2.6-.56-2.81C997.37,531.64,997.39,532.13,997,532.13Z" transform="translate(-891.54 -472.31)"/></g><g class="cls-8"><path class="cls-7" d="M928.05,550.34c-.06.07-.19,0-.26,0s-.42,0-.38.2.57,0,.73,0,.3.27.39.39a.7.7,0,0,0,.45.28c.28.08.64.23.72.54,0,.1.09.35,0,.42s-.26,0-.38-.06-.16,0-.21.08,0,.13,0,.17-.05.06-.09.11-.12.06-.11.16.29.23.17.34-.42-.07-.57-.06a.38.38,0,0,0-.25.11c0,.08,0,.11,0,.22s-.27.26-.37.38-.13.38-.19.63c0,.08-.06.14,0,.21s.1.06.12.13,0,.15,0,.24a.66.66,0,0,0,.17.23c.08.06.08,0,.17,0a.49.49,0,0,1,.32-.07c.26,0,.32-.12.51-.27s.24-.19.3-.14c-.11.08-.2.26,0,.33s.13-.06.19,0a.26.26,0,0,1,.18.09c-.07.13-.19.15-.07.29a.57.57,0,0,0,.22.15c.11.05.13,0,.22.12a3,3,0,0,0,.32.3l-.13.1c.17.35.62.06.87.11a.49.49,0,0,1,.3.4c0,.09,0,.11,0,.2s.14.13.18.22a.21.21,0,0,1-.22.31.74.74,0,0,1-.48-.38s-.13-.23-.21-.22-.11.11-.16.13-.25-.1-.38,0c.06.19,0,.23-.09.29a.58.58,0,0,1,0,.23,1.53,1.53,0,0,1,.27-.17c.2.22-.08.3.1.49,0,0,.08,0,.1,0,.16.15,0,.21,0,.37s0,.1.07.17,0,.08,0,.22.15.42.17.64.07.6.32.65a.34.34,0,0,1,.1,0s.07.06.12.06.06-.09,0-.18a2.06,2.06,0,0,1-.12-.26c0-.09,0-.18,0-.27s0-.35.19-.26.07.15.16.16a.21.21,0,0,0,.18-.13c.13,0,.17.09.28,0s.06-.16.16-.19a.67.67,0,0,1,.22.45c.23-.05.33.85.47.92s.24-.19.36-.27,0-.07.07-.08.14.11.19.09,0-.1.08-.16.25-.12.33-.23-.17-.47.21-.35a1,1,0,0,0,.58,0c.21,0,.16-.18.28-.31s.19-.08.28-.13.17-.14.26-.2-.16-.3-.24-.3-.1.08-.13.1c-.2-.13,0-.15,0-.29s-.1-.21-.17-.31a1.84,1.84,0,0,0,.22-.17c.08-.09.1-.17.22-.25a1.23,1.23,0,0,1,.43-.1.36.36,0,0,1,.29,0c.15,0,.12,0,.25-.07s.31.19.49.17.09-.05.14-.06.24.13.35.09.07-.18.17-.26.41.4.5.14-.08-.31-.17-.37-.18,0-.28,0c-.19-.15.16-.24.16-.42s-.28-.41-.39-.51-.31,0-.46-.17a1.17,1.17,0,0,1-.2-.31.6.6,0,0,1,.13-.45c.07-.08.25-.14.3-.23s0-.26-.12-.28-.1.08-.2.09-.25-.19-.39-.22-.4.27-.62.28-.22-.16-.36-.12a.46.46,0,0,0-.27.29c-.16-.19-.24-.46-.4-.65a.88.88,0,0,0-.23.41.93.93,0,0,0-.09.4c0,.08,0,.18-.07.22s-.26-.4-.41-.4-.09,0-.13.08a.88.88,0,0,0-.14.17c-.1,0-.11-.1-.22-.12s-.25.07-.32-.15a2.13,2.13,0,0,0,.34-.33c.14-.17,0-.34-.1-.49l0,0c0-.1.31-.3.37-.4a.51.51,0,0,0-.05-.6,1,1,0,0,0,.33-.7.81.81,0,0,0-.46-.57s-.08,0-.11,0,0-.13,0-.19a2,2,0,0,0-.18-.4c-.07-.12-.11-.25-.17-.38s-.1-.23-.16-.25-.13.05-.2.1c-.25.17-.31-.13-.43-.3-.07,0-.16.16-.24.18s0,0-.11,0-.27,0-.43-.08-.41-.12-.37.16,0,.22-.26.2a1.41,1.41,0,0,1-.2,0c-.12,0-.21-.11-.33-.07s-.2.2-.28.29-.22.11-.37.16-.09.1-.12.16a.52.52,0,0,1-.13.13,2.46,2.46,0,0,0-.89-.6c-.19-.11-.47-.56-.71-.35C928,550.18,928.11,550.25,928.05,550.34Z" transform="translate(-891.54 -472.31)"/></g><g class="cls-8"><path class="cls-7" d="M912.63,548.29s-.07,0-.1,0-.15,0-.14.07.21,0,.27,0,.11.1.14.14a.29.29,0,0,0,.17.1c.1,0,.23.08.26.2s0,.13,0,.15-.1,0-.14,0-.06,0-.08,0,0,0,0,.06l0,0s-.05,0,0,.06.1.08.06.12-.16,0-.21,0a.18.18,0,0,0-.09,0s0,0,0,.08-.1.09-.13.14-.05.14-.07.23,0,0,0,.07,0,0,0,.05,0,.06,0,.09a.24.24,0,0,0,.06.08s0,0,.07,0a.2.2,0,0,1,.11,0c.1,0,.12,0,.19-.1s.09-.07.11,0-.07.09,0,.12l.06,0a.09.09,0,0,1,.07,0s-.07.06,0,.11l.08,0s0,0,.09,0a1.14,1.14,0,0,0,.11.11l0,0c.06.13.22,0,.31,0a.16.16,0,0,1,.11.14s0,0,0,.07,0,0,.06.08,0,.13-.08.11a.25.25,0,0,1-.17-.13s0-.09-.08-.09,0,.05-.06.05-.09,0-.14,0,0,.09,0,.11a.22.22,0,0,1,0,.08l.1-.06c.07.08,0,.11,0,.18l0,0c.06.06,0,.08,0,.14s0,0,0,.06,0,0,0,.08.06.15.07.23,0,.22.11.24h0l0,0c.06,0,0,0,0-.07a.25.25,0,0,1,0-.09.16.16,0,0,1,0-.1s0-.13.07-.1,0,.06.05.06.06,0,.07-.05.06,0,.1,0,0-.06.06-.07a.27.27,0,0,1,.08.17c.08,0,.12.31.17.33s.09-.07.13-.1l0,0s0,0,.07,0,0,0,0-.06.09,0,.12-.08-.07-.18.07-.13a.38.38,0,0,0,.21,0c.08,0,.06-.07.11-.12a.3.3,0,0,1,.1,0l.09-.08s0-.11-.08-.11,0,0,0,0,0,0,0-.1,0-.08-.06-.12l.08-.06a.65.65,0,0,1,.08-.09.42.42,0,0,1,.15,0,.2.2,0,0,1,.11,0c.06,0,0,0,.09,0s.12.07.18.06l0,0s.09,0,.13,0,0-.07.06-.1.16.15.19,0a.16.16,0,0,0-.07-.13s-.06,0-.1,0,.06-.09.06-.16-.1-.15-.14-.18-.12,0-.17-.07-.07-.07-.07-.11a.23.23,0,0,1,0-.16s.1,0,.11-.09,0-.09,0-.1,0,0-.07,0-.09-.08-.15-.09-.14.11-.22.11-.08-.06-.13,0a.18.18,0,0,0-.1.11c-.06-.07-.09-.17-.15-.24a.36.36,0,0,0-.08.15.37.37,0,0,0,0,.15s0,.06,0,.08-.09-.15-.15-.15,0,0-.05,0l0,.06s0,0-.08,0-.09,0-.11-.05l.12-.13c.05-.06,0-.12,0-.18h0s.11-.11.13-.15a.18.18,0,0,0,0-.21.42.42,0,0,0,.12-.26.35.35,0,0,0-.17-.21h0s0,0,0-.07a.35.35,0,0,0-.06-.14,1.47,1.47,0,0,1-.06-.14s0-.09-.06-.1-.05,0-.08,0-.11,0-.15-.11-.06.06-.09.07,0,0,0,0a.37.37,0,0,1-.15,0c-.08,0-.15,0-.14.06s0,.08-.09.07h-.08s-.07,0-.12,0-.07.07-.1.11-.08,0-.14.06,0,0,0,0l-.05,0a.91.91,0,0,0-.32-.22c-.07,0-.17-.2-.26-.12S912.65,548.26,912.63,548.29Z" transform="translate(-891.54 -472.31)"/></g><g class="cls-8"><path class="cls-7" d="M928.16,518.24s-.07,0-.1,0-.15,0-.14.07.21,0,.27,0,.11.1.14.14a.29.29,0,0,0,.17.1c.1,0,.23.08.26.2s0,.12,0,.15-.1,0-.14,0-.06,0-.08,0,0,0,0,.06l0,0s0,0,0,.06.1.08.06.12-.16,0-.21,0a.18.18,0,0,0-.09,0s0,0,0,.08-.1.1-.13.14-.05.14-.07.23,0,.05,0,.07,0,0,0,0,0,.06,0,.09a.24.24,0,0,0,.06.08s0,0,.07,0a.18.18,0,0,1,.11,0c.1,0,.12-.05.19-.1s.09-.07.11-.05-.08.09,0,.12l.06,0a.09.09,0,0,1,.07,0c0,.05-.07.06,0,.11l.08.05s.05,0,.08,0l.12.11,0,0c0,.13.22,0,.31,0a.2.2,0,0,1,.11.15s0,0,0,.07,0,.05.06.08,0,.13-.08.11a.25.25,0,0,1-.17-.13s0-.08-.08-.08,0,0-.06,0-.09,0-.14,0,0,.09,0,.11a.22.22,0,0,1,0,.08l.1-.06c.07.08,0,.11,0,.18l0,0c.06.06,0,.08,0,.14s0,0,0,.06,0,0,0,.08.06.15.07.23,0,.22.11.24h0l0,0c.06,0,0,0,0-.07a.36.36,0,0,1,0-.09.16.16,0,0,1,0-.1c0-.05,0-.13.07-.1s0,.06.05.06.06,0,.07,0,.06,0,.1,0,0-.06.06-.07a.27.27,0,0,1,.08.17c.08,0,.12.31.17.33s.09-.07.13-.09l0,0s0,0,.07,0,0,0,0-.06.09,0,.12-.09-.07-.17.07-.12a.5.5,0,0,0,.21,0c.08,0,.06-.07.11-.12a.3.3,0,0,1,.1,0l.09-.08s-.06-.11-.08-.11,0,0-.05,0,0,0,0-.11,0-.07-.06-.11l.08-.06a.65.65,0,0,1,.08-.09.42.42,0,0,1,.15,0,.2.2,0,0,1,.11,0c.06,0,.05,0,.09,0s.12.06.18.06l.05,0s.09,0,.13,0,0-.07.06-.1.15.15.18.06,0-.12-.06-.14-.06,0-.1,0,.06-.09.06-.16-.1-.15-.14-.18-.12,0-.17-.07a.31.31,0,0,1-.08-.11.22.22,0,0,1,0-.16s.1-.05.11-.09,0-.09,0-.1,0,0-.07,0-.1-.08-.15-.09-.14.1-.22.11-.08-.06-.13-.05a.18.18,0,0,0-.1.11c-.06-.07-.09-.17-.15-.24a.36.36,0,0,0-.08.15.25.25,0,0,0,0,.15s0,.06,0,.07-.09-.14-.15-.14,0,0-.05,0l0,.06s0,0-.08,0-.09,0-.11,0l.12-.13c.05-.06,0-.12,0-.18h0s.11-.11.13-.15a.18.18,0,0,0,0-.21.4.4,0,0,0,.12-.26.35.35,0,0,0-.17-.21s0,0,0,0,0-.05,0-.07a.35.35,0,0,0-.06-.14,1.47,1.47,0,0,1-.06-.14s0-.09-.06-.09-.05,0-.08,0-.11,0-.15-.11-.06.06-.09.07,0,0,0,0-.1,0-.16,0-.14,0-.13.06,0,.08-.1.07h-.07s-.07,0-.12,0-.07.07-.1.11-.08,0-.14.06,0,0,0,.05l0,0a.91.91,0,0,0-.32-.22c-.07,0-.17-.2-.26-.12S928.18,518.21,928.16,518.24Z" transform="translate(-891.54 -472.31)"/></g><g class="cls-8"><path class="cls-7" d="M938.82,525.29s0-.07,0-.1,0-.15-.09-.13,0,.21,0,.27-.08.12-.12.15a.28.28,0,0,0-.09.18c0,.1-.06.24-.17.28s-.12,0-.15,0,0-.1,0-.14a.07.07,0,0,0,0-.07h-.06s0,0,0,0,0,0-.06,0-.08.11-.12.07,0-.15,0-.21a.14.14,0,0,0,0-.08s0,0-.08,0-.11-.09-.15-.12-.14,0-.24-.05,0,0-.07,0,0,0,0,.06,0,0-.08,0a.19.19,0,0,0-.08.07s0,0,0,.06a.18.18,0,0,1,0,.11c0,.1.06.11.12.18s.08.08.06.1-.1-.06-.12,0,0,0,0,.06a.08.08,0,0,1,0,.07c-.05,0-.06-.06-.11,0a.25.25,0,0,0,0,.09s0,0,0,.08a.64.64,0,0,0-.1.13.08.08,0,0,0,0,0c-.12.07,0,.22,0,.31a.19.19,0,0,1-.13.13s0,0-.07,0,0,.06-.08.07a.07.07,0,0,1-.12-.07.29.29,0,0,1,.12-.18s.08-.06.08-.09,0,0-.06-.05,0-.1,0-.14-.08,0-.11,0h-.08l.07.1c-.07.08-.11,0-.17,0a.08.08,0,0,0,0,0c-.05.06-.08,0-.14,0l-.06,0s0,0-.07,0-.15.06-.23.08-.22,0-.22.14v0s0,0,0,0,0,0,.06,0l.09-.05s.07,0,.1,0,.13,0,.1.06-.05,0-.05.06a.06.06,0,0,0,.05.06s0,.07,0,.1.06,0,.07.05a.25.25,0,0,1-.15.1c0,.08-.3.15-.32.21s.08.08.11.11l0,0s0,.05,0,.07,0,0,.06,0,0,.09.09.11.17-.07.14.07a.3.3,0,0,0,0,.21c0,.07.07.05.12.09s0,.07.06.09.06.06.08.09.11-.06.1-.1l0,0c0-.07,0,0,.11,0s.07,0,.1-.07l.07.07a.39.39,0,0,1,.1.08.33.33,0,0,1,0,.15c0,.05,0,.05,0,.11s0,0,0,.08-.06.12,0,.19l0,0s0,.1,0,.14.07,0,.1,0-.13.16,0,.18.11,0,.13-.07a.07.07,0,0,0,0-.1c.05-.08.1,0,.16,0s.14-.11.17-.16,0-.11,0-.17a.28.28,0,0,1,.1-.09.25.25,0,0,1,.17,0s.06.08.09.09.09,0,.1,0,0,0,0-.07.06-.1.07-.15-.12-.13-.13-.21.05-.08,0-.14a.13.13,0,0,0-.11-.08c.06-.07.16-.11.22-.17a.29.29,0,0,0-.16-.07.36.36,0,0,0-.15,0s-.06,0-.08,0,.14-.11.13-.17,0,0,0,0-.07-.05-.07-.05,0,0,0-.08,0-.09,0-.12l.13.11c.07,0,.12,0,.18-.06h0s.12.1.16.12a.18.18,0,0,0,.21,0,.38.38,0,0,0,.27.09c.08,0,.16-.11.19-.18s0,0,0,0,.05,0,.07,0l.13-.09.14-.07s.08,0,.08-.07,0,0,0-.07,0-.11.09-.16l-.07-.08s0,0,0,0,0-.1,0-.16,0-.16-.07-.13-.08,0-.08-.09,0-.05,0-.07,0-.08,0-.12-.08-.07-.11-.09,0-.08-.08-.13,0,0-.06,0l0,0a.85.85,0,0,0,.19-.35c0-.07.18-.19.1-.27S938.85,525.31,938.82,525.29Z" transform="translate(-891.54 -472.31)"/></g><path class="cls-5" d="M952.52,566c-1,.91-2.11,4.78-4,3.37-.35.76.11,1.83-.44,2.54a5.42,5.42,0,0,1-2.09.8c-.81.22-.83-.54-1.26.41-.16.38.17,1.36.13,1.83-.63.08-1.81.47-1,1.25.44.41,1.86.11,2.37,0l.14.56c-.86.59,0,2.7,1.24,2.35.33-1.09-.07-2.23.16-3.32s.39-.91,1.11-1.41a11.41,11.41,0,0,0,1.14-.69c.61,0,.92-.2.81.69s-.73.62-1.26,1.19c-.76.83-1,3.38.15,4.1a2.39,2.39,0,0,0,.12-.22c.11,1.51,2.09,1.72,2.39-.16.06-.36-.37-.45-.43-.85a5.38,5.38,0,0,1,.1-2.5,5,5,0,0,1,1.57-1.27c.22-.09.34-.32.7-.43s.79.27,1.16.15,1.48-1.5.66-2.18c-.66-.56-1.14.7-2.1.1-.68-.43.18-1.41-1-1.27.67-.83.72-1.7,1.32-2.5.45-.61,1.24-.61,1.45-1.38C954.1,566.88,952.83,568.12,952.52,566Z" transform="translate(-891.54 -472.31)"/><g class="cls-8"><path class="cls-7" d="M961.41,494.13l-.26.18a1.67,1.67,0,0,0,.26.06A.25.25,0,0,0,961.41,494.13Z" transform="translate(-891.54 -472.31)"/><path class="cls-7" d="M947.78,499.27c.77-.39,1,.36,1.11-.9.07-1.06-.52-1.24-1.48-1.07.5-.74,1.19-2,2.07-2.39.67-.31,1.6-.09,2.31-.31,2-.62,1.63-2.1.06-3.11a4.37,4.37,0,0,1,3,.39c.84.62,1,1.73,1.9,2.24a4.24,4.24,0,0,0,4.43.19c-1-.32-.36-1.24-.69-1.91a2.43,2.43,0,0,0-2.11-1.22c-.55,0-1.44.92-2.12.33s-.06-1.83.48-2.27c-.75-1.07-2-.26-3.06-.29a12.63,12.63,0,0,0,0-2.68c-.51-1.53-2.07-1.13-3.48-1.07A32.12,32.12,0,0,0,944,486a14,14,0,0,1-1.74.27,56.56,56.56,0,0,0-34.14,27.75c.81.2,1.59,1,2.59.8a4.32,4.32,0,0,1,1.25-1.23c.41-.21,1.21-.18,1.56-.42,1.08-.73,1.59-3.08,3.07-3.36.72-.14.88.35,1.66,0,1-.46,1.16-1.39,1.82-.41.16.23-.09.8,0,1.06.16.51.62.82.71,1,.28.64.14,1.63,1.23,1.71,0,.19.07.46,0,.66.59-.12,3-.25,3.2-.8,1.48.18,1-3.43,1.56-4.61,1.08-.13,1.39.86,2,1.24.11-1.66-.42-7.77,3-5.18.75.56.59.74.67,1.71a18.17,18.17,0,0,0,.48,2.5c.31,1.54-.26,3.23-.36,5-.61.16-3.62,1.94-1.67,2-.09.29,0,.62-.12.93.26,0,.58.22.87.2-.07.38-.38,1.37-.19,1.78s.75.06,1,.47c.48.82.11,2.45,1.51,2.58.19-1.42-1-2.18-.68-3.21,0-.05.68.09.7,0a2.36,2.36,0,0,0,0-1.19c.28-.42.21-.63.93-.53.19-1.14-.76-2.12-.53-3.22s.62-.68,1.24-1.34l-.24,0c-.25-1.1.87-1.12,1.31-1.76a1.89,1.89,0,0,0,.31-1.55c-.07-.33-.74-.63-.68-1,.35-2.43,2.79,1,3.47,1.1.27-1.49-1.36-1.58-.93-2.59.24-.58,2.62-1.66.44-2.26a3.39,3.39,0,0,1,2.16-1.36c.84-.05.52-.22,1.1.67s.9,4.09,1.84,4.68c.6.37,1.22-.25,1.57-.11.84.33.78,1.41,1.23,2.19.74,1.29,1.4,1.06,2.9,1,0-1.21-1.09-.89-1.64-1.56s-.53-2-.69-2.81c-.25-1.29.06-3.51-.75-4.54s-1.29-.23-1-1.53C946.27,499.9,947.18,499.56,947.78,499.27Z" transform="translate(-891.54 -472.31)"/></g><g class="cls-8"><path class="cls-7" d="M1003.3,531.69c1.46.22,3.92.48,4,2.55,0,1.17-.77,1.11-1.1,1.9-.62,1.5-.49.36-.31,1.79.21,1.71,1.13,3.17.74,5a24.22,24.22,0,0,1-2.06,4.86c-.55,1.15-1.23,3-2.7,3.2-.89.13-1,.14-1.65-.52-1-1-.45-1.32,0-2.11.92-1.55,3-1.62,3.29-3.71.06-.45-.34-1.09-.37-1.49-.15-1.75.2-2.56-1.5-3.34-.5.09-1.73.75-2.1.68-1.37-.26-.4-.83-1.29-1.38-1.48-.91-3-.17-4.11-2-.06.83,0,1.68,0,2.51a13.3,13.3,0,0,0-3.09-.16c.46.9,2,.8,2.51,1.86a6.53,6.53,0,0,1-.06,2.06c-1.68.21-5.4-1-4.74,2.29.41-.1,1,.16,1.41.06,0,.73,0,1.5,0,2.23,1.7.16,2.5,2,3.83,2.87,2.22,1.51,2.92,2.33,2.58,5.66-1.67-.27-1,.87-1.68,1.28s-2.38.72-2.65,1.29,1.33,2.31,1,3.67c-.43,1.9-.83.82-1.88,1.76-1.46,1.32-.42,5.88-2.68,5.88-3.48,0,.86-3.78-1.07-5.26-.83-.63-1.7.94-2.58-.61-.68-1.2.65-2.28.91-3.36a6.8,6.8,0,0,0-.22-3.32c-.43-1.05-1.65-1.32-2.06-2.25-.9-2.06,1.08-3.74-1.48-5.08-.78-.41-2.64-.87-3.11.22-.39.9,1.51,1.62,1.13,2.91-2.87.68,1.54,4.34.68,5.61s-2.36.1-2.89,1.3a1.74,1.74,0,0,0,1.93,2.33c-1.17.83-2.11,2.92-3.83,2.89-1.3,0-1.42-1.28-2.67-1.18-.21,1.15,1.23,4-.11,5s-.7-.38-1.53-.49a12.19,12.19,0,0,1-1.68-.15,4.54,4.54,0,0,1-3-2.91c-.49-1.13-.56-3.84-2-4-.43,1.53.75,2.89.52,4.55-1-.55-1.56-1.88-2.23-2.49a6.54,6.54,0,0,1-.49,2.49c-2.06-.64-2.92-3-5-3.59a19.5,19.5,0,0,0-5.41-.12c0,1.3.73.37,1.48.81.24.14.9.15,1.22.3s.26.84.56,1c1.09.46,2.28.33,3.19,1.27s.63,2.24,1.24,3.36,2.36,1.41,2.07,2.83a5.49,5.49,0,0,1-1,.28c.31.89,1.07.63,1.24,1.66.05.34-1,1-.83,1.82a7.33,7.33,0,0,0,3.33.25c1.21-.18,2.3-1.09,3.52-1,.13,3.07.58,6.31-3.08,6.26a3.07,3.07,0,0,0,0,1.62c1.24-.27,2.9.41,1.56,1.5-.76.62-2.53-.77-2,1.21a1.27,1.27,0,0,1,1.68,1.41c1.1.14,2.34.06,3.48.11.12,2.66.27,3.76-1.85,5-.76.44-1.24,0-1.9.82-.38.52.18,1.55-.33,2.22a4.53,4.53,0,0,1-1.2.9,56.43,56.43,0,0,0,48.37-66.67,3.78,3.78,0,0,0-1.23-1.43c-1.43-1-4.21-.88-6-.8C1006.28,530,1002.66,529.46,1003.3,531.69Z" transform="translate(-891.54 -472.31)"/><path class="cls-7" d="M1003.3,531.69c1.46.22,3.92.48,4,2.55,0,1.17-.77,1.11-1.1,1.9-.62,1.5-.49.36-.31,1.79.21,1.71,1.13,3.17.74,5a24.22,24.22,0,0,1-2.06,4.86c-.55,1.15-1.23,3-2.7,3.2-.89.13-1,.14-1.65-.52-1-1-.45-1.32,0-2.11.92-1.55,3-1.62,3.29-3.71.06-.45-.34-1.09-.37-1.49-.15-1.75.2-2.56-1.5-3.34-.5.09-1.73.75-2.1.68-1.37-.26-.4-.83-1.29-1.38-1.48-.91-3-.17-4.11-2-.06.83,0,1.68,0,2.51a13.3,13.3,0,0,0-3.09-.16c.46.9,2,.8,2.51,1.86a6.53,6.53,0,0,1-.06,2.06c-1.68.21-5.4-1-4.74,2.29.41-.1,1,.16,1.41.06,0,.73,0,1.5,0,2.23,1.7.16,2.5,2,3.83,2.87,2.22,1.51,2.92,2.33,2.58,5.66-1.67-.27-1,.87-1.68,1.28s-2.38.72-2.65,1.29,1.33,2.31,1,3.67c-.43,1.9-.83.82-1.88,1.76-1.46,1.32-.42,5.88-2.68,5.88-3.48,0,.86-3.78-1.07-5.26-.83-.63-1.7.94-2.58-.61-.68-1.2.65-2.28.91-3.36a6.8,6.8,0,0,0-.22-3.32c-.43-1.05-1.65-1.32-2.06-2.25-.9-2.06,1.08-3.74-1.48-5.08-.78-.41-2.64-.87-3.11.22-.39.9,1.51,1.62,1.13,2.91-2.87.68,1.54,4.34.68,5.61s-2.36.1-2.89,1.3a1.74,1.74,0,0,0,1.93,2.33c-1.17.83-2.11,2.92-3.83,2.89-1.3,0-1.42-1.28-2.67-1.18-.21,1.15,1.23,4-.11,5s-.7-.38-1.53-.49a12.19,12.19,0,0,1-1.68-.15,4.54,4.54,0,0,1-3-2.91c-.49-1.13-.56-3.84-2-4-.43,1.53.75,2.89.52,4.55-1-.55-1.56-1.88-2.23-2.49a6.54,6.54,0,0,1-.49,2.49c-2.06-.64-2.92-3-5-3.59a19.5,19.5,0,0,0-5.41-.12c0,1.3.73.37,1.48.81.24.14.9.15,1.22.3s.26.84.56,1c1.09.46,2.28.33,3.19,1.27s.63,2.24,1.24,3.36,2.36,1.41,2.07,2.83a5.49,5.49,0,0,1-1,.28c.31.89,1.07.63,1.24,1.66.05.34-1,1-.83,1.82a7.33,7.33,0,0,0,3.33.25c1.21-.18,2.3-1.09,3.52-1,.13,3.07.58,6.31-3.08,6.26a3.07,3.07,0,0,0,0,1.62c1.24-.27,2.9.41,1.56,1.5-.76.62-2.53-.77-2,1.21a1.27,1.27,0,0,1,1.68,1.41c1.1.14,2.34.06,3.48.11.12,2.66.27,3.76-1.85,5-.76.44-1.24,0-1.9.82-.38.52.18,1.55-.33,2.22a4.53,4.53,0,0,1-1.2.9,56.43,56.43,0,0,0,48.37-66.67,3.78,3.78,0,0,0-1.23-1.43c-1.43-1-4.21-.88-6-.8C1006.28,530,1002.66,529.46,1003.3,531.69Z" transform="translate(-891.54 -472.31)"/></g><path class="cls-9" d="M969.49,506.42c.14,2,.26,3.78-2.32,3.39a1.55,1.55,0,0,0,.38,1.65l1.68,1.25c.06.24.55.61.49,1.18,1.49.5,1.67-1,1.63-2.19a1.91,1.91,0,0,1,1,0c-.09.39.15,1,.06,1.36l2.19.06c.2,1.65,0,3.46.11,5.16,2.24.41,1.5-1.32,1.83-2.49.77,1.11,3.07.91,3.32-.66S978.13,514,977,513c1.26.64,3.93,1.32,4.12-.48.18-1.63-2.13-1.65-3.13-2.94-1.19-1.5-1.46-2.08-3.51-2.75A9.4,9.4,0,0,0,969.49,506.42Z" transform="translate(-891.54 -472.31)"/><g class="cls-10"><path class="cls-7" d="M986.61,525a1.56,1.56,0,0,0-.39,0,1.42,1.42,0,0,0,.36.53A2.73,2.73,0,0,0,986.61,525Z" transform="translate(-891.54 -472.31)"/><path class="cls-7" d="M962.62,484.28c.53.34.83.86,1.48,1.16a14.94,14.94,0,0,0,2.77.43c1.62.39,4.87.45,4.63,2.79,1.32.33,2.91-.2,4.16.32.82.34,1.16,1.37,1.93,1.7a5.94,5.94,0,0,0,1.84.09A2.63,2.63,0,0,1,982,493c.24,1.07-.38,2.45-1.49,1.54,1,1.16-.17,1.45-1.23,1.37.78,1,.47,1.77-.46,2.06-1.36.43-2.27-.58-3.39-1,.72.61,1.44,1.19,1.11,2.23a14.68,14.68,0,0,0-4.1,1c-1.76.62-1,.56-1.3,2.24-1.2,0-3.8-.17-3.31,1.64a18.6,18.6,0,0,0,3.32-.23,13.29,13.29,0,0,0,1.67,0,16.11,16.11,0,0,0,1.54-.56c1.32-.3,1.38.37,2.51.71s1.85-.19,3,.79c1.82,1.61,1.59,1.7,3.45.22,1-.8,2.79-1.22,2.51.79-.2,1.49-2.67,1.18-1,2.48.47.37.94-.25,1.41.45.36.52-.11,1.67-.5,2,2.31,1.37-1.35,2.9-1.57,3.76-.3,1.13.76,1.53,1,2.4.42,1.69-1,2.12-1.64,3.18s-.48,3.54-.17,4.7c.23.82.54,1.55,1.53,1.39.64-.1.71-.88,1.4-1.07a8.05,8.05,0,0,1-.13-2.81c1-.26,1.7,1.1,2,1.91.58,0,1.52,5.05,2.37,1.44,1.46-.46.9.92,1.12,1.79.26,1.05.83,1.58.83,2.75,1.73,1.16,2.35-1.15,2.49-2.47.06-.61-.28-1.56.23-2a1.44,1.44,0,0,1,1.88.49c.86-1.41-.32-6.43,2.34-4.34,1.38,1.08,1.15,4.51,2.65,2.33.7-1,.64-1.79,1.77-1.88a7.63,7.63,0,0,1,2.38.51c.61.35.79,1.56,1.56,1,.5-.38.15-1.29.55-1.7.86.62.68,1.88,1.36,2.54s1.78.07,2.62.38A56.46,56.46,0,0,0,962.62,484.28Z" transform="translate(-891.54 -472.31)"/></g><path class="cls-11" d="M1014.45,540.49A56.51,56.51,0,1,1,957.94,484,56.51,56.51,0,0,1,1014.45,540.49Z" transform="translate(-891.54 -472.31)"/></g></g></svg>