<svg id="Слой_1" data-name="Слой 1" xmlns="http://www.w3.org/2000/svg" xmlns:xlink="http://www.w3.org/1999/xlink" viewBox="0 0 78 78"><defs><style>.cls-1{fill:#333348;stroke:#b3b3b3;opacity:0;}.cls-1,.cls-3,.cls-4{stroke-miterlimit:10;}.cls-2{fill:#29abe2;}.cls-3,.cls-4{stroke:gray;stroke-width:0.75px;}.cls-3{fill:url(#Безымянный_градиент_4);}.cls-4{fill:url(#Безымянный_градиент_4-2);}</style><linearGradient id="Безымянный_градиент_4" x1="984.16" y1="553.99" x2="985.36" y2="612.98" gradientUnits="userSpaceOnUse"><stop offset="0" stop-color="#9999ab"/><stop offset="1" stop-color="#0071bc"/></linearGradient><linearGradient id="Безымянный_градиент_4-2" x1="991.4" y1="558.24" x2="991.97" y2="586.42" xlink:href="#Безымянный_градиент_4"/></defs><rect class="cls-1" x="0.5" y="0.5" width="77" height="77"/><path class="cls-2" d="M974.81,577.18a10.8,10.8,0,0,0-5.95,3.66,3,3,0,0,0-.55,3.34,3.45,3.45,0,0,0,4,1.07,2.69,2.69,0,0,0,1.11-1c1.35-2.12.45-4.7,1.72-6.84" transform="translate(-944.26 -521.72)"/><path class="cls-3" d="M1000.89,548.26h-3.72V548a12.91,12.91,0,0,0-12.91-12.91h0A12.91,12.91,0,0,0,971.35,548v.26h-3.63a12.92,12.92,0,1,0,0,25.83h33.17a12.92,12.92,0,0,0,0-25.83Z" transform="translate(-944.26 -521.72)"/><path class="cls-4" d="M1000.67,555.49H998.6v-.12c0-3.4-3.2-6.16-7.16-6.16h0c-4,0-7.16,2.76-7.16,6.16v.12h-2c-4,0-7.16,2.76-7.16,6.16s3.2,6.17,7.16,6.17h18.4c4,0,7.16-2.76,7.16-6.17S1004.62,555.49,1000.67,555.49Z" transform="translate(-944.26 -521.72)"/><path class="cls-2" d="M988.38,577.75a10.76,10.76,0,0,0-6,3.66,3,3,0,0,0-.55,3.34,3.45,3.45,0,0,0,4,1.07,2.6,2.6,0,0,0,1.1-1c1.35-2.12.45-4.7,1.73-6.84" transform="translate(-944.26 -521.72)"/><path class="cls-2" d="M1001.38,577.75a10.76,10.76,0,0,0-6,3.66,3,3,0,0,0-.55,3.34,3.45,3.45,0,0,0,4,1.07,2.6,2.6,0,0,0,1.1-1c1.35-2.12.45-4.7,1.73-6.84" transform="translate(-944.26 -521.72)"/><path class="cls-2" d="M978.38,586.75a10.76,10.76,0,0,0-6,3.66,3,3,0,0,0-.55,3.34,3.45,3.45,0,0,0,4,1.07,2.6,2.6,0,0,0,1.1-1c1.35-2.12.45-4.7,1.73-6.84" transform="translate(-944.26 -521.72)"/><path class="cls-2" d="M992.38,586.75a10.76,10.76,0,0,0-6,3.66,3,3,0,0,0-.55,3.34,3.45,3.45,0,0,0,4,1.07,2.6,2.6,0,0,0,1.1-1c1.35-2.12.45-4.7,1.73-6.84" transform="translate(-944.26 -521.72)"/></svg>