<svg id="Слой_1" data-name="Слой 1" xmlns="http://www.w3.org/2000/svg" xmlns:xlink="http://www.w3.org/1999/xlink" viewBox="0 0 59.75 60.37"><defs><style>.cls-1,.cls-2{stroke:gray;stroke-miterlimit:10;stroke-width:0.75px;}.cls-1{fill:url(#Безымянный_градиент_12);}.cls-2{fill:url(#Безымянный_градиент_12-2);}.cls-3{fill:#29abe2;}</style><linearGradient id="Безымянный_градиент_12" x1="309.07" y1="-67.89" x2="310.27" y2="-8.9" gradientUnits="userSpaceOnUse"><stop offset="0" stop-color="#b3b3b3"/><stop offset="1" stop-color="#0071bc"/></linearGradient><linearGradient id="Безымянный_градиент_12-2" x1="316.31" y1="-63.64" x2="316.88" y2="-35.45" xlink:href="#Безымянный_градиент_12"/></defs><path class="cls-1" d="M325.8-73.62h-3.71v-.26a12.91,12.91,0,0,0-12.92-12.91h0a12.91,12.91,0,0,0-12.91,12.91v.26h-3.63A12.92,12.92,0,0,0,279.72-60.7a12.91,12.91,0,0,0,12.91,12.91H325.8A12.91,12.91,0,0,0,338.72-60.7,12.92,12.92,0,0,0,325.8-73.62Z" transform="translate(-279.34 87.16)"/><path class="cls-2" d="M325.58-66.38h-2.06v-.13c0-3.4-3.21-6.16-7.16-6.16h0c-4,0-7.16,2.76-7.16,6.16v.13h-2c-3.95,0-7.16,2.75-7.16,6.16s3.21,6.16,7.16,6.16h18.4c3.95,0,7.16-2.76,7.16-6.16S329.53-66.38,325.58-66.38Z" transform="translate(-279.34 87.16)"/><path class="cls-3" d="M299.72-44.7A10.73,10.73,0,0,0,293.78-41a3,3,0,0,0-.55,3.33,3.46,3.46,0,0,0,4,1.08,2.75,2.75,0,0,0,1.1-1c1.35-2.12.45-4.69,1.72-6.84" transform="translate(-279.34 87.16)"/><path class="cls-3" d="M313.29-44.13a10.76,10.76,0,0,0-6,3.67,3,3,0,0,0-.55,3.33,3.46,3.46,0,0,0,4,1.08,2.68,2.68,0,0,0,1.1-1c1.36-2.12.45-4.69,1.73-6.84" transform="translate(-279.34 87.16)"/><path class="cls-3" d="M326.29-44.13a10.76,10.76,0,0,0-6,3.67,3,3,0,0,0-.55,3.33,3.46,3.46,0,0,0,4,1.08,2.68,2.68,0,0,0,1.1-1c1.36-2.12.45-4.69,1.73-6.84" transform="translate(-279.34 87.16)"/><path class="cls-3" d="M303.29-35.13a10.76,10.76,0,0,0-6,3.67,3,3,0,0,0-.55,3.33,3.46,3.46,0,0,0,4,1.08,2.68,2.68,0,0,0,1.1-1c1.36-2.12.45-4.69,1.73-6.84" transform="translate(-279.34 87.16)"/><path class="cls-3" d="M317.29-35.13a10.76,10.76,0,0,0-6,3.67,3,3,0,0,0-.55,3.33,3.46,3.46,0,0,0,4,1.08,2.68,2.68,0,0,0,1.1-1c1.36-2.12.45-4.69,1.73-6.84" transform="translate(-279.34 87.16)"/></svg>