<svg id="Слой_1" data-name="Слой 1" xmlns="http://www.w3.org/2000/svg" viewBox="0 0 49 49"><defs><style>.cls-1{fill:#53555d;}.cls-2{fill:#feda53;}.cls-3{fill:#4d4d4d;opacity:0.6;}.cls-4{fill:#f15a24;opacity:0.31;}</style></defs><path class="cls-1" d="M233.07,121.07A24.49,24.49,0,0,0,266.21,144a30.56,30.56,0,0,0,8.36-21.42c0-11.44-5.79-21.29-14.15-25.83a24.47,24.47,0,0,0-27.35,24.33Z" transform="translate(-233.07 -96.57)"/><path class="cls-2" d="M260.42,96.74c8.36,4.54,14.15,14.39,14.15,25.83A30.56,30.56,0,0,1,266.21,144a24.49,24.49,0,0,0-5.79-47.25Z" transform="translate(-233.07 -96.57)"/><ellipse class="cls-3" cx="15.5" cy="19.5" rx="3" ry="2"/><ellipse class="cls-3" cx="4.5" cy="24.5" rx="3" ry="2"/><ellipse class="cls-3" cx="16.5" cy="40.5" rx="3" ry="2"/><ellipse class="cls-3" cx="28.5" cy="25" rx="5" ry="3.5"/><ellipse class="cls-3" cx="30.5" cy="37.5" rx="3" ry="2"/><ellipse class="cls-3" cx="24.5" cy="7.5" rx="3" ry="2"/><ellipse class="cls-4" cx="274.11" cy="107.14" rx="1.43" ry="1.17" transform="translate(-250.87 -26.89) rotate(-14.04)"/><ellipse class="cls-4" cx="274.13" cy="136.25" rx="1.17" ry="1.43" transform="matrix(0.26, -0.97, 0.97, 0.26, -162.02, 268.75)"/><ellipse class="cls-4" cx="45.07" cy="25.18" rx="2.43" ry="1.68"/></svg>