<svg id="Слой_1" data-name="Слой 1" xmlns="http://www.w3.org/2000/svg" viewBox="0 0 56.75 53.75"><defs><style>.cls-1{fill:#feda53;stroke:#fbb03b;stroke-miterlimit:10;stroke-width:0.75px;}</style></defs><ellipse class="cls-1" cx="29.17" cy="26.88" rx="12.8" ry="12.85"/><rect class="cls-1" x="27.58" y="0.37" width="3.2" height="11.24" rx="1.6"/><rect class="cls-1" x="27.58" y="42.13" width="3.2" height="11.24" rx="1.6"/><rect class="cls-1" x="278.36" y="115.47" width="3.21" height="11.2" rx="1.61" transform="translate(-70.29 306.84) rotate(-90)"/><rect class="cls-1" x="233.56" y="115.47" width="3.21" height="11.2" rx="1.61" transform="translate(-115.09 262.04) rotate(-90)"/><path class="cls-1" d="M246.33,109.78h0a1.6,1.6,0,0,1-2.27,0l-5.65-5.68a1.6,1.6,0,0,1,0-2.27h0a1.61,1.61,0,0,1,2.26,0l5.66,5.68A1.62,1.62,0,0,1,246.33,109.78Z" transform="translate(-229.19 -94.19)"/><path class="cls-1" d="M278.33,141.64h0a1.6,1.6,0,0,1-2.27,0L270.41,136a1.6,1.6,0,0,1,0-2.27h0a1.59,1.59,0,0,1,2.26,0l5.66,5.68A1.62,1.62,0,0,1,278.33,141.64Z" transform="translate(-229.19 -94.19)"/><path class="cls-1" d="M272,109.52h0a1.59,1.59,0,0,0,2.26,0l5.66-5.68a1.62,1.62,0,0,0,0-2.27h0a1.6,1.6,0,0,0-2.27,0L272,107.25A1.6,1.6,0,0,0,272,109.52Z" transform="translate(-229.19 -94.19)"/><path class="cls-1" d="M238.41,141.54h0a1.61,1.61,0,0,0,2.26,0l5.66-5.68a1.62,1.62,0,0,0,0-2.27h0a1.6,1.6,0,0,0-2.27,0l-5.65,5.68A1.6,1.6,0,0,0,238.41,141.54Z" transform="translate(-229.19 -94.19)"/></svg>