<svg id="Слой_1" data-name="Слой 1" xmlns="http://www.w3.org/2000/svg" xmlns:xlink="http://www.w3.org/1999/xlink" viewBox="0 0 189.7 44.14"><defs><style>.cls-1{fill:url(#Безымянный_градиент_7);}</style><linearGradient id="Безымянный_градиент_7" x1="960.6" y1="534.29" x2="959.66" y2="621.15" gradientUnits="userSpaceOnUse"><stop offset="0" stop-color="#fff" stop-opacity="0.31"/><stop offset="0.15" stop-color="#fff" stop-opacity="0.21"/><stop offset="0.33" stop-color="#fff" stop-opacity="0.12"/><stop offset="0.52" stop-color="#fff" stop-opacity="0.05"/><stop offset="0.73" stop-color="#fff" stop-opacity="0.01"/><stop offset="1" stop-color="#fff" stop-opacity="0"/></linearGradient></defs><path class="cls-1" d="M1054.64,527.19c.14-1.08-1.25-2.2-2.57-2.88a27.86,27.86,0,0,0-10.66-3.38c-3.87-.31-8.09.65-10.47,3-.74.72-1.6,1.67-2.79,1.51a3,3,0,0,1-1.66-1,19,19,0,0,0-9.23-4.81c-3.68-.73-7.92-.17-10.66,1.82-1.43,1-2.53,2.48-4.43,3-3.22.81-6.09-1.58-8.9-3a17.74,17.74,0,0,0-14.23-.48c-3.29,1.38-6,3.85-9.77,4-2.63.14-5.08-.91-7.35-1.93-5.3-2.36-11.42-4.79-17.32-3.47-5.56,1.23-9.9,5.63-15.66,5.13-2.42-.21-4.53-1.3-6.64-2.24-6.87-3-16.25-4.55-22.43-.76-2.63,1.62-5,4.23-8.35,4-2.1-.16-3.69-1.44-5.22-2.54-3.58-2.54-8.38-4.55-13.24-4s-9,4.73-6.84,8.07l0,0h-.45v35.94h189.6V527.19Z" transform="translate(-865.65 -518.99)"/></svg>