<svg id="Слой_1" data-name="Слой 1" xmlns="http://www.w3.org/2000/svg" xmlns:xlink="http://www.w3.org/1999/xlink" viewBox="0 0 189.7 29.62"><defs><style>.cls-1{fill:url(#Безымянный_градиент_7);}</style><linearGradient id="Безымянный_градиент_7" x1="960.57" y1="536.32" x2="959.92" y2="595.62" gradientUnits="userSpaceOnUse"><stop offset="0" stop-color="#fff" stop-opacity="0.31"/><stop offset="0.15" stop-color="#fff" stop-opacity="0.21"/><stop offset="0.33" stop-color="#fff" stop-opacity="0.12"/><stop offset="0.52" stop-color="#fff" stop-opacity="0.05"/><stop offset="0.73" stop-color="#fff" stop-opacity="0.01"/><stop offset="1" stop-color="#fff" stop-opacity="0"/></linearGradient></defs><path class="cls-1" d="M1054.64,531.56c.14-.72-1.25-1.47-2.57-1.93a38.18,38.18,0,0,0-10.66-2.26c-3.87-.21-8.09.43-10.47,2a4.27,4.27,0,0,1-2.79,1,3.44,3.44,0,0,1-1.66-.66,23.05,23.05,0,0,0-9.23-3.23c-3.68-.49-7.92-.11-10.66,1.22-1.43.7-2.53,1.67-4.43,2-3.22.54-6.09-1.06-8.9-2a25.84,25.84,0,0,0-14.23-.33c-3.29.93-6,2.59-9.77,2.72a22.76,22.76,0,0,1-7.35-1.3c-5.3-1.58-11.42-3.21-17.32-2.33-5.56.83-9.9,3.78-15.66,3.44a28.37,28.37,0,0,1-6.64-1.5c-6.87-2-16.25-3.05-22.43-.51-2.63,1.09-5,2.84-8.35,2.65a13.23,13.23,0,0,1-5.22-1.7,26.68,26.68,0,0,0-13.24-2.67c-4.87.39-9,3.18-6.84,5.42h-.47v24.12h189.6V531.56Z" transform="translate(-865.65 -526.06)"/></svg>