<svg id="Слой_1" data-name="Слой 1" xmlns="http://www.w3.org/2000/svg" xmlns:xlink="http://www.w3.org/1999/xlink" viewBox="0 0 143.35 89.65"><defs><style>.cls-1{fill:none;}.cls-2{clip-path:url(#clip-path);}.cls-3{fill:#fff;}.cls-4{fill:#def4ff;}.cls-5{fill:#a9dae7;}</style><clipPath id="clip-path" transform="translate(-657.32 -485)"><path class="cls-1" d="M779.25,520.83a9.77,9.77,0,0,0,.06-1.08c0-7.62-8.07-13.91-18.55-14.9a9,9,0,0,0,.74-3.56c0-6.84-7.91-12.38-17.67-12.38a23.2,23.2,0,0,0-9.51,1.95c-3.93-3.56-10.08-5.86-17-5.86-11.86,0-21.46,6.74-21.46,15.05a11,11,0,0,0,1.22,5c-2.59.77-4.4,2.57-4.4,4.66,0,1.81,1.35,3.39,3.39,4.29-5.27,2.4-8.94,6.38-9.65,11h-.13c-11.85,0-21.46,6.73-21.46,15,0,8.12,9.17,14.73,20.63,15v0c0,2.79,3.23,5.06,7.22,5.06a9.81,9.81,0,0,0,3.46-.62c3.93,3.47,10,5.7,16.81,5.7,8.59,0,16-3.55,19.43-8.67,3.92,3.64,10.13,6,17.13,6,10.58,0,19.36-5.37,21.13-12.43q.93.06,1.89.06c11.85,0,21.46-6.74,21.46-15C794,528.46,787.81,522.81,779.25,520.83Z"/></clipPath></defs><g class="cls-2"><path class="cls-3" d="M779.25,520.83a9.77,9.77,0,0,0,.06-1.08c0-7.62-8.07-13.91-18.55-14.9a9,9,0,0,0,.74-3.56c0-6.84-7.91-12.38-17.67-12.38a23.2,23.2,0,0,0-9.51,1.95c-3.93-3.56-10.08-5.86-17-5.86-11.86,0-21.46,6.74-21.46,15.05a11,11,0,0,0,1.22,5c-2.59.77-4.4,2.57-4.4,4.66,0,1.81,1.35,3.39,3.39,4.29-5.27,2.4-8.94,6.38-9.65,11h-.13c-11.85,0-21.46,6.73-21.46,15,0,8.12,9.17,14.73,20.63,15v0c0,2.79,3.23,5.06,7.22,5.06a9.81,9.81,0,0,0,3.46-.62c3.93,3.47,10,5.7,16.81,5.7,8.59,0,16-3.55,19.43-8.67,3.92,3.64,10.13,6,17.13,6,10.58,0,19.36-5.37,21.13-12.43q.93.06,1.89.06c11.85,0,21.46-6.74,21.46-15C794,528.46,787.81,522.81,779.25,520.83Z" transform="translate(-657.32 -485)"/><path class="cls-4" d="M770.82,503.24s-22.72-.76-16.67,17.45c0,0-15.58-7.43-20.12,7.74,0,0-2.81-13.2-16.66-14.57,0,0,10.6,4.71,8.65,15.48,0,0-.86-15.48-15.58-13.05s-17.31,16.08-17.31,16.08-6.49-9.56-13.85-12S646,538.14,663.92,553.91c0,0,48.9,20.18,86.12,14.41s50.64-33.67,50.64-33.67Z" transform="translate(-657.32 -485)"/><path class="cls-5" d="M666.3,529.79s-5.41,24,24,19.42c0,0-3,5.61,0,7.43s11.25-3.79,11.25-3.79-.8,8.17,12.55,8.29,17.1-15.68,17.1-15.68,8.44,13.76,22.72,10.58,11.47-14.42,11.47-14.42,21.77,15.32,27.55-15.1c0,0,19.84,19.66-19.33,39.68s-84.39-1.82-84.39-1.82S636.87,549.82,666.3,529.79Z" transform="translate(-657.32 -485)"/></g></svg>