<svg id="Слой_1" data-name="Слой 1" xmlns="http://www.w3.org/2000/svg" xmlns:xlink="http://www.w3.org/1999/xlink" viewBox="0 0 143.35 89.65"><defs><style>.cls-1{fill:none;}.cls-2{clip-path:url(#clip-path);}.cls-3{fill:#b3c8db;}.cls-4{fill:#9ebddf;}.cls-5{fill:#8da1b8;}</style><clipPath id="clip-path" transform="translate(-881.11 -496.88)"><path class="cls-1" d="M1003,532.71c0-.35.06-.72.06-1.08,0-7.62-8.08-13.91-18.55-14.9a9,9,0,0,0,.74-3.56c0-6.84-7.91-12.38-17.67-12.38a23.25,23.25,0,0,0-9.52,1.95c-3.92-3.56-10.07-5.86-17-5.86-11.85,0-21.46,6.74-21.46,15.05a11.15,11.15,0,0,0,1.22,5c-2.58.77-4.4,2.57-4.4,4.66,0,1.81,1.36,3.39,3.4,4.29-5.28,2.4-9,6.38-9.65,11h-.13c-11.85,0-21.46,6.74-21.46,15,0,8.12,9.16,14.73,20.63,15h0c0,2.79,3.23,5.06,7.21,5.06a9.73,9.73,0,0,0,3.46-.62c3.94,3.47,10,5.7,16.81,5.7,8.6,0,16-3.55,19.44-8.67,3.92,3.64,10.13,6,17.13,6,10.58,0,19.36-5.37,21.13-12.43q.93.06,1.89.06c11.85,0,21.46-6.74,21.46-15C1017.79,540.34,1011.6,534.69,1003,532.71Z"/></clipPath></defs><g class="cls-2"><path class="cls-3" d="M1003,532.71c0-.35.06-.72.06-1.08,0-7.62-8.08-13.91-18.55-14.9a9,9,0,0,0,.74-3.56c0-6.84-7.91-12.38-17.67-12.38a23.25,23.25,0,0,0-9.52,1.95c-3.92-3.56-10.07-5.86-17-5.86-11.85,0-21.46,6.74-21.46,15.05a11.15,11.15,0,0,0,1.22,5c-2.58.77-4.4,2.57-4.4,4.66,0,1.81,1.36,3.39,3.4,4.29-5.28,2.4-9,6.38-9.65,11h-.13c-11.85,0-21.46,6.74-21.46,15,0,8.12,9.16,14.73,20.63,15h0c0,2.79,3.23,5.06,7.21,5.06a9.73,9.73,0,0,0,3.46-.62c3.94,3.47,10,5.7,16.81,5.7,8.6,0,16-3.55,19.44-8.67,3.92,3.64,10.13,6,17.13,6,10.58,0,19.36-5.37,21.13-12.43q.93.06,1.89.06c11.85,0,21.46-6.74,21.46-15C1017.79,540.34,1011.6,534.69,1003,532.71Z" transform="translate(-881.11 -496.88)"/><path class="cls-4" d="M994.6,515.12s-22.72-.75-16.66,17.45c0,0-15.58-7.43-20.12,7.74,0,0-2.82-13.2-16.67-14.57,0,0,10.61,4.71,8.66,15.48,0,0-.87-15.48-15.58-13.05s-17.31,16.08-17.31,16.08-6.49-9.56-13.85-12S869.74,550,887.71,565.79c0,0,48.9,20.18,86.12,14.42s50.64-33.68,50.64-33.68Z" transform="translate(-881.11 -496.88)"/><path class="cls-5" d="M890.09,541.67s-5.41,24,24,19.42c0,0-3,5.61,0,7.43s11.25-3.79,11.25-3.79-.8,8.17,12.55,8.29S955,557.35,955,557.35s8.44,13.75,22.72,10.57,11.47-14.41,11.47-14.41,21.78,15.31,27.55-15.11c0,0,19.84,19.66-19.32,39.68s-84.4-1.82-84.4-1.82S860.66,561.7,890.09,541.67Z" transform="translate(-881.11 -496.88)"/></g></svg>