<svg id="Слой_1" data-name="Слой 1" xmlns="http://www.w3.org/2000/svg" xmlns:xlink="http://www.w3.org/1999/xlink" viewBox="0 0 134.14 85.15"><defs><style>.cls-1{fill:none;}.cls-2{clip-path:url(#clip-path);}.cls-3{fill:#b3c8db;}.cls-4{fill:#9ebddf;}.cls-5{fill:#8da1b8;}</style><clipPath id="clip-path" transform="translate(-888.96 -500.99)"><path class="cls-1" d="M916.61,566.53a22.91,22.91,0,0,0,9.42-2c2.41,8.21,10.67,14.26,20.49,14.26a22.3,22.3,0,0,0,14.86-5.52A22.41,22.41,0,0,0,975.29,578c10.17,0,18.67-6.49,20.72-15.16a22.47,22.47,0,0,0,3.51.27c11.71,0,21.2-8.6,21.2-19.22,0-9.15-7.07-16.81-16.53-18.74-1.57-9.21-10.35-16.26-21-16.26a22.84,22.84,0,0,0-10.34,2.44A33.23,33.23,0,0,0,948.48,501c-16.94,0-30.79,12-31.81,27.11h-.06c-11.71,0-21.2,8.6-21.2,19.21S904.9,566.53,916.61,566.53Z"/></clipPath></defs><g class="cls-2"><path class="cls-3" d="M916.61,566.53a22.91,22.91,0,0,0,9.42-2c2.41,8.21,10.67,14.26,20.49,14.26a22.3,22.3,0,0,0,14.86-5.52A22.41,22.41,0,0,0,975.29,578c10.17,0,18.67-6.49,20.72-15.16a22.47,22.47,0,0,0,3.51.27c11.71,0,21.2-8.6,21.2-19.22,0-9.15-7.07-16.81-16.53-18.74-1.57-9.21-10.35-16.26-21-16.26a22.84,22.84,0,0,0-10.34,2.44A33.23,33.23,0,0,0,948.48,501c-16.94,0-30.79,12-31.81,27.11h-.06c-11.71,0-21.2,8.6-21.2,19.21S904.9,566.53,916.61,566.53Z" transform="translate(-888.96 -500.99)"/><path class="cls-4" d="M889,548.94s14.33-15,30.84-4.3c0,0-3.89-7.88-14.63-6.51,0,0,24.9-11,38.08-2.15,0,0-11.46-16.6,10.81-16.48s16.6,18.15,16.6,18.15,12.25-8,24.24-5.73,13.18,11.71,13.18,11.71,4.48-10.16,15-5.5v40.66l-127.69,3.53Z" transform="translate(-888.96 -500.99)"/><path class="cls-5" d="M894,551.51s17.13,12.54,33.86,3c0,0-4.26,13.13,14.63,17.68,12.39,3,20.16-8.72,20.16-8.72s5.67,10.75,16.21,7.41,14.49-16.6,14.49-16.6,3.56,5.37,12,4.18,16.47-16.61,16.47-16.61-1.18,19.47-16.73,26.16v18.16l-109-3.85Z" transform="translate(-888.96 -500.99)"/></g></svg>