<svg id="Слой_1" data-name="Слой 1" xmlns="http://www.w3.org/2000/svg" xmlns:xlink="http://www.w3.org/1999/xlink" viewBox="0 0 183.35 80.37"><defs><style>.cls-1{fill:none;}.cls-2{clip-path:url(#clip-path);}.cls-3{fill:#dbefff;}.cls-4{fill:#c1e3ff;}.cls-5{fill:#a9dae7;}.cls-6{fill:#feda53;stroke:#fbb03b;stroke-miterlimit:10;stroke-width:0.75px;}</style><clipPath id="clip-path" transform="translate(-1094.97 -550.88)"><path class="cls-1" d="M1249.18,583.19a17.88,17.88,0,0,0-10.44,3.32,17.23,17.23,0,0,0-15.54-14.25,7.51,7.51,0,0,0,.81-3.37,7.84,7.84,0,0,0-8-7.68,8.11,8.11,0,0,0-5.18,1.85,23.34,23.34,0,0,0-38.88,3.31,17.9,17.9,0,0,0-8.31-2,17.49,17.49,0,0,0-16.43,11,17.93,17.93,0,0,0-10.25-3.19,17.57,17.57,0,0,0-16,9.91,18,18,0,0,0-5.58-.88c-9.67,0-17.51,7.54-17.51,16.84s7.84,16.85,17.51,16.85a17.24,17.24,0,0,0,2.61-.19,17.88,17.88,0,0,0,29.89-.11,18.84,18.84,0,0,0,3.3.3,18,18,0,0,0,6.39-1.16,17.9,17.9,0,0,0,28.21,3.7,17.89,17.89,0,0,0,28.3,2.69,17.77,17.77,0,0,0,13.15,5.73,17.55,17.55,0,0,0,16-10,18.07,18.07,0,0,0,5.92,1c9.67,0,17.51-7.54,17.51-16.85S1258.85,583.19,1249.18,583.19Z"/></clipPath></defs><g class="cls-2"><path class="cls-3" d="M1249.18,583.19a17.88,17.88,0,0,0-10.44,3.32,17.23,17.23,0,0,0-15.54-14.25,7.51,7.51,0,0,0,.81-3.37,7.84,7.84,0,0,0-8-7.68,8.11,8.11,0,0,0-5.18,1.85,23.34,23.34,0,0,0-38.88,3.31,17.9,17.9,0,0,0-8.31-2,17.49,17.49,0,0,0-16.43,11,17.93,17.93,0,0,0-10.25-3.19,17.57,17.57,0,0,0-16,9.91,18,18,0,0,0-5.58-.88c-9.67,0-17.51,7.54-17.51,16.84s7.84,16.85,17.51,16.85a17.24,17.24,0,0,0,2.61-.19,17.88,17.88,0,0,0,29.89-.11,18.84,18.84,0,0,0,3.3.3,18,18,0,0,0,6.39-1.16,17.9,17.9,0,0,0,28.21,3.7,17.89,17.89,0,0,0,28.3,2.69,17.77,17.77,0,0,0,13.15,5.73,17.55,17.55,0,0,0,16-10,18.07,18.07,0,0,0,5.92,1c9.67,0,17.51-7.54,17.51-16.85S1258.85,583.19,1249.18,583.19Z" transform="translate(-1094.97 -550.88)"/><path class="cls-4" d="M1119.17,579s21.68-22.61,33.72,5.77c0,0-2.41-8,5.87-9.27s23.55,18.25,23.55,18.25,5.65-13.76,11.52-13.62,6.93,6.81,6.93,6.81,9.78-13,20.62-11.15c0,0-10.3,1.88-13.2,10.14,0,0,10.79-10,18.85-7.75s3.68,22.59,3.68,22.59,11.59-17.8,34.68-10.73c0,0,29.1,12.39,0,32.38s-158.26,0-158.26,0S1073,580.48,1119.17,579Z" transform="translate(-1094.97 -550.88)"/><path class="cls-5" d="M1097.92,587.9s3.49,22.79,23.26,17.38c0,0,3.61,14,13.15,13.42s13-11.68,13-11.68,0,3.86,5.42,3.57,9.33-9.85,9.33-9.85-2.1,10.43,7.73,14.29,15.45-4.25,15.45-4.25,8.43,9.75,17.57,9.08,14.45-12.07,14.45-12.07,4.54,13.9,14.15,12.74,12.84-10,12.84-10,16,6.18,23.68-12.06l-2.3,31.56h-169.1Z" transform="translate(-1094.97 -550.88)"/></g><path class="cls-6" d="M1202.27,583.36a1.3,1.3,0,0,0-1.37.09h-11.44l5.5-30.88a1.15,1.15,0,0,0-1-1.3,1.27,1.27,0,0,0-1.14.41,1.12,1.12,0,0,0-.41.37l-25.57,40.54a1,1,0,0,0-.07,1s0,.08,0,.12a1.2,1.2,0,0,0,1.25,1.14h12l-5.37,30.12a1.15,1.15,0,0,0,1,1.3,1.27,1.27,0,0,0,1.14-.41,1.12,1.12,0,0,0,.41-.37l25.57-40.54A1.09,1.09,0,0,0,1202.27,583.36Z" transform="translate(-1094.97 -550.88)"/></svg>