<svg id="Слой_1" data-name="Слой 1" xmlns="http://www.w3.org/2000/svg" xmlns:xlink="http://www.w3.org/1999/xlink" viewBox="0 0 183.35 81.89"><defs><style>.cls-1{fill:none;}.cls-2{clip-path:url(#clip-path);}.cls-3{fill:#b3c8db;}.cls-4{fill:#9ebddf;}.cls-5{fill:#8da1b8;}.cls-6{fill:#feda53;stroke:#fbb03b;stroke-miterlimit:10;stroke-width:0.75px;}</style><clipPath id="clip-path" transform="translate(-870.97 -499.62)"><path class="cls-1" d="M1025.18,533.45a17.88,17.88,0,0,0-10.44,3.32,17.23,17.23,0,0,0-15.54-14.25,7.51,7.51,0,0,0,.81-3.37,7.84,7.84,0,0,0-8-7.68,8.11,8.11,0,0,0-5.18,1.85A23.35,23.35,0,0,0,948,516.63a17.9,17.9,0,0,0-8.31-2,17.51,17.51,0,0,0-16.43,11A17.93,17.93,0,0,0,913,522.43a17.57,17.57,0,0,0-16,9.91,18,18,0,0,0-5.58-.88c-9.67,0-17.51,7.54-17.51,16.85s7.84,16.84,17.51,16.84A17.24,17.24,0,0,0,894,565a17.88,17.88,0,0,0,29.89-.11,18.84,18.84,0,0,0,3.3.3,18,18,0,0,0,6.39-1.16,17.61,17.61,0,0,0,15.49,9,17.81,17.81,0,0,0,12.72-5.27,17.9,17.9,0,0,0,28.3,2.68,17.77,17.77,0,0,0,13.15,5.73,17.55,17.55,0,0,0,16-10,18.07,18.07,0,0,0,5.92,1c9.67,0,17.51-7.54,17.51-16.85S1034.85,533.45,1025.18,533.45Z"/></clipPath></defs><g class="cls-2"><path class="cls-3" d="M1025.18,533.45a17.88,17.88,0,0,0-10.44,3.32,17.23,17.23,0,0,0-15.54-14.25,7.51,7.51,0,0,0,.81-3.37,7.84,7.84,0,0,0-8-7.68,8.11,8.11,0,0,0-5.18,1.85A23.35,23.35,0,0,0,948,516.63a17.9,17.9,0,0,0-8.31-2,17.51,17.51,0,0,0-16.43,11A17.93,17.93,0,0,0,913,522.43a17.57,17.57,0,0,0-16,9.91,18,18,0,0,0-5.58-.88c-9.67,0-17.51,7.54-17.51,16.85s7.84,16.84,17.51,16.84A17.24,17.24,0,0,0,894,565a17.88,17.88,0,0,0,29.89-.11,18.84,18.84,0,0,0,3.3.3,18,18,0,0,0,6.39-1.16,17.61,17.61,0,0,0,15.49,9,17.81,17.81,0,0,0,12.72-5.27,17.9,17.9,0,0,0,28.3,2.68,17.77,17.77,0,0,0,13.15,5.73,17.55,17.55,0,0,0,16-10,18.07,18.07,0,0,0,5.92,1c9.67,0,17.51-7.54,17.51-16.85S1034.85,533.45,1025.18,533.45Z" transform="translate(-870.97 -499.62)"/><path class="cls-4" d="M895.17,529.21s21.68-22.61,33.72,5.77c0,0-2.41-8,5.87-9.27S958.31,544,958.31,544s5.65-13.76,11.52-13.62,6.93,6.81,6.93,6.81,9.78-13,20.62-11.15c0,0-10.3,1.88-13.2,10.14,0,0,10.79-10,18.85-7.75s3.68,22.59,3.68,22.59,11.59-17.8,34.68-10.72c0,0,29.1,12.38,0,32.37s-158.26,0-158.26,0S849,530.75,895.17,529.21Z" transform="translate(-870.97 -499.62)"/><path class="cls-5" d="M873.92,538.16s3.49,22.79,23.26,17.38c0,0,3.61,14,13.15,13.42s13-11.68,13-11.68,0,3.86,5.42,3.57,9.33-9.85,9.33-9.85-2.1,10.43,7.73,14.29S961.3,561,961.3,561s8.43,9.75,17.57,9.08,14.45-12.07,14.45-12.07,4.54,13.9,14.15,12.74,12.84-10,12.84-10,16,6.18,23.68-12.06l-2.3,31.56H872.59Z" transform="translate(-870.97 -499.62)"/></g><path class="cls-6" d="M980.22,532.1a1.32,1.32,0,0,0-1.38.09H967.4l5.5-30.88a1.15,1.15,0,0,0-1-1.3,1.27,1.27,0,0,0-1.14.41,1.12,1.12,0,0,0-.41.37l-25.57,40.54a1,1,0,0,0-.07,1,.53.53,0,0,0,0,.12,1.2,1.2,0,0,0,1.24,1.14h12l-5.37,30.11a1.16,1.16,0,0,0,1,1.31,1.28,1.28,0,0,0,1.14-.41,1.21,1.21,0,0,0,.41-.37l25.57-40.55A1.08,1.08,0,0,0,980.22,532.1Z" transform="translate(-870.97 -499.62)"/></svg>