<svg id="Слой_1" data-name="Слой 1" xmlns="http://www.w3.org/2000/svg" xmlns:xlink="http://www.w3.org/1999/xlink" viewBox="0 0 61.74 58.89"><defs><style>.cls-1{fill:#eaf9f9;}.cls-2{fill:url(#Безымянный_градиент_5);}.cls-3,.cls-4{stroke:gray;stroke-miterlimit:10;stroke-width:0.75px;}.cls-3{fill:url(#Безымянный_градиент_12);}.cls-4{fill:url(#Безымянный_градиент_12-2);}.cls-5{fill:#29abe2;}</style><radialGradient id="Безымянный_градиент_5" cx="326.33" cy="247.36" r="19.26" gradientTransform="translate(-237.57 -244.56) scale(0.77 1.07)" gradientUnits="userSpaceOnUse"><stop offset="0" stop-color="#eaf9f9" stop-opacity="0.29"/><stop offset="0.5" stop-color="#eaf9f9" stop-opacity="0.15"/><stop offset="1" stop-color="#eaf9f9" stop-opacity="0"/></radialGradient><linearGradient id="Безымянный_градиент_12" x1="340.75" y1="246.15" x2="341.95" y2="305.14" gradientUnits="userSpaceOnUse"><stop offset="0" stop-color="#b3b3b3"/><stop offset="1" stop-color="#0071bc"/></linearGradient><linearGradient id="Безымянный_градиент_12-2" x1="347.99" y1="250.4" x2="348.57" y2="278.58" xlink:href="#Безымянный_градиент_12"/></defs><path class="cls-1" d="M317.66,226.9a11.73,11.73,0,0,0-1.33.07,12.85,12.85,0,0,1-2.19,25.12,12.84,12.84,0,1,0,3.52-25.19Z" transform="translate(-309.03 -219.12)"/><ellipse class="cls-2" cx="15" cy="20.5" rx="15" ry="20.5"/><path class="cls-3" d="M357.49,240.42h-3.72v-.26a12.91,12.91,0,0,0-12.91-12.91h0a12.91,12.91,0,0,0-12.92,12.91v.26h-3.63a12.92,12.92,0,0,0,0,25.83h33.18a12.92,12.92,0,0,0,0-25.83Z" transform="translate(-309.03 -219.12)"/><path class="cls-4" d="M357.26,247.65H355.2v-.12c0-3.41-3.21-6.16-7.16-6.16h0c-4,0-7.16,2.75-7.16,6.16v.12h-2c-3.95,0-7.16,2.76-7.16,6.16s3.21,6.17,7.16,6.17h18.4c4,0,7.16-2.76,7.16-6.17S361.22,247.65,357.26,247.65Z" transform="translate(-309.03 -219.12)"/><path class="cls-5" d="M331,269.1a10.72,10.72,0,0,0-5.95,3.67,3,3,0,0,0-.55,3.33,3.45,3.45,0,0,0,4,1.07,2.6,2.6,0,0,0,1.1-1c1.35-2.12.45-4.69,1.73-6.84" transform="translate(-309.03 -219.12)"/><path class="cls-5" d="M344.58,269.67a10.76,10.76,0,0,0-5.95,3.67,3,3,0,0,0-.55,3.33,3.45,3.45,0,0,0,4,1.07,2.6,2.6,0,0,0,1.1-1c1.36-2.12.45-4.7,1.73-6.84" transform="translate(-309.03 -219.12)"/><path class="cls-5" d="M357.58,269.67a10.76,10.76,0,0,0-5.95,3.67,3,3,0,0,0-.55,3.33,3.45,3.45,0,0,0,4,1.07,2.6,2.6,0,0,0,1.1-1c1.36-2.12.45-4.7,1.73-6.84" transform="translate(-309.03 -219.12)"/></svg>