<svg id="Слой_1" data-name="Слой 1" xmlns="http://www.w3.org/2000/svg" xmlns:xlink="http://www.w3.org/1999/xlink" viewBox="0 0 78 78"><defs><style>.cls-1{fill:#333348;stroke:#b3b3b3;opacity:0;}.cls-1,.cls-4,.cls-5{stroke-miterlimit:10;}.cls-2{fill:#eaf9f9;}.cls-3{fill:url(#Безымянный_градиент_5);}.cls-4,.cls-5{stroke:gray;stroke-width:0.75px;}.cls-4{fill:url(#Безымянный_градиент_4);}.cls-5{fill:url(#Безымянный_градиент_4-2);}.cls-6{fill:#29abe2;}</style><radialGradient id="Безымянный_градиент_5" cx="1155.82" cy="534.48" r="19.26" gradientTransform="translate(-872.58 -547.23) scale(0.77 1.07)" gradientUnits="userSpaceOnUse"><stop offset="0" stop-color="#eaf9f9" stop-opacity="0.29"/><stop offset="0.5" stop-color="#eaf9f9" stop-opacity="0.15"/><stop offset="1" stop-color="#eaf9f9" stop-opacity="0"/></radialGradient><linearGradient id="Безымянный_градиент_4" x1="982.98" y1="553.75" x2="984.18" y2="612.74" gradientUnits="userSpaceOnUse"><stop offset="0" stop-color="#9999ab"/><stop offset="1" stop-color="#0071bc"/></linearGradient><linearGradient id="Безымянный_градиент_4-2" x1="990.22" y1="558" x2="990.8" y2="586.19" xlink:href="#Безымянный_градиент_4"/></defs><rect class="cls-1" x="0.5" y="0.5" width="77" height="77"/><path class="cls-2" d="M959.89,534.5a11.73,11.73,0,0,0-1.33.07,12.85,12.85,0,0,1-2.19,25.12,12.84,12.84,0,1,0,3.52-25.19Z" transform="translate(-944.26 -521.72)"/><ellipse class="cls-3" cx="22" cy="25.5" rx="15" ry="20.5"/><path class="cls-4" d="M999.72,548H996v-.26a12.91,12.91,0,0,0-12.91-12.91h0a12.92,12.92,0,0,0-12.92,12.91V548h-3.63a12.92,12.92,0,0,0,0,25.83h33.18a12.92,12.92,0,0,0,0-25.83Z" transform="translate(-944.26 -521.72)"/><path class="cls-5" d="M999.49,555.25h-2.06v-.12c0-3.4-3.21-6.16-7.16-6.16h0c-4,0-7.16,2.76-7.16,6.16v.12h-2c-4,0-7.17,2.76-7.17,6.16s3.21,6.17,7.17,6.17h18.39c4,0,7.16-2.76,7.16-6.17S1003.45,555.25,999.49,555.25Z" transform="translate(-944.26 -521.72)"/><path class="cls-6" d="M973.25,576.7a10.72,10.72,0,0,0-6,3.67,3,3,0,0,0-.55,3.33,3.47,3.47,0,0,0,4,1.08,2.68,2.68,0,0,0,1.1-1c1.36-2.12.45-4.69,1.73-6.84" transform="translate(-944.26 -521.72)"/><path class="cls-6" d="M986.81,577.27a10.76,10.76,0,0,0-5.95,3.67,3,3,0,0,0-.55,3.33,3.47,3.47,0,0,0,4,1.08,2.78,2.78,0,0,0,1.11-1c1.35-2.12.45-4.69,1.72-6.84" transform="translate(-944.26 -521.72)"/><path class="cls-6" d="M999.81,577.27a10.76,10.76,0,0,0-5.95,3.67,3,3,0,0,0-.55,3.33,3.47,3.47,0,0,0,4,1.08,2.78,2.78,0,0,0,1.11-1c1.35-2.12.45-4.69,1.72-6.84" transform="translate(-944.26 -521.72)"/></svg>