<svg id="Слой_1" data-name="Слой 1" xmlns="http://www.w3.org/2000/svg" viewBox="0 0 77 77"><defs><style>.cls-1{fill:none;}.cls-2{fill:#feda53;stroke:#fbb03b;stroke-miterlimit:10;stroke-width:0.75px;}</style></defs><rect class="cls-1" width="77" height="77"/><ellipse class="cls-2" cx="37.3" cy="38" rx="12.8" ry="12.85"/><rect class="cls-2" x="35.7" y="11.5" width="3.2" height="11.24" rx="1.6"/><rect class="cls-2" x="35.7" y="53.26" width="3.2" height="11.24" rx="1.6"/><rect class="cls-2" x="978.52" y="534.39" width="3.21" height="11.2" rx="1.61" transform="translate(-481.09 1018.12) rotate(-90)"/><rect class="cls-2" x="933.72" y="534.39" width="3.21" height="11.2" rx="1.61" transform="translate(-525.89 973.32) rotate(-90)"/><path class="cls-2" d="M946.48,528.71h0a1.59,1.59,0,0,1-2.26,0L938.56,523a1.62,1.62,0,0,1,0-2.27h0a1.59,1.59,0,0,1,2.26,0l5.66,5.68A1.6,1.6,0,0,1,946.48,528.71Z" transform="translate(-921.22 -501.99)"/><path class="cls-2" d="M978.48,560.57h0a1.59,1.59,0,0,1-2.26,0l-5.66-5.68a1.62,1.62,0,0,1,0-2.27h0a1.59,1.59,0,0,1,2.26,0l5.66,5.68A1.6,1.6,0,0,1,978.48,560.57Z" transform="translate(-921.22 -501.99)"/><path class="cls-2" d="M972.16,528.45h0a1.59,1.59,0,0,0,2.26,0l5.66-5.68a1.6,1.6,0,0,0,0-2.27h0a1.59,1.59,0,0,0-2.26,0l-5.66,5.68A1.62,1.62,0,0,0,972.16,528.45Z" transform="translate(-921.22 -501.99)"/><path class="cls-2" d="M938.56,560.47h0a1.61,1.61,0,0,0,2.26,0l5.66-5.68a1.6,1.6,0,0,0,0-2.27h0a1.59,1.59,0,0,0-2.26,0l-5.66,5.67A1.63,1.63,0,0,0,938.56,560.47Z" transform="translate(-921.22 -501.99)"/></svg>