<svg id="Слой_1" data-name="Слой 1" xmlns="http://www.w3.org/2000/svg" viewBox="0 0 63.68 42.9"><defs><style>.cls-1{fill:#feda53;stroke:#fbb03b;}.cls-1,.cls-3{stroke-miterlimit:10;stroke-width:0.75px;}.cls-2{opacity:0.79;}.cls-3{fill:#fff;stroke:#e6e6e6;}</style></defs><ellipse class="cls-1" cx="20.19" cy="17.86" rx="8.8" ry="8.48"/><rect class="cls-1" x="19.09" y="0.38" width="2.2" height="7.42" rx="0.87"/><rect class="cls-1" x="19.09" y="27.93" width="2.2" height="7.42" rx="0.87"/><rect class="cls-1" x="279.89" y="177.06" width="2.12" height="7.7" rx="0.88" transform="translate(-145.86 298.82) rotate(-90)"/><rect class="cls-1" x="249.07" y="177.06" width="2.12" height="7.7" rx="0.88" transform="translate(-176.68 268) rotate(-90)"/><path class="cls-1" d="M257.81,173.46h0a1.12,1.12,0,0,1-1.56,0l-3.89-3.75a1,1,0,0,1,0-1.49h0a1.12,1.12,0,0,1,1.56,0l3.89,3.74A1,1,0,0,1,257.81,173.46Z" transform="translate(-245.91 -163.04)"/><path class="cls-1" d="M279.82,194.49h0a1.13,1.13,0,0,1-1.55,0l-3.89-3.75a1,1,0,0,1,0-1.5h0a1.13,1.13,0,0,1,1.55,0l3.89,3.75A1,1,0,0,1,279.82,194.49Z" transform="translate(-245.91 -163.04)"/><path class="cls-1" d="M275.48,173.29h0a1.13,1.13,0,0,0,1.55,0l3.89-3.75a1,1,0,0,0,0-1.5h0a1.13,1.13,0,0,0-1.55,0l-3.89,3.75A1,1,0,0,0,275.48,173.29Z" transform="translate(-245.91 -163.04)"/><path class="cls-1" d="M252.36,194.42h0a1.14,1.14,0,0,0,1.56,0l3.89-3.75a1,1,0,0,0,0-1.5h0a1.14,1.14,0,0,0-1.56,0l-3.89,3.75A1,1,0,0,0,252.36,194.42Z" transform="translate(-245.91 -163.04)"/><g class="cls-2"><path class="cls-3" d="M296.3,179.75h-3.71v-.27a12.91,12.91,0,0,0-12.92-12.91h0a12.91,12.91,0,0,0-12.91,12.91v.27h-3.63a12.91,12.91,0,0,0,0,25.82H296.3a12.91,12.91,0,1,0,0-25.82Z" transform="translate(-245.91 -163.04)"/><path class="cls-3" d="M295.84,188.17h-2.55v-.12c0-3.3-4-6-8.87-6h0c-4.9,0-8.88,2.68-8.88,6v.12h-2.49c-4.9,0-8.88,2.68-8.88,6s4,6,8.88,6h22.79c4.9,0,8.88-2.68,8.88-6S300.74,188.17,295.84,188.17Z" transform="translate(-245.91 -163.04)"/></g></svg>