<svg id="Слой_1" data-name="Слой 1" xmlns="http://www.w3.org/2000/svg" xmlns:xlink="http://www.w3.org/1999/xlink" viewBox="0 0 60.44 48.29"><defs><style>.cls-1{fill:#eaf9f9;}.cls-2{fill:url(#Безымянный_градиент_5);}.cls-3{opacity:0.79;}.cls-4{fill:#fff;stroke:#e6e6e6;stroke-miterlimit:10;stroke-width:0.75px;}</style><radialGradient id="Безымянный_градиент_5" cx="276.41" cy="270.92" r="19.26" gradientTransform="translate(-198.93 -269.82) scale(0.77 1.07)" gradientUnits="userSpaceOnUse"><stop offset="0" stop-color="#eaf9f9" stop-opacity="0.29"/><stop offset="0.5" stop-color="#eaf9f9" stop-opacity="0.15"/><stop offset="1" stop-color="#eaf9f9" stop-opacity="0"/></radialGradient></defs><path class="cls-1" d="M279,252.15c-.45,0-.89,0-1.33.07a12.85,12.85,0,0,1-2.19,25.12,12.38,12.38,0,0,0,3.52.51,12.85,12.85,0,0,0,0-25.7Z" transform="translate(-270.39 -244.37)"/><ellipse class="cls-2" cx="15" cy="20.5" rx="15" ry="20.5"/><g class="cls-3"><path class="cls-4" d="M317.54,266.46h-3.71v-.26a12.92,12.92,0,0,0-12.92-12.92h0A12.91,12.91,0,0,0,288,266.2v.26h-3.63a12.91,12.91,0,0,0,0,25.82h33.17a12.91,12.91,0,1,0,0-25.82Z" transform="translate(-270.39 -244.37)"/><path class="cls-4" d="M317.08,274.88h-2.55v-.12c0-3.3-4-6-8.88-6h0c-4.9,0-8.87,2.68-8.87,6v.12h-2.49c-4.9,0-8.88,2.68-8.88,6s4,6,8.88,6h22.79c4.9,0,8.88-2.68,8.88-6S322,274.88,317.08,274.88Z" transform="translate(-270.39 -244.37)"/></g></svg>