<svg id="Слой_1" data-name="Слой 1" xmlns="http://www.w3.org/2000/svg" viewBox="0 0 59.75 39.75"><defs><style>.cls-1{fill:#fff;stroke:#e6e6e6;stroke-miterlimit:10;stroke-width:0.75px;}</style></defs><path class="cls-1" d="M310.26,204.63h-3.72v-.26a12.91,12.91,0,0,0-12.91-12.91h0a12.91,12.91,0,0,0-12.91,12.91v.26h-3.63a12.92,12.92,0,1,0,0,25.83h33.17a12.92,12.92,0,0,0,0-25.83Z" transform="translate(-263.8 -191.08)"/><path class="cls-1" d="M309.8,213.06h-2.55v-.12c0-3.31-4-6-8.88-6h0c-4.9,0-8.87,2.67-8.87,6v.12H287c-4.9,0-8.87,2.68-8.87,6s4,6,8.87,6h22.8c4.9,0,8.87-2.68,8.87-6S314.7,213.06,309.8,213.06Z" transform="translate(-263.8 -191.08)"/></svg>