<svg id="Слой_1" data-name="Слой 1" xmlns="http://www.w3.org/2000/svg" viewBox="0 0 77 77"><defs><style>.cls-1{fill:none;}.cls-2{fill:#fff;stroke:#e6e6e6;stroke-miterlimit:10;stroke-width:0.75px;}</style></defs><rect class="cls-1" width="77" height="77"/><path class="cls-2" d="M999.41,549.63h-3.72v-.26a12.91,12.91,0,0,0-12.91-12.91h0a12.92,12.92,0,0,0-12.92,12.91v.26h-3.63a12.92,12.92,0,0,0,0,25.83h33.18a12.92,12.92,0,0,0,0-25.83Z" transform="translate(-944.76 -522.22)"/><path class="cls-2" d="M999,558.06h-2.56v-.12c0-3.31-4-6-8.87-6h0c-4.9,0-8.87,2.67-8.87,6v.12h-2.5c-4.9,0-8.87,2.68-8.87,6s4,6,8.87,6H999c4.9,0,8.87-2.68,8.87-6S1003.85,558.06,999,558.06Z" transform="translate(-944.76 -522.22)"/></svg>