<svg id="Слой_1" data-name="Слой 1" xmlns="http://www.w3.org/2000/svg" viewBox="0 0 78 78"><defs><style>.cls-1{fill:#333348;stroke:#b3b3b3;opacity:0;}.cls-1,.cls-2{stroke-miterlimit:10;}.cls-2{fill:#9999ab;stroke:gray;stroke-width:0.75px;}</style></defs><rect class="cls-1" x="0.5" y="0.5" width="77" height="77"/><path class="cls-2" d="M1000.41,547.63H996.7v-.26a12.92,12.92,0,0,0-12.92-12.91h0a12.91,12.91,0,0,0-12.91,12.91v.26h-3.63a12.92,12.92,0,0,0,0,25.83h33.17a12.92,12.92,0,1,0,0-25.83Z" transform="translate(-944.26 -521.72)"/><path class="cls-2" d="M1000,556.06H997.4v-.12c0-3.31-4-6-8.88-6h0c-4.9,0-8.87,2.67-8.87,6v.12h-2.49c-4.9,0-8.88,2.68-8.88,6s4,6,8.88,6H1000c4.9,0,8.88-2.68,8.88-6S1004.85,556.06,1000,556.06Z" transform="translate(-944.26 -521.72)"/></svg>