<svg xmlns="http://www.w3.org/2000/svg" xmlns:xlink="http://www.w3.org/1999/xlink" viewBox="0 0 136.37 136.36"><defs><style>.cls-1{isolation:isolate;}.cls-2{opacity:0.6;fill:url(#radial-gradient);}.cls-3{fill:#a9a9aa;}.cls-3,.cls-5,.cls-8{opacity:0.52;}.cls-4{fill:url(#radial-gradient-2);}.cls-5,.cls-7,.cls-9{fill:#fff;}.cls-6{opacity:0.5;}.cls-10,.cls-9{opacity:0.52;}.cls-11{mix-blend-mode:multiply;fill:url(#radial-gradient-3);}.cls-12{fill:url(#radial-gradient-4);}</style><radialGradient id="radial-gradient" cx="622.47" cy="213.04" r="68.07" gradientTransform="matrix(-0.71, -0.71, -0.71, 0.71, 1550.51, 829.22)" gradientUnits="userSpaceOnUse"><stop offset="0.25" stop-color="#fff"/><stop offset="0.64" stop-color="#fff" stop-opacity="0.72"/><stop offset="0.73" stop-color="#fff" stop-opacity="0.5"/><stop offset="0.82" stop-color="#fff" stop-opacity="0.29"/><stop offset="0.9" stop-color="#fff" stop-opacity="0.13"/><stop offset="0.96" stop-color="#fff" stop-opacity="0.03"/><stop offset="1" stop-color="#fff" stop-opacity="0"/></radialGradient><radialGradient id="radial-gradient-2" cx="621.92" cy="211.82" r="56.41" gradientTransform="matrix(-0.71, -0.71, -0.71, 0.71, 1550.51, 829.22)" gradientUnits="userSpaceOnUse"><stop offset="0" stop-color="#787979"/><stop offset="0.79" stop-color="#a6a6a7"/><stop offset="0.84" stop-color="#a9a9aa"/><stop offset="0.94" stop-color="#d7d7d7"/><stop offset="1" stop-color="#f3f3f3"/></radialGradient><radialGradient id="radial-gradient-3" cx="604.04" cy="190.3" r="66.23" gradientTransform="matrix(-0.71, -0.71, -0.71, 0.71, 1550.51, 829.22)" gradientUnits="userSpaceOnUse"><stop offset="0" stop-color="#fff"/><stop offset="0.39" stop-color="#edecee"/><stop offset="0.45" stop-color="#d1d0d1"/><stop offset="0.6" stop-color="#8e8d8e"/><stop offset="0.73" stop-color="#585858"/><stop offset="0.85" stop-color="#323231"/><stop offset="0.94" stop-color="#1b1b1a"/><stop offset="1" stop-color="#121211"/></radialGradient><radialGradient id="radial-gradient-4" cx="983.31" cy="545.75" r="42.74" gradientTransform="translate(27.26 2.9) scale(0.97 0.98)" gradientUnits="userSpaceOnUse"><stop offset="0" stop-color="#fff"/><stop offset="0.17" stop-color="#fff" stop-opacity="0.86"/><stop offset="0.54" stop-color="#fff" stop-opacity="0.49"/><stop offset="1" stop-color="#fff" stop-opacity="0"/></radialGradient></defs><g class="cls-1"><g id="Слой_1" data-name="Слой 1"><path class="cls-2" d="M911.51,492.28a68.18,68.18,0,1,0,96.42,0A68.17,68.17,0,0,0,911.51,492.28Z" transform="translate(-891.54 -472.31)"/><path class="cls-3" d="M921.09,499.35a56.41,56.41,0,1,0,79.77,0A56.4,56.4,0,0,0,921.09,499.35Z" transform="translate(-891.54 -472.31)"/><path class="cls-4" d="M921.09,499.35a56.41,56.41,0,1,0,79.77,0A56.4,56.4,0,0,0,921.09,499.35Z" transform="translate(-891.54 -472.31)"/><path class="cls-5" d="M1000.87,579.12h0c-1,.58-2.28.69-2.84-.47s.3-1.06.58-2c.52-1.7-1.34-.82-2.12-2a2.23,2.23,0,0,1,2-1.08,3.48,3.48,0,0,0-1.06-.91c-1.45-.88-2.89-1.51-4-3-2-2.67,1.41-.34,2.4-.11a3.33,3.33,0,0,1-.09-3.05c.69-1.35.91-1,.32-2.48-.41-1.07-.76-1.89.59-2.58.94-.47,2,0,2.93-.57-.87-1-2.5-1.91-2.63-3.21a1.59,1.59,0,0,1,2.77-1.28c.8-.64,1.75-1.72.6-2.51l.27-.26c2,1.81,1.38-1.95,1.93-2.15s1,.78,1.34.83c.56.07.44-.34.92-.46a4.19,4.19,0,0,0,2.47-1.4,2.08,2.08,0,0,0-.24-.47c-3.2,1.2-3.54-1.82-4.64-3.69-.19-.33.16-.46-.2-.79-.6-.56-1.68-.52-2.36-1a1.63,1.63,0,0,1-.7-2.44c.29-.64.92-1.17,1-1.78.11-1-.76-1.17-1.18-2-.79-1.46-.2-2.43,1-3.54,1.28,1.19,2.49,2.47,3.72,3.71-.49-.61-.07-1.21.51-1.63a24.74,24.74,0,0,0,1.79,1.76c1.06.77.79.73,1.46-.16.36-.48.53-2.14,1.51-1.61.59.31.48,1,.1,1.47.74.59.07,1.24.38,2s1.35.71,1.66,1c1.25,1.25,1.32,4,3.1,1.58-.68-1.19-1.46-1.84-1.75-3.12a7.85,7.85,0,0,0-1.32-3.52c-1-1.24-3.07-1.14-3.77-2.6-.28-.57-.52-1,.1-1.62.78-.83,1,0,1.85.79,2-2.15,2.32,1.46,3.66.37,1,.55.29,1.6.72,2.41.62,1.19,2.37,1.23,3.75,1.7A56.26,56.26,0,0,1,1000.87,579.12Z" transform="translate(-891.54 -472.31)"/><path class="cls-5" d="M1017.36,537.57l-3.5-.72c0,1.14,1.95,2,2.84,2.49a10.3,10.3,0,0,1,.68-.81h0a2.23,2.23,0,0,0-.19.64l.19,0c0,.3,0,.61,0,.92l-.28.47a2.11,2.11,0,0,1,.27.25c0,1.09-.09,2.18-.19,3.27a4.34,4.34,0,0,0-1-.61c-.26-.1-.44-.4-.72-.45s-.59.51-.81.46c-1.54-.36-1.53-1.84-2.23-2.93-.47-.72-1.47-1.3-2-2-.72-.88-.75-1.28-1.91-1.61a4.73,4.73,0,0,1,1-1.43,7.33,7.33,0,0,1-1.89-1.92c-.21-.28-.79-.77-.86-1-.2-.74.52-1.34,0-2,.6-1.14-.3-1.49-.54-2.49-.2-.84.54-1.5.25-2.12-1.6,1.62-2.22,2.33-4.57,1-1.65-1-1.48-1.28-.78-2.66-.55-1.31,1.14-1.76,0-3.19.29-.17.68-.62,1-.77-1.41-1.14-1.64-3.34-3.31-4.4a13.46,13.46,0,0,1,1.57-2.59c1.64,1,2.29,1.27,4.18.86a5,5,0,0,0-1.05-1.31c-.58,1.6-2.78-.12-3.7-.56-1.74-.82-1.63-.75-2.67.49-.78-.39-2.4-2-3.28-2s-.88,1-1.81,1c-1.75.13-1.54-1.53-2.85,0-.84,1-.65,2.38-1.33,3.23-1.55-1.19-2.37,2-2.86,3a9.2,9.2,0,0,1-3,3.38,6.05,6.05,0,0,1-2.85.6,8.38,8.38,0,0,0-1.32-.13c-.14,0-.57.57-.87.66s-.82-.22-1.19-.19-.69.39-1.16.43c-2.37.23-5.82-1.59-7.75-2.85,1.32.52,3.89.3,5.43.47,1.3.15,1.79.06,2.29-1.68.85-2.95-2.72-4.25-2.43-6.82.41-3.58,6.1-.92,6.3-4.06.07-1-.83-1.13-1.26-1.64a2.58,2.58,0,0,1-.12-3.56l.22.1c.2-1.58-3.42-2.3-3.5-4.37,2.09,1.2,2.33.57,3.31-1.18a4.68,4.68,0,0,1,1.69.93c-.84-1.12-.29-1.86,1-1.85s2.46,1.3,3.63,1.69c.6-1-1.06-1.57-.19-2.49,2.7.89,6,3.41,8.15,5.3a4.75,4.75,0,0,0,.91-.43c-.23-2.59,1.77-5.22,4.42-4.81,1.42,1.18,2.81,2.43,4.14,3.76A56.22,56.22,0,0,1,1017.36,537.57Z" transform="translate(-891.54 -472.31)"/><g class="cls-6"><path class="cls-7" d="M951.58,505.28c.42.12,1.51-.39,2.09-.58,1-.32,3.48-.7,2.94,0-1.15,1.42-4.07.93-5.84,1.62a10,10,0,0,0-3,2.52,16.9,16.9,0,0,1-3.15,2.5c-1.63,1.1-3.94,2.76-4.32,4.76-.09.42-.22,1.56.41,1.37s1.54-1.28,2.25-1.75c.53-.35,1-.64,1.33-.51s0,.51.09.61.37,0,.66,0c.44,0,.73-.2.74.17s-1.49,1.88-.81,1.77c1.18-.18,2.26-1.51,3.38-2.08a3.16,3.16,0,0,1,1.56-.32c.35.15-.14.46.05.77s1.73.18,2.36.35c1.11.3.86,1,1.27,1.71.13.23.4.33.28.62s-.55.42-.66.72.16.47-.07.89a6,6,0,0,1-.79,1.14c-.39.4-.39.34-.88.43a3.48,3.48,0,0,0-1.67.62c-1.33.8-1.7.51-2.8.65-.37,0-1.4.17-1.6.56.61-.13,1.24.11.42,1-.21.23-.65.28-.91.5a2.31,2.31,0,0,0-.69.92c.49.18,1-.19.74.65a7.83,7.83,0,0,1-.73,1.24,3.54,3.54,0,0,0-.7,1.2c-.22.69-.45,1.38-.68,2l.64-.19c-.06,1.68-2,2.55-2.72,3.81a2.45,2.45,0,0,0,0,2.28c.22.18.4,0,.52.38s-.08.92,0,1.26c.24.72,1,.58,1.33-.22a5.27,5.27,0,0,0,.46-2.78c0-.28-.08-1.08.17-1.39s.58-.11.77-.24c.5-.32.64-1.22,1.28-1.4.16.75.44.62.84.48a1.61,1.61,0,0,0,.41.65,8.53,8.53,0,0,0-1.23.52c-.17,1.25.85.52.72,1.59-.12,0-.27.2-.41.22-.13.94.33.68.72,1.06.22.2.13.31.21.63s0,.34.39.61c.61.45.65,1.44,1.14,2s1.33,1.42,1,2.27c0,0-.25.17-.3.24s0,.35-.08.48c-.33.45-.35,0-.51-.26a8.6,8.6,0,0,0-.45-.85c-.21-.25-.58-.21-.83-.35s-.95-.64-1.06.16c0,.31.25.52.11.85a.85.85,0,0,1-.71.44c-.16.51,0,.76-.57,1-.29.11-.56,0-.81.3a2,2,0,0,0,.94,1.56c-.49.8,2.09,2.35,2.15,2.93s-.81.67-1.15,1c-.07.08-.26.11-.3.2-.09.24.21.64.11.82s-.33.07-.55.18c-.46.22-.53.89-.93,1.14s-1.45-1.09-1.2.65a7.53,7.53,0,0,1,0,2.55c-.17.92-.59.62-1,1.16a5.12,5.12,0,0,0-.35,1.24c-.14.44-.39.8-.52,1.24-.18,0-1.09-.88-1.11-1.28,0-.16.21-.48.26-.6-.47-1-.48-.18-.93-.1s-.73-.6-1.06-1a8.39,8.39,0,0,1-.51,1c-.28.37-.54.47-.73,1.08a7.38,7.38,0,0,0-.07,2.27,3.33,3.33,0,0,0,.39,1.66c.32.83,0,.64.08,1.36s1.09,1.72,1.36,2.69c.08.31,0,.52.08.78.21.61.95,1.29,1.08,1.92s-.45.47-.46,1.06c.5.5,2.5,2,1.9,2.66-.24.27-1.29-.24-1.74-.67a2,2,0,0,1-.66-1.62c-1-1-.37,1.06-1,1.14s-2.18-1.51-2.79-2.17c-1-1.07-.58-1.92-1.59-2.88a9.93,9.93,0,0,0-1.42-1.32,1.11,1.11,0,0,0-1.34.75c-.14.45,0,1.64-.21,1.93s-1-.26-1.23-.83.08-.71,0-1.34c-.16-1-1.1-1.85-1.35-2.83-.37-1.39.48-2.64.44-4,0-.85-.65-1.64-.55-2.59.07-.69.62-1.41,1-1.43a39.23,39.23,0,0,1-1.91-3.55c.31-.68,1-.75,1.44-.94a1.8,1.8,0,0,1,1.33,0c.24.06.55.29.72-.11-.25-.68-1-2.23-.77-3.17a1.75,1.75,0,0,1,.41-.7,5.15,5.15,0,0,1,.72-.56c.28-.52-.12-.83,0-1.52.16-1,.66-1.32.2-2.19a15.19,15.19,0,0,1-1.59,1.39c-.73.54-1-.4-1.18-1.63,0-.07.09-.12.13-.18-.18-.43-1.45,1.37-1.85,1.57-.91.45-1.26-.3-1.57-1.55-.75.85-2.15,1.45-2.64.81-.87-1.11-.71-3.18-.46-4.63,0-.28.29-.52.29-.81s-.35-.37-.46-.58a8.91,8.91,0,0,1-.42-2.4c-.08-.8-.25-1.43-.32-2.25a5.22,5.22,0,0,1,0-1.92c.25-.65.6-.79,1-1.17,1.13-1,1.09-2.5,1.22-3.91a12.83,12.83,0,0,0,1.47-1.08c.47-.5.08-.09.49-.78.73-1.24,1.37-1.76,2.08-3,.9-1.61,2.1-2.94,2.26-1.78s.33.68,1.75-.83c.41-.43.84-.75,1.19-1.12a11.22,11.22,0,0,1,1.92-2,3.63,3.63,0,0,1,2-.42,8.78,8.78,0,0,0,2.53-1.16c.7-.35.62,0,.86,0a1.88,1.88,0,0,0,.94-.09c1.48-2.3,3.92-4,6.08-5.48,1.62-1.15,3.42-3.35,5.64-3.24C952,504.59,951.12,505.14,951.58,505.28Z" transform="translate(-891.54 -472.31)"/></g><g class="cls-6"><path class="cls-7" d="M951.58,505.28c.42.12,1.51-.39,2.09-.58,1-.32,3.48-.7,2.94,0-1.15,1.42-4.07.93-5.84,1.62a10,10,0,0,0-3,2.52,16.9,16.9,0,0,1-3.15,2.5c-1.63,1.1-3.94,2.76-4.32,4.76-.09.42-.22,1.56.41,1.37s1.54-1.28,2.25-1.75c.53-.35,1-.64,1.33-.51s0,.51.09.61.37,0,.66,0c.44,0,.73-.2.74.17s-1.49,1.88-.81,1.77c1.18-.18,2.26-1.51,3.38-2.08a3.16,3.16,0,0,1,1.56-.32c.35.15-.14.46.05.77s1.73.18,2.36.35c1.11.3.86,1,1.27,1.71.13.23.4.33.28.62s-.55.42-.66.72.16.47-.07.89a6,6,0,0,1-.79,1.14c-.39.4-.39.34-.88.43a3.48,3.48,0,0,0-1.67.62c-1.33.8-1.7.51-2.8.65-.37,0-1.4.17-1.6.56.61-.13,1.24.11.42,1-.21.23-.65.28-.91.5a2.31,2.31,0,0,0-.69.92c.49.18,1-.19.74.65a7.83,7.83,0,0,1-.73,1.24,3.54,3.54,0,0,0-.7,1.2c-.22.69-.45,1.38-.68,2l.64-.19c-.06,1.68-2,2.55-2.72,3.81a2.45,2.45,0,0,0,0,2.28c.22.18.4,0,.52.38s-.08.92,0,1.26c.24.72,1,.58,1.33-.22a5.27,5.27,0,0,0,.46-2.78c0-.28-.08-1.08.17-1.39s.58-.11.77-.24c.5-.32.64-1.22,1.28-1.4.16.75.44.62.84.48a1.61,1.61,0,0,0,.41.65,8.53,8.53,0,0,0-1.23.52c-.17,1.25.85.52.72,1.59-.12,0-.27.2-.41.22-.13.94.33.68.72,1.06.22.2.13.31.21.63s0,.34.39.61c.61.45.65,1.44,1.14,2s1.33,1.42,1,2.27c0,0-.25.17-.3.24s0,.35-.08.48c-.33.45-.35,0-.51-.26a8.6,8.6,0,0,0-.45-.85c-.21-.25-.58-.21-.83-.35s-.95-.64-1.06.16c0,.31.25.52.11.85a.85.85,0,0,1-.71.44c-.16.51,0,.76-.57,1-.29.11-.56,0-.81.3a2,2,0,0,0,.94,1.56c-.49.8,2.09,2.35,2.15,2.93s-.81.67-1.15,1c-.07.08-.26.11-.3.2-.09.24.21.64.11.82s-.33.07-.55.18c-.46.22-.53.89-.93,1.14s-1.45-1.09-1.2.65a7.53,7.53,0,0,1,0,2.55c-.17.92-.59.62-1,1.16a5.12,5.12,0,0,0-.35,1.24c-.14.44-.39.8-.52,1.24-.18,0-1.09-.88-1.11-1.28,0-.16.21-.48.26-.6-.47-1-.48-.18-.93-.1s-.73-.6-1.06-1a8.39,8.39,0,0,1-.51,1c-.28.37-.54.47-.73,1.08a7.38,7.38,0,0,0-.07,2.27,3.33,3.33,0,0,0,.39,1.66c.32.83,0,.64.08,1.36s1.09,1.72,1.36,2.69c.08.31,0,.52.08.78.21.61.95,1.29,1.08,1.92s-.45.47-.46,1.06c.5.5,2.5,2,1.9,2.66-.24.27-1.29-.24-1.74-.67a2,2,0,0,1-.66-1.62c-1-1-.37,1.06-1,1.14s-2.18-1.51-2.79-2.17c-1-1.07-.58-1.92-1.59-2.88a9.93,9.93,0,0,0-1.42-1.32,1.11,1.11,0,0,0-1.34.75c-.14.45,0,1.64-.21,1.93s-1-.26-1.23-.83.08-.71,0-1.34c-.16-1-1.1-1.85-1.35-2.83-.37-1.39.48-2.64.44-4,0-.85-.65-1.64-.55-2.59.07-.69.62-1.41,1-1.43a39.23,39.23,0,0,1-1.91-3.55c.31-.68,1-.75,1.44-.94a1.8,1.8,0,0,1,1.33,0c.24.06.55.29.72-.11-.25-.68-1-2.23-.77-3.17a1.75,1.75,0,0,1,.41-.7,5.15,5.15,0,0,1,.72-.56c.28-.52-.12-.83,0-1.52.16-1,.66-1.32.2-2.19a15.19,15.19,0,0,1-1.59,1.39c-.73.54-1-.4-1.18-1.63,0-.07.09-.12.13-.18-.18-.43-1.45,1.37-1.85,1.57-.91.45-1.26-.3-1.57-1.55-.75.85-2.15,1.45-2.64.81-.87-1.11-.71-3.18-.46-4.63,0-.28.29-.52.29-.81s-.35-.37-.46-.58a8.91,8.91,0,0,1-.42-2.4c-.08-.8-.25-1.43-.32-2.25a5.22,5.22,0,0,1,0-1.92c.25-.65.6-.79,1-1.17,1.13-1,1.09-2.5,1.22-3.91a12.83,12.83,0,0,0,1.47-1.08c.47-.5.08-.09.49-.78.73-1.24,1.37-1.76,2.08-3,.9-1.61,2.1-2.94,2.26-1.78s.33.68,1.75-.83c.41-.43.84-.75,1.19-1.12a11.22,11.22,0,0,1,1.92-2,3.63,3.63,0,0,1,2-.42,8.78,8.78,0,0,0,2.53-1.16c.7-.35.62,0,.86,0a1.88,1.88,0,0,0,.94-.09c1.48-2.3,3.92-4,6.08-5.48,1.62-1.15,3.42-3.35,5.64-3.24C952,504.59,951.12,505.14,951.58,505.28Z" transform="translate(-891.54 -472.31)"/></g><g class="cls-6"><path class="cls-7" d="M975.13,554.68c-.26.07-.68.69-.92,1-.42.49-1.62,1.49-1.55,1,.16-1.12,1.86-1.8,2.58-2.73a6.05,6.05,0,0,0,.78-2.29,10.71,10.71,0,0,1,.87-2.33c.51-1.11,1.2-2.72.77-3.9-.09-.25-.38-.9-.66-.6a10,10,0,0,0-.63,1.65c-.17.35-.32.66-.54.69s-.14-.28-.24-.29-.2.11-.35.2-.33.34-.45.15.19-1.47-.14-1.2c-.56.47-.71,1.52-1.12,2.19a1.85,1.85,0,0,1-.73.66c-.22,0-.07-.28-.27-.39s-1,.46-1.36.57c-.68.19-.77-.25-1.22-.5-.14-.08-.32,0-.34-.24s.15-.4.12-.59-.24-.2-.25-.49a4.22,4.22,0,0,1,0-.86c.08-.33.1-.3.34-.51a2.18,2.18,0,0,0,.68-.86c.44-.85.74-.81,1.27-1.24.18-.15.69-.54.67-.81-.28.27-.69.34-.54-.38,0-.19.26-.36.33-.55a1.46,1.46,0,0,0,.06-.71c-.31.06-.48.42-.59-.11a4.35,4.35,0,0,1,0-.89,2.26,2.26,0,0,0,0-.86c-.11-.43-.21-.87-.3-1.3l-.27.31c-.51-.91.22-2,.21-2.89a1.49,1.49,0,0,0-.73-1.2c-.17,0-.22.11-.39,0s-.25-.51-.42-.65c-.36-.31-.7,0-.64.54a3.3,3.3,0,0,0,.65,1.62c.09.14.39.54.35.79s-.27.24-.33.37c-.16.33,0,.85-.23,1.15-.32-.35-.43-.19-.6,0a1,1,0,0,0-.42-.21,7.25,7.25,0,0,0,.49-.67c-.32-.71-.62,0-.9-.61.06-.06.08-.19.15-.24-.23-.55-.39-.26-.72-.33-.18,0-.17-.13-.31-.28s-.12-.17-.4-.19c-.47,0-.81-.56-1.24-.69s-1.16-.33-1.25-.89a1.65,1.65,0,0,0,.09-.22c0-.11-.12-.18-.11-.28,0-.34.17-.14.35,0a3.78,3.78,0,0,0,.51.3c.19.07.37-.06.55-.07s.71,0,.51-.43c-.07-.17-.3-.19-.33-.41a.51.51,0,0,1,.24-.46c-.08-.32-.22-.42,0-.7s.3-.16.33-.41a1.28,1.28,0,0,0-1-.53c0-.58-1.85-.57-2.07-.86s.21-.62.28-.91c0-.07.1-.14.09-.2s-.31-.27-.32-.4.15-.15.24-.27,0-.64.12-.91,1.12.12.43-.73a4.75,4.75,0,0,1-.79-1.36c-.21-.54.11-.51.15-.93a4,4,0,0,0-.21-.76c-.07-.28-.06-.55-.13-.83a1.7,1.7,0,0,1,1,.33,1.11,1.11,0,0,1,.06.4c.57.39.3-.06.52-.25s.58.09.89.2a5.88,5.88,0,0,1-.07-.71,1.49,1.49,0,0,0,0-.8,4.45,4.45,0,0,0-.68-1.23,2.13,2.13,0,0,0-.74-.75c-.44-.34-.2-.34-.47-.69s-1.13-.57-1.59-1c-.14-.13-.16-.27-.29-.38-.3-.26-.91-.38-1.18-.68s.09-.39-.1-.7c-.42-.11-2-.26-1.86-.8,0-.22.76-.29,1.14-.2a1.21,1.21,0,0,1,.87.64c.87.21-.15-.68.15-.91a5,5,0,0,1,2.16.26c.87.25.92.83,1.76,1a6,6,0,0,0,1.18.25.69.69,0,0,0,.47-.83c-.07-.28-.53-.86-.51-1.08s.6-.17.92.05.18.4.44.7c.42.5,1.17.63,1.62,1.06.64.62.59,1.55,1,2.26.29.44.87.66,1.12,1.19a1.09,1.09,0,0,1,0,1.07c.71.44,1.48.76,2.15,1.27,0,.46-.3.72-.47,1a1.1,1.1,0,0,1-.72.41c-.14,0-.38,0-.34.29.35.28,1.23.86,1.42,1.43a1.06,1.06,0,0,1,0,.5,4.13,4.13,0,0,1-.21.53c0,.36.33.4.5.8.23.59.07.91.59,1.22a8.2,8.2,0,0,1,.4-1.24c.21-.52.68-.12,1.14.49,0,.05,0,.09,0,.13.24.18.33-1.19.48-1.42.33-.53.76-.25,1.32.32.13-.69.68-1.45,1.14-1.28.82.32,1.39,1.46,1.73,2.31.06.16,0,.37.1.52s.3.08.43.16a5.44,5.44,0,0,1,1,1.14c.3.4.59.67.89,1.08a3.48,3.48,0,0,1,.59,1,1.82,1.82,0,0,1-.16,1,3.32,3.32,0,0,0,.6,2.46,7.54,7.54,0,0,0-.43,1c-.09.42,0,.08,0,.57,0,.89-.17,1.37-.13,2.28,0,1.14-.18,2.22-.63,1.66s-.39-.25-.66,1c-.08.36-.21.66-.28,1a6.48,6.48,0,0,1-.38,1.66c-.3.58-.65.62-.93.86a5.69,5.69,0,0,0-1,1.42c-.26.41-.32.22-.46.27a1.25,1.25,0,0,0-.47.35A13.5,13.5,0,0,1,977,552c-.49,1.12-.75,2.86-2,3.51C975.1,555.19,975.41,554.61,975.13,554.68Z" transform="translate(-891.54 -472.31)"/></g><g class="cls-8"><path class="cls-7" d="M927.43,561c.25-.24,0-.7-.08-1-.11-.43-.24-1.51.54-1.46,1.22.07.16,2.07.36,2.64s1.14,1,1.6,1.22a2.52,2.52,0,0,1,1.23,1.5c.44,1,1.16,2.21,2.33,2.35.36,0,1.3.16,1.5-.23s-.33-.94-.4-1.37-.11-.58.19-.79.47,0,.63-.07.19-.23.33-.4.15-.45.52-.47,1,1,1.33.47-.46-1.51-.51-2a1.42,1.42,0,0,1,.3-1c.28-.22.41.05.8-.09.58-.21.81-1.11,1.2-1.53.67-.73,1.3-.65,2.17-1,.29-.11.48-.29.75-.24s.26.34.54.39.54-.14.9,0a3.27,3.27,0,0,1,.89.51c.26.27.2.27.09.62a1.78,1.78,0,0,0-.09,1.19c.2,1-.29,1.22-.73,2-.15.26-.6,1-.36,1.14.23-.43.82-.85,1.16-.18.08.18-.13.49-.09.69a.94.94,0,0,0,.42.61c.46-.3.47-.75,1-.4a2.9,2.9,0,0,1,.64.74c.23.36.16.46.56.75a13.11,13.11,0,0,1,1.21,1c.1-.17.2-.34.31-.5,1.38.43.5,2.21.84,3.08a1.76,1.76,0,0,0,1.59.91c.32-.06.36-.24.7-.16s.55.47.87.56c.68.2,1.25-.33,1-1a2.67,2.67,0,0,0-1.59-1.55c-.22-.11-.88-.37-.92-.66s.37-.44.42-.62c.12-.46-.51-.88-.19-1.4.73.14.83-.1,1-.44a2.89,2.89,0,0,0,.84-.07,9.51,9.51,0,0,0-.47,1.08c.89.6,1.07-.43,1.82.13-.06.11,0,.28-.14.39.64.51.79.07,1.39,0,.32-.05.34.06.65.17s.29.15.78,0c.84-.21,1.63.33,2.44.31s2.19,0,2.49.83a3.91,3.91,0,0,0-.09.39c0,.16.25.24.26.4,0,.56-.29.27-.64.16a5.67,5.67,0,0,0-1-.29c-.36,0-.66.24-1,.32s-1.25.22-.84.81c.17.23.58.17.66.49s-.2.6-.39.73c.15.44.4.56,0,1-.21.25-.55.31-.61.67a2.33,2.33,0,0,0,1.74.59c-.09.85,3.23.79,3.54,1.27s-.56,1-.79,1.41c0,.1-.24.2-.24.3s.44.46.39.66-.33.19-.53.36c-.42.37-.32,1-.68,1.31s-1.79-.38-1.16.94a3.59,3.59,0,0,1,.37,2.07c-.09.8-.59.65-1,1.18a4.8,4.8,0,0,0-.35,1c-.15.38-.42.7-.59,1.07-.2,0-1.17-.44-1.2-.74,0-.12.22-.41.28-.51-.56-.65-.53,0-1,.16s-.82-.25-1.21-.45a7.61,7.61,0,0,1-.51.87,3,3,0,0,0-.78.93,4.34,4.34,0,0,0-.17,1.57,1.47,1.47,0,0,0,.24,1.07c.24.52-.09.44-.13.92s.83,1.05.85,1.69c0,.21-.16.36-.14.54,0,.39.58.82.48,1.24s-.62.34-.86.74c.31.31,1.65,1.31.75,1.74a1.65,1.65,0,0,1-1.42-.43.76.76,0,0,1,0-1c-.65-.63-.8.71-1.43.79s-1.64-.81-2.05-1.17c-.67-.57,0-1.16-.84-1.6a4.39,4.39,0,0,0-1.22-.58,2.36,2.36,0,0,0-1.59.7c-.24.3-.36,1-.67,1.18a1,1,0,0,1-1.09-.26c-.18-.35.24-.43.26-.77,0-.58-.83-.83-1-1.32-.3-.82.82-1.58.75-2.37,0-.48-.7-.72-.65-1.27a1.77,1.77,0,0,1,.94-1.1c-.78-.51-1.78-.65-2.55-1.16.22-.46.94-.77,1.36-1a4.22,4.22,0,0,1,1.43-.51c.27,0,.66-.06.74-.34-.41-.26-1.57-.75-1.63-1.3,0-.2.12-.34.21-.52a5.8,5.8,0,0,1,.57-.6c.11-.37-.41-.34-.56-.72-.21-.55.16-.93-.67-1.09a9.41,9.41,0,0,1-1,1.38c-.54.59-1.2.31-1.84-.13,0-.05,0-.09,0-.13-.36-.09-.93,1.25-1.27,1.52a1.85,1.85,0,0,1-2.17.12,3.76,3.76,0,0,1-2.4,1.53,3.09,3.09,0,0,1-2.28-1.38c-.07-.11.07-.31-.07-.4s-.5.06-.71,0a6.11,6.11,0,0,1-1.54-.48c-.48-.18-1-.25-1.45-.41-.22-.08-.9-.26-1-.48s.12-.48.28-.77c.5-1-.61-1-1.31-1.39a4.92,4.92,0,0,0,.55-1c.06-.33,0-.06-.12-.38-.24-.58-.09-1-.49-1.53s-.64-1.43.38-1.42.82-.14.62-1c-.06-.26,0-.52-.08-.74-.12-.4-.48-.7-.39-1.15s.61-.81.89-1.15c.44-.54.32-.85.43-1.43.07-.4.32-.36.49-.5a1.47,1.47,0,0,0,.42-.54c-1.13-.58-1.89-1.94-2.61-2.93-.46-.63-2.25-1.43-1.59-2.39C926.84,560.85,927.17,561.21,927.43,561Z" transform="translate(-891.54 -472.31)"/></g><g class="cls-8"><path class="cls-7" d="M989.08,525.06c.09,0,.15-.12.19-.18s.29-.31.41-.13-.42.38-.52.52,0,.41,0,.55a.63.63,0,0,1-.12.52.93.93,0,0,0-.12.89c.05.09.18.32.3.29s.15-.22.23-.31.11-.12.2-.09.08.1.12.12.08,0,.14,0,.13,0,.19,0,0,.37.12.37.25-.35.36-.45a.41.41,0,0,1,.26-.09c.09,0,.06.1.15.16s.38,0,.53,0,.36.18.58.31c.07,0,.14.06.17.12s0,.12,0,.19.12.09.15.19a.9.9,0,0,1,0,.28c0,.1,0,.09-.12.12a.45.45,0,0,0-.27.18c-.18.2-.32.14-.56.17-.08,0-.31,0-.31.12s.32,0,.23.22-.12.05-.16.09a.23.23,0,0,0-.06.19c.14,0,.24,0,.25.16a.6.6,0,0,1-.05.26.52.52,0,0,0-.07.25c0,.15,0,.29,0,.43l.15,0c.14.37-.39.48-.53.7a.49.49,0,0,0,.07.5c.07,0,.11,0,.15.12s0,.2,0,.28a.21.21,0,0,0,.38.07.73.73,0,0,0,.07-.61c0-.06-.06-.25,0-.3s.16,0,.21,0,.1-.25.27-.27c.09.18.16.16.26.14a.87.87,0,0,0,.16.17,2.14,2.14,0,0,0-.32.08c0,.29.27.16.28.42,0,0-.07,0-.11,0,0,.22.12.18.24.3s0,.08.07.17,0,.08.13.17.19.41.33.58.38.47.24.68l-.1,0s0,.1,0,.13-.1,0-.14-.11a2,2,0,0,0-.1-.26c0-.09-.16-.1-.23-.16s-.26-.24-.31,0,0,.15,0,.22a.24.24,0,0,1-.23,0c-.07.11,0,.18-.21.17s-.16-.07-.25,0a.67.67,0,0,0,.16.48c-.2.12.37.83.32,1s-.31,0-.44.06-.09,0-.11,0,0,.17-.07.19-.1,0-.17-.05-.26.09-.4.07-.21-.46-.4-.1a1,1,0,0,1-.39.43c-.18.11-.24,0-.42,0a1,1,0,0,0-.28.1,3.26,3.26,0,0,0-.33,0s-.1-.33,0-.39a.39.39,0,0,1,.16,0c0-.23-.09-.12-.21-.2s-.08-.22-.1-.34a2.7,2.7,0,0,1-.28,0,.89.89,0,0,0-.33,0,1.2,1.2,0,0,0-.37.23c-.14.09-.12.09-.19.23s-.11,0-.22.12-.09.35-.23.47-.1,0-.14.06-.08.26-.19.31-.18-.08-.3-.07,0,.58-.26.45a.43.43,0,0,1-.14-.37c0-.12.1-.17.23-.18,0-.24-.29,0-.41-.18s-.09-.48-.09-.63.26-.2.21-.45a1.17,1.17,0,0,0-.08-.37.6.6,0,0,0-.41-.22c-.11,0-.27.08-.37.05a.27.27,0,0,1-.12-.28c0-.1.13,0,.21-.08s0-.31.12-.43.48-.09.64-.24,0-.27.16-.35a.51.51,0,0,1,.4,0c0-.26-.16-.5-.17-.75a1,1,0,0,1,.45.12,1.32,1.32,0,0,1,.35.23c.05,0,.12.13.19.1s-.1-.46,0-.57.09,0,.14,0a1.17,1.17,0,0,1,.23,0c.1,0,0-.15.06-.24s.23-.13.12-.33h-.47c-.21,0-.27-.21-.28-.42h0c0-.1-.42,0-.54,0s-.33-.22-.39-.45a1,1,0,0,1-.73-.27.83.83,0,0,1-.08-.72s.08,0,.08-.08-.1-.1-.13-.15a1.44,1.44,0,0,1-.15-.41c0-.13-.11-.25-.15-.39s-.1-.23-.07-.29.13-.06.22-.07c.29-.05.12-.31.08-.52a1,1,0,0,0,.3,0c.08,0,0,0,.07-.08s.2-.19.25-.36.2-.38.37-.16.16.16.33,0c0,0,.11-.09.14-.14s.08-.22.19-.28a.77.77,0,0,1,.4,0c.19,0,.23-.07.38-.15s.13,0,.19,0h.19a2.47,2.47,0,0,1,.2-1.06c.06-.2-.06-.72.26-.74C989,524.91,989,525,989.08,525.06Z" transform="translate(-891.54 -472.31)"/></g><g class="cls-8"><path class="cls-7" d="M998.53,512.7s.06,0,.07-.06.11-.11.15,0-.15.14-.18.19a.34.34,0,0,0,0,.2.27.27,0,0,1-.05.19.35.35,0,0,0,0,.33s.06.11.1.1.06-.08.09-.11,0,0,.07,0l0,0h.05s0,0,.07,0,0,.13,0,.13.09-.13.13-.17.07,0,.09,0,0,0,.06.06.14,0,.19,0,.14.06.22.11.05,0,.06,0,0,0,0,.06a.55.55,0,0,1,.06.08s0,.07,0,.1,0,0,0,0-.07,0-.1.07-.12.05-.21.06-.11,0-.11,0,.12,0,.09.08,0,0-.06,0a.09.09,0,0,0,0,.07c.06,0,.09,0,.1.05a.36.36,0,0,1,0,.1s0,0,0,.09v.16h0c.05.14-.14.17-.19.25a.18.18,0,0,0,0,.18s0,0,.06,0,0,.07,0,.1a.08.08,0,0,0,.14,0,.25.25,0,0,0,0-.22s0-.1,0-.12h.07c.05,0,0-.09.1-.1s.06.06.1,0,0,.05,0,.06l-.11,0c0,.11.1.06.1.15l0,0c0,.08,0,.06.09.1s0,0,0,.07,0,0,0,.06.07.15.12.21.14.17.09.25l0,0s0,0,0,0,0,0,0,0l0-.09s-.06,0-.09-.06-.09-.09-.11,0,0,0,0,.08a.08.08,0,0,1-.08,0s0,.07-.08.07-.06,0-.09,0a.21.21,0,0,0,.06.17c-.07.05.13.31.11.36s-.11,0-.16,0h0s0,.06,0,.07,0,0-.06,0-.1,0-.15,0-.08-.17-.14,0a.39.39,0,0,1-.15.16c-.06,0-.08,0-.15,0s-.07,0-.1,0l-.12,0a.19.19,0,0,1,0-.15h.06c0-.09,0,0-.08-.08s0-.08,0-.12-.07,0-.1,0h-.12c-.06,0-.09,0-.14.08s0,0-.07.08,0,0-.08,0,0,.13-.08.17l-.05,0s0,.1-.07.12-.07,0-.11,0,0,.21-.1.17a.22.22,0,0,1-.05-.14.1.1,0,0,1,.08-.07c0-.08-.1,0-.14-.06s0-.18,0-.23.1-.07.08-.17a.61.61,0,0,0,0-.13.2.2,0,0,0-.15-.08s-.1,0-.13,0a.12.12,0,0,1-.05-.11s.05,0,.08,0,0-.12,0-.16.18,0,.24-.09,0-.1.06-.12a.17.17,0,0,1,.14,0,2.61,2.61,0,0,1-.06-.27.3.3,0,0,1,.16,0,.46.46,0,0,1,.13.08s0,0,.07,0,0-.17,0-.21l.06,0h.08s0,0,0-.09.09,0,0-.11h-.17c-.08,0-.1-.08-.1-.16h0s-.16,0-.2,0-.12-.08-.14-.17a.38.38,0,0,1-.27-.09.32.32,0,0,1,0-.27l0,0s0,0,0-.06a.66.66,0,0,1-.05-.15s0-.09,0-.14,0-.09,0-.11,0,0,.08,0,.05-.11,0-.19.08,0,.11,0,0,0,0,0,.08-.07.1-.13.07-.14.13-.06.06.06.12,0,0,0,.05-.05,0-.08.07-.1.1,0,.15,0,.08,0,.14-.05,0,0,.06,0h.07a.88.88,0,0,1,.08-.39c0-.07,0-.26.09-.27S998.5,512.7,998.53,512.7Z" transform="translate(-891.54 -472.31)"/></g><g class="cls-8"><path class="cls-7" d="M966.3,502.44s.06-.05.07-.07.11-.11.15,0-.15.13-.18.18,0,.15,0,.21a.25.25,0,0,1-.05.18.36.36,0,0,0,0,.33s.06.11.11.1,0-.08.08-.11,0,0,.07,0,0,0,0,0h.05s0,0,.07,0,0,.13,0,.13.09-.13.13-.16a.18.18,0,0,1,.1,0s0,0,0,.06.14,0,.2,0,.13.07.21.12.05,0,.06,0,0,0,0,.07,0,0,.06.07,0,.07,0,.1,0,0,0,0a.23.23,0,0,0-.1.07c-.07.07-.12.05-.21.06s-.11,0-.11,0,.12,0,.09.08,0,0-.06,0a.09.09,0,0,0,0,.07c.06,0,.09,0,.1.06a.29.29,0,0,1,0,.09s0,0,0,.09v.16h0c.05.14-.14.18-.19.26a.17.17,0,0,0,0,.18s0,0,.05,0,0,.07,0,.11a.08.08,0,0,0,.14,0,.25.25,0,0,0,0-.22s0-.09,0-.11.06,0,.07,0,0-.09.1-.1.06.06.1,0a.2.2,0,0,0,.06.07l-.12,0c0,.11.1.06.1.16h0c0,.08,0,.07.09.11s0,0,0,.06,0,0,0,.06.07.15.12.21.14.17.09.25l0,0s0,0,0,0,0,0-.06,0a.32.32,0,0,0,0-.09s-.06,0-.09-.06-.09-.09-.11,0,0,.06,0,.08a.12.12,0,0,1-.08,0s0,.06-.08.06-.06,0-.09,0a.2.2,0,0,0,.06.17c-.07.05.13.31.11.36s-.11,0-.16,0h0s0,.07,0,.08,0,0-.06,0-.1,0-.15,0-.08-.16-.14,0a.43.43,0,0,1-.15.15c-.06,0-.08,0-.15,0s-.07,0-.1,0l-.12,0s0-.12,0-.14h.06c0-.08,0,0-.08-.07s0-.08,0-.13l-.1,0a.25.25,0,0,0-.12,0c-.06,0-.09.05-.14.08s0,0-.07.09,0,0-.08,0,0,.13-.08.17l-.05,0s0,.1-.07.12-.07,0-.11,0,0,.21-.1.17a.22.22,0,0,1,0-.14.08.08,0,0,1,.09-.06c0-.09-.11,0-.15-.07a.36.36,0,0,1,0-.23c0-.09.09-.07.07-.16a.58.58,0,0,0,0-.14.2.2,0,0,0-.15-.08s-.1,0-.13,0a.11.11,0,0,1,0-.1s0,0,.08,0,0-.12,0-.16.18,0,.24-.08,0-.1.06-.13a.14.14,0,0,1,.14,0c0-.1-.06-.19-.06-.28a.3.3,0,0,1,.16.05.57.57,0,0,1,.13.08s0,0,.07,0,0-.17,0-.21h.06s.08,0,.08,0,0-.06,0-.09.09,0,0-.12a1,1,0,0,1-.17,0c-.08,0-.1-.08-.1-.15h0s-.16,0-.2,0-.12-.08-.14-.16a.39.39,0,0,1-.27-.1.3.3,0,0,1,0-.26s0,0,0,0,0,0,0-.06a.39.39,0,0,1-.06-.15.84.84,0,0,0-.06-.14s0-.08,0-.11,0,0,.08,0,.05-.11,0-.19h.11s0,0,0,0,.08-.06.1-.13.07-.13.13,0,.06,0,.12,0,0,0,.05-.05,0-.08.07-.1a.38.38,0,0,1,.15,0c.07,0,.08,0,.14-.05s0,0,.07,0h.06a.88.88,0,0,1,.08-.39c0-.07,0-.26.09-.27S966.27,502.43,966.3,502.44Z" transform="translate(-891.54 -472.31)"/></g><g class="cls-8"><path class="cls-7" d="M963.75,515s0-.06-.06-.08-.1-.11,0-.15.12.17.17.21a.34.34,0,0,0,.2,0,.26.26,0,0,1,.18.07c.09.06.22.13.32.08s.12-.06.12-.1-.08-.06-.11-.1,0,0,0-.07,0,0,.05,0,0,0,0,0,0,0,0-.07.14,0,.14,0-.12-.11-.15-.15,0-.07,0-.09,0,0,.06,0,0-.14,0-.2.08-.12.13-.19,0-.06.05-.06h.07s0,0,.08,0h.1s0,0,0,0a.19.19,0,0,0,0,.1c.07.07,0,.12.05.21s0,.11,0,.12,0-.12.08-.08,0,0,0,.06a.11.11,0,0,0,.07,0c0-.05,0-.08.07-.08l.09,0s0,0,.09,0l.15,0v-.06c.14,0,.16.16.24.22a.17.17,0,0,0,.18,0s0,0,0,0,.07,0,.1,0a.07.07,0,0,0,0-.13c-.07-.06-.13,0-.22,0s-.09,0-.11,0,0,0,0-.07-.09,0-.09-.11.07-.05.07-.09l.06-.05a.5.5,0,0,0,0,.12c.11,0,.07-.09.16-.09s0,0,0,0,.07,0,.12-.07,0,0,.06,0,0,0,.07,0,.15-.06.22-.1.18-.12.26-.06,0,0,0,0,0,0,0,0,0,0,0,0l-.1,0s-.05.06-.07.08-.09.08,0,.11.06,0,.08,0a.08.08,0,0,1,0,.08s.06,0,0,.08,0,.06,0,.09a.18.18,0,0,0,.17,0c0,.08.32-.1.37-.08s0,.12,0,.17v0s.07,0,.07,0,0,0,0,.06,0,.09,0,.14-.18.07-.05.14a.36.36,0,0,1,.14.16c0,.07,0,.09,0,.15s0,.08,0,.11,0,.08,0,.12-.13,0-.14,0,0,0,0-.06,0,0-.08.07-.08,0-.12,0a.34.34,0,0,1,0,.1.43.43,0,0,0,0,.12.46.46,0,0,0,.07.14.16.16,0,0,0,.08.08s0,0,0,.08.12,0,.15.1,0,0,0,0,.09,0,.11.09,0,.06,0,.1.21,0,.16.11-.11.05-.14,0-.06,0-.06-.09,0,.1-.08.14-.18,0-.23,0-.06-.1-.16-.09h-.13a.25.25,0,0,0-.1.15s0,.1,0,.13a.12.12,0,0,1-.11,0s0,0,0-.08-.11,0-.16-.06,0-.18-.06-.24-.09,0-.12-.08a.23.23,0,0,1,0-.14c-.09,0-.18,0-.27,0s0-.12.06-.16a.28.28,0,0,1,.1-.12s0,0,0-.07-.17,0-.21,0,0,0,0-.06l0-.08s0,0-.09,0,0-.09-.11-.06a.47.47,0,0,1,0,.17c0,.08-.08.09-.16.09h0s0,.15,0,.19-.09.11-.18.12a.36.36,0,0,1-.12.26.29.29,0,0,1-.27,0s0,0,0,0,0,0-.06,0a.29.29,0,0,1-.16,0l-.14,0s-.09,0-.11,0,0,0,0-.08-.1-.06-.18-.05,0-.09,0-.11,0,0,0,0-.06-.08-.12-.1-.13-.09,0-.14.06-.06,0-.12,0,0-.05-.06-.07,0-.09-.08,0-.1,0-.14a.25.25,0,0,0,0-.15s0,0,0-.07a.11.11,0,0,0,0-.06.89.89,0,0,1-.38-.12c-.07,0-.26,0-.26-.12S963.74,515,963.75,515Z" transform="translate(-891.54 -472.31)"/></g><path class="cls-5" d="M982.82,553.4c1.33,0,4.87,1.9,5.23-.45.78.29,1.21,1.37,2.1,1.49.49.06,1.65-.69,2.05-.92.73-.42.2-1,1.18-.59.38.14.84,1.07,1.2,1.37.5-.39,1.62-.94,1.57.2,0,.61-1.24,1.4-1.69,1.68l.3.49c1-.19,1.9,1.92.79,2.53-1-.53-1.53-1.62-2.46-2.23s-.92-.36-1.78-.21a9.79,9.79,0,0,1-1.3.32c-.47.4-.78.51-.08,1.06s1-.08,1.73,0c1.12,0,3.09,1.69,2.79,3l-.24-.08c1,1.15-.26,2.7-1.8,1.58-.29-.21-.06-.57-.3-.9-.36-.49-1.25-1.55-1.84-1.7a5.2,5.2,0,0,0-2,.21c-.21.09-.46,0-.79.2s-.37.74-.72.91-2.1,0-2-1.06c.08-.87,1.3-.32,1.56-1.42.18-.79-1.12-.87-.21-1.59-1.06-.11-1.72-.69-2.71-.83-.74-.11-1.3.44-2,.06C982.35,555.18,984.13,555.15,982.82,553.4Z" transform="translate(-891.54 -472.31)"/><g class="cls-8"><path class="cls-7" d="M925.74,508.9l.31,0a1.13,1.13,0,0,1-.14.22A.24.24,0,0,1,925.74,508.9Z" transform="translate(-891.54 -472.31)"/><path class="cls-7" d="M939,502.9c-.82.27-.47,1-1.43.15-.79-.7-.51-1.25.29-1.8-.87-.17-2.25-.58-3.15-.24-.69.27-1.19,1.07-1.85,1.42-1.84,1-2.64-.33-2.24-2.15-.76.66-1.67,1.34-1.83,2.37s.54,1.91.24,2.93a4.23,4.23,0,0,1-3,3.27c.51-1-.62-1.13-.86-1.84a2.44,2.44,0,0,1,.63-2.36c.4-.38,1.67-.37,1.73-1.26s-1.25-1.34-1.94-1.27c-.22-1.29,1.26-1.62,2-2.37-.5-.56-1.56-1.21-1.9-1.9-.72-1.44.66-2.25,1.7-3.21a32.33,32.33,0,0,1,5-3.78,13.93,13.93,0,0,0,1.42-1,56.57,56.57,0,0,1,43.77-4.52c-.43.71-.45,1.8-1.27,2.4a4.3,4.3,0,0,0-1.75,0c-.44.14-1,.73-1.41.81-1.27.24-3.29-1-4.54-.21-.6.41-.37.88-1.16,1.18-1,.4-1.81-.16-1.58,1,.05.28.63.5.76.74.25.47.13,1,.21,1.22.25.65,1.05,1.25.33,2.08.15.12.28.37.44.49-.5.33-2.28,1.94-2.83,1.7-.91,1.17-3.14-1.7-4.36-2.16-.85.68-.37,1.6-.55,2.31-1.26-1.1-5.2-5.79-5.77-1.56-.13.93.11.95.74,1.68a20.54,20.54,0,0,1,1.42,2.11c.87,1.31,2.47,2.11,3.79,3.28.54-.32,3.93-1.19,2.59.22.27.14.41.47.74.57-.18.18-.26.57-.47.76.31.22,1.23.7,1.39,1.13s-.49.57-.37,1c.25.92,1.65,1.81.76,2.89-1.14-.87-.84-2.25-1.79-2.75-.05,0-.42.54-.46.53-.28-.08-1-.85-.85-.82-.5-.11-.6-.3-1,.28-.94-.67-1-2-1.9-2.66s-.92,0-1.82-.07a2.43,2.43,0,0,1,.14-.2c-.61-1-1.41-.17-2.17-.32a1.84,1.84,0,0,1-1.32-.87c-.18-.28.07-1-.21-1.18-2-1.47-1.3,2.65-1.68,3.23-1.25-.87-.16-2.08-1.18-2.49-.59-.24-3,.68-1.91-1.28a3.37,3.37,0,0,0-2.49.56c-.63.56-.52.21-.3,1.25s2.26,3.54,2,4.61c-.17.7-1,.69-1.19,1-.36.83.45,1.55.68,2.42.39,1.44-.25,1.75-1.33,2.77-.87-.84.14-1.4,0-2.26s-1-1.77-1.5-2.47c-.73-1.09-2.51-2.44-2.68-3.75-.14-1.11.75-1.06-.38-1.77A2.58,2.58,0,0,0,939,502.9Z" transform="translate(-891.54 -472.31)"/></g><g class="cls-8"><path class="cls-7" d="M922.68,565.08c-.88,1.19-2.43,3.11-1,4.6.81.84,1.33.25,2.13.58,1.49.61.59-.1,1.48,1,1.07,1.36,1.45,3,3,4.06a24.36,24.36,0,0,0,4.89,2c1.21.42,3,1.23,4.17.34.72-.53.79-.58.8-1.53,0-1.41-.61-1.25-1.5-1.48-1.75-.44-3.3,1-4.95-.29-.36-.28-.53-1-.79-1.32-1.13-1.34-2-1.67-1.3-3.42.42-.29,1.75-.69,2-1,.79-1.16-.3-.87-.06-1.89.4-1.7,2-2.28,1.49-4.32.63.55,1.2,1.17,1.81,1.74a12.57,12.57,0,0,1,2.07-2.3c.31,1-.85,2-.46,3.09.15.43,1.16,1.1,1.5,1.41,1.34-1,3.14-4.49,5-1.73-.35.22-.6.82-.95,1,.51.52,1,1.08,1.54,1.61-1.09,1.31-.38,3.16-.68,4.74-.5,2.63-.42,3.71,2.18,5.83,1-1.38,1.33-.11,2.09-.28s2.19-1.18,2.78-1,.7,2.56,1.88,3.31c1.65,1,1.17,0,2.58-.08,2-.11,4.45,3.85,6,2.26,2.47-2.46-3.28-2.07-3-4.48.13-1,1.87-.54,1.39-2.26-.37-1.33-2.07-1.15-3-1.73a6.76,6.76,0,0,1-2.19-2.5c-.44-1,.23-2.1-.14-3-.82-2.09-3.4-1.88-2.54-4.64.26-.83,1.25-2.48,2.35-2,.91.36.08,2.22,1.25,2.86,2.52-1.55,2,4.15,3.5,4.45s1.74-1.6,3-1.13a1.75,1.75,0,0,1,.28,3c1.42-.25,3.56.57,4.75-.67.91-.94.1-1.92,1.06-2.73,1,.67,2,3.73,3.61,3.47s.23-.77.73-1.44A11.58,11.58,0,0,0,972.5,568a4.61,4.61,0,0,0,0-4.17c-.46-1.14-2.32-3.11-1.41-4.24,1.38.77,1.51,2.57,2.85,3.58.32-1.1-.22-2.44-.18-3.34a6.27,6.27,0,0,0,2.1,1.41c1-1.91-.07-4.2,1-6.05a19.59,19.59,0,0,1,3.73-3.9c.94.9-.25.77-.47,1.61-.07.27-.53.75-.65,1.08s.41.78.29,1.08c-.44,1.09-1.37,1.85-1.35,3.15,0,1.49,1.14,2,1.5,3.26s-.68,2.66.54,3.46a5.51,5.51,0,0,0,.88-.5c.41.86-.3,1.21.3,2.06.21.28,1.4,0,1.88.69a7.39,7.39,0,0,1-2.18,2.54c-1,.72-2.4.85-3.21,1.77,2.08,2.26,4.06,4.87,6.61,2.25a3.09,3.09,0,0,1,1.12,1.18c-1.07.68-1.76,2.33,0,2.16,1-.1,1.25-2.33,2.29-.58a1.27,1.27,0,0,0-.19,2.19c-.68.88-1.62,1.7-2.39,2.54,1.8,2,2.47,2.84,4.84,2.22.86-.22.85-.91,1.93-.75.63.09,1,1.22,1.8,1.33a4.36,4.36,0,0,0,1.48-.21,56.44,56.44,0,0,1-81.34-12.94,3.87,3.87,0,0,1-.14-1.88c.34-1.69,2.35-3.6,3.7-4.83C919.4,566,921.55,563.05,922.68,565.08Z" transform="translate(-891.54 -472.31)"/><path class="cls-7" d="M922.68,565.08c-.88,1.19-2.43,3.11-1,4.6.81.84,1.33.25,2.13.58,1.49.61.59-.1,1.48,1,1.07,1.36,1.45,3,3,4.06a24.36,24.36,0,0,0,4.89,2c1.21.42,3,1.23,4.17.34.72-.53.79-.58.8-1.53,0-1.41-.61-1.25-1.5-1.48-1.75-.44-3.3,1-4.95-.29-.36-.28-.53-1-.79-1.32-1.13-1.34-2-1.67-1.3-3.42.42-.29,1.75-.69,2-1,.79-1.16-.3-.87-.06-1.89.4-1.7,2-2.28,1.49-4.32.63.55,1.2,1.17,1.81,1.74a12.57,12.57,0,0,1,2.07-2.3c.31,1-.85,2-.46,3.09.15.43,1.16,1.1,1.5,1.41,1.34-1,3.14-4.49,5-1.73-.35.22-.6.82-.95,1,.51.52,1,1.08,1.54,1.61-1.09,1.31-.38,3.16-.68,4.74-.5,2.63-.42,3.71,2.18,5.83,1-1.38,1.33-.11,2.09-.28s2.19-1.18,2.78-1,.7,2.56,1.88,3.31c1.65,1,1.17,0,2.58-.08,2-.11,4.45,3.85,6,2.26,2.47-2.46-3.28-2.07-3-4.48.13-1,1.87-.54,1.39-2.26-.37-1.33-2.07-1.15-3-1.73a6.76,6.76,0,0,1-2.19-2.5c-.44-1,.23-2.1-.14-3-.82-2.09-3.4-1.88-2.54-4.64.26-.83,1.25-2.48,2.35-2,.91.36.08,2.22,1.25,2.86,2.52-1.55,2,4.15,3.5,4.45s1.74-1.6,3-1.13a1.75,1.75,0,0,1,.28,3c1.42-.25,3.56.57,4.75-.67.91-.94.1-1.92,1.06-2.73,1,.67,2,3.73,3.61,3.47s.23-.77.73-1.44A11.58,11.58,0,0,0,972.5,568a4.61,4.61,0,0,0,0-4.17c-.46-1.14-2.32-3.11-1.41-4.24,1.38.77,1.51,2.57,2.85,3.58.32-1.1-.22-2.44-.18-3.34a6.27,6.27,0,0,0,2.1,1.41c1-1.91-.07-4.2,1-6.05a19.59,19.59,0,0,1,3.73-3.9c.94.9-.25.77-.47,1.61-.07.27-.53.75-.65,1.08s.41.78.29,1.08c-.44,1.09-1.37,1.85-1.35,3.15,0,1.49,1.14,2,1.5,3.26s-.68,2.66.54,3.46a5.51,5.51,0,0,0,.88-.5c.41.86-.3,1.21.3,2.06.21.28,1.4,0,1.88.69a7.39,7.39,0,0,1-2.18,2.54c-1,.72-2.4.85-3.21,1.77,2.08,2.26,4.06,4.87,6.61,2.25a3.09,3.09,0,0,1,1.12,1.18c-1.07.68-1.76,2.33,0,2.16,1-.1,1.25-2.33,2.29-.58a1.27,1.27,0,0,0-.19,2.19c-.68.88-1.62,1.7-2.39,2.54,1.8,2,2.47,2.84,4.84,2.22.86-.22.85-.91,1.93-.75.63.09,1,1.22,1.8,1.33a4.36,4.36,0,0,0,1.48-.21,56.44,56.44,0,0,1-81.34-12.94,3.87,3.87,0,0,1-.14-1.88c.34-1.69,2.35-3.6,3.7-4.83C919.4,566,921.55,563.05,922.68,565.08Z" transform="translate(-891.54 -472.31)"/></g><path class="cls-9" d="M928.72,523.3c1.29,1.5,2.49,2.87,4,.77a1.53,1.53,0,0,1,.89,1.43l-.3,2.07c.13.21,0,.82.49,1.18-.7,1.4-1.93.44-2.7-.4a2,2,0,0,0-.67.72c.34.21.58.8.92,1l-1.51,1.59c1,1.31,2.44,2.47,3.57,3.73-1.29,1.87-2,.13-3.05-.47.25,1.34-1.53,2.82-2.81,1.88s.38-2,.46-3.54c-.43,1.35-1.84,3.71-3.25,2.58s.34-2.67.14-4.29c-.23-1.91-.44-2.5.53-4.42A9.4,9.4,0,0,1,928.72,523.3Z" transform="translate(-891.54 -472.31)"/><g class="cls-10"><path class="cls-7" d="M929.78,548.58a1.13,1.13,0,0,1,.31-.24,1.34,1.34,0,0,1,.11.62A3,3,0,0,1,929.78,548.58Z" transform="translate(-891.54 -472.31)"/><path class="cls-7" d="M917.92,502.79a11.82,11.82,0,0,1-.22,1.88,15.45,15.45,0,0,1-1.65,2.25c-.88,1.42-3.14,3.77-1.31,5.25-.7,1.17-2.2,1.92-2.71,3.17-.34.82.14,1.78-.16,2.56-.22.56-.87.92-1.24,1.37a2.61,2.61,0,0,0-.23,3.43c.59.93,2,1.47,2.14,0,.12,1.51,1.14.91,1.84.1.13,1.23.93,1.58,1.79,1.13,1.26-.66,1.19-2,1.69-3.1-.08.94-.17,1.87.8,2.37a14.26,14.26,0,0,1,3.57-2.23c1.68-.8,1.12-.32,2.51.67.82-.87,2.56-2.81,3.49-1.18a18.85,18.85,0,0,1-2.51,2.19,14.6,14.6,0,0,1-1.18,1.18c-.5.36-1,.4-1.48.69-1.15.72-.72,1.24-1.27,2.27s-1.45,1.18-1.54,2.65c-.14,2.43.08,2.33-2.28,2.59-1.26.14-2.83,1.11-1.21,2.34,1.19.91,2.71-1,2.46,1-.07.59-.84.49-.68,1.31.12.62,1.26,1.1,1.76,1-.66,2.6,3,1.1,3.77,1.55,1,.58.54,1.62,1,2.38.9,1.49,2.19.81,3.41,1.09s2.84,2.16,3.43,3.2c.43.74.73,1.48-.09,2.07-.52.38-1.12-.12-1.74.24a7.91,7.91,0,0,0-1.9-2.09c-.93.57-.42,2,0,2.74-.39.42,2.5,4.65-.66,2.69-1.35.71,0,1.29.48,2.06.56.93.53,1.71,1.36,2.53-.4,2.05-2.48.85-3.5,0-.48-.38-.92-1.29-1.59-1.24s-1.17,1.08-1,1.67c-1.6-.39-4.32-4.77-4.72-1.42-.22,1.75,2.37,4-.23,3.52-1.23-.23-1.71-.81-2.58-.07a7.53,7.53,0,0,0-1.32,2c-.19.69.54,1.67-.41,1.81-.61.08-1-.81-1.59-.82-.17,1.05.85,1.81.84,2.76s-1.21,1.31-1.59,2.12A56.48,56.48,0,0,1,917.92,502.79Z" transform="translate(-891.54 -472.31)"/></g><path class="cls-11" d="M921,499.28a56.5,56.5,0,1,0,79.9,0A56.51,56.51,0,0,0,921,499.28Z" transform="translate(-891.54 -472.31)"/><path class="cls-12" d="M1022.55,537.8A41.53,41.53,0,1,1,981,495.87,41.73,41.73,0,0,1,1022.55,537.8Z" transform="translate(-891.54 -472.31)"/></g></g></svg>