<svg id="Слой_1" data-name="Слой 1" xmlns="http://www.w3.org/2000/svg" viewBox="0 0 78 78"><defs><style>.cls-1{fill:#333348;stroke:#b3b3b3;stroke-miterlimit:10;opacity:0;}.cls-2{opacity:0.81;}.cls-3{fill:#e6e6e6;}</style></defs><rect class="cls-1" x="0.5" y="0.5" width="77" height="77"/><g class="cls-2"><path class="cls-3" d="M956,550.88c.51-4.92,7.44-3.18,10.37-2.1a22.07,22.07,0,0,1,5.62,3.16,29.65,29.65,0,0,0,5,3.57c3.84,1.85,7.91.1,11.5-1.61a14.29,14.29,0,0,0,4.81-3.66,11.2,11.2,0,0,1,1.85-2,4.23,4.23,0,0,1,3.15-.55c4.71.62,9.23,3.22,12.71,6.35,1.43,1.29,3.56-.83,2.12-2.12a29.38,29.38,0,0,0-12.22-6.74c-2.21-.58-4.65-.94-6.77.15s-3,3.24-4.8,4.58a22.57,22.57,0,0,1-6.08,2.86,7.28,7.28,0,0,1-3.35.57,7.52,7.52,0,0,1-3.07-1.43c-1.87-1.29-3.52-2.86-5.47-4a23.66,23.66,0,0,0-6.61-2.75c-2.54-.62-5.35-1-7.81.12a6.74,6.74,0,0,0-3.94,5.61c-.2,1.92,2.8,1.9,3,0Z" transform="translate(-944.26 -521.72)"/></g><g class="cls-2"><path class="cls-3" d="M957.39,561.06c.51-4.92,7.44-3.18,10.37-2.09a21.61,21.61,0,0,1,5.62,3.16,30.6,30.6,0,0,0,5,3.56c3.85,1.85,7.92.11,11.5-1.61a14.32,14.32,0,0,0,4.82-3.66,11.15,11.15,0,0,1,1.84-2,4.25,4.25,0,0,1,3.16-.55c4.7.62,9.22,3.22,12.7,6.35,1.43,1.29,3.56-.83,2.12-2.12a29.28,29.28,0,0,0-12.21-6.74c-2.21-.57-4.66-.93-6.77.16s-3,3.23-4.81,4.57a22.13,22.13,0,0,1-6.08,2.86,7.28,7.28,0,0,1-3.35.57,7.52,7.52,0,0,1-3.07-1.43c-1.87-1.29-3.51-2.85-5.46-4a24.22,24.22,0,0,0-6.61-2.75c-2.54-.62-5.35-1-7.81.12a6.77,6.77,0,0,0-4,5.61c-.2,1.92,2.81,1.91,3,0Z" transform="translate(-944.26 -521.72)"/></g><g class="cls-2"><path class="cls-3" d="M957.39,571.06c.51-4.92,7.44-3.18,10.37-2.09a21.61,21.61,0,0,1,5.62,3.16,30.6,30.6,0,0,0,5,3.56c3.85,1.85,7.92.11,11.5-1.61a14.32,14.32,0,0,0,4.82-3.66,11.15,11.15,0,0,1,1.84-2,4.25,4.25,0,0,1,3.16-.55c4.7.62,9.22,3.22,12.7,6.35,1.43,1.29,3.56-.83,2.12-2.12a29.28,29.28,0,0,0-12.21-6.74c-2.21-.57-4.66-.93-6.77.16s-3,3.23-4.81,4.57a22.13,22.13,0,0,1-6.08,2.86,7.28,7.28,0,0,1-3.35.57,7.52,7.52,0,0,1-3.07-1.43c-1.87-1.29-3.51-2.85-5.46-4a24.22,24.22,0,0,0-6.61-2.75c-2.54-.62-5.35-1-7.81.12a6.77,6.77,0,0,0-4,5.61c-.2,1.92,2.81,1.91,3,0Z" transform="translate(-944.26 -521.72)"/></g></svg>