<svg xmlns="http://www.w3.org/2000/svg" xmlns:xlink="http://www.w3.org/1999/xlink" viewBox="0 0 136.36 136.36"><defs><style>.cls-1{isolation:isolate;}.cls-2{opacity:0.6;fill:url(#radial-gradient);}.cls-3{fill:#a9a9aa;}.cls-3,.cls-5,.cls-8{opacity:0.52;}.cls-4{fill:url(#radial-gradient-2);}.cls-5,.cls-7,.cls-9{fill:#fff;}.cls-6{opacity:0.5;}.cls-10,.cls-9{opacity:0.52;}.cls-11{mix-blend-mode:multiply;fill:url(#radial-gradient-3);}</style><radialGradient id="radial-gradient" cx="941.74" cy="396.14" r="68.07" gradientTransform="translate(1344.73 1486.51) rotate(-135)" gradientUnits="userSpaceOnUse"><stop offset="0.25" stop-color="#fff"/><stop offset="0.64" stop-color="#fff" stop-opacity="0.72"/><stop offset="0.73" stop-color="#fff" stop-opacity="0.5"/><stop offset="0.82" stop-color="#fff" stop-opacity="0.29"/><stop offset="0.9" stop-color="#fff" stop-opacity="0.13"/><stop offset="0.96" stop-color="#fff" stop-opacity="0.03"/><stop offset="1" stop-color="#fff" stop-opacity="0"/></radialGradient><radialGradient id="radial-gradient-2" cx="941.19" cy="394.91" r="56.41" gradientTransform="translate(617.95 1503.95) rotate(-93.27)" gradientUnits="userSpaceOnUse"><stop offset="0" stop-color="#787979"/><stop offset="0.79" stop-color="#a6a6a7"/><stop offset="0.84" stop-color="#a9a9aa"/><stop offset="0.94" stop-color="#d7d7d7"/><stop offset="1" stop-color="#f3f3f3"/></radialGradient><radialGradient id="radial-gradient-3" cx="925.06" cy="410.78" r="78.05" gradientTransform="translate(1344.73 1486.51) rotate(-135)" gradientUnits="userSpaceOnUse"><stop offset="0.55" stop-color="#121211"/><stop offset="0.6" stop-color="#181817"/><stop offset="0.66" stop-color="#282827"/><stop offset="0.72" stop-color="#434342"/><stop offset="0.79" stop-color="#686867"/><stop offset="0.87" stop-color="#989897"/><stop offset="0.94" stop-color="#d1d1d1"/><stop offset="1" stop-color="#fff"/></radialGradient></defs><g class="cls-1"><g id="Слой_1" data-name="Слой 1"><path class="cls-2" d="M911.51,492.28a68.18,68.18,0,1,1,0,96.43A68.17,68.17,0,0,1,911.51,492.28Z" transform="translate(-891.54 -472.31)"/><circle class="cls-3" cx="958.46" cy="541.75" r="56.41" transform="translate(-1008.98 303.03) rotate(-41.73)"/><circle class="cls-4" cx="958.46" cy="541.75" r="56.41" transform="translate(-1008.98 303.03) rotate(-41.73)"/><path class="cls-5" d="M998.35,581.64h0c.58-1,.69-2.29-.47-2.85s-1.06.3-2,.58c-1.7.52-.82-1.34-2-2.12a2.24,2.24,0,0,0-1.07,2,3.57,3.57,0,0,1-.91-1.05c-.88-1.46-1.51-2.89-3-4-2.68-2-.34,1.41-.11,2.4a3.38,3.38,0,0,0-3.06-.09c-1.35.69-1,.91-2.48.32-1.06-.41-1.88-.76-2.57.59-.47.94,0,2-.57,2.93-1-.87-1.91-2.5-3.21-2.63a1.59,1.59,0,0,0-1.29,2.77c-.63.81-1.71,1.75-2.5.6l-.27.27c1.82,2-1.94,1.38-2.14,1.94s.78,1,.83,1.33c.07.57-.34.44-.46.92a4.21,4.21,0,0,1-1.41,2.48,3.33,3.33,0,0,1-.46-.24c1.2-3.21-1.82-3.55-3.69-4.64-.33-.2-.46.15-.79-.21-.56-.6-.52-1.68-1-2.36a1.63,1.63,0,0,0-2.44-.69c-.64.28-1.17.91-1.78,1-1,.11-1.17-.75-2-1.18-1.47-.79-2.43-.2-3.54,1,1.19,1.28,2.47,2.5,3.71,3.72-.61-.48-1.21-.07-1.63.51.54.61,1.28,1.14,1.76,1.79.77,1.06.73.79-.16,1.46-.48.36-2.14.53-1.62,1.51a.92.92,0,0,0,1.47.1c.6.74,1.24.07,2,.38s.71,1.35,1,1.66c1.24,1.25,3.95,1.32,1.58,3.1-1.19-.68-1.84-1.45-3.12-1.75a7.83,7.83,0,0,1-3.52-1.31c-1.24-1-1.14-3.08-2.6-3.78-.57-.28-1-.52-1.62.1-.83.78,0,1,.78,1.85-2.14,2,1.47,2.32.38,3.66.55,1,1.6.29,2.41.72,1.19.62,1.23,2.37,1.7,3.75A56.26,56.26,0,0,0,998.35,581.64Z" transform="translate(-891.54 -472.31)"/><path class="cls-5" d="M956.8,598.13l-.72-3.5c1.14,0,2,2,2.49,2.84-.26.17-.63.54-.81.68h0a2.65,2.65,0,0,1,.63-.19,1,1,0,0,0,0,.2h.91l.48-.29a1.6,1.6,0,0,0,.25.27c1.09,0,2.18-.09,3.26-.19a4.29,4.29,0,0,1-.6-1c-.1-.25-.4-.44-.45-.72s.51-.58.46-.81c-.37-1.54-1.84-1.53-2.93-2.23-.73-.46-1.3-1.47-2-2-.88-.72-1.28-.75-1.62-1.92a4.69,4.69,0,0,0-1.42,1,7.33,7.33,0,0,0-1.92-1.89c-.28-.21-.77-.79-1-.86-.74-.2-1.34.52-2,0-1.13.6-1.49-.3-2.49-.54-.83-.2-1.49.54-2.11.25,1.62-1.6,2.33-2.22,1-4.57-1-1.65-1.28-1.48-2.67-.78-1.3-.55-1.75,1.14-3.18,0-.17.29-.62.68-.77,1-1.15-1.41-3.34-1.64-4.4-3.31a13.46,13.46,0,0,0-2.59,1.57c1,1.64,1.27,2.3.86,4.18a5,5,0,0,1-1.32-1.05c1.61-.58-.11-2.78-.55-3.69-.83-1.75-.75-1.63.49-2.68-.4-.78-2-2.39-2-3.27s1-.89,1-1.82c.13-1.75-1.53-1.54,0-2.85,1-.83,2.38-.65,3.23-1.33-1.19-1.55,2-2.37,3-2.86a9.2,9.2,0,0,0,3.38-3,6.16,6.16,0,0,0,.6-2.84,10.23,10.23,0,0,1-.14-1.33c0-.14.58-.57.66-.87s-.21-.82-.18-1.18.38-.7.43-1.17c.23-2.37-1.6-5.82-2.85-7.74.52,1.31.3,3.88.47,5.42.14,1.3.06,1.79-1.68,2.29-3,.85-4.26-2.72-6.83-2.43-3.58.42-.91,6.1-4,6.31-1,.06-1.13-.84-1.64-1.27a2.58,2.58,0,0,0-3.56-.12,1.47,1.47,0,0,1,.1.22c-1.58.2-2.31-3.42-4.38-3.5,1.21,2.09.58,2.33-1.17,3.32a4.69,4.69,0,0,0,.92,1.68c-1.12-.84-1.85-.29-1.84,1s1.3,2.46,1.69,3.63c-1,.61-1.58-1.06-2.49-.19.89,2.7,3.41,6,5.29,8.16a4.19,4.19,0,0,1-.43.91c-2.58-.24-5.21,1.77-4.8,4.41q1.75,2.14,3.76,4.15A56.21,56.21,0,0,0,956.8,598.13Z" transform="translate(-891.54 -472.31)"/><g class="cls-6"><path class="cls-7" d="M924.51,532.35c.12.42-.39,1.51-.58,2.09-.32,1-.71,3.48,0,2.94,1.42-1.15.92-4.07,1.62-5.84a9.85,9.85,0,0,1,2.52-3,18.13,18.13,0,0,0,2.5-3.15c1.1-1.64,2.76-3.95,4.75-4.33.43-.09,1.57-.22,1.38.41s-1.28,1.54-1.75,2.25c-.35.53-.65,1-.51,1.33s.51,0,.61.09,0,.37,0,.66c0,.44-.19.73.18.74s1.88-1.49,1.77-.8c-.18,1.17-1.51,2.25-2.09,3.37a3.07,3.07,0,0,0-.31,1.56c.15.35.46-.13.77.05s.18,1.73.35,2.36c.3,1.11,1,.86,1.7,1.27.24.14.34.4.63.28s.42-.55.72-.66.47.16.89-.07a6.31,6.31,0,0,0,1.14-.79c.39-.39.34-.39.43-.88a3.48,3.48,0,0,1,.62-1.67c.8-1.32.5-1.7.65-2.8,0-.37.17-1.4.56-1.6-.13.61.11,1.24,1,.42.23-.21.28-.65.49-.91a2.38,2.38,0,0,1,.93-.68c.18.48-.19,1,.64.73a7.32,7.32,0,0,0,1.24-.72,3.61,3.61,0,0,1,1.21-.71l2-.68c-.07.22-.13.43-.2.64,1.69-.06,2.56-2,3.82-2.72a2.43,2.43,0,0,1,2.27,0c.18.23,0,.4.38.52s.92-.08,1.27,0c.72.24.57,1-.22,1.34a5.35,5.35,0,0,1-2.78.45c-.28,0-1.08-.08-1.39.17s-.11.58-.24.77c-.32.5-1.22.64-1.4,1.29.74.15.62.43.48.83a1.72,1.72,0,0,1,.65.41,10.37,10.37,0,0,1,.51-1.23c1.26-.17.52.85,1.6.72,0-.12.19-.27.22-.4.94-.14.67.32,1.05.72.21.21.32.12.64.2s.34,0,.6.39c.45.61,1.45.65,2,1.14s1.42,1.34,2.27,1c0,0,.17-.25.24-.3s.35,0,.48-.08c.44-.33,0-.35-.26-.51a7.61,7.61,0,0,1-.85-.45c-.25-.21-.21-.58-.36-.83s-.63-1,.17-1.06c.31,0,.52.25.85.11a.82.82,0,0,0,.43-.7c.52-.17.77-.06,1-.58.11-.29,0-.56.3-.81a2,2,0,0,1,1.56,1c.8-.5,2.34,2.08,2.93,2.14s.67-.81,1-1.15c.08-.07.1-.26.19-.3.25-.09.64.21.83.11s.07-.33.17-.55c.23-.46.89-.53,1.15-.92s-1.09-1.45.65-1.21a7.53,7.53,0,0,0,2.55,0c.92-.16.61-.58,1.16-1a5.32,5.32,0,0,1,1.24-.35c.43-.14.79-.38,1.24-.52,0-.18-.88-1.09-1.28-1.11a1.86,1.86,0,0,0-.61.27c-1-.48-.17-.48-.09-.94s-.61-.73-1-1.06a8.39,8.39,0,0,0,1-.51c.37-.28.47-.54,1.08-.73a7.37,7.37,0,0,1,2.27-.07,3.35,3.35,0,0,1,1.66.39c.83.32.64,0,1.35.08s1.73,1.09,2.7,1.36c.31.08.51,0,.78.08.6.21,1.29.95,1.92,1.08.78.16.47-.45,1.06-.46.5.5,2,2.5,2.66,1.9.27-.24-.24-1.28-.68-1.74a2,2,0,0,0-1.61-.66c-1-1,1.06-.36,1.13-1s-1.5-2.18-2.16-2.79c-1.07-1-1.93-.58-2.88-1.59a9.93,9.93,0,0,1-1.32-1.42,1.1,1.1,0,0,1,.75-1.34c.45-.14,1.64,0,1.93-.21s-.27-1-.84-1.23-.71.08-1.33,0c-1-.16-1.85-1.1-2.83-1.35-1.39-.37-2.65.48-4,.44-.86,0-1.64-.65-2.59-.55-.7.07-1.42.63-1.44,1a35.67,35.67,0,0,0-3.54-1.92c-.69.32-.76,1-.94,1.44a1.83,1.83,0,0,0,0,1.34c.06.23.29.55-.11.71-.68-.25-2.23-1-3.17-.77a1.66,1.66,0,0,0-.7.42,4.62,4.62,0,0,0-.56.72c-.52.27-.83-.13-1.52,0-1,.17-1.32.67-2.19.21a16.35,16.35,0,0,0,1.39-1.6c.54-.72-.4-1-1.63-1.18-.07,0-.12.09-.18.13-.44-.18,1.37-1.45,1.57-1.85.45-.91-.3-1.26-1.55-1.57.85-.75,1.44-2.14.81-2.64-1.11-.87-3.18-.7-4.64-.46-.27.05-.51.29-.8.29s-.37-.35-.59-.46a8.9,8.9,0,0,0-2.39-.42c-.8-.08-1.43-.25-2.25-.32a5.45,5.45,0,0,0-1.92,0c-.65.26-.79.6-1.17,1-1,1.14-2.5,1.09-3.92,1.22a13.73,13.73,0,0,1-1.07,1.48c-.51.46-.09.07-.78.48-1.24.74-1.76,1.37-3,2.08-1.62.9-2.94,2.11-1.79,2.26,1.31.18.68.33-.82,1.75-.43.41-.75.84-1.12,1.19a10.92,10.92,0,0,0-2,1.93,3.59,3.59,0,0,0-.42,2,9.06,9.06,0,0,1-1.16,2.53c-.35.7,0,.62,0,.86a2,2,0,0,1-.09.94c-2.3,1.48-4,3.93-5.48,6.08-1.15,1.62-3.35,3.42-3.25,5.64C923.82,532.81,924.37,531.89,924.51,532.35Z" transform="translate(-891.54 -472.31)"/></g><g class="cls-6"><path class="cls-7" d="M924.51,532.35c.12.42-.39,1.51-.58,2.09-.32,1-.71,3.48,0,2.94,1.42-1.15.92-4.07,1.62-5.84a9.85,9.85,0,0,1,2.52-3,18.13,18.13,0,0,0,2.5-3.15c1.1-1.64,2.76-3.95,4.75-4.33.43-.09,1.57-.22,1.38.41s-1.28,1.54-1.75,2.25c-.35.53-.65,1-.51,1.33s.51,0,.61.09,0,.37,0,.66c0,.44-.19.73.18.74s1.88-1.49,1.77-.8c-.18,1.17-1.51,2.25-2.09,3.37a3.07,3.07,0,0,0-.31,1.56c.15.35.46-.13.77.05s.18,1.73.35,2.36c.3,1.11,1,.86,1.7,1.27.24.14.34.4.63.28s.42-.55.72-.66.47.16.89-.07a6.31,6.31,0,0,0,1.14-.79c.39-.39.34-.39.43-.88a3.48,3.48,0,0,1,.62-1.67c.8-1.32.5-1.7.65-2.8,0-.37.17-1.4.56-1.6-.13.61.11,1.24,1,.42.23-.21.28-.65.49-.91a2.38,2.38,0,0,1,.93-.68c.18.48-.19,1,.64.73a7.32,7.32,0,0,0,1.24-.72,3.61,3.61,0,0,1,1.21-.71l2-.68c-.07.22-.13.43-.2.64,1.69-.06,2.56-2,3.82-2.72a2.43,2.43,0,0,1,2.27,0c.18.23,0,.4.38.52s.92-.08,1.27,0c.72.24.57,1-.22,1.34a5.35,5.35,0,0,1-2.78.45c-.28,0-1.08-.08-1.39.17s-.11.58-.24.77c-.32.5-1.22.64-1.4,1.29.74.15.62.43.48.83a1.72,1.72,0,0,1,.65.41,10.37,10.37,0,0,1,.51-1.23c1.26-.17.52.85,1.6.72,0-.12.19-.27.22-.4.94-.14.67.32,1.05.72.21.21.32.12.64.2s.34,0,.6.39c.45.61,1.45.65,2,1.14s1.42,1.34,2.27,1c0,0,.17-.25.24-.3s.35,0,.48-.08c.44-.33,0-.35-.26-.51a7.61,7.61,0,0,1-.85-.45c-.25-.21-.21-.58-.36-.83s-.63-1,.17-1.06c.31,0,.52.25.85.11a.82.82,0,0,0,.43-.7c.52-.17.77-.06,1-.58.11-.29,0-.56.3-.81a2,2,0,0,1,1.56,1c.8-.5,2.34,2.08,2.93,2.14s.67-.81,1-1.15c.08-.07.1-.26.19-.3.25-.09.64.21.83.11s.07-.33.17-.55c.23-.46.89-.53,1.15-.92s-1.09-1.45.65-1.21a7.53,7.53,0,0,0,2.55,0c.92-.16.61-.58,1.16-1a5.32,5.32,0,0,1,1.24-.35c.43-.14.79-.38,1.24-.52,0-.18-.88-1.09-1.28-1.11a1.86,1.86,0,0,0-.61.27c-1-.48-.17-.48-.09-.94s-.61-.73-1-1.06a8.39,8.39,0,0,0,1-.51c.37-.28.47-.54,1.08-.73a7.37,7.37,0,0,1,2.27-.07,3.35,3.35,0,0,1,1.66.39c.83.32.64,0,1.35.08s1.73,1.09,2.7,1.36c.31.08.51,0,.78.08.6.21,1.29.95,1.92,1.08.78.16.47-.45,1.06-.46.5.5,2,2.5,2.66,1.9.27-.24-.24-1.28-.68-1.74a2,2,0,0,0-1.61-.66c-1-1,1.06-.36,1.13-1s-1.5-2.18-2.16-2.79c-1.07-1-1.93-.58-2.88-1.59a9.93,9.93,0,0,1-1.32-1.42,1.1,1.1,0,0,1,.75-1.34c.45-.14,1.64,0,1.93-.21s-.27-1-.84-1.23-.71.08-1.33,0c-1-.16-1.85-1.1-2.83-1.35-1.39-.37-2.65.48-4,.44-.86,0-1.64-.65-2.59-.55-.7.07-1.42.63-1.44,1a35.67,35.67,0,0,0-3.54-1.92c-.69.32-.76,1-.94,1.44a1.83,1.83,0,0,0,0,1.34c.06.23.29.55-.11.71-.68-.25-2.23-1-3.17-.77a1.66,1.66,0,0,0-.7.42,4.62,4.62,0,0,0-.56.72c-.52.27-.83-.13-1.52,0-1,.17-1.32.67-2.19.21a16.35,16.35,0,0,0,1.39-1.6c.54-.72-.4-1-1.63-1.18-.07,0-.12.09-.18.13-.44-.18,1.37-1.45,1.57-1.85.45-.91-.3-1.26-1.55-1.57.85-.75,1.44-2.14.81-2.64-1.11-.87-3.18-.7-4.64-.46-.27.05-.51.29-.8.29s-.37-.35-.59-.46a8.9,8.9,0,0,0-2.39-.42c-.8-.08-1.43-.25-2.25-.32a5.45,5.45,0,0,0-1.92,0c-.65.26-.79.6-1.17,1-1,1.14-2.5,1.09-3.92,1.22a13.73,13.73,0,0,1-1.07,1.48c-.51.46-.09.07-.78.48-1.24.74-1.76,1.37-3,2.08-1.62.9-2.94,2.11-1.79,2.26,1.31.18.68.33-.82,1.75-.43.41-.75.84-1.12,1.19a10.92,10.92,0,0,0-2,1.93,3.59,3.59,0,0,0-.42,2,9.06,9.06,0,0,1-1.16,2.53c-.35.7,0,.62,0,.86a2,2,0,0,1-.09.94c-2.3,1.48-4,3.93-5.48,6.08-1.15,1.62-3.35,3.42-3.25,5.64C923.82,532.81,924.37,531.89,924.51,532.35Z" transform="translate(-891.54 -472.31)"/></g><g class="cls-6"><path class="cls-7" d="M973.91,555.9c.07-.26.69-.68,1-.92.49-.42,1.49-1.62,1-1.55-1.13.16-1.8,1.87-2.73,2.58a6.32,6.32,0,0,1-2.29.79,10.27,10.27,0,0,0-2.34.86c-1.1.52-2.72,1.21-3.9.78-.25-.1-.89-.39-.59-.66a9.17,9.17,0,0,1,1.65-.64c.35-.16.65-.32.69-.54s-.29-.14-.29-.24.11-.2.2-.35.34-.32.15-.45-1.48.19-1.2-.14c.47-.56,1.52-.71,2.18-1.12.23-.14.65-.55.67-.73s-.29-.07-.39-.27.46-1,.57-1.36c.19-.68-.25-.77-.5-1.21-.08-.15-.05-.32-.24-.35s-.4.15-.59.12-.2-.24-.5-.25a4.16,4.16,0,0,0-.85,0c-.33.08-.31.1-.51.34a2.26,2.26,0,0,1-.86.68c-.85.44-.81.74-1.24,1.27-.15.18-.54.69-.81.67.27-.28.34-.69-.39-.54-.18,0-.35.26-.55.33a1.6,1.6,0,0,1-.71.07c.07-.32.43-.49-.1-.6a4.36,4.36,0,0,0-.89,0,2.26,2.26,0,0,1-.86,0l-1.3-.3.31-.27c-.91-.51-2,.23-2.89.22a1.48,1.48,0,0,1-1.2-.74c0-.17.11-.22,0-.39s-.51-.25-.65-.42c-.31-.36,0-.7.54-.64a3.36,3.36,0,0,1,1.61.65c.15.09.55.39.79.35s.25-.27.38-.33c.33-.16.85.06,1.15-.23-.35-.32-.19-.43,0-.6a.93.93,0,0,1-.21-.42,7.25,7.25,0,0,1-.67.49c-.72-.31,0-.62-.61-.89-.06,0-.19.08-.25.14-.54-.23-.25-.39-.32-.72,0-.17-.13-.17-.28-.31s-.17-.12-.19-.4c0-.47-.56-.81-.69-1.24s-.33-1.16-.89-1.24c0,0-.17.08-.23.08s-.17-.12-.27-.11c-.34,0-.14.17,0,.35a3.78,3.78,0,0,1,.3.51c.07.19-.07.37-.07.55s0,.71-.43.51c-.18-.07-.19-.3-.41-.33a.53.53,0,0,0-.46.24c-.32-.08-.42-.22-.7,0s-.16.3-.41.33a1.28,1.28,0,0,1-.53-1c-.58,0-.58-1.85-.86-2.07s-.62.21-.92.28c-.06,0-.14.11-.2.1s-.27-.32-.39-.33-.15.16-.28.24-.64,0-.9.12.12,1.12-.73.43a4.75,4.75,0,0,0-1.36-.79c-.54-.21-.51.11-.93.15a2.9,2.9,0,0,1-.76-.21c-.28-.07-.55,0-.83-.12a1.7,1.7,0,0,0,.33,1,1.11,1.11,0,0,0,.4.06c.39.57-.06.3-.25.52s.09.58.2.89a5.88,5.88,0,0,0-.71-.07,1.63,1.63,0,0,1-.81.05,4.72,4.72,0,0,1-1.22-.69,2,2,0,0,1-.75-.74c-.34-.43-.34-.2-.7-.47s-.56-1.13-1-1.58c-.13-.15-.27-.16-.38-.3-.26-.3-.39-.91-.68-1.18s-.39.09-.7-.1c-.11-.42-.26-2-.8-1.85-.23,0-.29.75-.2,1.14a1.19,1.19,0,0,0,.64.86c.21.87-.68-.15-.91.15s.1,1.63.25,2.17c.26.86.84.91,1,1.75a6.11,6.11,0,0,1,.25,1.18.69.69,0,0,1-.83.47c-.28-.07-.86-.53-1.08-.5s-.17.59,0,.91.4.19.7.44c.51.42.63,1.17,1.07,1.62.62.64,1.55.59,2.26,1,.44.28.66.86,1.19,1.11a1.09,1.09,0,0,0,1.07,0c.44.71.76,1.48,1.27,2.15.46,0,.72-.3,1-.47a1.1,1.1,0,0,0,.41-.72c0-.14,0-.38.28-.34.29.35.87,1.23,1.44,1.42a1.06,1.06,0,0,0,.5,0,3,3,0,0,0,.53-.21c.36,0,.4.33.8.5.59.23.91.07,1.22.59a8.2,8.2,0,0,0-1.24.4c-.52.21-.13.68.49,1.14a.3.3,0,0,0,.13,0c.17.24-1.19.33-1.42.48-.53.34-.25.76.32,1.33-.69.12-1.46.67-1.28,1.14.31.81,1.46,1.39,2.31,1.72.16.06.37,0,.52.11s.08.3.16.42a5.63,5.63,0,0,0,1.13,1c.4.3.68.59,1.09.89a3.36,3.36,0,0,0,1,.59,1.64,1.64,0,0,0,1-.16,3.36,3.36,0,0,1,2.46.6,7.06,7.06,0,0,1,1-.43c.42-.09.07,0,.57,0,.89,0,1.37-.16,2.27-.13,1.14,0,2.23-.18,1.67-.63s-.25-.39,1-.66c.36-.08.67-.2,1-.27a7.17,7.17,0,0,0,1.66-.39c.58-.3.62-.65.86-.93a5.51,5.51,0,0,1,1.42-1c.41-.26.22-.32.27-.46a1.25,1.25,0,0,1,.35-.47,13.39,13.39,0,0,0,4.84-1.46c1.13-.49,2.87-.74,3.52-2C974.42,555.87,973.83,556.18,973.91,555.9Z" transform="translate(-891.54 -472.31)"/></g><g class="cls-8"><path class="cls-7" d="M980.18,508.2c-.25.25-.7,0-.95-.08-.43-.11-1.51-.24-1.46.54.07,1.22,2.06.17,2.64.37s1,1.13,1.21,1.59a2.51,2.51,0,0,0,1.51,1.23c1,.44,2.21,1.16,2.35,2.33,0,.37.16,1.3-.23,1.5s-1-.32-1.37-.4-.58-.11-.79.19,0,.47-.08.63-.22.2-.39.33-.45.15-.47.52,1,1,.47,1.33-1.51-.46-2-.51a1.4,1.4,0,0,0-1,.3c-.23.28,0,.42-.1.8-.2.58-1.1.81-1.52,1.2-.73.67-.65,1.3-1,2.18-.11.28-.29.47-.24.74s.33.26.39.54-.14.54,0,.9a3,3,0,0,0,.51.89c.26.26.27.2.62.09a1.7,1.7,0,0,1,1.18-.08c1,.19,1.22-.3,2-.74.27-.15,1-.6,1.15-.36-.43.23-.85.82-.18,1.16.17.09.48-.13.69-.09a.94.94,0,0,1,.61.42c-.31.46-.75.47-.4,1a2.53,2.53,0,0,0,.73.64c.37.23.46.16.76.56a11.8,11.8,0,0,0,1,1.22c-.17.09-.34.2-.5.3.43,1.38,2.21.51,3.08.84a1.77,1.77,0,0,1,.91,1.59c-.06.32-.24.37-.16.7s.47.55.56.87c.2.68-.33,1.25-1,1a2.65,2.65,0,0,1-1.55-1.59c-.11-.21-.37-.88-.66-.91s-.44.36-.62.41c-.47.12-.88-.5-1.4-.19.14.73-.1.83-.44,1a2.86,2.86,0,0,1-.07.83c.32-.18.73-.31,1.08-.47.6.89-.43,1.07.13,1.82.1-.06.28,0,.39-.14.51.64.07.79,0,1.39-.05.33.06.35.17.65s.15.29,0,.78c-.2.84.34,1.63.32,2.44s-.05,2.19.83,2.49c0,0,.3-.1.38-.09s.25.26.41.26c.56,0,.27-.29.16-.63a6.06,6.06,0,0,1-.29-1c0-.36.24-.66.32-1s.22-1.25.81-.83c.22.16.17.57.48.65s.61-.2.74-.39c.44.16.56.4,1,0,.25-.21.3-.54.67-.61a2.28,2.28,0,0,1,.58,1.74c.86-.09.8,3.23,1.28,3.55s1-.57,1.41-.79c.1,0,.2-.25.29-.25.26,0,.47.44.67.39s.19-.33.36-.53c.37-.42.95-.31,1.3-.68s-.37-1.79.94-1.15a3.72,3.72,0,0,0,2.08.36c.8-.09.65-.59,1.18-1a4.47,4.47,0,0,1,1-.35c.37-.15.7-.42,1.07-.59,0-.2-.44-1.17-.74-1.2-.12,0-.41.22-.51.28-.65-.56,0-.53.16-1s-.26-.82-.45-1.21a6.71,6.71,0,0,0,.86-.51,3.32,3.32,0,0,1,.94-.78,4.34,4.34,0,0,1,1.57-.17,1.47,1.47,0,0,1,1.07.24c.52.24.44-.09.92-.13s1.05.83,1.69.85c.21,0,.36-.15.53-.14.4,0,.82.58,1.25.49s.34-.63.74-.87c.31.32,1.3,1.65,1.74.75a1.65,1.65,0,0,0-.43-1.41.75.75,0,0,0-1,0c-.63-.65.71-.8.79-1.43s-.82-1.63-1.17-2c-.57-.67-1.16,0-1.6-.84a4.39,4.39,0,0,1-.58-1.22,2.29,2.29,0,0,1,.7-1.58c.29-.25,1-.36,1.18-.67a1,1,0,0,0-.27-1.1c-.34-.18-.42.24-.77.26-.57,0-.83-.83-1.32-1-.82-.3-1.57.82-2.37.75-.47,0-.71-.7-1.26-.64a1.72,1.72,0,0,0-1.1.94c-.51-.79-.65-1.79-1.16-2.55-.46.21-.77.93-1,1.35a4.2,4.2,0,0,0-.51,1.44c-.06.26-.06.65-.34.73-.26-.41-.75-1.57-1.3-1.63-.2,0-.34.12-.52.22a5.89,5.89,0,0,0-.6.56c-.37.11-.34-.41-.72-.56-.55-.21-.93.16-1.09-.67a9.41,9.41,0,0,0,1.38-1c.59-.54.31-1.2-.13-1.84a.52.52,0,0,0-.13.06c-.1-.37,1.25-.94,1.52-1.28a1.83,1.83,0,0,0,.11-2.17,3.68,3.68,0,0,0,1.53-2.4,3,3,0,0,0-1.38-2.28c-.11-.07-.3.07-.39-.07s.06-.5,0-.71a6.11,6.11,0,0,0-.48-1.54c-.18-.47-.25-1-.42-1.45-.07-.22-.25-.9-.47-1s-.48.11-.78.27c-1,.5-1-.61-1.38-1.31a5,5,0,0,1-1,.55c-.33.06,0,0-.38-.12-.58-.24-1-.09-1.52-.48s-1.43-.65-1.42.37-.14.82-1,.62c-.26-.06-.52,0-.74-.08-.4-.12-.7-.48-1.16-.39s-.8.61-1.14.89c-.54.44-.85.32-1.44.43-.39.07-.35.32-.49.49a1.47,1.47,0,0,1-.54.43c-.58-1.14-1.94-1.9-2.94-2.62-.62-.46-1.43-2.25-2.38-1.59C980.08,507.61,980.44,507.94,980.18,508.2Z" transform="translate(-891.54 -472.31)"/></g><g class="cls-8"><path class="cls-7" d="M944.28,569.85c0,.09-.12.15-.17.19s-.31.29-.13.41.38-.42.52-.51.41,0,.55,0a.71.71,0,0,0,.52-.12.9.9,0,0,1,.89-.13c.09,0,.31.18.29.3s-.23.15-.31.23-.12.11-.09.2.1.08.12.13a.32.32,0,0,1,0,.14c0,.09,0,.12,0,.18s.37,0,.37.12-.35.26-.45.36a.36.36,0,0,0-.09.26c0,.09.1.06.15.15s0,.38,0,.53.18.36.31.58.06.14.12.18.11,0,.18,0,.1.12.2.15a.9.9,0,0,0,.28,0c.1,0,.09,0,.12-.12a.45.45,0,0,1,.18-.27c.2-.18.14-.32.17-.56,0-.08,0-.31.11-.31s0,.32.22.23.06-.12.1-.16a.22.22,0,0,1,.19-.06c.05.14,0,.24.16.26a.82.82,0,0,0,.26-.06c.11,0,.11-.07.25-.07h.43s0,.1,0,.15c.37.14.48-.39.7-.53a.49.49,0,0,1,.49.07c.06.07,0,.12.13.15s.2,0,.28,0,.22.28.07.37a.7.7,0,0,1-.61.07c-.06,0-.25-.06-.31,0s0,.15,0,.2-.26.11-.27.27c.18.09.16.16.14.26a1.29,1.29,0,0,1,.17.16,2.14,2.14,0,0,1,.08-.32c.29,0,.16.28.41.28,0,0,0-.07,0-.11.22,0,.18.12.29.24s.09,0,.17.07.09,0,.18.13.41.19.58.33.47.38.68.24c0,0,0-.09,0-.1s.1,0,.13-.05,0-.1-.11-.14a1.48,1.48,0,0,1-.27-.1c-.08,0-.1-.16-.15-.23s-.24-.26-.05-.31.15,0,.22,0a.22.22,0,0,0,0-.22c.11-.07.18-.06.17-.22s-.07-.15,0-.25a.61.61,0,0,1,.47.17c.13-.2.84.36,1,.31s0-.3.06-.44,0-.08,0-.11.17,0,.19-.07,0-.1,0-.17.09-.26.07-.4-.46-.21-.1-.39a1.05,1.05,0,0,0,.42-.39c.12-.19,0-.24,0-.43a1.52,1.52,0,0,1,.09-.28c0-.11,0-.22,0-.33s-.32-.1-.38,0a.41.41,0,0,0,0,.16c-.23.05-.12-.09-.2-.21s-.22-.08-.34-.1a1.31,1.31,0,0,0,0-.27,1,1,0,0,1,0-.34,1.39,1.39,0,0,1,.22-.37c.09-.13.1-.12.23-.19s.06-.11.13-.22.35-.09.46-.23,0-.1.06-.14.26-.08.32-.19-.08-.18-.07-.3.58,0,.45-.26-.27-.15-.38-.14-.16.1-.17.23c-.24,0-.05-.29-.18-.41s-.49-.09-.64-.08-.19.25-.45.2a.9.9,0,0,1-.36-.08.58.58,0,0,1-.22-.41c0-.11.08-.27,0-.37a.29.29,0,0,0-.29-.12c-.09,0,0,.13-.07.21s-.32,0-.44.12-.08.48-.23.64-.27,0-.35.17a.45.45,0,0,0,0,.39c-.25,0-.49-.16-.74-.17a.92.92,0,0,0,.12.45,1.32,1.32,0,0,0,.23.35c.05.05.13.12.1.19s-.47-.09-.57,0,0,.09,0,.14,0,.22,0,.23-.14,0-.24.06-.12.23-.33.13a2.57,2.57,0,0,0,0-.48c0-.21-.21-.26-.42-.27a0,0,0,0,0,0,0c-.1,0,0-.42,0-.54s-.22-.33-.45-.38a1,1,0,0,0-.27-.74.83.83,0,0,0-.72-.08s0,.08-.08.08-.1-.1-.15-.13a2,2,0,0,0-.41-.15c-.14,0-.25-.1-.39-.15s-.24-.1-.29-.07-.06.13-.07.22c-.06.3-.31.12-.52.08a1.06,1.06,0,0,1,0,.31c0,.08,0,0-.09.06s-.18.2-.36.25-.38.2-.15.37.15.17,0,.33-.09.11-.14.14-.22.08-.28.19a.77.77,0,0,0,0,.4c0,.19-.07.24-.15.38s0,.13,0,.19a.6.6,0,0,1,0,.19,2.6,2.6,0,0,0-1.06.2c-.2.06-.73-.06-.74.26C944.14,569.77,944.27,569.75,944.28,569.85Z" transform="translate(-891.54 -472.31)"/></g><g class="cls-8"><path class="cls-7" d="M931.93,579.31s0,.05-.06.07-.11.1,0,.14.14-.15.19-.18a.34.34,0,0,1,.2,0,.27.27,0,0,0,.19-.05.35.35,0,0,1,.33,0s.11.06.1.11-.08,0-.12.08a.08.08,0,0,0,0,.08s0,0,.05,0,0,0,0,.05,0,0,0,.07.14,0,.14,0-.13.1-.17.13,0,.07,0,.1,0,0,.06,0,0,.14,0,.19.06.14.11.22,0,.05,0,.06H933s0,0,.07.06h.11s0,0,0,0a.21.21,0,0,1,.06-.1c.08-.07,0-.12.07-.21s0-.11,0-.11,0,.12.08.09,0,0,0-.06a.11.11,0,0,1,.07,0c0,.06,0,.09.06.1l.1,0s0,0,.09,0h.15v.06c.13,0,.17-.15.25-.2a.17.17,0,0,1,.18,0s0,0,0,.05h.1c.07,0,.08.1,0,.14a.24.24,0,0,1-.22,0s-.09,0-.11,0,0,.06,0,.08-.1,0-.1.09.06.06,0,.1a.17.17,0,0,1,.06.06l0-.12c.11,0,.06.1.15.1s0,0,0,0,.07,0,.11.09l.06,0s0,0,.07,0,.15.07.21.12.17.14.25.09v0h0c0-.05,0,0,0-.05l-.1,0s0-.06-.06-.09-.08-.09,0-.11,0,0,.08,0a.08.08,0,0,0,0-.08s.07,0,.06-.08,0-.06,0-.09a.22.22,0,0,1,.17.06c.05-.07.31.13.36.11s0-.11,0-.15,0,0,0,0,.06,0,.07,0,0,0,0-.06,0-.1,0-.15-.17-.08,0-.14a.39.39,0,0,0,.16-.15c0-.06,0-.08,0-.15s0-.07,0-.1,0-.08,0-.12-.12,0-.14,0,0,0,0,.06,0,0-.07-.07-.08,0-.12,0,0-.07,0-.1,0-.07,0-.12.05-.09.08-.14,0,0,.08-.07,0,0,0-.08.13,0,.17-.08,0,0,0-.05.09,0,.11-.07,0-.07,0-.11.21,0,.16-.09-.1-.06-.13-.06-.06,0-.07.09,0-.11-.06-.15a.36.36,0,0,0-.23,0c-.09,0-.08.09-.17.07a.28.28,0,0,1-.13,0,.2.2,0,0,1-.08-.15s0-.1,0-.13a.12.12,0,0,0-.11,0s0,0,0,.08-.12,0-.16,0,0,.18-.09.24-.1,0-.13.06a.17.17,0,0,0,0,.14,2.61,2.61,0,0,0-.27-.06s0,.12,0,.16a.38.38,0,0,0,.09.13.1.1,0,0,1,0,.07s-.18,0-.21,0,0,0,0,0,0,.08,0,.08,0,0-.09,0,0,.08-.12,0a.49.49,0,0,0,0-.17c0-.08-.07-.1-.15-.1h0s0-.16,0-.2-.08-.12-.17-.14a.38.38,0,0,0-.09-.27.32.32,0,0,0-.27,0s0,0,0,0,0,0-.05,0a.94.94,0,0,0-.15-.06l-.14,0s-.09,0-.11,0,0,0,0,.08-.1.05-.18,0,0,.09,0,.11,0,0,0,0-.07.07-.13.09-.14.07-.06.13.06.06,0,.12l-.05.05s-.08,0-.1.07,0,.1,0,.15,0,.09-.06.14,0,0,0,.07a.06.06,0,0,1,0,.06.87.87,0,0,0-.38.08c-.08,0-.27,0-.27.09S931.93,579.27,931.93,579.31Z" transform="translate(-891.54 -472.31)"/></g><g class="cls-8"><path class="cls-7" d="M921.66,547.08s0,0-.06.07-.11.1-.05.14.14-.15.19-.18a.34.34,0,0,1,.2,0,.23.23,0,0,0,.19-.05.35.35,0,0,1,.33,0s.11.06.1.11-.08,0-.11.08-.05,0,0,.08,0,0,.05,0,0,0,0,0,0,0,0,.07.14,0,.14,0-.13.09-.16.13a.18.18,0,0,0,0,.1s0,0,.06,0,0,.14,0,.2.07.13.11.21,0,.05,0,.06h.07s0,0,.07.06.07,0,.1,0,0,0,0,0a.17.17,0,0,1,.07-.1c.07-.07,0-.12.06-.21s0-.11,0-.11,0,.12.08.09,0-.05,0-.06a.06.06,0,0,1,.07,0s0,.08.05.09l.1,0s0,0,.09,0h.16a.13.13,0,0,0,0,.06c.13,0,.17-.15.25-.2a.16.16,0,0,1,.18,0s0,0,0,.05.07,0,.1,0a.08.08,0,0,1,0,.14.25.25,0,0,1-.22,0s-.1,0-.12,0,0,.06,0,.08-.09,0-.1.1.06,0,0,.09,0,0,.06.06l0-.12c.11,0,.06.1.15.1a.05.05,0,0,0,0,0c.08,0,.06.05.1.09l.07,0s0,0,.06,0,.15.07.21.12.17.14.25.09l0,0h0c0-.05,0,0,0-.05l-.1,0s0-.06,0-.08-.09-.1,0-.12.06,0,.08,0,0-.06,0-.08.07,0,.07-.08,0,0,0-.09a.2.2,0,0,1,.17.06c0-.07.31.13.36.11s0-.11,0-.16,0,0,0,0,.07,0,.07,0,0,0,0-.06,0-.1,0-.15-.17-.08,0-.14a.44.44,0,0,0,.16-.14c0-.07,0-.09,0-.16s0-.07,0-.1a.49.49,0,0,0,0-.12s-.11,0-.13,0,0,0,0,.06-.05,0-.07-.07-.08,0-.13,0,0-.07,0-.1a.48.48,0,0,1,0-.12c0-.06.05-.09.08-.14s0,0,.08-.07,0,0,0-.08.13,0,.17-.08,0,0,0-.05.1,0,.11-.07,0-.07,0-.11.21,0,.17-.1a.24.24,0,0,0-.14,0s-.06,0-.07.09,0-.11-.06-.15a.36.36,0,0,0-.23,0c-.09,0-.07.09-.17.07a.31.31,0,0,1-.13,0,.2.2,0,0,1-.08-.15s0-.1,0-.13a.12.12,0,0,0-.11,0s0,0,0,.08-.12,0-.16,0,0,.18-.09.24-.1,0-.12.06a.17.17,0,0,0,0,.14c-.09,0-.18-.06-.27-.06a.3.3,0,0,0,0,.16.29.29,0,0,0,.08.13s0,0,0,.07-.17,0-.21,0,0,0,0,0,0,.08,0,.08,0,0-.09,0,0,.09-.11,0v-.17c0-.08-.08-.1-.16-.1h0s0-.15,0-.2-.08-.12-.16-.14a.4.4,0,0,0-.1-.26.29.29,0,0,0-.27,0l0,0s0,0-.06,0a.67.67,0,0,0-.15-.06l-.14-.05s-.09,0-.11,0a.11.11,0,0,0,0,.08c0,.11-.11,0-.19,0s0,.09,0,.11,0,0,0,0-.07.08-.13.1-.14.07,0,.13,0,.06,0,.12l0,.06s-.08,0-.1.06a.38.38,0,0,0,0,.15c0,.07,0,.09,0,.14s0,0,0,.07v.07a.75.75,0,0,0-.39.07c-.07,0-.26,0-.27.09S921.66,547,921.66,547.08Z" transform="translate(-891.54 -472.31)"/></g><g class="cls-8"><path class="cls-7" d="M934.19,544.52s-.06,0-.08-.06-.11-.1-.15,0,.17.12.2.17a.28.28,0,0,1,0,.2.26.26,0,0,0,.07.18.36.36,0,0,1,.07.33s-.05.11-.09.11-.07-.08-.1-.11,0,0-.08,0,0,0,0,.05h0s0,0-.06,0,0,.13,0,.13-.11-.12-.15-.15a.16.16,0,0,0-.1,0s0,0,0,.06-.13,0-.19,0-.12.08-.2.14,0,0-.06.05,0,0,0,.06,0,0,0,.08a.34.34,0,0,0,0,.1s0,0,0,0a.21.21,0,0,1,.1.06c.07.06.12,0,.21,0s.11,0,.11,0-.11,0-.07.09,0,0,.06,0a.07.07,0,0,1,0,.06c-.05,0-.09,0-.09.07a.32.32,0,0,0,0,.09.25.25,0,0,1,0,.09.88.88,0,0,0,0,.16h-.06c0,.13.16.15.22.23a.19.19,0,0,1,0,.18s0,0-.05,0,0,.07,0,.1-.09.09-.13,0a.25.25,0,0,1,0-.22s0-.09,0-.11-.05,0-.07,0,0-.09-.11-.09,0,.06-.09.06a.15.15,0,0,1-.05.06l.12,0c0,.11-.1.07-.09.16h0c0,.08,0,.07-.07.12s0,0,0,.06,0,0,0,.07-.06.15-.1.22-.12.19-.06.26h0s0,0,0,0,0,0,0,0,0-.08,0-.1,0,0,.08-.07.08-.09.11,0,0,.05,0,.08h.08s0,.06.08,0,.06,0,.09,0a.23.23,0,0,1,0,.18c.08,0-.1.31-.08.37s.11,0,.16,0,0,0,0,0,0,.06,0,.06,0,0,.06,0,.09,0,.14,0,.06-.17.14,0a.36.36,0,0,0,.16.14c.07,0,.08,0,.15,0s.08,0,.11,0h.12s0-.12,0-.14h-.06c0-.08,0,0,.07-.07s0-.09,0-.13h.11l.12,0a.91.91,0,0,1,.14.07.16.16,0,0,1,.08.08s0,0,.08,0,0,.12.1.16h.05s0,.1.08.11.06,0,.11,0,0,.21.11.16.05-.11,0-.14a.09.09,0,0,0-.09-.06c0-.09.1,0,.14-.08a.44.44,0,0,0,0-.23c0-.09-.1-.06-.09-.16a.57.57,0,0,1,0-.13.28.28,0,0,1,.14-.1.71.71,0,0,0,.14,0,.09.09,0,0,0,0-.11s0,0-.08,0,0-.11,0-.15-.18,0-.24-.06,0-.1-.08-.12a.14.14,0,0,0-.14,0c0-.1,0-.19,0-.28s-.11,0-.15.06a.58.58,0,0,0-.12.1s0,0-.07,0,0-.17,0-.21,0,0-.06,0-.08,0-.08,0,0-.05,0-.08-.09,0-.06-.12h.17c.08,0,.09-.09.09-.17h0s.16,0,.2,0,.11-.09.12-.18a.37.37,0,0,0,.26-.12.3.3,0,0,0,0-.26s0,0,0,0,0,0,0-.06a.42.42,0,0,0,0-.16c0-.05,0-.09,0-.14a.22.22,0,0,0,0-.11s0,0-.08,0-.06-.1,0-.18-.09,0-.11,0,0,0,0,0-.08-.06-.11-.12-.08-.14-.14,0,0,.06-.12,0l0-.05s0-.07-.08-.09-.1,0-.15,0-.09,0-.14,0-.05,0-.07,0h-.07a.87.87,0,0,0-.11-.38c0-.07,0-.26-.12-.25S934.22,544.51,934.19,544.52Z" transform="translate(-891.54 -472.31)"/></g><path class="cls-5" d="M972.63,563.59c0,1.33,1.9,4.88-.45,5.23.29.78,1.37,1.21,1.49,2.1.06.49-.69,1.65-.92,2.05-.42.73-1,.2-.6,1.18.15.38,1.08.84,1.38,1.2-.39.5-.94,1.62.2,1.57.6,0,1.4-1.24,1.67-1.69l.5.3c-.19,1,1.92,1.9,2.53.79-.53-1-1.62-1.53-2.23-2.46s-.36-.92-.21-1.78a11.64,11.64,0,0,0,.32-1.3c.4-.46.51-.78,1.06-.08s-.08.95,0,1.73c0,1.12,1.68,3.09,3,2.79,0-.08-.05-.16-.08-.23,1.15,1,2.69-.26,1.58-1.81-.21-.29-.58-.06-.9-.3-.49-.36-1.55-1.25-1.7-1.84a5,5,0,0,1,.21-2c.09-.21,0-.46.19-.79s.75-.37.92-.72,0-2.1-1.07-2c-.86.08-.31,1.31-1.41,1.56-.79.18-.87-1.12-1.59-.21-.11-1.06-.69-1.71-.83-2.71-.11-.74.44-1.3.05-2C974.41,563.12,974.38,564.9,972.63,563.59Z" transform="translate(-891.54 -472.31)"/><g class="cls-8"><path class="cls-7" d="M928.12,506.51a2.91,2.91,0,0,1,0,.31,1.79,1.79,0,0,0,.22-.13A.24.24,0,0,0,928.12,506.51Z" transform="translate(-891.54 -472.31)"/><path class="cls-7" d="M922.12,519.79c.28-.82,1-.47.15-1.43-.69-.79-1.24-.51-1.79.29-.17-.87-.58-2.25-.24-3.15.26-.69,1.07-1.19,1.42-1.85,1-1.84-.33-2.64-2.15-2.24.66-.76,1.34-1.67,2.37-1.83s1.9.54,2.93.24a4.23,4.23,0,0,0,3.27-3c-1,.51-1.13-.62-1.84-.86a2.44,2.44,0,0,0-2.36.63c-.38.4-.37,1.67-1.27,1.74s-1.33-1.26-1.26-1.95c-1.29-.22-1.62,1.26-2.37,2-.57-.5-1.21-1.56-1.9-1.9-1.44-.71-2.26.66-3.21,1.71a31.84,31.84,0,0,0-3.79,5,10.92,10.92,0,0,1-1,1.42,56.57,56.57,0,0,0-4.52,43.77c.71-.43,1.79-.45,2.4-1.27a4.3,4.3,0,0,1,0-1.75c.14-.44.73-1,.81-1.41.24-1.27-1-3.29-.21-4.54.41-.6.88-.37,1.18-1.16.4-1-.17-1.81,1-1.58.27,0,.5.63.74.76.47.25,1,.13,1.22.21.65.25,1.25,1.06,2.07.33.13.16.38.28.5.45.33-.5,1.94-2.29,1.7-2.84,1.17-.91-1.7-3.14-2.16-4.35.67-.86,1.59-.38,2.31-.56-1.1-1.26-5.79-5.2-1.56-5.77.93-.13.94.11,1.68.74a18.15,18.15,0,0,0,2.11,1.42c1.31.87,2.1,2.48,3.27,3.79-.31.54-1.19,3.93.23,2.59.14.27.47.41.57.74.18-.18.57-.26.75-.47.23.32.7,1.23,1.14,1.39s.57-.49,1-.37c.93.25,1.82,1.66,2.89.76-.86-1.14-2.24-.84-2.74-1.79,0-.05.54-.42.53-.46-.09-.28-.85-1-.83-.85-.1-.5-.3-.6.29-1-.68-.94-2-1-2.66-1.9s0-.92-.07-1.82l-.2.14c-.95-.61-.17-1.41-.32-2.17a1.87,1.87,0,0,0-.87-1.32c-.29-.18-1,.07-1.18-.21-1.47-2,2.65-1.3,3.23-1.68-.87-1.25-2.08-.16-2.49-1.18-.24-.58.68-3-1.28-1.91a3.37,3.37,0,0,1,.56-2.49c.56-.63.21-.52,1.25-.3s3.53,2.26,4.61,2c.69-.16.69-1,1-1.19.83-.36,1.55.45,2.42.68,1.44.39,1.74-.24,2.77-1.33-.84-.87-1.4.14-2.26.06s-1.77-1-2.47-1.5c-1.09-.74-2.44-2.52-3.75-2.69-1.11-.14-1.07.75-1.78-.38A2.64,2.64,0,0,1,922.12,519.79Z" transform="translate(-891.54 -472.31)"/></g><g class="cls-8"><path class="cls-7" d="M984.31,503.45c1.19-.88,3.11-2.43,4.6-1,.84.81.25,1.32.57,2.12.62,1.49-.09.6,1,1.48,1.35,1.07,3,1.45,4.06,3a23.61,23.61,0,0,1,2,4.9c.43,1.2,1.24,3,.35,4.17-.53.72-.58.78-1.53.79-1.41,0-1.25-.61-1.48-1.5-.45-1.75,1-3.3-.29-5-.28-.36-1-.53-1.32-.79-1.34-1.13-1.67-2-3.43-1.3-.28.42-.68,1.75-1,2-1.15.79-.87-.3-1.88-.06-1.7.4-2.28,2-4.32,1.49.54.63,1.17,1.2,1.73,1.82a12.79,12.79,0,0,0-2.29,2.06c.95.31,2-.85,3.09-.46.43.15,1.09,1.16,1.41,1.5-1,1.34-4.49,3.14-1.73,5,.22-.36.82-.6,1-1,.52.51,1.07,1,1.61,1.54,1.31-1.09,3.16-.38,4.74-.68,2.63-.5,3.71-.41,5.83,2.18-1.38,1-.11,1.33-.29,2.09s-1.17,2.19-.95,2.79,2.56.69,3.31,1.87c1,1.65,0,1.17-.08,2.58-.11,2,3.85,4.45,2.26,6-2.46,2.47-2.07-3.28-4.48-3-1,.14-.54,1.87-2.26,1.39-1.33-.37-1.15-2.07-1.73-3a6.76,6.76,0,0,0-2.5-2.19c-1-.44-2.1.23-3-.14-2.09-.82-1.88-3.4-4.64-2.54-.84.26-2.48,1.25-2,2.36.36.9,2.22.07,2.85,1.24-1.54,2.52,4.16,2,4.46,3.5s-1.6,1.74-1.13,3a1.75,1.75,0,0,0,3,.28c-.25,1.42.57,3.56-.67,4.75-.94.91-1.92.1-2.73,1.06.67,1,3.73,2,3.46,3.61s-.77.23-1.43.74a12.49,12.49,0,0,1-1.29,1.08,4.55,4.55,0,0,1-4.17.05c-1.14-.45-3.11-2.32-4.24-1.41.77,1.39,2.57,1.52,3.58,2.85-1.1.32-2.44-.22-3.34-.18a6.21,6.21,0,0,1,1.41,2.11c-1.91,1-4.2-.08-6,1a19.38,19.38,0,0,0-3.9,3.74c.9.94.77-.25,1.61-.48.27-.07.75-.53,1.08-.65s.78.42,1.08.29c1.09-.44,1.85-1.37,3.15-1.35,1.48,0,2,1.14,3.26,1.5s2.66-.68,3.46.54a5.6,5.6,0,0,1-.5.89c.86.4,1.21-.31,2.06.29.28.21,0,1.4.69,1.88a7.36,7.36,0,0,0,2.53-2.18c.73-1,.86-2.4,1.78-3.2,2.26,2.08,4.87,4.05,2.25,6.6a3.14,3.14,0,0,0,1.17,1.12c.68-1.07,2.34-1.76,2.17,0-.1,1-2.33,1.25-.58,2.29a1.27,1.27,0,0,1,2.19-.19c.88-.68,1.7-1.61,2.54-2.39,2,1.8,2.84,2.47,2.22,4.84-.22.86-.91.85-.75,1.93.09.63,1.22,1,1.33,1.8a4.36,4.36,0,0,1-.21,1.48,56.42,56.42,0,0,0-4.66-74.5,57.27,57.27,0,0,0-8.28-6.84,3.87,3.87,0,0,0-1.88-.14c-1.69.35-3.6,2.36-4.83,3.7C985.25,500.17,982.28,502.32,984.31,503.45Z" transform="translate(-891.54 -472.31)"/><path class="cls-7" d="M984.31,503.45c1.19-.88,3.11-2.43,4.6-1,.84.81.25,1.32.57,2.12.62,1.49-.09.6,1,1.48,1.35,1.07,3,1.45,4.06,3a23.61,23.61,0,0,1,2,4.9c.43,1.2,1.24,3,.35,4.17-.53.72-.58.78-1.53.79-1.41,0-1.25-.61-1.48-1.5-.45-1.75,1-3.3-.29-5-.28-.36-1-.53-1.32-.79-1.34-1.13-1.67-2-3.43-1.3-.28.42-.68,1.75-1,2-1.15.79-.87-.3-1.88-.06-1.7.4-2.28,2-4.32,1.49.54.63,1.17,1.2,1.73,1.82a12.79,12.79,0,0,0-2.29,2.06c.95.31,2-.85,3.09-.46.43.15,1.09,1.16,1.41,1.5-1,1.34-4.49,3.14-1.73,5,.22-.36.82-.6,1-1,.52.51,1.07,1,1.61,1.54,1.31-1.09,3.16-.38,4.74-.68,2.63-.5,3.71-.41,5.83,2.18-1.38,1-.11,1.33-.29,2.09s-1.17,2.19-.95,2.79,2.56.69,3.31,1.87c1,1.65,0,1.17-.08,2.58-.11,2,3.85,4.45,2.26,6-2.46,2.47-2.07-3.28-4.48-3-1,.14-.54,1.87-2.26,1.39-1.33-.37-1.15-2.07-1.73-3a6.76,6.76,0,0,0-2.5-2.19c-1-.44-2.1.23-3-.14-2.09-.82-1.88-3.4-4.64-2.54-.84.26-2.48,1.25-2,2.36.36.9,2.22.07,2.85,1.24-1.54,2.52,4.16,2,4.46,3.5s-1.6,1.74-1.13,3a1.75,1.75,0,0,0,3,.28c-.25,1.42.57,3.56-.67,4.75-.94.91-1.92.1-2.73,1.06.67,1,3.73,2,3.46,3.61s-.77.23-1.43.74a12.49,12.49,0,0,1-1.29,1.08,4.55,4.55,0,0,1-4.17.05c-1.14-.45-3.11-2.32-4.24-1.41.77,1.39,2.57,1.52,3.58,2.85-1.1.32-2.44-.22-3.34-.18a6.21,6.21,0,0,1,1.41,2.11c-1.91,1-4.2-.08-6,1a19.38,19.38,0,0,0-3.9,3.74c.9.94.77-.25,1.61-.48.27-.07.75-.53,1.08-.65s.78.42,1.08.29c1.09-.44,1.85-1.37,3.15-1.35,1.48,0,2,1.14,3.26,1.5s2.66-.68,3.46.54a5.6,5.6,0,0,1-.5.89c.86.4,1.21-.31,2.06.29.28.21,0,1.4.69,1.88a7.36,7.36,0,0,0,2.53-2.18c.73-1,.86-2.4,1.78-3.2,2.26,2.08,4.87,4.05,2.25,6.6a3.14,3.14,0,0,0,1.17,1.12c.68-1.07,2.34-1.76,2.17,0-.1,1-2.33,1.25-.58,2.29a1.27,1.27,0,0,1,2.19-.19c.88-.68,1.7-1.61,2.54-2.39,2,1.8,2.84,2.47,2.22,4.84-.22.86-.91.85-.75,1.93.09.63,1.22,1,1.33,1.8a4.36,4.36,0,0,1-.21,1.48,56.42,56.42,0,0,0-4.66-74.5,57.27,57.27,0,0,0-8.28-6.84,3.87,3.87,0,0,0-1.88-.14c-1.69.35-3.6,2.36-4.83,3.7C985.25,500.17,982.28,502.32,984.31,503.45Z" transform="translate(-891.54 -472.31)"/></g><path class="cls-9" d="M942.53,509.49c1.5,1.29,2.86,2.49.76,4a1.53,1.53,0,0,0,1.44.89l2.06-.3c.22.13.83,0,1.19.49,1.4-.7.44-1.93-.4-2.7a1.92,1.92,0,0,1,.72-.67c.21.35.8.59,1,.92l1.59-1.51c1.31,1,2.47,2.44,3.72,3.58,1.88-1.29.14-2-.46-3.06,1.33.25,2.82-1.52,1.88-2.81s-2,.38-3.54.46c1.35-.43,3.71-1.84,2.58-3.25s-2.67.34-4.29.15c-1.91-.24-2.5-.45-4.43.52A9.38,9.38,0,0,0,942.53,509.49Z" transform="translate(-891.54 -472.31)"/><g class="cls-10"><path class="cls-7" d="M967.81,510.55a1.36,1.36,0,0,0-.25.31,1.4,1.4,0,0,0,.63.11A3,3,0,0,0,967.81,510.55Z" transform="translate(-891.54 -472.31)"/><path class="cls-7" d="M922,498.69a11.57,11.57,0,0,0,1.87-.22,15,15,0,0,0,2.26-1.65c1.42-.88,3.76-3.13,5.25-1.31,1.16-.7,1.91-2.19,3.17-2.71.81-.34,1.78.14,2.56-.16.56-.22.92-.86,1.37-1.24a2.61,2.61,0,0,1,3.43-.23c.93.59,1.46,2,0,2.15,1.52.12.91,1.14.11,1.83,1.22.13,1.58.93,1.13,1.79-.66,1.26-2,1.19-3.1,1.69.94-.08,1.86-.17,2.36.8a14.89,14.89,0,0,0-2.22,3.57c-.8,1.68-.32,1.12.66,2.51-.86.83-2.8,2.56-1.17,3.5a19.59,19.59,0,0,0,2.19-2.52,14.6,14.6,0,0,0,1.18-1.18c.36-.49.4-1,.69-1.48.71-1.15,1.24-.72,2.27-1.27s1.17-1.45,2.65-1.54c2.43-.14,2.33.09,2.59-2.28.14-1.26,1.11-2.83,2.34-1.21.9,1.19-1.06,2.71,1,2.46.59-.06.48-.84,1.31-.68.62.12,1.1,1.26,1,1.76,2.6-.66,1.1,3,1.54,3.77.59,1,1.63.55,2.39,1,1.48.9.81,2.19,1.09,3.41s2.16,2.84,3.2,3.44c.74.42,1.48.72,2.07-.1.37-.52-.12-1.12.23-1.74a8,8,0,0,1-2.08-1.9c.57-.93,2-.42,2.74,0,.42-.39,4.65,2.5,2.69-.65.71-1.36,1.29,0,2.06.47.93.56,1.71.53,2.53,1.36,2-.4.84-2.48,0-3.5-.38-.48-1.29-.92-1.24-1.59s1.08-1.17,1.67-1c-.39-1.6-4.77-4.31-1.42-4.72,1.75-.21,4,2.37,3.52-.23-.23-1.23-.81-1.71-.07-2.58a7.77,7.77,0,0,1,2-1.32c.68-.19,1.67.54,1.8-.4.09-.62-.8-1-.81-1.6,1-.17,1.81.86,2.76.84s1.3-1.21,2.12-1.58A56.46,56.46,0,0,0,922,498.69Z" transform="translate(-891.54 -472.31)"/></g><path class="cls-11" d="M918.51,501.8a56.5,56.5,0,1,1,0,79.9A56.51,56.51,0,0,1,918.51,501.8Z" transform="translate(-891.54 -472.31)"/></g></g></svg>