<svg id="Слой_1" data-name="Слой 1" xmlns="http://www.w3.org/2000/svg" xmlns:xlink="http://www.w3.org/1999/xlink" viewBox="0 0 59.75 60.02"><defs><style>.cls-1{fill:#29abe2;}.cls-2,.cls-3{stroke:#e6e6e6;stroke-miterlimit:10;stroke-width:0.75px;}.cls-2{fill:url(#Безымянный_градиент_3);}.cls-3{fill:url(#Безымянный_градиент_3-2);}</style><linearGradient id="Безымянный_градиент_3" x1="345.22" y1="161.63" x2="346.42" y2="220.62" gradientUnits="userSpaceOnUse"><stop offset="0" stop-color="#fff"/><stop offset="1" stop-color="#0071bc"/></linearGradient><linearGradient id="Безымянный_градиент_3-2" x1="352.46" y1="165.88" x2="353.04" y2="194.06" xlink:href="#Безымянный_градиент_3"/></defs><path class="cls-1" d="M360.68,185a10.81,10.81,0,0,0-5.95,3.67,3,3,0,0,0-.55,3.34,3.47,3.47,0,0,0,4,1.07,2.66,2.66,0,0,0,1.1-1c1.36-2.13.45-4.7,1.73-6.85" transform="translate(-315.49 -142.35)"/><path class="cls-2" d="M362,155.9h-3.72v-.26a12.91,12.91,0,0,0-12.91-12.91h0a12.91,12.91,0,0,0-12.92,12.91v.26h-3.63a12.92,12.92,0,0,0,0,25.83H362a12.92,12.92,0,0,0,0-25.83Z" transform="translate(-315.49 -142.35)"/><path class="cls-3" d="M361.73,163.13h-2.06V163c0-3.41-3.21-6.17-7.16-6.17h0c-4,0-7.16,2.76-7.16,6.17v.12h-2c-3.95,0-7.16,2.76-7.16,6.16s3.21,6.16,7.16,6.16h18.4c3.95,0,7.16-2.76,7.16-6.16S365.68,163.13,361.73,163.13Z" transform="translate(-315.49 -142.35)"/><path class="cls-1" d="M334.12,184.46a10.78,10.78,0,0,0-5.95,3.67,3,3,0,0,0-.55,3.34,3.47,3.47,0,0,0,4,1.07,2.66,2.66,0,0,0,1.1-1c1.35-2.13.45-4.7,1.73-6.85" transform="translate(-315.49 -142.35)"/><path class="cls-1" d="M347.68,185a10.81,10.81,0,0,0-5.95,3.67,3,3,0,0,0-.55,3.34,3.47,3.47,0,0,0,4,1.07,2.66,2.66,0,0,0,1.1-1c1.36-2.13.45-4.7,1.73-6.85" transform="translate(-315.49 -142.35)"/><path class="cls-1" d="M337.68,194a10.81,10.81,0,0,0-5.95,3.67,3,3,0,0,0-.55,3.34,3.47,3.47,0,0,0,4,1.07,2.66,2.66,0,0,0,1.1-1c1.36-2.13.45-4.7,1.73-6.85" transform="translate(-315.49 -142.35)"/><path class="cls-1" d="M351.68,194a10.81,10.81,0,0,0-5.95,3.67,3,3,0,0,0-.55,3.34,3.47,3.47,0,0,0,4,1.07,2.66,2.66,0,0,0,1.1-1c1.36-2.13.45-4.7,1.73-6.85" transform="translate(-315.49 -142.35)"/></svg>