<svg id="Слой_1" data-name="Слой 1" xmlns="http://www.w3.org/2000/svg" xmlns:xlink="http://www.w3.org/1999/xlink" viewBox="0 0 189.7 71"><defs><style>.cls-1{fill:url(#Безымянный_градиент_7);}</style><linearGradient id="Безымянный_градиент_7" x1="1431.67" y1="549.54" x2="1430.17" y2="687.38" gradientUnits="userSpaceOnUse"><stop offset="0" stop-color="#fff" stop-opacity="0.31"/><stop offset="0.15" stop-color="#fff" stop-opacity="0.21"/><stop offset="0.33" stop-color="#fff" stop-opacity="0.12"/><stop offset="0.52" stop-color="#fff" stop-opacity="0.05"/><stop offset="0.73" stop-color="#fff" stop-opacity="0.01"/><stop offset="1" stop-color="#fff" stop-opacity="0"/></linearGradient></defs><path class="cls-1" d="M1525.64,538.09c.14-1.74-1.25-3.53-2.57-4.63-3.2-2.69-6.78-4.94-10.66-5.44a10.74,10.74,0,0,0-10.47,4.78c-.74,1.16-1.6,2.68-2.79,2.43-.72-.14-1.21-.9-1.66-1.59-2.39-3.59-5.54-6.58-9.23-7.74a10,10,0,0,0-10.66,2.93c-1.43,1.68-2.53,4-4.43,4.76-3.22,1.3-6.09-2.54-8.9-4.86A11.77,11.77,0,0,0,1450,528c-3.29,2.22-6,6.19-9.77,6.5-2.63.22-5.08-1.48-7.35-3.11-5.3-3.8-11.42-7.71-17.32-5.59-5.56,2-9.9,9.07-15.66,8.26-2.42-.34-4.53-2.09-6.64-3.6-6.87-4.9-16.25-7.33-22.43-1.22-2.63,2.61-5,6.79-8.35,6.36-2.1-.28-3.69-2.33-5.22-4.09-3.58-4.1-8.38-7.33-13.24-6.4s-9,7.62-6.84,13l0,0h-.45v57.82h189.6V538.09Z" transform="translate(-1336.65 -524.9)"/></svg>