<svg id="Слой_1" data-name="Слой 1" xmlns="http://www.w3.org/2000/svg" xmlns:xlink="http://www.w3.org/1999/xlink" viewBox="0 0 189.7 58.59"><defs><style>.cls-1{fill:url(#Безымянный_градиент_7);}</style><linearGradient id="Безымянный_градиент_7" x1="960.64" y1="532.27" x2="959.4" y2="646.56" gradientUnits="userSpaceOnUse"><stop offset="0" stop-color="#fff" stop-opacity="0.31"/><stop offset="0.15" stop-color="#fff" stop-opacity="0.21"/><stop offset="0.33" stop-color="#fff" stop-opacity="0.12"/><stop offset="0.52" stop-color="#fff" stop-opacity="0.05"/><stop offset="0.73" stop-color="#fff" stop-opacity="0.01"/><stop offset="1" stop-color="#fff" stop-opacity="0"/></linearGradient></defs><path class="cls-1" d="M1054.64,522.83c.14-1.43-1.25-2.91-2.57-3.82a23.45,23.45,0,0,0-10.66-4.49c-3.87-.4-8.09.87-10.47,4-.74,1-1.6,2.21-2.79,2a3,3,0,0,1-1.66-1.31,18.07,18.07,0,0,0-9.23-6.39,11.41,11.41,0,0,0-10.66,2.42c-1.43,1.39-2.53,3.3-4.43,3.93-3.22,1.07-6.09-2.1-8.9-4a13.83,13.83,0,0,0-14.23-.64c-3.29,1.84-6,5.12-9.77,5.37-2.63.18-5.08-1.22-7.35-2.57-5.3-3.13-11.42-6.36-17.32-4.61-5.56,1.64-9.9,7.48-15.66,6.81-2.42-.28-4.53-1.72-6.64-3-6.87-4-16.25-6.05-22.43-1-2.63,2.15-5,5.6-8.35,5.24-2.1-.22-3.69-1.92-5.22-3.37-3.58-3.38-8.38-6.05-13.24-5.28s-9,6.29-6.84,10.72l0,0h-.45v47.71h189.6V522.83Z" transform="translate(-865.65 -511.95)"/></svg>