<svg id="Слой_1" data-name="Слой 1" xmlns="http://www.w3.org/2000/svg" xmlns:xlink="http://www.w3.org/1999/xlink" viewBox="0 0 143.35 89.65"><defs><style>.cls-1{fill:none;}.cls-2{clip-path:url(#clip-path);}.cls-3{fill:#dbefff;}.cls-4{fill:#c1e3ff;}.cls-5{fill:#a9dae7;}</style><clipPath id="clip-path" transform="translate(-882.57 -497.19)"><path class="cls-1" d="M1004.5,533c0-.36.06-.72.06-1.09,0-7.61-8.07-13.9-18.55-14.9a9,9,0,0,0,.74-3.55c0-6.84-7.91-12.39-17.67-12.39a23.36,23.36,0,0,0-9.51,1.95c-3.93-3.56-10.08-5.86-17-5.86-11.86,0-21.46,6.74-21.46,15.05a11.09,11.09,0,0,0,1.22,5c-2.59.76-4.4,2.56-4.4,4.66,0,1.8,1.35,3.39,3.39,4.28-5.27,2.41-8.94,6.39-9.65,11h-.13c-11.85,0-21.46,6.74-21.46,15.05,0,8.11,9.17,14.72,20.63,15h0c0,2.8,3.23,5.06,7.22,5.06a9.59,9.59,0,0,0,3.46-.62c3.93,3.47,10,5.7,16.81,5.7,8.59,0,16-3.55,19.43-8.66,3.92,3.63,10.13,6,17.13,6,10.58,0,19.36-5.37,21.13-12.43q.93.06,1.89.06c11.85,0,21.46-6.73,21.46-15C1019.25,540.65,1013.06,535,1004.5,533Z"/></clipPath></defs><g class="cls-2"><path class="cls-3" d="M1004.5,533c0-.36.06-.72.06-1.09,0-7.61-8.07-13.9-18.55-14.9a9,9,0,0,0,.74-3.55c0-6.84-7.91-12.39-17.67-12.39a23.36,23.36,0,0,0-9.51,1.95c-3.93-3.56-10.08-5.86-17-5.86-11.86,0-21.46,6.74-21.46,15.05a11.09,11.09,0,0,0,1.22,5c-2.59.76-4.4,2.56-4.4,4.66,0,1.8,1.35,3.39,3.39,4.28-5.27,2.41-8.94,6.39-9.65,11h-.13c-11.85,0-21.46,6.74-21.46,15.05,0,8.11,9.17,14.72,20.63,15h0c0,2.8,3.23,5.06,7.22,5.06a9.59,9.59,0,0,0,3.46-.62c3.93,3.47,10,5.7,16.81,5.7,8.59,0,16-3.55,19.43-8.66,3.92,3.63,10.13,6,17.13,6,10.58,0,19.36-5.37,21.13-12.43q.93.06,1.89.06c11.85,0,21.46-6.73,21.46-15C1019.25,540.65,1013.06,535,1004.5,533Z" transform="translate(-882.57 -497.19)"/><path class="cls-4" d="M996.07,515.44s-22.72-.76-16.67,17.44c0,0-15.58-7.43-20.12,7.74,0,0-2.81-13.2-16.66-14.56,0,0,10.6,4.7,8.65,15.47,0,0-.86-15.48-15.58-13s-17.31,16.08-17.31,16.08-6.49-9.55-13.85-12-33.32,17.75-15.36,33.53c0,0,48.9,20.17,86.12,14.41s50.64-33.68,50.64-33.68Z" transform="translate(-882.57 -497.19)"/><path class="cls-5" d="M891.55,542s-5.41,24,24,19.41c0,0-3,5.62,0,7.44s11.25-3.8,11.25-3.8-.8,8.18,12.55,8.29,17.1-15.67,17.1-15.67,8.44,13.76,22.72,10.57,11.47-14.41,11.47-14.41,21.77,15.31,27.55-15.1c0,0,19.84,19.65-19.33,39.67s-84.39-1.82-84.39-1.82S862.12,562,891.55,542Z" transform="translate(-882.57 -497.19)"/></g></svg>