<svg id="Слой_1" data-name="Слой 1" xmlns="http://www.w3.org/2000/svg" xmlns:xlink="http://www.w3.org/1999/xlink" viewBox="0 0 78.08 65.76"><defs><style>.cls-1{fill:none;}.cls-2{clip-path:url(#clip-path);}.cls-3{fill:#bac8d1;}.cls-4{fill:#def4ff;opacity:0.25;}</style><clipPath id="clip-path" transform="translate(-921.77 -505.16)"><path class="cls-1" d="M930.49,528.07a14.41,14.41,0,0,0,2.86,3.86,18.79,18.79,0,1,0,22.57,29.4,14.45,14.45,0,0,0,26.39-9.59,14.46,14.46,0,1,0-2.23-28.53,14.45,14.45,0,0,0-20.53-16.49,14.57,14.57,0,0,0-5.56,5,14.47,14.47,0,0,0-23.5,16.38Z"/></clipPath></defs><g class="cls-2"><path class="cls-3" d="M930.49,528.07a14.41,14.41,0,0,0,2.86,3.86,18.79,18.79,0,1,0,22.57,29.4,14.45,14.45,0,0,0,26.39-9.59,14.46,14.46,0,1,0-2.23-28.53,14.45,14.45,0,0,0-20.53-16.49,14.57,14.57,0,0,0-5.56,5,14.47,14.47,0,0,0-23.5,16.38Z" transform="translate(-921.77 -505.16)"/><path class="cls-4" d="M930.79,532.44s10.84-3.49,18.35,3.4c0,0-4.66-12.12,7.18-14.88,11.1-2.59,15.5,10.63,15.5,10.63s-1.14-11.27-4.4-13.22c0,0,9.93,3.87,9.78,14.5,0,0,4.54-13.19,18.43-7.37,0,0,13.75,14.45-8.36,37.84,0,0-35.72,15.87-59.39,1.7C927.88,565,912.36,545.2,930.79,532.44Z" transform="translate(-921.77 -505.16)"/></g></svg>