<svg id="Слой_1" data-name="Слой 1" xmlns="http://www.w3.org/2000/svg" xmlns:xlink="http://www.w3.org/1999/xlink" viewBox="0 0 183.35 77.1"><defs><style>.cls-1{fill:none;}.cls-2{clip-path:url(#clip-path);}.cls-3{fill:#fff;}.cls-4{fill:#def4ff;opacity:0.29;}.cls-5{fill:#a9dae7;opacity:0.15;}</style><clipPath id="clip-path" transform="translate(-870.97 -496.39)"><path class="cls-1" d="M1025.18,525.43a17.89,17.89,0,0,0-10.44,3.33A17.24,17.24,0,0,0,999.2,514.5a7.44,7.44,0,0,0,.81-3.36,7.84,7.84,0,0,0-8-7.69,8.11,8.11,0,0,0-5.18,1.85A23.35,23.35,0,0,0,948,508.62a17.9,17.9,0,0,0-8.31-2,17.49,17.49,0,0,0-16.43,11A17.85,17.85,0,0,0,913,514.42a17.56,17.56,0,0,0-16,9.9,18.26,18.26,0,0,0-5.58-.88c-9.67,0-17.51,7.55-17.51,16.85s7.84,16.85,17.51,16.85A18.64,18.64,0,0,0,894,557a17.89,17.89,0,0,0,29.89-.12,17.93,17.93,0,0,0,9.69-.86,17.91,17.91,0,0,0,28.21,3.71,17.9,17.9,0,0,0,28.3,2.68,17.77,17.77,0,0,0,13.15,5.73,17.56,17.56,0,0,0,16-10,18.07,18.07,0,0,0,5.92,1c9.67,0,17.51-7.55,17.51-16.85S1034.85,525.43,1025.18,525.43Z"/></clipPath></defs><g class="cls-2"><path class="cls-3" d="M1025.18,525.43a17.89,17.89,0,0,0-10.44,3.33A17.24,17.24,0,0,0,999.2,514.5a7.44,7.44,0,0,0,.81-3.36,7.84,7.84,0,0,0-8-7.69,8.11,8.11,0,0,0-5.18,1.85A23.35,23.35,0,0,0,948,508.62a17.9,17.9,0,0,0-8.31-2,17.49,17.49,0,0,0-16.43,11A17.85,17.85,0,0,0,913,514.42a17.56,17.56,0,0,0-16,9.9,18.26,18.26,0,0,0-5.58-.88c-9.67,0-17.51,7.55-17.51,16.85s7.84,16.85,17.51,16.85A18.64,18.64,0,0,0,894,557a17.89,17.89,0,0,0,29.89-.12,17.93,17.93,0,0,0,9.69-.86,17.91,17.91,0,0,0,28.21,3.71,17.9,17.9,0,0,0,28.3,2.68,17.77,17.77,0,0,0,13.15,5.73,17.56,17.56,0,0,0,16-10,18.07,18.07,0,0,0,5.92,1c9.67,0,17.51-7.55,17.51-16.85S1034.85,525.43,1025.18,525.43Z" transform="translate(-870.97 -496.39)"/><path class="cls-4" d="M895.17,521.2s21.68-22.62,33.72,5.76c0,0-2.41-8,5.87-9.26s23.55,18.24,23.55,18.24,5.65-13.76,11.52-13.61,6.93,6.81,6.93,6.81,9.78-13,20.62-11.15c0,0-10.3,1.88-13.2,10.13,0,0,10.79-10,18.85-7.75s3.68,22.59,3.68,22.59,11.59-17.8,34.68-10.72c0,0,29.1,12.39,0,32.37s-158.26,0-158.26,0S849,522.73,895.17,521.2Z" transform="translate(-870.97 -496.39)"/><path class="cls-5" d="M873.92,530.15s3.49,22.78,23.26,17.38c0,0,3.61,14,13.15,13.41s13-11.68,13-11.68,0,3.87,5.42,3.58,9.33-9.85,9.33-9.85-2.1,10.42,7.73,14.29S961.3,553,961.3,553s8.43,9.75,17.57,9.07S993.32,550,993.32,550s4.54,13.9,14.15,12.74,12.84-10,12.84-10,16,6.18,23.68-12.07l-2.3,31.57H872.59Z" transform="translate(-870.97 -496.39)"/></g></svg>