<svg id="Слой_1" data-name="Слой 1" xmlns="http://www.w3.org/2000/svg" xmlns:xlink="http://www.w3.org/1999/xlink" viewBox="0 0 78.08 65.76"><defs><style>.cls-1{fill:none;}.cls-2{clip-path:url(#clip-path);}.cls-3{fill:#fff;}.cls-4{fill:#def4ff;opacity:0.25;}</style><clipPath id="clip-path" transform="translate(-920.62 -504.49)"><path class="cls-1" d="M929.34,527.4a14.57,14.57,0,0,0,2.86,3.86,18.79,18.79,0,1,0,22.57,29.4,14.45,14.45,0,0,0,26.39-9.59,14.46,14.46,0,1,0-2.23-28.53,14.45,14.45,0,0,0-20.53-16.49,14.57,14.57,0,0,0-5.56,5,14.47,14.47,0,0,0-23.5,16.38Z"/></clipPath></defs><g class="cls-2"><path class="cls-3" d="M929.34,527.4a14.57,14.57,0,0,0,2.86,3.86,18.79,18.79,0,1,0,22.57,29.4,14.45,14.45,0,0,0,26.39-9.59,14.46,14.46,0,1,0-2.23-28.53,14.45,14.45,0,0,0-20.53-16.49,14.57,14.57,0,0,0-5.56,5,14.47,14.47,0,0,0-23.5,16.38Z" transform="translate(-920.62 -504.49)"/><path class="cls-4" d="M929.64,531.77s10.84-3.49,18.35,3.4c0,0-4.66-12.12,7.18-14.88,11.11-2.59,15.5,10.63,15.5,10.63s-1.13-11.28-4.39-13.22c0,0,9.92,3.86,9.78,14.49,0,0,4.53-13.18,18.42-7.37,0,0,13.75,14.46-8.36,37.85,0,0-35.72,15.87-59.39,1.7C926.73,564.37,911.21,544.52,929.64,531.77Z" transform="translate(-920.62 -504.49)"/></g></svg>