<svg id="Слой_1" data-name="Слой 1" xmlns="http://www.w3.org/2000/svg" xmlns:xlink="http://www.w3.org/1999/xlink" viewBox="0 0 89 72"><defs><style>.cls-1{fill:#333348;stroke:#b3b3b3;opacity:0;}.cls-1,.cls-3{stroke-miterlimit:10;}.cls-2{fill:url(#Безымянный_градиент_16);}.cls-3{fill:#ff0;stroke:#fcee21;stroke-width:0.25px;}.cls-4{fill:url(#Безымянный_градиент_14);}.cls-5{fill:url(#Безымянный_градиент_11);}</style><radialGradient id="Безымянный_градиент_16" cx="777.44" cy="589.02" r="30.68" gradientTransform="translate(-4.91 -138.22) scale(1.24 1.15)" gradientUnits="userSpaceOnUse"><stop offset="0" stop-color="#ff0" stop-opacity="0.56"/><stop offset="0.13" stop-color="#f7f703" stop-opacity="0.54"/><stop offset="0.29" stop-color="#e1e10b" stop-opacity="0.48"/><stop offset="0.46" stop-color="#bcbc17" stop-opacity="0.38"/><stop offset="0.65" stop-color="#898929" stop-opacity="0.24"/><stop offset="0.85" stop-color="#494940" stop-opacity="0.06"/><stop offset="0.91" stop-color="#333348" stop-opacity="0"/></radialGradient><radialGradient id="Безымянный_градиент_14" cx="777.62" cy="-151.07" r="30.68" gradientTransform="matrix(1.24, 0, 0, -1.15, -4.91, 366.22)" gradientUnits="userSpaceOnUse"><stop offset="0" stop-color="#0071bc"/><stop offset="0.11" stop-color="#016fb9" stop-opacity="0.97"/><stop offset="0.24" stop-color="#066aaf" stop-opacity="0.89"/><stop offset="0.39" stop-color="#0d629f" stop-opacity="0.75"/><stop offset="0.55" stop-color="#165689" stop-opacity="0.56"/><stop offset="0.72" stop-color="#23476d" stop-opacity="0.32"/><stop offset="0.89" stop-color="#32344b" stop-opacity="0.02"/><stop offset="0.91" stop-color="#333348" stop-opacity="0"/></radialGradient><radialGradient id="Безымянный_градиент_11" cx="1411.92" cy="197.77" r="30.68" gradientTransform="matrix(0.59, 0, 0, -1.02, 126.74, 740.98)" gradientUnits="userSpaceOnUse"><stop offset="0.09" stop-color="#ff0" stop-opacity="0.56"/><stop offset="0.21" stop-color="#f7f703" stop-opacity="0.54"/><stop offset="0.35" stop-color="#e1e10b" stop-opacity="0.48"/><stop offset="0.51" stop-color="#bcbc17" stop-opacity="0.38"/><stop offset="0.68" stop-color="#898929" stop-opacity="0.24"/><stop offset="0.85" stop-color="#494940" stop-opacity="0.06"/><stop offset="0.91" stop-color="#333348" stop-opacity="0"/></radialGradient></defs><rect class="cls-1" x="0.5" y="0.5" width="88" height="71"/><path class="cls-2" d="M997.09,540.49a20,20,0,0,0,1.13-6.47c0-15.2-17.46-27.53-39-27.53s-39,12.33-39,27.53a20,20,0,0,0,1.13,6.47Z" transform="translate(-915.22 -504.49)"/><path class="cls-3" d="M971.39,540.49a13.07,13.07,0,0,0,.37-3,12.8,12.8,0,1,0-25.6,0,12.55,12.55,0,0,0,.37,3Z" transform="translate(-915.22 -504.49)"/><path class="cls-4" d="M997.31,540.49a20,20,0,0,1,1.13,6.48c0,15.2-17.46,27.52-39,27.52s-39-12.32-39-27.52a20,20,0,0,1,1.13-6.48Z" transform="translate(-915.22 -504.49)"/><path class="cls-5" d="M974.69,540a32.15,32.15,0,0,1,.53,5.71c0,13.42-8.28,24.29-18.5,24.29s-18.5-10.87-18.5-24.29a31.24,31.24,0,0,1,.54-5.71Z" transform="translate(-915.22 -504.49)"/></svg>