<svg id="Слой_1" data-name="Слой 1" xmlns="http://www.w3.org/2000/svg" xmlns:xlink="http://www.w3.org/1999/xlink" viewBox="0 0 88 66"><defs><style>.cls-1{fill:none;}.cls-2{fill:url(#Безымянный_градиент_16);}.cls-3{fill:#ff0;stroke:#fcee21;stroke-miterlimit:10;stroke-width:0.25px;}.cls-4{fill:url(#Безымянный_градиент_14);}.cls-5{fill:url(#Безымянный_градиент_16-2);}</style><radialGradient id="Безымянный_градиент_16" cx="962.78" cy="546.42" r="30.68" gradientTransform="translate(-17.38 -57.51) scale(1.05 1.15)" gradientUnits="userSpaceOnUse"><stop offset="0" stop-color="#ff0" stop-opacity="0.56"/><stop offset="0.13" stop-color="#f7f703" stop-opacity="0.54"/><stop offset="0.29" stop-color="#e1e10b" stop-opacity="0.48"/><stop offset="0.46" stop-color="#bcbc17" stop-opacity="0.38"/><stop offset="0.65" stop-color="#898929" stop-opacity="0.24"/><stop offset="0.85" stop-color="#494940" stop-opacity="0.06"/><stop offset="0.91" stop-color="#333348" stop-opacity="0"/></radialGradient><radialGradient id="Безымянный_градиент_14" cx="828" cy="497.5" r="30.77" gradientTransform="matrix(1.44, -0.01, 0.01, 0.84, -1150.52, -370.07)" gradientUnits="userSpaceOnUse"><stop offset="0" stop-color="#0071bc"/><stop offset="0.11" stop-color="#016fb9" stop-opacity="0.97"/><stop offset="0.24" stop-color="#066aaf" stop-opacity="0.89"/><stop offset="0.39" stop-color="#0d629f" stop-opacity="0.75"/><stop offset="0.55" stop-color="#165689" stop-opacity="0.56"/><stop offset="0.72" stop-color="#23476d" stop-opacity="0.32"/><stop offset="0.89" stop-color="#32344b" stop-opacity="0.02"/><stop offset="0.91" stop-color="#333348" stop-opacity="0"/></radialGradient><radialGradient id="Безымянный_градиент_16-2" cx="1472.14" cy="166.21" r="30.68" gradientTransform="matrix(0.59, 0, 0, -1.02, 126.74, 740.98)" xlink:href="#Безымянный_градиент_16"/></defs><rect class="cls-1" width="88" height="66"/><path class="cls-2" d="M1024.63,572.1a23.3,23.3,0,0,0,1-6.48c0-15.2-14.78-27.52-33-27.52s-33,12.32-33,27.52a23.29,23.29,0,0,0,.95,6.48Z" transform="translate(-947.09 -537.6)"/><path class="cls-3" d="M1003.69,572.1a13.07,13.07,0,0,0,.37-3,12.8,12.8,0,1,0-25.6,0,12.55,12.55,0,0,0,.37,3Z" transform="translate(-947.09 -537.6)"/><rect class="cls-4" x="3.5" y="34.5" width="82" height="29"/><path class="cls-5" d="M1010.05,572.1a31.24,31.24,0,0,1,.54,5.71c0,13.41-8.29,24.29-18.5,24.29s-18.5-10.88-18.5-24.29a32.15,32.15,0,0,1,.53-5.71Z" transform="translate(-947.09 -537.6)"/></svg>