<svg id="Слой_1" data-name="Слой 1" xmlns="http://www.w3.org/2000/svg" xmlns:xlink="http://www.w3.org/1999/xlink" viewBox="0 0 88 66"><defs><style>.cls-1{fill:none;}.cls-2{fill:url(#Безымянный_градиент_8);}.cls-3{fill:#f15a24;stroke:#ed1c24;stroke-miterlimit:10;stroke-width:0.25px;}.cls-4{fill:url(#Безымянный_градиент_7);}</style><radialGradient id="Безымянный_градиент_8" cx="741.9" cy="591.19" r="30.68" gradientTransform="translate(-4.91 -138.22) scale(1.24 1.15)" gradientUnits="userSpaceOnUse"><stop offset="0" stop-color="#f15a24" stop-opacity="0.56"/><stop offset="0.29" stop-color="#f15d28" stop-opacity="0.55"/><stop offset="0.46" stop-color="#f06534" stop-opacity="0.52"/><stop offset="0.59" stop-color="#ee7449" stop-opacity="0.46"/><stop offset="0.71" stop-color="#ec8866" stop-opacity="0.38"/><stop offset="0.82" stop-color="#e9a38d" stop-opacity="0.27"/><stop offset="0.92" stop-color="#e6c3bb" stop-opacity="0.14"/><stop offset="1" stop-color="#e2e6ed" stop-opacity="0"/></radialGradient><radialGradient id="Безымянный_градиент_7" cx="748.65" cy="468.74" r="30.77" gradientTransform="matrix(1.53, -0.02, 0.01, 0.87, -1102.59, -359.18)" gradientUnits="userSpaceOnUse"><stop offset="0" stop-color="#333348"/><stop offset="0.19" stop-color="#404054" stop-opacity="0.92"/><stop offset="0.43" stop-color="#666778" stop-opacity="0.71"/><stop offset="0.7" stop-color="#a4a6b2" stop-opacity="0.36"/><stop offset="0.91" stop-color="#e2e6ed" stop-opacity="0"/></radialGradient></defs><rect class="cls-1" width="88" height="66"/><path class="cls-2" d="M953.09,543a20,20,0,0,0,1.13-6.47c0-15.2-17.46-27.53-39-27.53s-39,12.33-39,27.53a20,20,0,0,0,1.13,6.47Z" transform="translate(-871.72 -507.49)"/><path class="cls-3" d="M927.39,543a13.07,13.07,0,0,0,.37-3,12.8,12.8,0,1,0-25.6,0,12.55,12.55,0,0,0,.37,3Z" transform="translate(-871.72 -507.49)"/><rect class="cls-4" x="0.5" y="35.5" width="87" height="30"/></svg>