<svg id="Слой_1" data-name="Слой 1" xmlns="http://www.w3.org/2000/svg" xmlns:xlink="http://www.w3.org/1999/xlink" viewBox="0 0 89 72"><defs><style>.cls-1{fill:#e2e6ed;stroke:#000;opacity:0;}.cls-1,.cls-3{stroke-miterlimit:10;}.cls-2{fill:url(#Безымянный_градиент_8);}.cls-3{fill:#f15a24;stroke:#ed1c24;stroke-width:0.25px;}.cls-4{fill:url(#Безымянный_градиент_3);}</style><radialGradient id="Безымянный_градиент_8" cx="801.51" cy="609.97" r="30.68" gradientTransform="translate(-4.91 -138.22) scale(1.24 1.15)" gradientUnits="userSpaceOnUse"><stop offset="0" stop-color="#f15a24" stop-opacity="0.56"/><stop offset="0.29" stop-color="#f15d28" stop-opacity="0.55"/><stop offset="0.46" stop-color="#f06534" stop-opacity="0.52"/><stop offset="0.59" stop-color="#ee7449" stop-opacity="0.46"/><stop offset="0.71" stop-color="#ec8866" stop-opacity="0.38"/><stop offset="0.82" stop-color="#e9a38d" stop-opacity="0.27"/><stop offset="0.92" stop-color="#e6c3bb" stop-opacity="0.14"/><stop offset="1" stop-color="#e2e6ed" stop-opacity="0"/></radialGradient><radialGradient id="Безымянный_градиент_3" cx="801.69" cy="-172.01" r="30.68" gradientTransform="matrix(1.24, 0, 0, -1.15, -4.91, 366.22)" gradientUnits="userSpaceOnUse"><stop offset="0"/><stop offset="0.86" stop-color="#777" stop-opacity="0.53"/><stop offset="1" stop-color="#fff" stop-opacity="0"/></radialGradient></defs><rect class="cls-1" x="0.5" y="0.5" width="88" height="71"/><path class="cls-2" d="M1026.89,564.63a20,20,0,0,0,1.13-6.47c0-15.21-17.46-27.53-39-27.53S950,543,950,558.16a20,20,0,0,0,1.13,6.47Z" transform="translate(-945.02 -528.63)"/><path class="cls-3" d="M1001.19,564.63a13.07,13.07,0,0,0,.37-3,12.8,12.8,0,1,0-25.6,0,12.55,12.55,0,0,0,.37,3Z" transform="translate(-945.02 -528.63)"/><path class="cls-4" d="M1027.11,564.63a20,20,0,0,1,1.13,6.47c0,15.21-17.46,27.53-39,27.53s-39-12.32-39-27.53a20,20,0,0,1,1.13-6.47Z" transform="translate(-945.02 -528.63)"/></svg>